<mxfile host="Electron" modified="2024-07-18T07:36:26.234Z" agent="Mozilla/5.0 (Macintosh; Intel Mac OS X 10_15_7) AppleWebKit/537.36 (KHTML, like Gecko) draw.io/24.6.4 Chrome/124.0.6367.207 Electron/30.0.6 Safari/537.36" etag="7RAiZjNUy7KAxfviLvbD" version="24.6.4" type="device">
  <diagram name="Seite-1" id="O8PYmoDCVx5n6ubV0P5L">
    <mxGraphModel dx="3713" dy="2747" grid="1" gridSize="10" guides="1" tooltips="1" connect="1" arrows="1" fold="1" page="1" pageScale="1" pageWidth="827" pageHeight="1169" math="0" shadow="0">
      <root>
        <mxCell id="0" />
        <mxCell id="1" parent="0" />
        <mxCell id="FGGIich8s1z18o31se-w-3" value="" style="group;fillColor=default;" vertex="1" connectable="0" parent="1">
          <mxGeometry x="450" y="171.96" width="406" height="506.07000000000005" as="geometry" />
        </mxCell>
        <mxCell id="FGGIich8s1z18o31se-w-1" value="" style="image;sketch=0;aspect=fixed;html=1;points=[];align=center;fontSize=12;image=img/lib/mscae/Docker.svg;" vertex="1" parent="FGGIich8s1z18o31se-w-3">
          <mxGeometry x="180" y="1.4600000000000009" width="66.7" height="54.69" as="geometry" />
        </mxCell>
        <mxCell id="FGGIich8s1z18o31se-w-2" value="" style="swimlane;startSize=0;" vertex="1" parent="FGGIich8s1z18o31se-w-3">
          <mxGeometry y="76.15" width="400" height="429.92" as="geometry" />
        </mxCell>
        <mxCell id="FGGIich8s1z18o31se-w-5" value="" style="shape=image;verticalLabelPosition=bottom;labelBackgroundColor=default;verticalAlign=top;aspect=fixed;imageAspect=0;image=https://www.inovex.de/wp-content/uploads/Bildschirm%C2%ADfoto-2023-05-11-um-12.55.59.png;clipPath=inset(39.16% 18.33% 29.92% 21.67%);" vertex="1" parent="FGGIich8s1z18o31se-w-2">
          <mxGeometry x="30" y="51.89" width="112.47" height="48.11" as="geometry" />
        </mxCell>
        <mxCell id="FGGIich8s1z18o31se-w-6" value="" style="image;aspect=fixed;html=1;points=[];align=center;fontSize=12;image=img/lib/azure2/databases/Azure_Database_PostgreSQL_Server.svg;" vertex="1" parent="FGGIich8s1z18o31se-w-2">
          <mxGeometry x="270" y="43.94999999999999" width="48" height="64" as="geometry" />
        </mxCell>
        <mxCell id="FGGIich8s1z18o31se-w-12" value="" style="endArrow=classic;html=1;rounded=0;strokeWidth=4;" edge="1" parent="FGGIich8s1z18o31se-w-2">
          <mxGeometry width="50" height="50" relative="1" as="geometry">
            <mxPoint x="142.47000000000003" y="75.88999999999999" as="sourcePoint" />
            <mxPoint x="240" y="75.88999999999999" as="targetPoint" />
          </mxGeometry>
        </mxCell>
        <mxCell id="FGGIich8s1z18o31se-w-14" value="" style="endArrow=none;dashed=1;html=1;dashPattern=1 3;strokeWidth=3;rounded=0;entryX=0;entryY=0;entryDx=0;entryDy=0;" edge="1" parent="FGGIich8s1z18o31se-w-2" target="FGGIich8s1z18o31se-w-13">
          <mxGeometry width="50" height="50" relative="1" as="geometry">
            <mxPoint x="325" y="75.88999999999999" as="sourcePoint" />
            <mxPoint x="385" y="-4.110000000000014" as="targetPoint" />
          </mxGeometry>
        </mxCell>
        <mxCell id="FGGIich8s1z18o31se-w-10" value="" style="whiteSpace=wrap;html=1;aspect=fixed;" vertex="1" parent="1">
          <mxGeometry x="70" y="348" width="272" height="272" as="geometry" />
        </mxCell>
        <mxCell id="FGGIich8s1z18o31se-w-7" value="" style="verticalLabelPosition=bottom;sketch=0;aspect=fixed;html=1;verticalAlign=top;strokeColor=none;align=center;outlineConnect=0;shape=mxgraph.citrix.laptop_2;" vertex="1" parent="1">
          <mxGeometry x="148" y="240" width="116" height="86.5" as="geometry" />
        </mxCell>
        <mxCell id="FGGIich8s1z18o31se-w-8" value="" style="shape=image;verticalLabelPosition=bottom;labelBackgroundColor=default;verticalAlign=top;aspect=fixed;imageAspect=0;image=https://www.inovex.de/wp-content/uploads/Bildschirm%C2%ADfoto-2023-05-11-um-12.55.59.png;clipPath=inset(39.16% 18.33% 29.92% 21.67%);imageBorder=default;dashed=1;strokeWidth=5;perimeterSpacing=5;" vertex="1" parent="1">
          <mxGeometry x="93.52999999999997" y="386.39" width="112.47" height="48.11" as="geometry" />
        </mxCell>
        <mxCell id="FGGIich8s1z18o31se-w-9" value="" style="sketch=0;outlineConnect=0;fontColor=#232F3E;gradientColor=none;fillColor=#FF9999;strokeColor=none;dashed=0;verticalLabelPosition=bottom;verticalAlign=top;align=center;html=1;fontSize=12;fontStyle=0;aspect=fixed;pointerEvents=1;shape=mxgraph.aws4.source_code;" vertex="1" parent="1">
          <mxGeometry x="260" y="370" width="57" height="78" as="geometry" />
        </mxCell>
        <mxCell id="FGGIich8s1z18o31se-w-11" value="" style="endArrow=classic;html=1;rounded=0;entryX=0;entryY=0.75;entryDx=0;entryDy=0;strokeWidth=4;" edge="1" parent="1" target="FGGIich8s1z18o31se-w-5">
          <mxGeometry width="50" height="50" relative="1" as="geometry">
            <mxPoint x="320" y="400" as="sourcePoint" />
            <mxPoint x="370" y="350" as="targetPoint" />
          </mxGeometry>
        </mxCell>
        <mxCell id="FGGIich8s1z18o31se-w-13" value="" style="shape=image;verticalLabelPosition=bottom;labelBackgroundColor=default;verticalAlign=top;aspect=fixed;imageAspect=0;image=data:image/png,iVBORw0KGgoAAAANSUhEUgAABLAAAAIACAYAAACSO5WAAAAAAXNSR0IArs4c6QAAIABJREFUeF7s3QdgHNWhtuF3tmvVi23JliXZlnvBxt10ML2EFkJCQjrk53IhnYTk0iE9kN57AgkQSAi9Y2xsintvclOzJatL22f+zKxkZOMiG5eV9U1CRKTZmTPPOTvSfHuKYVx7q4U2CUhAAhKQgAQkIAEJSEACEpCABCQgAQmkqIChACtFa0bFkoAEJCABCUhAAhKQgAQkIAEJSEACEnAEFGCpIUhAAhKQgAQkIAEJSEACEpCABCQgAQmktIACrJSuHhVOAhKQgAQkIAEJSEACEpCABCQgAQlIQAGW2oAEJCABCUhAAhKQgAQkIAEJSEACEpBASgsowErp6lHhJCABCUhAAhKQgAQkIAEJSEACEpCABBRgqQ1IQAISkIAEJCABCUhAAhKQgAQkIAEJpLSAAqyUrh4VTgISkIAEJCABCUhAAhKQgAQkIAEJSEABltqABCQgAQlIQAISkIAEJCABCUhAAhKQQEoLKMBK6epR4SQgAQlIQAISkIAEJCABCUhAAhKQgAQUYKkNSEACEpCABCQgAQlIQAISkIAEJCABCaS0gAKslK4eFU4CEpCABCQgAQlIQAISkIAEJCABCUhAAZbagAQkIAEJSEACEpCABCQgAQlIQAISkEBKCyjASunqUeEkIAEJSEACEpCABCQgAQlIQAISkIAEFGCpDUhAAhKQgAQkIAEJSEACEpCABCQgAQmktIACrJSuHhVOAhKQgAQkIAEJSEACEpCABCQgAQlIQAGW2oAEJCABCUhAAhKQgAQkIAEJSEACEpBASgsowErp6lHhJCABCUhAAhKQgAQkIAEJSEACEpCABBRgqQ1IQAISkIAEJCABCUhAAhKQgAQkIAEJpLSAAqyUrh4VTgISkIAEJCABCUhAAhKQgAQkIAEJSEABltqABCQgAQlIQAISkIAEJCABCUhAAhKQQEoLKMBK6epR4SQgAQlIQAISkIAEJCABCUhAAhKQgAQUYKkNSEACEpCABCQgAQlIQAISkIAEJCABCaS0gAKslK4eFU4CEpCABCQgAQlIQAISkIAEJCABCUhAAZbagAQkIAEJSEACEpCABCQgAQlIQAISkEBKCyjASunqUeEkIAEJSEACEpCABCQgAQlIQAISkIAEFGCpDUhAAhKQgAQkIAEJSEACEpCABCQgAQmktIACrJSuHhVOAhKQgAQkIAEJSEACEpCABCQgAQlIQAGW2oAEJCABCUhAAhKQgAQkIAEJSEACEpBASgsowErp6lHhJCABCUhAAhKQgAQkIAEJSEACEpCABBRgqQ1IQAISkIAEJCABCUhAAhKQgAQkIAEJpLSAAqyUrh4VTgISkIAEJCABCUhAAhKQgAQkIAEJSEABltqABCQgAQlIQAISkIAEJCABCUhAAhKQQEoLKMBK6epR4SQgAQlIQAISkIAEJCABCUhAAhKQgAQUYKkNSEACEpCABCQgAQlIQAISkIAEJCABCaS0gAKslK4eFU4CEpCABCQgAQlIQAISkIAEJCABCUhAAZbagAQkIAEJSEACEpCABCQgAQlIQAISkEBKCyjASunqUeEkIAEJSEACEpCABCQgAQlIQAISkIAEFGCpDUhAAhKQgAQkIAEJSEACEpCABCQgAQmktIACrJSuHhVOAhKQgAQkIAEJSEACEpCABCQgAQlIQAGW2oAEJCABCUhAAhKQgAQkIAEJSEACEpBASgsowErp6lHhJCABCUhAAhKQgAQkIAEJSEACEpCABBRgqQ1IQAISkIAEJCABCUhAAhKQgAQkIAEJpLSAAqyUrh4VTgISkIAEJCABCUhAAhKQgAQkIAEJSEABltqABCQgAQlIQAISkIAEJCABCUhAAhKQQEoLKMBK6epR4SQgAQlIQAISkIAEJCABCUhAAhKQgAQUYKkNSEACEpCABCQgAQlIQAISkIAEJCABCaS0gAKslK4eFU4CEpCABCQgAQlIQAISkIAEJCABCUhAAZbagAQkIAEJSEACEpCABCQgAQlIQAISkEBKCyjASunqUeEkIAEJSEACEpCABCQgAQlIQAISkIAEFGCpDUhAAhKQgAQkIAEJSEACEpCABCQgAQmktIACrJSuHhVOAhKQgAQkIAEJSEACEpCABCQgAQlIQAGW2oAEJCABCUhAAhKQgAQkIAEJSEACEpBASgsowErp6lHhJCABCUhAAhKQgAQkIAEJSEACEpCABBRgqQ1IQAISkIAEJCABCUhAAhKQgAQkIAEJpLSAAqyUrh4VTgISkIAEJCABCUhAAhKQgAQkIAEJSEABltqABCQgAQlIQAISkIAEJCABCUhAAhKQQEoLKMBK6epR4SQgAQlIQAISkIAEJCABCUhAAhKQgAQUYKkNSEACEpCABCQgAQlIQAISkIAEJCABCaS0gAKslK4eFU4CEpCABCQgAQlIQAISkIAEJCABCUhAAZbagAQkIAEJSEACEpCABCQgAQlIQAISkEBKCyjASunqUeEkIAEJSEACEpCABCQgAQlIQAISkIAEFGCpDUhAAhKQgAQkIAEJSEACEpCABCQgAQmktIACrJSuHhVOAhKQgAQkIAEJSEACEpCABCQgAQlIQAGW2oAEJCABCUhAAhKQgAQkIAEJSEACEpBASgukfIDl9STwexO4XGZKQ6pwh0/ANF2Eoh4SCdfhO6iOJAEJSEACEpCABCQgAQlIQAISkECvFUjZAMvjNhk8sI7BgytJ84cwDAVYvbaVHWTBTctFRzjI1i2DqawpwLSMgzyCdpeABCQgAQlIQAISkIAEJCABCUjgeBJI2QDrhLEVjBqxEn8govDqeGpxPbwWy3IRDgdYs3oCy9aU9PBV2k0CEpCABCQgAQlIQAISkIAEJCCB41EgJQOsgf2amT37eQzDOh7NdU0HIWBZBi++eA7VddkH8Srt2vsFDPD5sHw+MNQDr/fX58FdgWFZuOJxzEgYLP0eODg97b2bgGFg2PcRrw9T95Kj0zjMBEQiGPH40TmfziIBCUhAAhKQQJ8RSMkA6/RZSyktW9tnKkEXun+Bio2jmfvWOOwwS9txLmA/YAaDMGgwRnaOHjiP8+o+0OW5Qh2wbStWSzOYGkZ+IC/9vJuAYWBlZkHxYMjMAP3+OKrNw22HV3XbMbdvh2jkqJ5bJ5OABCQgAQlI4PgVSMkA6+orn8Lvaz9+1XVlByXQ3pHBCy+cSXN74KBep517oUBmFtaw4U7vK20SsAVciQTm1s0Y9XXqjaUm0WMBKzcPhpaD293j12jHwyxgWRg766Fym0Ksw0yrw0lAAhKQgAT6qkBKBlgf/8jDfbU+dN17EYhG/bz55kw2V/XDNNUL67htJG53MrzKyT1uL1EXdogC7W2waSNGR8chHkAv61MC9vDj8hGQkdmnLjsVL9ZIJGDLJrCDLA0HTsUqUpkkIAEJSEACvUpAAdZeqsseqqb5t1KnHcdiPpYsmkrFtgGEo57UKZhKcngFgulYw0eAXz3tDi/scXA0ezhS1TaMHdv1EHwcVOeRvgR7+LE1ZFhyDj1tx1zA6T25dQvEY8e8LCqABCQgAQlIQAK9W0AB1h71lwgZnJh3Aeua3yHk2967a/c4Kb0dYC1dPMUJsEIR73FyVbqM9wjk5GGVDdHwQTWN9wqYpjOE0KiqxIpFJSSB/QoY+QVYJWVYXv2+SImm0tGOa/MmrLbWlCiOCiEBCUhAAhKQQO8VUIC1R93Fmj3cdeaj/HnJfWxJvNV7a3Y/Jc+JD6Moq5RVLa9heBIpf40KsFK+ig5PAXPzscrKnNXCtElgNwF7AvfmJifAokPzI6p17F9AAVZqtRAjHMKorcGq26EelKlVNSqNBCQgAQlIoNcJpHCAZeDCnnzVwmUkJ2GNW8lP3u3vuw0vFhYJK4aF6aww5DY8JLCXbbac/7pdPkwrnvx55+vsryb7Dm3sAOu+s5/gD4vuYnN8wW7ns/+PfT779Xbp7HLsOp+zZ7LM9vmSZcIpp11+00rstq9huTE6l/S2y21fW1c5321F9jV5nTM5r7di9ikwnPN0u1bnzPZ/3J3Xllx23t7HPrZ93KST5XxvWsZVnFp+IQ+8dQMxX5ut2Fl6N55drrbbu05uvJiWicvlds4UN6NgJI9nn2PP60tqdB3PJG6X3QZ590xOedyGm4SVwHTqzXDOb19dwop3fg8UYPW6+8qhFTjFAyz7nRR0uWgzTUz7jajt6AnYAVZLC0b1NmhrO3rn1Zl6pYACrNSqNjvAsurqMGqrFWClVtWoNBKQgAQkIIFeJ5CyAZbHTKc8bQZ+r5+8tEIisTBz6/5BhjeX4VnTGRgciv0YubVtFetbFxAPw4yii1nR+Cptxg788WxmFl7Kirp51BsbMBIeytNnEIq1URVfjmXsPcTaLcCKLSDdlcfwzJkUBoc4wU11xwbWtS7AiPsYk3uSc76wu8Gp+DQrh/L06WxrW02jVUl//xDG5JxM0JNFS3Qn61reoj6+2QlmSplGQWYhbpeH/EARc6v+SZu71gmo7M2NnyL/SMozJ5PmzSQUb2VV4xzqYpsJGnmMyzmdJfUvEvE0OvtnGoUM9IxmW3QF7dSR4y5ibM6pZPn6E0m0UdGyhK2hVZT7p3FKyeWU9x/P82sfZHXzPGpja8lwF1CeOY2i4DAnPKruWMfG1ncI00wi4uL0oo9Q117FgMwSAu4M1jYtoC6ylTHZp1CQNojmaD0rm+bQnKh2gq008hllu2UMJZYIU9G6hM0dSzCNKBmJQsYXnE443kFhRilr6xaxMfoGpWkTGJ49FZ8rjfpQFWta5tNq1RKLeTWEsNfdWg6hwCkeYE2wInxm4jC+tWQTNcbBD00yLIt+fg/hWJwW69gGYC4g223P9WfQFLcD5GNbngO2ll0BViVoGNIBufr6Dj0OsCyLTLdBwO2iIba/j7ZSQ9T+KC/X4yJsmrQlLOj8ECw1SrfvUijASvUaUvkkIAEJSEACvUcgZQOsdPrx8ZF3k5ven40Ny9jSuIY5VQ9zafnNDC84gQ0Ni50gZVS/Kfxz1U9Z2/QWN03+Mc9v/jMr215hfMbZfHbKPTy36iGerH2AAv9grhj2ZRbVvsyipicPHGAtvItt0WWcNfBaRuZPYWPjUjwuLyPyp/BWzTMsrHqZ66d8i5c3PMrijifszIZh6dM4t+TTPF3xa9oiLXzqhDvZGdpBTdsGBmUOJ2HGeWzjAzSYlVxc8HlOHnER6+oWUdu2mTnbHqXNs935e9TunVUenMZ5Qz5Nc6SO7W1bKM4aRcCTxqPrf4jH5eNTE+7mF+98mXo2OB2bStMmcUr/D/FK7V/Y0ryK6yf8kOxAPst3zCM/rYi8QBGPr/8xeZ6BnFp2BWX5I3ll4z9ZtvMVtoe2cHn5zZTnTWTF9nl43H6G5Ixlce0rTmgYaY/w4/Pns3nnSra1rCPDl0Nx9nAq6lfgdntojTUwut9UVmxfwAs1vyUWi3HZkC8yJHcMa+vfIcOX6+z/xLpfsqbjdcq8k/nSSb9gfd0SKls3sLRqDi1mPZ878btUNCynPlTN8PxJVDZt5F9b7yduGQqwes895dBLmuIB1hkBi59fcgoX/fN1NiYOPvDxxiLcOnEoCzdX81S73f/w2G3pBlxVlIXf6+GvW+ppw460UnhTgJXClZN6RetpgGWYCc7tn8H47HR+v3knO+1QKIW3fDd8vCSf5c3tvFDXBu7esaiJAqwUblQqmgQkIAEJSKCXCaR0gPXR4XdQ1b6eZzf/lrDZSsKEKbnn0xivZnP7MtxmgGvGfoOOUAdPVD3AlaVfpdnczpMVv+SK4V+kOG0EhTkl/N/rlzMsdxynF17Dc5W/pzKyfJ8fXO7qgbXwLraEllIenEqb2cC2jlW4LLsn0kcZ1m8sf152DxeWf4ai9KH8fOWN+DxeTu53NYMzR/LYhh9x0dDrGZhRzi8Xf5nWRB39fWVce8L/8XblS8xr/AcXFdzEiEEn8LtF36AhXonhMXb9LRo0crmw+EZcLhdPbPwprYl6stwDOL3oGjY0LaTNauDTE+/ZZ4C1ecc6fnXZAv628Hu8VvOQEyDZPbkq29bSkKhkZu5VnDb8Er4377OY/hCjMk7mUyfezi/e+joV7e/gdfmZMeADTB94IX9a9X/sbKvigfPm8sKGv/Hs5t/gNzL4ykm/pSPUxo8X30g00cHs0msZnjOFhyvuc3pY3Tjj+/z4jZvZFFpCwJXBRUM+R//0En6x4iaGpU/huinf4u8rvseynS+TIMbMvKu4cuIN3Pfqp6iPVzAobRT9/KUsa3kJ0+VWgNXLbizdi2sZ9qBQe+TIAR4OuwVYQSvBCdlBPC4XFW0hamIWpmGQbcYpTPPREIkxNCvoHHdFczutxrsPchmWyfAMPzk+r7Pf0taQ86CXZlmUBDxs6wiR7/EwJDudlmic9e0ROgzXrkApxzIZk53mvP82toWpjZnY19AVYH3ksTl40tIIuA3WtoTYYb4bZrlNk7KAh+J0P5G4xZLmNsIuD2mYDPVY/Pr8Gby0poLHq1pY0xYm5EoOj97fFjQTTMgJ4ne7qOqIsDEUx3K5SLdMRmb4WdzUjuX1OX2o8jDJ8bjYGjOJGS4ClsWwNA/90vzUhSKsDcVIGC7G+w0+P3EoQZ+XXyyt4J3mMO1GcgB0idfF4PQAHfEEa1rDtBnJcCvTsOjvhkjCYlBmmnO+xY3tWC43QwNu+gX8VLaH2BaziHf2DPFYJiV+N8XpAdqjcRa2JOsCy2KAx0UQE7fLRXFGGpXtYTZEEuS5DYan+53r3dzawVZnVLjVOYRQPbAO1F6O559bLsP5sMhpD/vZ9gywfFgM8bspCvppisRZ3hrGcrspdZt8dkwJJ/TP4ceLK3i7oY0GXNgTFJT4XAwM+tnREWVTe5jxORmsbXv3/bDf89s9HK0EY3PScRkGm9vCVEYTzvu2wEpQGPSzoj0KLhd2z8yBHoOAARvttg6kYzEi3UeWz0N1e5iKcMLpLTk1w8PXpo5kaV0T/9xQw8pQjLjLg8+ynPdg/6Cf5kicVW1hYva9xbLIc0Gu23AmBCjOCNARi7O4OUzQ42J40EeG18Oa1g7qzXdDbD8mQwJeBtj32nCMFW0Rx8uwTIq9bhKJBFk+L0XpftY2tlNjQpHHYGhGcgXZVU3tNBr23SS5KcA6nt+VujYJSEACEpDA0RVI6QDr8tIvs7LpNRY2Po39DGWZ4IvkMr7/yeSk9SPDm8PY/jPZXL+GBzfdwdTcD3DCoJP5+9If8qnJt/OfxX/kulPv4kdvfJ7+GYWMyz+FJ7f9jFZr36sLdh9CWBGZT9DsR3nOiRQEB5Htz6EkewyReIg/rbydfG8J/zP9+9zz6kdxBxNcXHwT29rXMLfycW4/7e80tO5kZd3c5LxVlotpg89ja+NaHtx8B+fm/T9ysnP56+o78Nh/uXbbcj3FzrFWNM5hYcNTGG57Ti+DALlYxCnwl+63B9bmxlV87oQfUpI3nOU75rK+finrGxfSxg5cXpiafhWnlV/CD9+6joS3g3MHXs+Y/Jl8f9Gn8PiT84XlMYRPTLiLB5d+h+qO1Xxn9ov8dem9rOx4kUTU4ivT/sjW+goerbwbKwGT8y/kxIJzeXzLDxkVOIVLJ3yWp1f/qbPsOMHemKJp3PTMaYzKn8aHxn2JPy7/JjsSG53z5USH8YWTf0x9RzWr695kw86lbGpdCv4o8UTnKoSVhYTiAZtin5vzcNPDzT6Mvfueh3P6xux2HMsZPmo/DDjPTvZruj1AdR3H/unBnL+HxTwudjN89iMk9oRm+3747AywBv432PjuaROcECUUjxMyLX66cD2vNoU5JQBfO3UimxqbGZ6fTYbPy6bWDv73hUXUe/wM8hjcMKaYk4v7OUP1BmSm89fVW/jBiq2UBrzcPnU4b26p4crx5cQScTL9fp7fVMOv11SxPQEj3RZ3nzqBgoCHcDxBayzBz5dsZK5zbouHrjqLp9duoSQ3k3Svh/pIjC+/tIS1CYNsF1xdWsBVo0qJx2PkpgVY3tDCffPXYGdc/zN6ENdOHkVNcxvrGlq55bUlVLDvCevtdjXca3DLtBGML8imMRTB43Hz4KqtPLyljjKPwR8vmsH0vzxHPCPbaZNn56VxQWk//m/JZqIY3FheyCUjB9MWjpKV5ucfqzbzy/U13DJiAJ+YOsYJCNfVNfO/ryxmQxSuLs7huol2b9EEAa+HlXXN3PXmWipNgxMy/dw4ppgsv4+cND/909N4vXIHS6rruWrcUDK9HiKmya2vLmVBR4Kgy+KKgblcO34ILnuolt/PvOp67nxzLS0YfKK8kHOL8xmQke6U/eEVFTxT18rXJw1lSFY6MdN0eojdM3eFU/emMweWAqzj4oZwqBdhGBh+P1YiAfH4Pu8l3QOsoAEfLs7lmnFDCEWjZKcFeGFTDd9ZvoXryvK5bupYsgM+1tY3ce/c5cxpT3BVYSbXTx6BmUg4wfmDS9bxhZNO4CP/nsfy2AF6X1oWUzK8fHPGGPqleQnFEkQt+PmyjbxY08L5OV4+O20Mlzy5gLg/iJFIcNPogQzyuvnaiiqyPQa3jCtlxqB82qNRMvwBfvr2Kp7d3so3xw7iw5NG0hSOsnJ7A9e9vJi4N8DnRhRxxcjBROJxgj4fc6vquOOt9bQbBucPyORTY8rwul1k+T3kB9P42/KNTrB21pAisv0+NrW084VXl1FtubF7eV07dAAXDx/kBFU5aQEeX7uVH6+sdN7fnx87mNF5mQwvyCYSifOT+cup+29P7C+dOJyg24XP7XLum7fNXcGySPIXqQKsQ23wep0EJCABCUhAAnsKpHSAdVnpF1nR9BqLm551ekxZES9fmPIbZ6LvFZVv0hpuYXzxNJpC9fyt4jaK/WOdYXd2YDMi/wT+tuo+PjTyq1Q2VxAMBMEd56mtv8By2xOK733r3gOrPrGFDw7/Etn+AtbWLKE93EJRThlZGdn8ZdUdznxaX53+BxZXzmNV01yuGvVFHlv/Yypb13HXaf+kaucm1mxfsutE9hDE6uYNrEi8wPn5N5CZlcVD6+7B49/9D+I8z2AuHPQ/LGl4kWXNLzrhXfet2D+eT47ffQhhWdAeQng1L9f8mcrwStyxdEZnnMKogimMLJzoTO7+5+V3Ux1bydSMD+4KsOKeDi4puZni4Ch+tupzuL3JsmSaRXx24rd5aMkPqAqt5NuzX+BPS+5kbeg14naANfX3bKrbwL+qv+UEWCfmnc+kgnP51+b7mZBxDrNHf5CXVv1zV7FdhgvDcPGfzT9lVMFUrhr3Bf6w/JvUJzYl97FcZEYHMqnf2QwvmED5gAksqnyZhzd/m7jZ2QOreiAd7ixwH7jXyhF/q+8KuPaemLmcDMza1VHAUXUCMPsHdiDW9ezVFXol9zU6wzP7gT/RGYgl9+1+nuRrzM7j2A//ydgxdQM0y+OBYJpTbiMcxrKDrD03J8Aq5d4JpXxg7FA+/vhr1MUS3Dx5hNO753/fXM9p6W7+ctVZ/PLtVfxiyQZK0nz84fLTeHDxOu5cXcM1Qwr47Jgy7py3nKU7WzivfzZ3njeTTz61gOpwjF+fNZGC9ABff/oN3mkJc2ZhLjfNGMv9izfy8OYd3HtCKWcOG8Rn/jPPCc5uOnEELsvk/5ZXMtFr8p+PncefF6/lxwvXkuvx8NMLZ/Li2i3csqKKUwoy+fas0fxjxSb+tamGPLeLX100i8V1LXxlzlLsXmUPXXoqz69cx+8q6mi0XMS9/n021XQzzg9mjWZCXibXP/0GzSZcOaSIi8eUcfvb6wm3tjHnE+eT+f0HiWXmOiHQFYUZfGRUMZ98bSWFboP/XHkaP1iwgscraphdlMddZ07hgodeJmTG+dqUkaT5vHz7zVVsisIYv4tHrjqDPyxex59Wb2V4eoD7zprMwm213LRoMzMKMvnTuVN4wX6YXbqBCVlp/PryM1m1o4FvvLSQlliM78+eyuraem5cvJWJmT5+fvoJPLpmCw+vr2RUup/fX346v160lm8v38aXThjCF6eM4HuvLeahjdVEExYfGVnCheUDuWPeMja2hLhlUjmTSwo57ZHXIBpXgHXEb2y94ARer3MvwQ6xwpFkkLXH1j3AKnIlePzCGfxjzSb+tmYbU7LT+fklJ3PDU28wd0cz148rY2ZRPnfOX8najhj93G6e/uAp/GftFn61bDPFAQ93nHYis0cMZvrvnuKt8P4/JckzY/zh7BNxm3FufHERHreb68aWMa4ojy8tWMeMgItbZ09l7B+eIZqWgRGPc+/UYU7PzY+9sYHzCtK459QTuHPOUt7Y3sg15UXcMGM8I3/1b0ZkZ3DXSeNYULuTv6zeQiNeLhyQxffOmcq35y7lqS07mJKbwf0XzOS3b6/mu+tqubqsgPvPPJEfvr6Ef2ys4aqhhXzzrKk8tWYL312w0umV9qPzZ/LdVxfyh+0hzs5P47aZY/jZorW8UrmTU3LT+c6Fs/j6K4t5bNtOvjVjFFeOKuXrz87npe1N+LH4+rTR+D0evvfOGlrjcX5/zlQ2toa44Y21WG6PAqxe8LZSESUgAQlIQAK9RaBXBVhlnhncPOt+7n75Y9Q5E7O7uXrErRhxLw9uvo1+gcHMLvw0+cFCZ36mlxv+yEj/qVw96WZWVy9iacOLLG956T2BUPfK2hVgvXMX6RlpnFf6aR5c8S0q46uc1famZ1/GCQNP5s+rbqfD1cSU4Ae4eOynnbm2hg0YzV9X30nCiHPL9D9T1bCZhzbfgWXYwYIBER8JM4YraHJB3o17BFjJVRTt1fwy3P25ovTLVLav4aXqPzmBm73aX6l7Cu1mk1P+z0y8jweXf5dN0QVOz7SRmbM4feA1PLXl52xtWYPb9GP5wk5PisxEIZ+cdCdLauayoPnvTA5ezukjPsAP3rR7YLUzI/dKLhr5Ge6YexkJb8gGcqGWAAAgAElEQVTpkzQsOJ3Lh9/E7xffTl24oucB1tb7GcQEPjz5Jr720sUQjCTXSIx6SEQM3OlhyvzvDbAS7R5nhUO7x1UsbDG14GI+duJXufXFS2h3tztDCDdVFdFhpWMPIzn0zelLlRzSZoei7330SUZB3U7RtVpk1672cLJdm90jwNn//ZXJOd77OUS360iGZcn/6R58vds7rCtYe/fqkz/bXcP+Xtd33v3Je/fpTmi77bUXmmFgedzOkBnnUuMJXKGQ08NhV8qXm48xuIQfTBnGmSNLuPpf89hquoh1tBOzV7HKyuWSHB93nj2VKx+fy0bL4zy8/mLmcIoy0rj0+SUY0QgeK4E7PRPD7cYVamfZx8/j3vkrmVvb5ARYb2yqdsKuCAbZhsXtJ5SRH/DytbfW8dXxJUwe1J9PPPu20xsh3tFGIhLGlZnLqekufnvZaU4vjDc77HKbfGdiKTOLCzj/X/O5eUwJ4wbk8qX5a6jpnCPr7CDcO3sqn37uHda2hnjikpk8sXg1v6oNc6BptE5Ic/GzMydy96tLeK49GVH2J8GpGR6Wd0TJ9riZ88kL9xlgFbvgyavP5LbXl/HPygbi8QSxlmYMf4DMjEy+Oa6YdL+Xb7yzEXspiB+MHcjMoYM559E5tPkCTq+pz5Xm8v3zZlD6s38xrF8O35g4hO8tqWBOYxjiMd64fCavV9ZzyzsbnQml7508lLHZQa54cSk3Du3PmeWDuPmlxdTbk95bJjeW5HLxpJGc//Cr/L/JIzm5IJMbFqxnWyTuDKH636EFnDGkiFteX8GGqIUZaicS6oC0DCes2NUD63293w797nGsXun0+tx1r+kqRfKG4bwjDXvNV5yefsnt3ZtJ8l6W/LnTg7Tz/3e/zzn3w85Xdbsr7HaoPb+/l1Pth2f3m1vXfWLX/WKv9+J9HM6uezsQtz3sYD8Wh3A4GWh1XX1+AVZJGZbXyyBiPHnZyfx6WQV/rdhONG4Sb2nC9PkgEOT6EUWcVpTHV97a4Azzu3VYPldPGsm5D79Gjd1lGfho/yB/+eCZBwyw7Ku8uCDIt0+fyJWPzWGVmRzaXOI2OTXLy+vNUc7MDXLr2dP2GWBdUpDG7adO5CuvLmFeU4h4NEK0tQVXehaFGUG+PWUoc2oa+O2G7c799BeTy/AG0/jMy8vAHwAzwTdHFvLRE0cx5ndPcdWowXxs+CC+vGAdq0NxjOYG1l13Cbe9upiHatswIiEevWA6yzdu4f7KVn544hDnQ6Kvz19Nh71KcCLh3GMzMzO55qn53HvSODyRMLetqnFCdXvo4H0TS4kaLu5dXOEMqY437sSeTszKzHaOpR5Yx+rOofNKQAISkIAEjj+BXhVg5ZsjuOWU3/DYqp9R0bqQ0vTxXDzyOtbULuYvFd8g6Mng7KLPcO7Ij/GHhXexpOUpYq0e7r/gBbY1rnd6ZNVZG/abE3TvgWX44lxWfjNvVD5BRdtCctyDuHz0TTSEavjzytsJuxvxhHL43jlPU928hTlbH2V+wz+dJ4TxwbO5dvKt/GPl/VSFVtHfV8rsIR/l5Q2PsKTjWc7P270HVjDen/PKPs2bVc9Qk1jF9PzLmFl8ES9t+Rs1ofUM8A7nguGf5Il1v2B98yI+NeEeZ2XGZ7b8Br87yBmDPsyA9FIeXHsPVszHl076CQ8u+wFbQ0vI9xVzzpBP8Pqmf7Gk/WmGu07lI1O+xF+XfcvprWVEA9w87UdU7FzFnJq/43enc/rgq7ESJo9s+g7t7S09DrD+ve1+WlvbueWk37O2/m1er34Yr5HGGcVXE46E+ev62ynP3D3AsgO4sws+x6SSU3l41ffpsJqY0u88phSdw73zPkbEHellc2DZq7u9+2BpP/h1daLrCrq6Hkbt4SnOz5397fQn+TX5fG7sCtLsmKwrVHs3UEt+L7mrfZzuwdp7b1bdHyH3Fdx17XM4Fsl7z9BMZ4WCbt81LSdwMsKRZNDWOYRwrBfuP3cauX4vK7bvZNXONp6oamB9KM6FmW6+fPqJXPzY67R4A7j+O7n3HaMLmVZSyEXPLKI0w8+lA/Mozw4Q9HnIDviZVTaIr7+6mNc7A6y75yzl5bZ40isR5/qRA5ldlMtX395IQTzi9GZI97hYVruTFfVtPF3dyPpwnNMCFr/4wClc/OjrrE8Y2L3sbh9dyAUjB3Pe4/O4f+Zo6ky49c11RDrntio1ovz13Gnc/sZK5tW38O9LZvU4wDozx883p47kf+YsZ3XnUJzutTotYDDn4+ftM8CKJeC2iaWcW15Mxc5mNja28URlPQsaQqS7XbsFWM1xkz+eNJymuMnNC9ZjeZIP7lO8JnM/dSEzf/cU/ow0vjBmMN9bvoV3WmO4YlGev3AyT62v4kcb6539bx0/mCn9s/ng80u4f/IQzhxRwtyKyl1Bak4wQH5mJh/81+tcN3kU4zN83LJoC1WxhBNGTEj3cMf0URSmB1hb18j6xg4e2rqDivYYtLY6AZbzMOz3H3Lgu2fb7xoCvPdf710/Tbbbd9/He9/bfn87we9ujb/r/fzua/b6/ut6LycHLHcLo3rwh8eB5pfb3yH20pt0132gB6dO3qn24fGeUKyHBzzQbnvcS+xheE5vrGjUeeVuQwitBDcOH8CHxw9ja2MLm5raeWZbPa83dDhDlPcMsO4fN5CRgwZw4RPzsexACCiKtlP9hQ8dMMCyw/hPDMnnM2PLuOSpt2lwYsNOH6fHrMHH+wXe2wNrWjllfrfTA6uf2+Jb9rDhAXmsr2tkY1MHD2/ZwbLWCAP9nt0DrESCJ88/kXnVO/n2qhpnji17u6ZfkN9cdhr9HvgHF48YzBVDivjq2xvYFI5DSyMLP3Yut722mKeaYhjRMH+ZPZENW2v4SXUrfzx5NIUZaSzaVrurFkrzsmk14fpn3+Ibs8bR1NzCDzbupMMCr2VyXn6QL88cQyIeZ8POVpbWNfN4dRPVsWTwvluA1VnGA1Xxrp/vtW3vMcz//bT/HhdEO0pAAhKQgAQkkAoCKRtgBcwcZ2JveyL1jeE3nefeeMTi/OLPMbJgCi2hRiKJNsKxCI0ddbzS+Hvnj+iRwZM4adBlPLX5V+xIrMcwPVw++KvEjDDPbP4NlitGckrp92728K5Qa5TPTPoWz278Iw3WVmb2v5Tx/U6mub0Bn89HdXMFhsvNS9V/IOZpIxGz+OzIBxiYV8YDC26gzVOTPHDUy+kDP8q4frNoD7fi9/qpaF7Ga9V/J+xqYYr/coLpQV7d/mfcPoN8yvnwmFt4ZeOjrAg/R5B8Zg24nPLciYQjHWQFc1m2Yw5zax4l5mpnZMZJnFX6UWfFv7gZJZRoo6Wjibd3PkFtRwWziz/uzBXW2FZPmj/orDT4StXfnHmw/JF8PjL267jx8cq2h1jXtoChaZM5r/zjmDHLefjqSDTz4ua/ssNcRyJk8NlxP+C5LX+iKrHEGUJ41dBbqGmuYn7r35weYOVp0ynPmMb8pkdoitVS6pnMueXX4jLdzl/vrbGdPF/xZ3YaG+nHCE4v+RDPbfstLSS9AtH+XDriBjI9eYSjHQQCQRZUPsmy1heIm95eFmAd+7d2V8jV/UG5e0+yXd/vCs46H7L2HWB169HR7YF1X4Np7L13f4Y3sAJ+nKGE9opyiQRGNIYVj2GYnUexA6zSsuRk5GaUGQMLGFmQzcXlxWxtaOLGNzdweoZnnwHWh55bxM2jizm5dACPrdtGdWsH0VCIX156OnfPW74rwPrtwrU8uL3dGXbpMxN8fmwxJ+Zl8pV3NjqvySfB9IH5jM7P4oLyYpZV7eCby7Yx2bf7KoTdA6yzH5vLvVOG4/L7ucWe48lK3mMmeBP88uypfOW1pbzT2OYEWP9ZvJpf9qAH1klZXu6dNZYvvbaMhaHkg6A9Y1Y/j0FLwmKUD17/xPkM+tHD7AxkYpgm1wzO5YMjBnLtKytojlsEE1Em5KQztl8Opw3ux/Ti/lz1+Otsju8eYDX+d2L230wtc+5JH3t5OWZngHVutpd/XT2bSb9+gpzsjL0HWBuq+dGGOqd8XQHWlc8v4Z7xxUwfMohfvr2acFdrSMSdifPn72zj5skjdwuwnMg3GqXQbTGpXzYj87K4fEQx4YTFJf9+g3A4muyBFQlDwB562bMui++u99g9jNr/MLD9vYN3HWWPQ+yrl6LzAL/HAffS4TE5fLhze0/I5gwv7hyWvJeddnttt4M7593LpSa/lfzfvfWY7Cqv2dkvq/ucf3v7zbmvuf+6enUlW+/et90jwneLu1cz+xB2AJIWSH41TWcInhGJOveUrh6nu03inkiQFo8yNivgvA9mDcznnGHF3PDUfJ5tDL0nwPrGkDw+MHEEFzw2j3ojORH6Rbl+/nPNOT0KsD5cnOMMjb30P29S1Tkxuj0PV4HXRUM0wRX5Ae44dzpjfv8MoUA6rnic+2eNYoAHrpm3HjMecyaAn5SfxaiCLM4bUsTwvCxO/fsr+P67eMRuPbBMk4fPHM/6lhDfWLx51/D664qzuO/saRT/5DEuHdXzAOtHlS38duYI3B4Pf1m2cddiDHZPV3u+v8VNHdw9a+xuAZbdNlyRMGUBNxP75zrGHx5TyjMbqpzQLO7x7hZgWdlZ+24LnUPvu3oQO79H7OHyTnN1+g8mX2uf0+wakt/5M/vnXUGW8+9mZ5fDbt8/9r+aVQIJSEACEpCABN6nQMoGWIbpJi2RT8zVQczd9u5lxjz085fhNnw0hpOfENprZ3V4kg9QXjMdP5mEjAZMl/1prEF6YgB2d4ksbz5TB5xHRiB7r2zReIS/r/wuBekDaYnXYXpCuBJ+cn3F+Iw0WqN1dMRaCXozaaPOGe7nTWTyP5N+QnXreh6u+BYu77tPC4koFPhKSHNnEk600xSvwXRHnCcRfzQPt9tFu1GH4TKw4i5nUvim2HbnvPbfX+6EnxzvQALudCJmO/WRrRje5DAJMw457oFkePOJxNtpjtbhc6URNpqdc9hhn72KX9CTTdQM0RirdiydDjAWBMw8Mr15tMbrCRtN2BlCmplDnn8QphWnMVpLxNXsDFe0z5XvLqXFrCPh7nD+Lsw2ioglYoQ89U5ZfWYGPiudkLsB04g582KlWfnk+geQsBI0RKqIedoxDAtXLECmu4BWtmO6OudCsq83lk5BoBi3y0tLrJ42cwe4TWKxzknctw0gFEn2DNHWuwQMjwcrLQ3LTGDYQ37seWvsIKv7lpsPxcV8bmwJTdE4j2ypcx5KPz+uhCtGlnDBk29ycoZvnwHWR19YxL2Thjjhzt2LKmgHLh+Ux0/Pm86t3XpgtUeiXP/KMqriFqOCPu6bOYrl2xv5wdIKrh1TRnVbB//ctpM0O9yaUMbU/tlcP3c143wGP7/kFC765+ts3KMH1qyHX+PDQwu5ZuwQ7liwmreaQnj++0B9+6QyZ0jip55fSF0kxuMXzeCtDVu4a12d87C5v6Gng10mvzxrIstrd3Lb4s3EXS4mZwX44JABPLJpBy3tHSy+7mL+3xNz+dO2BvI9bm6fUs6Efll84JmFjEzzMKukkEc2VDvzf00JunnyI+fwhafm8Z+GMLeOKWZgVpBbFqylNgGf7J/GLWdO5ePPLOCthhB5HoN7pg5nSlEepz/6OuP75/Q4wLr8+cVcVpjN/04fwzfmrWR+Q4fTU+NDQ/o51/zQ+mpn0ufuPbAChsX5eWm4fH6eq25wJrD+3ND+3HH2dEb//HHn4d8JsNrbMHrYi+PQY6q9vb/eDXy6D5XtyTm6B0D73n/PxSN613v8qJXW54VAIHkP6bqX7NEDp3uANdJjcdHwQfy7YjsVbWHK3Qme/+i5/GTuUn64qZ7rhhdy7uB+fHH+WjZHEpzgM/nrJSfzyJptPLu1jgyfh0+PKeYjE4YfMMCyf71O8Bv85ryp/G15BT9bV+O01dn9szizKIffrK9lmCvBg1efzTkPvsA7bXGGpHn51exJtLS1ceVrazgj28OQgjz+vWkHO6MxLuqXziNXn830X/2bHd6AE2CtbmjjgVXbCBsubhlawPljh/K5Fxeztj1Kkc/FT04Z56wYePlzC7l6+MAe98D6zpZGbh7an5OGDOSWeStZ3RYlw7D4yPBCqlpDvLCtnvtmjdktwOrnhkv+O0n++tYIC+paMP8bQv/y5NEMG1DAeY/PJeJP270Hll13+9h29Vx2fp7sYZwc3mpHtJ3vP5fLuYc4f8rYX+3ex109e7tCrK6v9u+Ybt9zQi879DRN56s2CUhAAhKQgAR6n0DKBlgHouz6ZPdA+3X/eY5VwtD0SQS86Xt9WTwRY/7Ox3D7351Lo2tHZ4Ltbh8JO/NOBU/ijLIPMSCjjJ+8+XkaXRV77xRwKIXtVsI9z9298M7f7buGnrz3svb32n0/ovW0b8OB9Q/2/F0LAHa3VoB1YOdU3sN+uHB7vc6k8848Nft6cOicA+sLIwdw3YzxPLep1hnic/KgfrxRUcUdKys5M9O7zwDrimcW8unyAXzshHLerG1wHmqGpvsZ3T+Xe99YuasHVl1LG4GAn1WNbYwryHbmcrrzzXW83djO10cX8YnJo3mqooaEZTKjKN+ZtPwH67cz1c8+A6ypD89heFaQ204cRlFOJovrmhmYHmB8fhb3zV3OI7WtWGacH80azezSATxRUcNPFq6nkuQcOXvbPKbJlUWZfG3WOFY0tFLdFuLE/jlUNrRwz+JNVHWE+c0po5laUsSzm2vJ9noozw4SSSS4/NlFDPYZ/PbcqWxri7CqoYVJ/XIo8Hu4+skF1OLhYyV5fGH6aN7Z3sRtb6ykLWr3BBlNef883t7eQFEwwLDsIPe8toR/7wwzPT/Y4wDLno+sOODlrhOHMXRAHkt2NJEX8DJlQC7ffX0pf93WyJcmDt0twPIbFh8fmM2nJ4/krdoG2hIm55YOYHHlDv7fnBVEu3pgtbWmcnNX2Y6kgB1cej2QSPbi3NXjZo9zdg+whnksfnHGBCK4WFLXxMicDEbkZfDZ/8zn7bDF5YNyuH3mGJY3tHH/W6tZ0h7l0yX5fGhMKWk+H7Wt7by2YSsPXHrGAQMsuxgBM8H15f257sSRzK/ZSXsszuT+uczfWsv3VlZCNMITH5iF3Rf8nR2NFKb5Gd8vh1U1dVw9dx12r8c7T5/IqoZWKtvDnDywgFAkwoeeeQd8fm4ZN5gLhhfz8pbt/N/81QxM8/HAqePxp/lZXtfM8Ox0CoN+bnr+bea3xZxJ3Hs6hPDOTQ2MT/Ny+7QRBINprNzZQllmkLKsNG57dQkv72jh3pmjdwuw8l3w9TEDmT5kIPOq6knzeLhgSKHT8/KB9dtJ7DmJ+37ax96G8zoBVffXdP1x4Pw91vlHmTOk1A60XM54fDs0dIZT2t/v+moP4bQXUun86iyqYodZCTvMSjhf9/m76Ui2aR1bAhKQgAQkIIGDEui1AdZBXeWuFMqFyx7as68JgO3V3Ix4j9Ib+1k8J1Hm9HKqDa2jxbMdl0uf6B1SvRzgRQqwjoTqUT6m89H6Afqq2D2wysrI9Lg5NdPHlP6Zzqfrq5s6eLUxzHbTYFiig5MH5PJQdTMRnz1hsclsv0lhup+/74yS44Yz8tMZnxukORzlHxU1XFxcwFuNYVpdbmcS9ztfeYd+Pi/jCrKcnl4v1LawJgoxwyDTjHNWboBJ+RlOALaiqcOZsLzONCiNdXDB4AIerGqiyW0P5oMz/SZDMnz8rrYDt9fHILfJWflBhmYFiSVMnqluZHnYcnpK2Nff30hwdUm+M3TxnxuqnV5p+xoIZ89LZT90jw16OH9gLl63iy1tEV6oa6UyYRC3oMCIc/WgXAak+dja0kF1SwdZXhePN8WIudyM9RucMyCLLL+XneE4T9U2sdHu9GgY9DcsZhekUxr08odNddQYPopcJmcXpDM8O432WILntjezMmQRxWCwK8GMoIv57SZVeLASCa7N97K+Lcr8WHKun9OCMNDr4qHGOC63i4EuizPyggzPCRJNJHiuspEVUYuQBTMzPM7Pn2+zaO2c9ynLSjAj28+0/Ax8bhdrm0M8U9fGTvszhc45sFCAdZTfvCl2uh7cS7oHWG7LZITPYHb/TPoHvLTGTf5d3cjGqOEMkcskwZl5QcZm+nl6y06WxUzGp3kIxxPOz+1lSIZ6Xbz22Q8w6VdPUBGOke/d1zQE0ByziLvcTM3wcFphjtPDelVziJfr26m3DOc2WOYx+dDgfNLcBkvrm51h1Ha48nirhReLyeluTu2fRdDjZltHlP/UNFNjupx7RYkHZvdLJ8sFv6yod3o4DfHa80hmMCjDT9N/e1s+WdvEhpjLCeHHeS1Gp/t4sSVOo92fqb2V60rzmFPXzhrD5wT4l+UFaGlt4xUz4PR4GuqFM/ulU5weoC2W4F+VO6mIu5wJ3c/M9hGLxpgXdTv3TBf2fc3kjPwgI7ODTqj0dl0Lr7dEaemcruGoTuK+t4DLnmTSDrLsYMueVN7u/dot2HJauF0xdld0u2dfPO4M7dx99d8Uex+oOBKQgAQkIIE+KtC3Aqw+Wsm9/bIVYPX2Guxh+TsnccebDIecsar2Zoc/B7vtpevfCL/LCbC+/PJC3rEX2+zaZ2+BdlfYdqir3ZkmbsMgsY/X+yyTKwoz+MvlZ+zzyh5dts5ZGW1brHMOF7tM+xo6Z/dq23OS/K4jH8q1HMpr9nEl9mqG9oOg5Xa6SPSsJvc8v319LS3vrkLYs6Norz4qsNscWLsMOt9HB7if5IRaeeeTF/DQ8o38ZPEG+gd8fG/2ZIbmZnLq317glknDuOnkSfuU/e6cJXxrZaUTyu4avraP9609lM0JVfZ2tIN+D3bN9bTHYhmH2ga6ht71cLhucrIqu6v6e+/XRzXA6un12j273C6c4e1doZY7GcR3bfbiAK5ozAm0dlsxt6fn0H4SkIAEJCABCRx2gZQMsK798CPOXEnaJGALxKJ+li6ZTIXmwDq+G8SeAdZhvtoyr8Hd00fynTdXsiK6n56Yh/m8ez2cZZEZCzPIm1zkYG9bczxBneEl7t73MMOjUdSUOIcCrJSoht5SiL0HWD0rvd1j68OF6dw4Yxy5fr/Tg2p1fRN3vrSIJQk3+fEI+b7dg47uR66PJdjp9u9aEbBnZz2+90rJAGtv5HaY6HGDx4Ph9mDZPbc6hyfaM8nbCwZYsRjOqpfdJ4k/vqtPVycBCUhAAhJIKYGUDLCuvPR50oNNKQWlwhw7gVA4g5XLJijAOnZVcHTOfIQDLHciTi4JZ5L3qD38UFvvEVCA1XvqKgVK+n4CLLv4hn2vsOKUBP1ELYsNbRHivgDmofbITAGTY1mEXhNgdUNyJoi3e5/Zww3tUKtzCKL91fl8NdG5GIkdZmn+rGPZvHRuCUhAAhLoYwIpGWDNnLyaESOX97Gq0OXuS6C+fhCbK0oVYB3vTeQIB1jHO99xfX0KsI7r6j3cF/d+A6zDXZ6+frzeGGC9p87s8NIOs+xhhu5ksOX807U4SSKBEbf/0dxZfb296/olIAEJSODICqRkgJWb1c5Zp88jPUO9sI5s9af+0WPRNLZuLqexKZOKrQMIRb2pX2iV8JAEjJxczLKh4OucA+uQjqIXHZcCCrCOy2o9Uhdl5BVglZZhefX74kgZH9RxQyGor8OorT7wYh4HdeBjtHPX6oZ2ryyPx/nHnk/LngPMMBMQt/+JJXtmHWjxkmN0CTqtBCQgAQlIoLcKpGSAZc9/NbZ8G+PGL8cfaO+ttir3+xQIhzKorR1MR1uQ1vY0NmwpJJ44hAm932c59PKjI2AE0zHLR0BAw/uOjngvOou93H1zM9RUoVUIe1G9HaOiGtk5mEOGKQw/Rv57ntZoa8Nq2Imxveb4C3S6Fs+we2P5vOC115HsXCTE7pUVsZe4tZd+1SYBCUhAAhKQwOEQSMkAy76w9LQoY0ZsIzurBZ8/qkndD0dt95JjWJZBJOKjvS2dRNyNabqors2nZmdWL7kCFfOQBOxVoUaMguycQ3q5XnQcC9gTJzfshJ31CrCO42o+XJdmeL0YI8eQCAYP1yF1nEMUMCwLV2MjZksz1G0//gKsPVzsid9dXh+W35ccbujMqZbAikQgGsP20CYBCUhAAhKQwKELpGyA5TIsCnLbGDSgAbc77iwEo63vCdjhVWNLOpurCpwgS9vxLWBkZmINH4VlD8vQJgFboHP4oKutFZqbsNrb5CKBAwrYwwjNIUOT8xRpOzYCloUR6oCWFqxwCKNux3EfYO2Ctv9otYcW2kPi7Ung7UnhLQsrEsWwe2TZ9zWFWcemXeqsEpCABCTQqwVSNsCyVV0ui5yMDvJy2vB54vtcbr5X14AKv1cB+zNK0zRobslgR2OGwqs+0k7slZ/chQOhf38Srs4/+vvItesy9xCwH+7sBz47sAqFkg99zU0QDolKAgcWsAOEkjKsnNzkCnJ2gHDgV2mPwyBg//42LNMZPue8f+NxjLZWLHsYcHKAXd/a7CDL7hXYNVeWHexF7aGF8WTvLAVZfas96GolIAEJSOB9CaR0gNV1ZW6XiddtKsB6X1Xdu15s/4kbS7gwNedV76q4w1Favx8jvx+W3w+GS70vD4dpLzuGs0x95+pepr1cvf3vHR3Q2gz2svXaJNADASstiJGX7/SCMXQv6YHY4dnFtOiczLzzvRuLYjQ2YsWih+cEvfQohsuN6fWA/Y/dy9i0cMViWPG4E/KpR1YvrVgVWwISkIAEjqpArwiwjqqITiYBCRx7AfvBMz0D/P6++Hn9sfdPoRI4w27sXhwd7ZoMOYXqpVcUxe6FZc+DZd9LvFrd9KjXmR082z2N7OG/kbACmq4K6Fy90J6rzfJ6nB5Yht1LLdoZZqlH1lFvqjqhBCQgAQn0HgEFWL2nrlRSCfQdAXu4jz13jcfrTITbBwed9J263s+VGlgYsTiWvX1F1r0AACAASURBVCS9PWeMNgkcrEDnXET2vcQeSqh7ycECHtr+9nBNy16Fz37v2r0mFcq8F9IOsuzfb35fcnihHWTF4mBP+K6epofW8PQqCUhAAhI47gUUYB33VawLlIAEJCABCUhAAhJISYGuCd/TAk6gZZgmVjSKKxzR/FgpWWEqlAQkIAEJHEsBBVjHUl/nloAEJCABCUhAAhKQgN3z2Odz5n+03C6n16kRDkM0ph5sah0SkIAEJCCBTgEFWGoKEpCABCQgAQlIQAISSAEBw+XCtBczsefHcrmSwwqjEYhrKGYKVI+KIAEJSEACx1hAAdYxrgCdXgISkIAEJCABCUhAAt0F7HmxTJ8vuWohOJO8Y6/kaAdZ2iQgAQlIQAJ9VEABVh+teF22BCQgAQlIQAISkEAKC9jzY9kBlj200ONxJnc3YrHk6o6mliRI4ZpT0SQgAQlI4AgJKMA6QrA6rAQkIAEJSEACEpCABN63gL2CptcLAT/Yc2XF4xj2JO/x+Ps+tA4gAQlIQAIS6E0CCrB6U22prBKQgAQkIAEJSEACfVLAnhPLCbH8/uQk75EoRCKa5L1PtgZdtAQkIIG+KaAAq2/Wu65aAhKQgAQkIAEJSKAXChheL1ZamrNaoT3JuxEKYSU0N1YvrEoVWQISkIAEDlJAAdZBgml3CUhAAhKQgAQkIAEJHFMBe1hhWgDsoYX2JO+hENgrFprmMS2WTi4BCUhAAhI4kgIKsI6kro4tAQlIQAISkIAEJCCBIyFgGMm5sfw+8HhwRaNY9rBCzY11JLR1TAlIQAISSAEBBVgpUAkqggQkIAEJSEACEpCABA5JwO12QizL58NImBh2kGWvVGhppcJD8tSLJCABCUggZQUUYKVs1ahgEpCABCQgAQlIQAIS6IGAYYDP7o1lr1TogljnBO8JDSnsgZ52kYAEJCCBXiKgAKuXVJSKKQEJSEACEpCABCQggf0KeNxYgYAzpNCZD6sjhKEhhWo0EpCABCRwnAgowDpOKlKXIQEJSEACEpCABCQgAey5sewQy54byzAwwmGMcARLQwrVOCQgAQlIoJcLKMDq5RWo4ktAAhKQgAQkIAEJSOA9Aj5fMshyGU4vLMsOshIJ0NRYaiwSkIAEJNBLBRRg9dKKU7ElIAEJSEACEpCABCSwPwHL5cKwQyyvx+mBZffEIhbTBO9qNhKQgAQk0CsFFGD1ympToSUgAQlIQAISkIAEJNADAXsYoc+L6fdj2JO9R2MQiSTnyNImAQlIQAIS6EUCCrB6UWWpqBKQgAQkIAEJSEACEjhoATu4crsh4MfyeDDiCWduLEsTvB80pV4gAQlIQALHTkAB1rGz15klIAEJSEACEpCABCRw1ASSQwr9WH4/JEyMSBgi0aN2fp1IAhKQgAQk8H4EFGC9Hz29VgISkIAEJCABCUhAAr1NwOeDYFpyPvdoFCMU1rxYva0OVV4JSEACfVBAAVYfrHRdsgQkIAEJSEACEpBAHxewhxQG05JDC2NxCIfBXqVQmwQkIAEJSCBFBRRgpWjFqFgSkIAEJCABCUhAAhI4kgK7hhT6fBgJE+whhXaYZTl9s7RJQAISkIAEUkpAAVZKVYcKIwEJSEACEpCABCQggaMo4DLA58Py+cH+90gEw54XS6sUHsVK0KkkIAEJSKAnAgqweqKkfSQgAQlIQAISkIAEJHC8CtirFHo84LdXKXRDPI4RjjhftUlAAhKQgARSRUABVqrUhMohAQlIQAISkIAEJCCBYyngcmEF/Bj2JO92Dyx7Xqxo7FiWSOeWgAQkIAEJ7BI4agGWy7DITIsSTIvicpmqgj4kYJouOkJeWkJ+LMvoQ1euS92fgGEYWP6A84mvZtrou23FZVmYZgJXOIylOVf6bkN4H1duGQaG7iXvQ/BQX2ph2L1zIhHNl3SohKn6Ovv3s9frTPDu/NVm98RSPadqbalcEpCABPqUwBEPsOweyf1yWjnhhDUUFm3BZSi86lMt7N2slO21JSxaMor6xixMBVl9sxnYV+1yYWTnYJaWgT3fhjYJ2M2iowOzciu0NGNo3hW1iZ4I2D1FsnOgpMwZ9qTt6AsYloXR0Y5ZVYnR0qw5k45+FRzRMxoeD2Za8oMmIxrFCoV1fz6i4jq4BCQgAQkcSOCIB1iF+c2ccvKbBNObDlQW/bwPCEQiQebOm0lVbb563fSB+n7PJdoPnP0GQHExuD19UUDXvD+BaBSqtmLU16tHh1rK/gXsHiL9+kNxSXLeHm3HViAaxdi2BRp26r17bGvi8J/d7YZAAMvrSYZXoXByXiz1mD381jqiBCQgAQkcUOCIBlgel8lZp79JYeG2AxZEO/QVAYPa2oG8Nnc64ageOvpKre+6zvR0KBuGZX/VJoG9CDi9OLZsglBIPhLYt0AwHWvIUEjPkFKqCLS2YGzcANFIqpRI5ThcAvZwCntyd78vOaTQXqHQ/sBBvWUPl7COIwEJSEACPRQ4ogFWQU47Z89+EZ9Pf8z0sD76xG4dHekseGsG26rz+8T16iK7CfTrjzW4VD0m1Cj2KeDMqWMHWOrJoVayPwH7XmL3vrLn6dGWEgJO75z1a6FZPe5TokKORCG8XmeCd9xujFgMKxJNzoOmTQISkIAEJHCUBI5ogDWkuI5Zs+bi8Wj1kqNUn73iNLGYnzWrx7JybRmRmHph9YpKO0yFtAYNhoGDwP40V5sE9iFgbK+Fqm1avl0tZJ8C1qBiGFise0kKtRH7rm7VVGFUbtPwshSql8NeFHtIod+H5fMlhxTavbHsCd61SUACEpCABI6CwBENsIaV7GDGjHkKsI5CRfamU8RjPrZuHs7KtUNoaAn2pqKrrO9TwOkxYQdY2iSwHwGjsRHsCd1DHXKSwF4FrOLOMDw5oElbiggY9XVY1ZUY4XCKlEjFOCIC9odQPrs3ViAZIsfjGB0hDSk8Itg6qAQkIAEJdBc4rgMsw3JhGF5MK0Jf+hvXhQ8wMUnNbt12gFVVOZTVa8vY3pCld2QfEkj1AMuNRcAwaHcmpz0+H4y9Btj9HkP2JaboZjQ1QlUltLfbfTpStJQq1rEU6GsBVtCAKBBP8beDsbMOa8cOjNaWY9k8dO6jJGDZvbGCQfC4IWE6q8laGlJ4lPR1GglIQAJ9U+C4DrAKImM4ueRiHtn4bbwZx+fD6J7NNh6BCwbdQGXzRlbFnkvJVq0AKyWr5agUKtUDrGlGhGtPGMZX31pPhy/toE3sACzH6yYSN2lLwQdNt2VxTa6Hwvwcvru2FjypOX+QHWA5vTjsAEsrXR10O+wLL+hpgGX/5s92G04M2hw3e+eQw2iY70wo4bXaJp5usmOs1N3sAMuoq8OyF2PQ1jcE7B5Y9iqFvuTvE0MTvPeNetdVSkACEjhGAsd1gDXCOJNPTr+VLz43G3/2MRI+yqeNhy2+MevvLKt6k2e2P3CUz96z0ynA6pnT8bhXqgdYl2TAjz5wOpP/8AwNhxBg5WFyw6hBvFNVx/OtccwUq0Q7wPrWqAGMKCni0qffBq/dWzP1NgVYqVcnqVaingZYaQZ8eEAGcY+HP2/akbJtfn++rlAH73zkdH6/bBM/3ViXalWxW3kUYKV09RzZwtkBlr1Sod0rKxZLBlnqjfX/2TsP+KrK+w8/5+6b3OxBFiQBEkLYyAZFhOJCrbtWW22ttdVqtWq1Ktq666itVmvrqNa/e9SNOJG998oie+/c3H3vOf++5yYQkAioRCHv6yefYO4573je97z3nO/5jcPLXNYuCUgCkkA/JNAnApaREPGWNDxBN3G2ZFx+J05qCYVU4s0DibbE4Ql20hKoJqT4sKuJWEwW2kI1umu9VYsmwhhLS7ASxaBh0MxEkICfTv2nN0+fLwlYISOx5lSiLQkEQn7qvbsIGXzYiMaiROKicbfbnVGzYtdi8eIkaHBD0MQA+xDMRgttvnqcoUa9LyJ+ZbwxA2/QRaQlBgMmWoPVBJU9KeCFAYEVB/GWdEwGMw3uCvyGDr3fJs1OhBKLO+gk0Z6Oohho9FQQUDxEG5OJsSTh9DeHWRjE8TbsxOJW24kxJ+OwxNHub6QtUI1ihP0JWIpqItaUqh8r+inGrRg1LERiIwoXLahK+K2uopmJFGy1TnxKJ4QM+ritRjsd/ibagnUohh6P5TqXbMwGKy2+Wtxai6gkfClpRqKURGKsyfhVL43eMjRjAClgHX07jWIwoGoaygGsZXoKWFFaiPyYCIyKgTKXl9pACE0xkKSoxFvM1Hh95EVH6rCKnB7aMHSB04hEY3CEhViLmWZvgB0un37TbEUj3WykNRgkQlHIirbjDoTY6fTiNQj7qPB2EauFGBYTgaIolLt8u9vWBazTZzLj2QWkxMdhNkBxp5dmNWzBIYpRU0m3GBkYYcUX0tja7sJrNGFDY7TdyIMnjOPz4krermpjQ4cbzXigRAUa0WjkRtmwGY1UuLxU+kJoBgOEggyPtFHj8pDhsBNlNrLL5aPBH2SQ1cwgh5UOf5AdnT4CBiM2TSXTZqbc7SXFaiYt0kaLL0CZJ4BXMbA/Acughsi2W0iNsOisxHg7MBClqQy0mylweQkZw2/WLWgMtJho8wdowYCihhhqN5Nkt9DsCVDqC+LrsSFHopJlNxNjsVDn9rLLFwIxLjEPapjjoEirbmS1o91Fu9I1R9IC6+jbJA5yROKaFN8wB95L9o6BZdZUciMsxFnNNHn8lHrFWoQRNgPXj8nGYDbx4JpCSvwqbgwYVVVfu/E2M3Uen772461mdrj8eoa1AxZNI9WkkO2wEVQ1SvR9QnRcIQ6VdLuFQqebMXFRBFSVUrcfZzBEnsNGgtVMtdun91FcD4mKSozJSKnHx8joSCJMRsr1PVHV94H9CVg2NcTwKDsOs5F6b4AStw9VMZBiBLtBYVdA221tFqtoJJsMlPtD+BQD4twR0XYsRgOlnV4aQhpq93WraSQYYIjDhlFR2Nnhol0zoHYl3hB7jNh7E2xm2nxBtjm9qD14SQHrgCvn6D7AaESzWsJCsRYO8K74/dKS9uiedTk6SUASkAT6lECfCFgWr5WrpvyVdm8rCZEDWF78IStb32TKgDOYljkPn9+DxWxja/0yFtW+QK71OCZmHc+/t92iCx6TE37I5PR5/HPDDfjNrSSaspmRfB4bWj6izLOh14RmPQWsyCg7Y+LmMnXgKaghlUhrDOXt23in6AnSHEMYlziHj6v/TYdWq4dcSTPnMy3lTJbUvYrT38a8Ib9kUMxwvAEPIS3AoopXKXAuw+Py8atxD+MJdJIWk01pww4+q/sP7Vp1WMPRhMA1iJOyfs6AyEG6QKUS4o0dj1Dp20S6fQTHppyL1Wwl0hxDlC2OstZtFDdvYnzaLGKsiRgMRl7b9ld2+daSYRvOlKTT0RSN1OgsFAxYzTYWlb3CuuYFhILqXhZYFs3BpKQzmJA2h0AwgMMaxc7mNSzY9TQJtjSmppzJsrrXqAsU6RxjSOcHGZewqv5dGjwVzM26mOFJU3D5OjAYDCytepvNrZ8QUryYAlGcnXsNGTHDCAT9BDUvC4r/Q5l3jV7XsIiZzM4+n2AohM0cQXHLRt4vfxxxXy1jYPXpdX7YG9MfOm02Pa32V71x7RawhhhV7jp2FANsFjr9ftwq/GtzKUtaXJyZYOdn44exvamNkUmx2M0mClud3Lx8Bw0YSTTCFXlpHDdwAMFgiGi7jZd27OLvBfWk20xcP3IQHf4A+clxiHhPCRF2FlU28PiWcmpVhREWhdtnjCTWbMATCNIZVPn75lJWtXo4NUrhybNP4MVNRYxITsBmMugPmrcu205JICyczUuN4aejsjGhYTeb2dXh5r6VO3CqcFXuAC6ZOILajk4qnR4ueG8FLrujd/6axhCrgWvHDmZEYgwefwDFaOTxTbv4oKYNS9DHiydPYntDC5PSk7EYFLY3d7C2tokfZKcRZzERZbPy7LYynimuJ9Oscee0ESwur+Os/CyCQRWb2cQbBZW8WNZIR2hvCyy7ycT52UlclJ+J1+8nwmxme7OTv20uRfP5eGDmWB5ctZVlnrDwl2szcM3ITJ7ZVsY6p58rh6VzzvBB+ANBfX/4b0El/97VgAuFeIPGr/PSmZ2Zor+ssJjNPLO5iOfKmhCC5/FJUVw1OlsX1SIsZp3XfWsKKAyAtMA67Jfs97aBg99L9ghYSjDIDSMGctLgVDp9fqxmE69sK9Mtrm7MS+XiCXkYFAOrKuu5Y/VOCj0hrshN5Uf52bj9fpyBELuaWxmRHM+p76yEiLBw3mtRQ8xMdHDtuBwiDApGo4GqTi8PbShmi9PPrGgTf5g+mk2NrYxJisNqMvBhSTUBVWNGRjKxVjOdwRAPriticVMnZ6ZGMzczmWqXhxkZA/RmOwIh/ra+iOWtHlSvZ7cF1mMljQwywVVjspmckkC714vVbOGd4mpeKq7l+EQH5+dnct5H69Fsdj2ottizZqfE8OctFZhVjT9MzSM/Llr/bhbt/H1dIYvafWhojIg08/vxQ0mPFAKWgdZAkD99sZnNfo1Yo8IlQ1M4MTuFTq+PJEcEbxZV83RBDU7xhk3od9KF8Ht7bfVZx8QNoFkEeLfqAq1+XyCtsfoMv2xIEpAEJIGjnUCfCFhWTySPnP4ZK8sWsqDoOZq9NQyIyOSmWU/x1Io/UdyxjuEJk5mXdynPbvojTW0N3DL7ae5ffhntah0X5t3KcVln8sDnV1ISWkpO5FROyLiQt3Y9Ql2woNdQy90C1rUfzmFo8khOy/4Na6s/YVvTciINsVw+9S4+LX2J4taN/GTkfN4teJIi/1KMmDk26SKGxI3kha33cNLgSxiWMJF/r7sTr9rBlLRTGZwwijdKHqKiqZD75ixA1YK8sOF+Kjt24rd0oFjCAdRthihOTruSxIg03tv5JB3+Zs7IvYLspDzuX/kLBsXk8uP8Wyhv3snbOx/HYUnkyql/pslVy3s7n6K2s4yfjrsFi9HCA2t+Rm7cBH468nYanTW8vu2vtAeamZ56BpOz5/LyjvsobF3LLdNe0l0IP6x7hHzHLE7P/TUfFb3AjqYVJNmy+NnEW1ha/g6r6hZwYf7NbKxfxOrWNxHvYEdHnsTx2efy7423MTFtLhNS5/KfDffSEWhi3IDjmZA+mzdLHqGscwPnDr6Z3IRxPLfubpyBFmZn/0jn8vimqwgR5IpRj1DasoVPy14h1pzCpZP+yCub/so291IpYB2FO4tmtYLNiniY7O1mVRewBgzgthHpnDdyMD/+72Jd0PzFqGxirVZu2VTO2Yl2/nzKNP6xejuPbSpheLSd++dM4um123m0oo0zEyO5ZpK4fraysdnJWZlJ3HLCROa8+BlOg4G/TstjWFIsd366ji+aOpgU7+APx43lP9vK+cf2Sh6clsekAbFc+sEq3QLrlyOz9T3krm1VTLFpvHrhyTy3YScPrykgNcLKvbMn8HlxFbduq2G0w8LjJ4xhYXEVLxZUkmgy8pcTJ7Gz1ckvPlnPMLuZR0+azCcF5by4q44qn0rQaut1tmP/J2fPHzeY/Pgobl22hWavn0uHpTMpM42bhGjW0s6ai0/C6fFwxfsriY60cevUESQ67Ny5aAMrmzr4df4gpg/O4OcL12JF5aXTp+vt3fDBCoo8fs7ITuFHo4Zw87JtfNHUyd15KWEXwvdXcXJGIrdNHsYrm0p4o7yBjEgrt00dweamDh5aW8DTp06hobWdS1ft0hmdmRHHz/PSuXFVIUPMCn8/dTq3fbqGz+pamZuRxG8m5nHTZ+v5qD3AJekxXD4+R5+nNY3tnJ05gPmzJ3LaK59THYL7J+bQ0Onisc2luIJB/jXnGNY0dzB/3S4Up1PGwDoK94iDHdLB7SV7BKyxJpX/nnc8dy/eyMLKRk4elMRl44Zx3Euf6taBt07IRTObuWPZZho1EzPjHTx/5rE8sHQjr+2qZVRMJLfNHEt2XDTJj70Njqiv7Oowm5G/zBhBSVMrD2/ahcNkZP7kPFoCKvPXFDEjxsazZ83kv1uLuHNVAccPSub6yflUtzu5fvFmXIEgj84axy6nl+uXbuenOSncftxYluyq5OalW4kym7l2fA5RditXrSykprVjt4D1dFEdt4zLZvbAJP1aK/f4mJuWwE/G5vDQ+mIqGlt594I5XPrWUj50BnBoIe6cMBSLGuLW9bu4b1IOwxJjue3z9TQHglw1Ppeh8VGc9sE6rFYrf504BJvRwEOrd9IWCPCXWWOJstk57Z0VTExL4LYJQ3lmUzGLqpsZ6bAx//hx/HHZNha2hrMOSgHrYFf50X+ceFGh2e3h2FiqiuLz6W6FmoxrePRPvhyhJCAJSAKHkUCfCVi3nfACT2+YT3lwvf4g5G1XCXnBnmDGYFQweKxcMeFhPit9jY1NH3PzlP/TrXlqPIWcO+w6jJqZVm8TL+/6E1PizyIrPo9Xi+5HNe9x1duXU08By2DWCLg1bDEmDMIsI6hwRvr1hMxu3ip6lJ+OvI1QAN6ouhuzFsnZg26k0r2NjbVL+N30x3hh7UMUBpbolkXJpsH8ePgtfFb+MqurFnDX7Lf5rOg1lra+gGEfz4M4JZ2Lhv2JT8tfZJvzC90NMNBm4r6T3ub5TfcRNLo4e+i1vLrjQcr96zErEZw76BZUo5eXC+9FM4UYaz+NC8Zdw/ULTyR3wFjOy72eN3c+ToH7C91t0K4lcF72TZS5N/PRrv9w23HhGFifNvyLU1Ku0sf7RvGDuqimagrTo37M8bmnc88XP+fEnItItGTyRuWf8WsefjRoPi61mQ8Kn+U3Ux5mWfECVjvf0McdbUjhvNwbKW5bz8eFL/L30xfzj6W3UOD/AkXRiAgmce3Ux3lh0/1U+7Zy7TFPsbbmYz6v+T9UQxBPSwAMCpZoa78SsDQF4WylL0+tyw2j+9/dy0X8vWfMb/H/3Z91u26IesJF2N2Fc7OJ6sLn7Z2kIHzs3n8Txxo00Yf95XX7cpIDcZzuDbrf4/ezKykKisms1y9MDxV/AM3r1V3FuosQsJSkJO4/JpvZg9M57c1l1Au3MY8b1edBi47jykGx3DhrApOf/ZBak02/6X185giCbjdXbagAtwvhaKZERulWFXS2Uffb87j4v1+wzRPSBazChlbu2l5Nm6pgR+OaIUmMTk3khqVbuPPYUQyymTl7wVqcRjOa16P3U4uK4fRYE0+fM5vJz3zALoNVd+F7aEqu7jJz/mfb+GVWAifnDuSyTzdS0zVDJ1hV/n3OCZz+2iIaghpPzxnHu9t38a+qDkIH2LyPibZx7+Rc/raugE8aXYgNIsNq4M9Tcnmnspm3dpSz5mencM/HK3mu2Y85GODWMVkMspu5cVM5DQGNLM3LS/Omce3nG+kMBHn5jOn8ffFGnqh36wskkRAPTR1OaXMbDxbVc1tuOAbW+e+t4LYp+WRZjVyzdheNQU13jzwnPZYrRCD75TvJMavcNXcSg5/6AEdkFLeNzSJSgfnrivjbsSN0C47LPt+KYrGC38uTPziGTqeLazaU8a/JQyh1+bh3wy4Uk4WQz8PHP5zGF+V1vFTaxF+mD2dzQyv3b62gQ6yB9tbwwnREozk7+qGApejXjrh8uq/GffcLsZzC+4KC2uOS7b7exWfh6/vL+4H4y559qPuYHtk2u075cu6B8H4jPu7Z5peX9n7a7NpvdnuVH2wulYPaS/YIWFOsKm+eP4fL31/OgkaXngUt5HKCPQJHZCR35KehWixcv2InGE389ZgshibGMu/91WC166L79flp/GZCHpn/ev8rBSzh2vijrER+nJ3Mdcu3U+5V9f3u2IQIrhk7hLvWlZBqgn+dcRyTnnqPUpONHKuBv03P552iKp6pbCWEwi/SopmTO5BLP17Hj3PSuGFKPuOfeo92R6xe34wYC3dNzefaxZvZ1OLaLWB9Ut3CozNH8tyGIl5ucBFEIdGocPfYTHyawu2rtvPEnPE0O91ctWYXI2IjuHfiUP65tYxVlQ1UXH0OP33tE95s8mDAQL4VXj3rOK5YsJKdHW5ePnkSty3ZwpJ2vy7wp/icrP7VWZzz6mc4YqL4w/ghPLi6gIWNnWiqRqCjBYRIHxEV/k6SFliH8Zb9yKxas1jAbgu7j4vYWG4vqAf6djwyxyp7LQlIApKAJHD4CfSZgHXLCc/xz3U3Uq/u1Edl0iIYF3cSgyLzsBoicFhjyUs9hmfW/JEt7o84K/0mhOhU0LyOvNipbK5ZziVT/sCdX1zAvOxf0Rys4NPq51BMvaf66ulCGBXjIC9qBtlRo7EbHURZYxkUP4zVNR/y311/YWT0LE4Zeil/W3cF8ZYUfjb2Dl7cfh9Gg5nLx9/L9uo1+EMiogaYDBayEobx8a6XWVr5JnfMepP3tj/NRs97upDTs8T4M7lhxr8oa95Jh7dl90dDk0fzfuG/car1nJp1OW+W/IVq33aMip3TUq4Bq583Sx7CYIJhphP4+aRbue7DsIA1N+MSPqx+kjLXRv2pwqo4mJN8OSHFzVsFj3H7rFfCAlb9M5yeeg2NwVI+q/0PRlP46SGNsVw++W4eWXU10ZZ4zhx2Fc9smo/L38H1U/7FK9sf1GNsXTrmHho7amlzN+yWTTLihrKh/nPWVy3iz6e+xapdH9Ppa+sal0Jeynhe3/QY2wOfMiXmbE7MvYjmzjoqnUVsb17KLs86fEFtt4DV0BGP2pW55quWu66JfOX1sOfJSDxs6aFI9noQ7D55/0LNnqqV/bikdolLPU4VN/a7RZndVYeVnvBH4YfRryz6gA5jqrq9qt7zPz279a233hXfaPe4QyEUj1e/adVHKyywUtM4xqzyj1OnYjUorK1qYHOzk4U1bRR7g1ye7uDyqWMY8/xCNOF+Fwxy1/gs4g1w9bpyPS7TGenx5MTaibaaibVbmZObyY9e/YwtXQLWgrJ6nt7ViB9F9JYkuwAAIABJREFUj9M0b4CDn+ZmMH9NMQPMCg/MmaC7F66pamBTk5MFtW2U+0Kc6oBHzjiesc8uoM1sRwmFuGXUQCYkx3D+J5uZn5dCfEIcVy3ZSsgStqyK8rkp/uU8rl64lsUN7QcvYOkPvZHcNTmXZpebps6wGG81GclNjufZ7ZW8uKWEtZfO47cfLOPDjhAE/NwwahCpFhN3bqumNaSRqfn4z0mTuHnJVjoCAZ6fN41fL1jJirBBhC56/WnCUOIJcePmKm7JSdYFrIvfX8m9M0ZS2dLO30oacevKh8a0+AhuGpvNw1srKKxvYe0lJ/H7D1eyxuln/phM/lvWyBslNWz92Ym4vD42VtXvnu6cpHgKG1u4ekUhC384VX/ALWrcs++NSk1mRU0jN68q4NzsFK6eOIx2t5fCpnZW1rfxXn0HLUEVpa1NF7D0lOz2Q88G2bVh7b66xLbcLcju/7rs3mG+LPruew0LUWn/gsz+9o59r/CwQtXdirKPEHWAHeNbjyPzpX31SxvC/uSsPb381vePngAOuJfsEbBMPi9/nzGcGZmpFDQ0s73RydtVTazr8BJpMu4lYAkB6s2TxlPc1MYNm6p2x2S7MDWKO2aOYchTC77aAisU5LLcVH45MouddU26G7IoMXYrsTYrd60vIVEL8dhpM8h/+n3aLBEMMqo8MDWP/xbX8FqtU3+RcX5SBGeNyN4tYJ2XN5AT3lkNQgwG3cLxX7PHcPMXG1nTEg7i/m/h6lzfyvwJOdyxqoA17pD+hWNSQ/wmL50ZKXFcv6qQqdEW7j9xMsc8u4BpAwdwblYyd20s08XsxT8/lVc27qTDE76fEeXYIQO549O1rGlxsvTik1lUVEGHN/y5+D6blpXOTR+vYX1ngOtGZXFiTjpb65qoaPfwfnkja5w+XF2LQQpYB7yK++UBwjVeuBQKS0g9vp1YX+K+oMcLrn4JRg5aEpAEJAFJ4JAJfDcClgYTo8/mvNG/5d0dT9HoqiIYCHHW6Ct5f+fTbPUuZKhxJifmXEB5awGdgXYWV77BH2e9xCvrHmXm0DP4sPzflHiEC1DvY94tYH04lwkDT+CUwZexqf4LytsK8PjdzMo8j6ZABW+V/oVIJZHfTnyMd7Y9xQBHpi5QPbvtVjIi8/jVMQ/wwdbnaQl2xbUSL1xDUO0ppMldxV0nvN2rgBUdGMiVEx9mdcVHVLuKwtYsGgT9QWq9JaTEZnBq1i/3ErBOT7kG7SsErFMzL+eDin9S4lqj12dTojkl9Tc4g428W/TPHgLW08xL/S1OrYGFVU9i6BL7hpqP48djr+Nvq67AFWrnF6PvY2PNMkIhPzOy5/HouquItSXzi7H3salyGaXOzTpk0W8tCPXeMjw+N387/SNeWf8odZ6S8Li6uFR07MBtq0P1G0kyZ5IVm09OwjiOST+Bp9fcwTb3MmqqBrOjIIv6zsRwwM+vmshDXtZ7n7DvEum2OditH+3nKW63BUQvbffUKUXckJ5Ff1gOE9v9Z72+7tj2XZ/to3Xq8Ue6y57PRGD0sCCnP0zsPqLL7qqrLd064iva3F3vPuMR53QLfvu1y+ru8z4Q9xr/7qdxBSIiwnMpbkqDQT14qxYM7Q7I3C1gGQIBElQ/MzKSyEuM4cTBaRQ0tDB/UwXnJkdw2dTRjHv+o7CAFQpy17iwgHXd+gp+n5fCnNxBvLKtlJoOF36Ph/+7YC4Xv/nFbgFrcVUTfy+qx6uFg66fnxbDDwencPPqIko7faQoIaakJ5KXGM1Jg9PZWNPEnVsqdBfCnlkIewpY532yhRtzkhiclsyVX2zBbQpn8Buo+Vl98Yn84r2VrG9z6wLWe9t38c8DWWBpGtPjI/jjxKEsKq1jZ2tXQgox38EA25w+ajs9rP3ZKV8SsNIsZu7YVrVfAev/TpvGjR+v4UNn+A23XQ1y98RcDD4P87fXMD8nbIH1k/dWctf0Ebg9Xu7ZWYM4XDxYzEpycMOYbO7eVMryujb+Mi6L9Phont1axi9GZXH72hK2NLWz4ryZ1LU7eX5b6R5TwFCIWmcn69wh3jhpAnWdHhaU1OiWl/ryDgWpFGNya2ihAHmRFsYkxTJyQBxn5QzktYIK7thYhtrtQuh2g+MA8Yi61vQBxZS9LvzeNpV9ruUehx3U6V3X+d77x37q3Gcv2Ov67HH4l/aRXj4LX4977zf6fr3PMHvaeXZfw+ru1Abh+d9tednb3rcPE9HGV+0h+r7ViyXWl/bAQ9pLegRxDwWJ8PuYkBTDyKRoZmWmMDQuilPfWEKH2RoWsKwWrl++U49D+cTUHOIibFz8+VY8RpNuJXrNsBSumXhgCyyxhn8+dIBuNfXq9nKafWFxHlXD5fWyoTOoi8CPzZvO8Kc/oN1iPygB65JR2cx4YxnBLmF8pN3IIzNH8ftFG1jfuicG1rLaFu6eMowH1haxqN2vi2ERaFw/YiC5MRH8fm0xHpeb5RecwD9WbyM12qHH1btncxlDTbD2stO4deEKCjq6rNdVseGE2Njk1K/TD86fxZNrdujB3cNfKRrBQIANLS4qMREVDDAmLpJhiTEcOyiZ0Umx/H7RJj5uEYHyFGmB1dvWIv+urw/dGku8tBSB/8ULLj02lhCyDriDS4KSgCQgCUgCkoBO4DsRsITQcUH27WTHj+SupT9GsarkOCZx8Zj5vLrpb7qAFadlcumou/VsgZ9XvsyG1o85L+sWMqKHEFICPLnpJnzmPW/29zef3QLW9QtOZk7uBYxOOo4XdtxJo7+cBFMWvxzzZ3a0rNQFLPHFekraFWTFjsBmimBp5VusbX8bWyiOX49/iKLGzXxQ9Q+Cip8EUwa5sZPY2bKS+vYK7jrh3d0ClrhTj1KSiLOkUu7arGcSvDD3Nko6NvJ57Yv4VDeJpkxGJx7HmpqFpMZmcWrmoQlYF+bfyurqBXxS/Zzu9pdlH8PZudeytPpNllW/zW3Hhl0IP6r7B8cmXETegHG8svPPNAcrsWhRnJ9zMxEWO09u/j2qyc+xiRcwKvk4zEYzG2u/4Ium5zGF7Px0xJ9weZ28WfoQfsVNtDGJEXHHUt6xjcrWIu44/g021S3lg8on8GsuXawakTCD1TULCYS8TB94OttbVlDvK8UaiOUPxz7D+srFvFX5OLU1YQGroS02nG3tWy/dj5u6LdReT3IHc5vUfU5vx3Y/MO73834a36E7bo3uIiCsEkQsrH1YdLsQ/iIvg1aPlzfKm7ES4vJhGczOTNItd05NsPcqYN2wsYInJg+lU1O4Ydl2PIqBs9Njee6MY/nRa3sssIRr4e+WbKXQGyTDbOCeSbm0i2DEK7ZzWk4GtU43C+udRGghrsofyNS0eH63upgRxmCvAtZZn2zhrBQHv508gluXbWVpsxubonF9fgan5WVy2ptL9IyDQsBaVVbLPQW1BIWL41eIs0N1d8FhrG9s5+FtlXg0GGIzMW1ADKsaOqhpd7L2kpMPScB66YzprKls4LqVhbSpMC7ayj3TR/DmjjKerWzlzmHhGFjnvLuCK0dlMy8zmT+s3Mn6di8OI/xuVCaj46P0OFfFnhCTLSFePncWHxaU64LZnet34VY17hk1kJlD0vnph+vY5QuSYDQwLzOJsuY2ljsD3D0yTc/keNOKHVT7gqQYFc7PTWNFRb0eA+uEATFsa/Owud1NyOflhTnjiI12cNZ7q/B1una7EIo4KgdTDua6Pph6upxzw1+QPdbvQQtYwoFvP+JRz7bDn397PT64cR05Rx3cXhIWsIQV2zHmEJMz03i9uIZGf4jj4uw8e8Z0LhBWmZqZP+anEeOI4Nql23ArJs5JtPHAyVO5c+kW1jd3khJh4aqxQxiXEk/K4+98tQWWpjE32cGN44bw6KZdvFvTrn/HTIqLJDPSzCd1HcyItR2ygDX/2NFc+9FqXqtux240cFF2Mj8elsGvFm2isC1sgfXM5lL+W1qvx9+q7nDzxw0lODWFUQ4rd0wexoqaZh7ZWYNX1bgzP1W/PqvbXbxYUss7Ne1EBbys+ckcXt9WzgNbK2gPaYyKtjF7YCIvbq/Qwzm8eOIxvFVUw9Ml9bhCKuOjbcwalMzzW0tJiXEwLiGKj2paqff4yTCEeOOs4/j31lIeL2oIB+yWLoRHzoX2XfVUiFdCxLJYdAFWhBsQ1sUEQ9+6lel3NUTZriQgCUgCksDhI/CdCFjivn24bS6XTpzPuppP8AQ7iTElk58ymefX36sLWBFKAj8echvRtnhe3Hk3tYGdpKljuWX2Uywue4tXiu5BMe+JrfNVAtbvFvyAkWnTODP3Kurcu2h11+sZBSNMsexsWaULWEazQoKaw63HP0erp5H7l/4cr7VZd9MfHTWXHw6/gqrOAto8DWRE59Duaufd0r9T21a2l4AlXGamJZ7D8Vnn8uCKX6FZXYyJOonZQ35ErbsEl7+dwbFjdLe6F3feS0bM0EMWsM4eeg0qKjWuEjr9bQxLmEBTZw2vFz9Eq6+OW6eFBawFdX8j2ZjLD4f8BrPVTGX7TpIjskiOyOClLQ+yy79Sj8kVFczg99OfxG6O5I+fXUCnpVofd659OmcOv4pWXw0NrnLSooeiBhTeLXmcat8O8u2zOH/MNVQ4d9LmbWBgdB4drjZeKrybkBrgkvx7sNtsepD8BHsaQ+PG8uTq2ykLbtljgdUSffhWt6y57wgIkcFs1t+o6j+9iHi6BVZyMjfnp/GLCcN5rbBKz2A3LS2BdZX1/HlHDT9KcfQqYP1ufTm/GpzIT8flsriqUReHUi1G5g7L5JIeFljxdis1nV62t3UyMiGGZKuJO1ZuZ1FDB/PHZnF2XhZv76rVHzynpiawuLSGvxbUcmyE0quA9cNPtjDQZuT2cYMZnBTH2vpWEm0Wpqcn8tCyrfyrohn7/4zQ7p8yjBnpiXxS1cTtS7fitvbuAidS0p+bHsuvxuewo81NrcvNuMRYWl1u7llXTFW7S3fh29eF8KsssJ4/bRoVrR16ZsdSp4fxybE43W5uW11EgSfEvXlhC6wfvr+avCgbt0/KJTHCzoq6VtKibAyLjuCJjcW8Xt2OTzFgC/p558TxpMZG6QLg69Wtui3gUGOIZ+ZO0F2HNjV1kBllJ81uZv7izSx1qUx2mLhjWj7tIShqc5IX4yAt0sKVC9dSryncMiaLwYlxLKlu0l1BT84cwD/XF/JYcT2aDOLed9fu962lg95LeghYxiD/nDeNHS0dFLS5mDAgTr8WL/pwDe1GK7/IjOPKSfksLKvhYSH6+EJcm5/OzMFpety5BqcLj8/PzKEDDxgDS+CKU1Tdlff4zBSW17XqlrHjE6JZXFHLo9trODbOzmPzph2SBdavx+dQ1d5JcadPt2ibNCCeBUWVPFxQi9O1R8B6orie05Id/H7ycIo63JR1iD0jhkAgwF1ri3Q3P7EvjjQG+fSiuayoaODaJVspFZ6OoRAXpzq4evpotv4vAUS928cxA+KoaWnn6uU78BpNXJ6dwI9GDmFjYzvOQJAZqQlsr2/iuuU7GZkQxfxJw6j3h9jR1M7oxBjSIm3c9MUmVnQGpQXW9+1a+j73R7zYMRpRrBZUce8ggrwHgmh+v+66L4skIAlIApKAJNAbgT4RsBS3wsSk09jm/ByfJWw1ZQhZybZMZHD0GDyBTkpaN5Fgz6DctRWntQxFNZPOWCJN0RT7VxAyudE8VqbFn8uuzg00BEv02E/7BqruHqhf9RARTGB40jSWNb2oCymDrGPJihyLpqoUt6/HqNpQTT7KQ2v14OtBl4GH5n7KitIFvFF+P0ZzuDajaiFRGcLw2BmYFAstvmqKXWtwUoffF9TdIcucm2izlejP7QOU4WRFjmZFyxsYrUGMIRsZ5lFkOcZgViw0+qoodC3DbWjBoaUwyDSGssBaPIYmFExkhCZgsIQoC6zRg7Q73IMYkTCdZU0vk5s4gTkZF7O84l3sSgzx9hSafTVs61iEx9hEKKAxPvp0Gl011BjXoahGYpSB5EZMIsaajC/kZmvbIlqUSjCEXR8CHrhp8n+ob6/muaKbMVq63dMsxGmDGBU7E6vBTpu/kSLXGtq0CjRDEINqIpEc8mKnhcflqaTUuw6nUqfXG6sNJMcxmRhLEgHNS0HbSuq1QgIhQ78K4t4vtp9uK6MDWJ/pAlZaOjFaiB/E2RiTGA78W9ThYVGzm5qQwiSDn3EDYnm8tBn0NPAh5jgMODSNt12QaIS5SZEMj4mgzevnvfJ6zshM5t3KFrw2ux7E/bOyWhrbnOQnROENanxU28omj4oXhQQlxImJDvJjI/RgyjvbPXzW3EmjqjAs5OGkzCQe29WE3xJOQX98pIF0i4EXWoMYDAoZRpidGMnQaDtBVeWTmjbWe0K4ukLrD/6fm868tDhiDBqPbS0jOkrsU/svzpCGR1OYGGNjZnI0VpNCVaefD+s7qAoqqH4PVw5O4sPKFgpFUPlggOkOEzEGhc/dKiIMc4zfwzmp0XzS5CLKYuI/86Zy08KVZDoiyIy20+gJ8EmDk8KApntpnGgNERcVyYv1LgxGI2kmjXkDohnosOIOhFja5GS1M4BbH0/YheiunAQmDhnEhR+spskYdp1UNFWP03NKSjQD7GbafCE+a+xgsztEQDFg1lRG2Y3MSooi3mam2RvgrZpWKoIG3U1toEnjB4kOBjpsGBSF5Y0dLGnz4RShxtta+2EQ936xUxx4kAe9l/SIgaWpjLUbODE1lgiTkQZvgIUNHRSIAOv/cxlMMWicmBxJstnIixVNeEOQbTfTEghiNZt0i8JT0hO4cmI+I5/7kCSbhQjzPhlZunou9qu2/1kiGg0Gff2OjosgpMLmNjeft7hpVRWGKwFOzYjn0V1NeCw2YtUAJ8ZZ2dbpZ3vQqFud5Ct+8mMjeafOyc+GpXF2bgZXf7SaHw5KxmE1s6Glk89aPLRqBjS/jysyotnQ7mOFDyK6rq25qTHYzCZqXV4WNjgpE4YsXY7m9oCXD06bzCcVjdy3uYKQyaSPwK6oHGM3ckJKDBaDgZIOD583uykXApeiEIXKtBgLkxOjMIn9sc3FRy0efX+0oTE20sRxSVHEWEy4QhrvVrVQ6NPwdc2btMA68BKXR/QgINwKRVwsqxXNaAgngPH5wpmM+6k1u1wfkoAkIAlIAl9NoE8ELJNJ3FIJW4f9uEyImzPhctGd7myvY74ciUjUQ8jECakXc/7oazCKKOf7KUtKPuCV0j/iVZ17t/u/LD0iQ5OidIf5Ft+R4QyFI2OP57rj/s4fPjyLFnPRl2rVA+6KNExKd3/Dh+xvbPsdrx4kuSsV3JfG2ZPN/setqhpDIicyO/0nLKx+inL3Vj3wkWIU5371+ZrgrGl6EpiewZgCHo2siPHcMPMfPPD5FVQb1n/FuMX97f6s3hT9wViEuflS1BXBWwQ279FuMGCRAlY/3Zm6BazwdaPnUtOviZ5ZGPcXf2zfv+nn6vF6wlF9uj/Pthl1AeutkjqeL2sipC8+kbFtn+Dc36Btve9iD9C3EH0E+7lmwsdcPTCWB0+d0etsv19QocfTEi51YXc1FU1k5Ot5f3/Aqzs8fnHOSLOqC1iXfbCS9T4RbFzUF97zuktvfPVskeLYnhkx/V5StCDvnjeLd4qquXtLJapw/9inf4KC1jWP+w5Wb12fK7HX713ESPWU6gaxT+yJ0CQFrH66QRzCsLWMHjGwus7TV5geb2vvrK579ptwrMBToky8fP5sbvhoFc/tqCQ/zsHDcyZQ3tTCL5ft5LlZIzh71LBee3Pfyu3MX1MIJnPXHiba3LO+D3YP0/ulqvxycCJn5qRz8gfrwq5V+ra49xj2V6dBD5C4955hENeTx83pA6J58NRp/Oz9FSxxhgPN9yyit+HYZF/ew7r3V/0bfT8sw5zDX+z77n9SwDqERSwP3UNAfEdbLWg2W9iST1hh9UgAI1FJApKAJCAJSAK7n2WUn9582AJxDBnUwJQpyxAC1rdZRAwto9+BXYvVxaP9Fa/aSTCiXdwdHrDpoA/OHPxbpg6ax8cFr/BJ3dO7rZAOeHIfHiDuFwdZRzNtwFksaXiFGt+Ob9R6yA/HpVzAiUMvYk3Fp/y3/CFM1q+Iiv+NWttzshSwviWQR2A1PQWsw9H9QRZFd/FbWNnEG9VthA5jcoCD6X+s361nDOytdIQ06jASMvZ+zMG0031MrinEw7PGcuOiTWwNHFzsqN7r1zg71swdcyaxs7mD3366jiphBdYHRQpYfQD5CG9ifwLWwQ7J4PdxXV4ql07MxyKsPlBYXVnPbcu2UqSaSA+4iTL3fk02hqBJMe3OYHiw7e7vOCE4XZAew0lZyVz8xY6wO9U3KT4Pj04fzslDB/HP9Tt5YFslmPvmuhXdlgLWN5k8ea7BYEC12XSrLP32XsTF8vlQ9hNTU9KSBCQBSUAS6J8E+swC6/uMV8R7imIAoaBGJ/V9IuJ8XR5awITBb0OzesH05beqh1KvyKRoV+MxaGacagNG22HTMvfqlhSwDmWWjq5jD7eAZQqFiNPC7m8u4QP8HQtYfT17poCfREWlRTPgN4dd/b5uEc8OA4I+Eqxmit0+fFZbry7bX7eN3s6TAta3TfToq++bCFi60BIMkEpIj+HU4Q9S6Q/hEZlF+3jPENeZI+DDhkqz0YYaNmX++iUUJMcMAVWlzK+Bpe/EKylgff1pk2fuQ8BkCmeoFq6vwiJLCFj+rkDvwlpYlgMSENlHNZ3fN32ZdcCm+vcBmqqvT03Gbuvf60COvk8JSAGrT3HLxgQBKWD133VwuAWs/kv26Bq5FLCOrvk8HKP5pgLW4eiTrFNaYMk18C0SEO6rQoAR1pC6RVaXkBUIhLMci+BzsnyZgBDho6IxxMaiWm16pm+lj4X5/jItuie1sILw+6C9HdrbZOy2/jL5cpzfKYHDKmBlZzQxbdqSb92F8DslJhv/xgSkgPWNER65FaSH49aIuCqySAK9EZACllwbBySQlgHpGXIvOSCoPj6gqRFDUyNaR3sfNyybO2oJdGUsFEKWZumykhTWLoEgihCzpOXL3lOfkIiWloFit+8v8vBRu0y+24Fp4PVBXS001OtRn2WRBCSBw0fgsApYSbEu5sz5GIvFf/hGIGs+4ggE/FYqy3MoLMmgviX6iOu/7PA3IJA8AN0Kqysj1jeoSZ56tBIQ6dRFFsK6GhSXS77NPFrn+ZuOK2kA2kC5l3xTjN/q+SKDXFMjSnOTFLC+VbCyMp2AELJEJiKLeY+QJUxghJDl9+suXOFkKP23CNFKHZIDEZH9F8J3OfKAH6VgJ7hd32UvZNuSwFFP4LAKWOK75qTZy0lOrjrqQcoBHjwBtzuK8pJcyquTpIB18NiOjiMjIyFrCJr4LYsksB8Cegr1tja05gYpYMkV0juBiAjIFnuJQ1L6vhAQD2/NzWEBWlpgfV9m5ejsh8GAJlwLRWxGkYhBiKfCpVAEfA8Ewtlt+2ExpKSipg9E2ydbcD9E8d0MWazD+lqoKP9u2petSgL9hMBhFbAEw9TEDo6f9TkWs6+fIJXD/CoCwaCZmqohtLdFU1mbQGNrlATWnwiIGBap6aipqfAtZd7rT/iO+rGKN+hOJ4qrE62tFYQFljTFP+qn/WsNUMTHSU2DlDRp0fm1AH7LJwnLSRH/xeNBa2tB6ez8lhuQ1UkCXyYgwhEoesB3K5iMYSstsRaFa6EI+q7HydL6zdeIlj0EEpP6PBmFXJs9CLicUFiIEpDeR3JdSAKHi8BhF7BEx8eOKGPIkALMZj+K0j/fihyuCTxi6tUUAkEzTY2puDodeDxWKmoS6XCJzGay9CsCFgtKRiZqdDSKcAeQ4bD61fTvd7Di+UIEQnW5UTzucEyTlib9bboskkCvBMxmtIGZEB2juxbJ0Hp9v1Z0QxchPAuXGY9HFw9orAchIMgiCfQlAT3guxlNCFni3kLsCSLYux70PRRem2LBHsXWWZpwH0xI7Evqsq19CXg9GMrL0ISgL4skIAkcFgJ9ImDFOrwMyarB4XBjMITkG/XDMpXf50oVVNWI32chGDSiqgYammKpaYwlpEr14vs8c4erb0p0NMTGg0lkFjpcrch6jxgCmoYmHjBCQT2GiSYsr5zt4QcOWSSBryIQFY0SF69nK5OZtvp+qahCDBAClhAKxL89bt16sr/HIur7mZAt7iYgxCshYgnLLOFKZzSGbzO6vmP0FyTCMqtb0DqK0B2UgCWuVwHEYNRdLfXvXMFMlm+HgM+LobJSt0SV9zDfDlJZiySwL4E+EbCE1VVCrIuk+HYi7T5phdWP16EQsBpbovUfX8DUj0n086GLmyVHFIg4NtKVsJ8vhh7DFw8UHrfufqQFpQWHXBgHJqBbcUY60ETQYpkc4sDADtcRwoJSWGB1OkGIWbJIAt8HAl0ClhCxhKi1OzaUEHGEiKX/FoJW6KiIm3UgAcugaZwYZ8EaEcHb5Y2MT3CQ47DxVlUrXoPx+zBjB9cHTUOMRf0+Cm8+L0pVJbRKAevgJlMeJQkcOoE+EbBEtwyKhtUaIMIWwGzsUv8Pvb/yjCOYQFBV8HoteHxmgiH5tucInspvp+viFaDZHLbCEgFZv51aZS1HKAFFU8MPvsLdQ1peHaGz+B11u2svUUxm3ZJA7iV9Ow+6tZV+7frltdu36GVrB0tA7BEibp5wKxRCltmMYjTqe4W+flXxE+qy0goLWkeiq+GBBCzj/yyu/pSbQFRsDNcs2swleQOZk5HAlUu20WY6ckJ6HGsNMSJ9AE/srALL96zfUsA62KtSHicJfG0CfSZgdfcwHKNC3l5+7Rk7wk/UNOkvdoRP4eHpvgxec3i4Hmm1HsWxSY60qThi+yv3kr6fOv2WTt7X9T142eLXIqDfhoYFLcymLjHLhGZQ9ohWwrUuGHaN1bqstI6EzIa9CVgGTdX1OIOicNewRKIVoxWUAAAgAElEQVTiYrjqi23YTQasapB2sx1VMYStmhQFg6oibtc1JfyyWYh84iWTOOaQgw0KaykRWN9gINRjfxZtiSD83TuHmBbRjmi/uwjBTVPVsKVV9981jatT7JwxPp85ry9CiYja6xxdiNQFy71flIu6RPu6YNnTbVLRMAT3aaPHwlJE3+FL1l49WQn39d1jkwLW17os5UmSwKEQ6HMB61A6J4+VBCQBSUASkAQkAUlAEpAEJAFJ4PARUMAoYmeFA8GLfwtxJSx0dbUqhAxhmRUM6uKWnnikp257OF/AiCyLwjK5O9ZcLyD2FbCiDBqz4+zMTo8nGAzyRVUL09LiiIiJ4qovtjIh2sZwm5FX24MYAwF+mRlHszfAiNQEIo0GPihtYEWnn8sy48mJj6K4zcWrla2UiZB3B5gMMxrHOMyclh5HalQEtW1OXq5oZZtfI8OgcmqCjY/bvBT7w2JiqhLizMQIFrV62RmAHIvChZkJDIxz0OD08E5lC6va3JybHMGFo4cyOj2ZZ5Zv4pP6Dpa7giRbjJyfGs2IxGj8IZWltW181OymRQWjx8W9YzJZUdPMlIwkIk0GFlQ0s63Tx/kZseQmx7KrpZPXK1spDGj62CK0IL8YGMeIxBhcgRAfVbewuN2HW4Mkr5NfDsugotPL9EFJfLqrjnfaA/jEYpEC1uG7TGXNkkAXASlgyaUgCUgCkoAkIAlIApKAJCAJSAKSgCAgxKse8bM0IW51uSHqgIQlj/itux+KgPBhF0RF/y2snXpkO+wpbPX27wNQ14OsOyL19hSfPyxk7cfVvqeAZVM0fjwwnt+My2FtXTN1Lg/HD0rBpMD6pjauWrSFi3LSODEjgStWFWMM+Fl70Q9o8nhZWdVIot3KzKxU1lbW0hbUaHL5mDsknQUFFdy1vRqnGGsvRThnzk6M5E9ThlPS1klRq5NRybGMTIrnwneWYzCbuGtSLg9sKuXTxk5dLBwZaeav04fzwIZdbGls49XTptLu9rCsupHsGAfpkTbuWLWT9Agrl4zIZFRaMv9YvZXF9e1UOH38ZeZI0h12PimrI9pqZlp6Eu8UV/P3glo0j4u2a89jXXUjy6oaSLRbGJEYR5vbS2GHi1aPjzlZqWyoa+GWNcX4QyGePX4kaTEOPi6tISnCxviUeB5atYPX65yMUAKsuOx01lQ3sKa2mQ8LK/miM0RAClhy/5AE+oSAFLD6BLNsRBKQBCQBSUASkAQkAUlAEpAEjkQCevwsISR1/eiiknA7RNEzoOouiPuKW93uaroLXljwEv91u7Hpx+/rgttTF+oRdUPE7dKtw7pizin+gJ65V8+o2FV6ClhpZoW/Tc5hR2snD20up11TGGZU+e95M/mson6/AtaS82fx3JYSHtleTWQowMc/mkWj0825C9biQeGqEQMZHxvBdevLaAj2LmDFmAw8NC4T1WjklhU7aFQNRAZ83DttOJ+V11PpC3HP5GG9CljN7R28fs7x/PrtJSztDGLRVKYnRFLQ6aPIE+TqjGjOOmYEx738KUqEg4syE/jVmGx+89E6Nvg0bJrGRVmJnJWbzi2riylubKHl2nO5c9F67thUTorZwHMnTcTr8/PDhesxmUz8ZFA8Z+Zk8PtVhYyJtvHXkyZx4nMfsNmrEYHGzRNyGBJt55crCskmyNs//gFXL1zNu7Xt4eQA3UHwpQXWkXh5yz4fYQSkgHWETZjsriQgCUgCkoAkIAlIApKAJCAJfMcEuqyydgtY3bGXhAuiLmrsY7l1kN0VutWBXPR2C1le3+7Mnz0FrByrwvNzx/PA+hLeqGoNW5CFgvzjmExCVut+BawFP5zOvat38k6DC83j5q15E9le1cjNO+t14ewn2YnMTHRwy+ZK6gO993CA2cDTx+XxdmkDTxbXh8UdTSMq6NfjVQ2Pi+TuSb0LWGvqWnh4Rj7p0Q4KOzxsqG9hdVUDBZ4QAYORq1MjOfOYfI575XOw2bh7Ug45dgs/X1lEZ0hXCpkQZeX28UN4YNMuNtQ103TNuZz/2ue81exF8Xn5vxPHU1Hfwh921OnWc3MTI7ls+EDuWLeL83NSuXRcDi9sK9uduXJUvIOhsVFMeflz0hWVZ8+cyTlvL6cktE9sXylgHeQql4dJAl+fgBSwvj47eaYkIAlIApKAJCAJSAKSgCQgCfRbAgqKLlgZdLdDTYg1whprf+JVl0WWCAyuexN2/b8e0Hw/MbR0icigYCBs4aVbYfUowqpL8XrRfL6wddeQHEhI1I/ItSq8eOJE7lxbyNs1bV1nqfwlPxVLVOR+BawPzpjOPat38m6jCzxu3jhlAtsqG7itqFG3GrswKyxg3brlwALWU8fm8XpJHf8pbdKzP+pD6RrjMdE27pqUs5cF1qhIM4/OGMG964tZWN9BltXAMIeZ2WlJ5CXGoJhN3L2umNXNLn6b5thLwLp/8jAyrCYuW12MKxi2SBsXZeEOIWBtLNFdA5uuPZezX/mM91p9uoD1n7njKatrYn5Bgy5g/UAIWHkZuoB1YV46cwen8uTq7XsFg/cFQ7xU1UKuWdEFrLPfWk6pKgWsfnvpy4F/ZwSkgPWdoZcNSwKSgCQgCUgCkoAkIAlIApLAEUVACFYi4LvJDCZjuOvdWfLEbxHwXYhUwr1PZDEU/xZ/2y1SiRhZhzZizWbVrY1E3YZAQHfPE0Hn9QyBIqi8x4OWNXi3gJVu0nji2Hw+qGzhiYIa3ZLIGvSx5KwZrK5vPqwCVqLZwD+n5FDuCXLrmiLcIsOhqvKzVAclTjdtGHlgWj5PbCvjrdoORJ6/WXE2HjxuNH9Yvp2i5g7SbWaWdHhxWMwMsRmZf8xQ3iqr46WyZq5Kj+LciSOY/tLnYLfzq5wBnJOTztkfbqBdEdZeKienxPCbEQO5bXUhhU1tugXWwQhYf9pQyg9SYrnpuDFMeGYB9QYzQn7LNCkkGWGtR2WYKdS7gOX3odTWQkcbmrbHvVPMkR67TBZJQBL4xgSkgPWNEcoKJAFJQBKQBCQBSUASkAQkAUngaCVgMJlQLeawFVSXRZE+ViEg6dkJQyjBIGqXYPVtchAWTIaoKNSAH0W4DHYFcDcYjagRdl1M00Wy1AyIjtGbjlTghpxkzhyRzZ9XbqewpZNfj87itPzBvLqz9LAKWCZN4/wBDm6cPpKnNhbzWXUzs1NiufmE8fzszcWs6fDx0LQ84m0W7lm1E5vBwC1Th5MSFcnvFm/GHAjwyMmTuf+Ljbxe1cIP0uO5anwOD68r5PXqdn6SZOW+U4/l8neWsKLDzwAjPD9vKtvrW/jLhmIG2CxcPzmPXc0d3LqhFLfbRdNvzzkoAevODWW0tDtZ9NMfsK6qkUc2lhBpNHLdpGGUNDRzw8ZKhhqCvQtYQT9KYyOayxm2sOsuIRWD07lfS7tvc63IuiSB/kBAClj9YZblGCUBSUASkAQkAUlAEpAEJAFJ4MAEhBWVIRzHSriu6dZWQrQSwpHQJMRvYU0TDGIIhQ67KCFEM10k20/mQd3ySwhrViuG9EGoUdHh8WkaGSaNK/IHclLOQEwGA5/vqqa0qQVrpIM/byjh1IxEpiZHce/2Wj0L4SPHjeKZ7RUsbveBz8MDU4ZRUt/CE9VO3dLr5NRoJkRb+XdpE16DqVeOqhD1AgEuzE7k3JFDSIyw0ez18Z8NRfyzpAGMJmbE2bj+mFyGJcbiCgT4uKiChAg7/y6sYV1jB5fnpvCTMTl6RsF2r593dpTxdHE9dapCWsDLw3PGkx4dwRObSnihpJ4ZsTZ+N3k4eYlx+EIhFpfV8tiWMgq8KhF+D4t+dALXfbyWJa4Qit/LnZNyqW5u5x+V7TrXKdEWzsxM0mN2FXtDTLNqXD9jtO6+6A+prKyo58/riygNGhii+bhr1niuX7yFaq3LAq+bhm6BVQMd7WhqCINiQLXb9LWiODsPvPbkEZKAJHBAAlLAOiAieYAkIAlIApKAJCAJSAKSgCQgCRy1BLpEKz2OlXALFJZW4m+6hZVwBwyhhIJowtJqf0LSdwxGF9uG5KDFxu3pibAACvhINGiEQiptmgEtFAjHdbJFgBBbggG0CIceBwqvByzW8I9wf3N1hhlERoXr9Hn1+mYnxXDGsEG9jrjNF+AvW8tpVxUcaoA4i4laX4Cg2YpmDAtfgqE14GOA2Uij14ebsOslVhuYLRAMYPP7SLFbaAuEwq6BZstuz0uDz4NJDen1iXpFMXhcpFhNBFWNeuG9Z7Hp/dfH6HGH67ZYUcR5Xk84e6Q9MjzHAT9awAfWCN01U8TrUrweEs0KARVaNQVNcBH1ibhjIf/uY/cCsU8Qdz2Yf3QUetZIl+s7XiWyeUng6CAgBayjYx7lKCQBSUASkAQkAUlAEpAEJAFJ4FAICIHG1GVlJSytRDB2IfwIoSoUDMewEgLW91C02neYPYO4HwqCQz12jEVjSkY4WPz+issf4q3yRjqNewedP9R2jsjj981CKNZWlAPF5we3+4gckuy0JPB9IyAFrO/bjMj+SAKSgCQgCUgCkoAkIAlIApLAYSOgdGX107oCsQtrHCFaCcsf/bcQrI4A0aonoL4SsHRLtK9iI1gKS6vuwPaHbRa/hxXvK2AJF1SHA3x+FClgfQ8nTHbpSCQgBawjcdZknyUBSUASkAQkAUlAEpAEJAFJ4NAICPc5qyUcN6orGLuI16T4/eGsgcJ17hAzBB5aBw7f0X0lYB2+ERwFNX9JwDKjOSLB60PxeI6CAcohSALfPQEpYH33cyB7IAlIApKAJCAJSAKSgCQgCUgCh4mAIsQqqxVViFddsa3wB1B8Pt1N8GgoUsD6HszivjGwLBaIjEDxeMHr/R50UHZBEjjyCUgB68ifQzkCSUASkAQkAUlAEpAEJAFJQBLYl4DBgGI2o9msaCIAt3B9E9ZWQrw6wlwEDzS5SmYWanJK/3TdOxCcvvrc40GpqYLWFt0FVbFYUCMjMHg8aF5fX/VCtiMJHNUEpIB1VE+vHJwkIAlIApKAJCAJSAKSgCTQzwiIYOwiKLvFgp6hT1hZBYK6xZUmgrQfjSU+AS0rG0RcL1n6noBYV+3tKM2NuwUsYfWnRdhBCFtSwOr7OZEtHpUEpIB1VE6rHJQkIAlIApKAJCAJSAKSgCTQzwgIV0FhcWU2oYgMcLrFVQAR5+pocRXsdUbFuLOGQFxcP5v078dwdXdUYXnl6vySgKW4PSA+l0USkAS+MQEpYH1jhLICSUASkAQkAUlAEpAEJAFJQBL4zgiIuFYi45uIOSQsrzQNxecPZxXUg7MfpVZX+wKPikLLzAZ7hHQl7KvFKNaW14PidIbdU90ulPY2fc0J11XsdgwuN5rf31c9ku1IAkc1ASlgHdXTKwcnCUgCkoAkIAlIApKAJCAJHL0ERIB2PcaVuct1TlhcCbFAWF/1F+Gqe3oVBS15AEQ6dEs0PXh9j88wGNHUEEp/43IYlr+ioXNUhUjabeEXCqG0taJ5uzIO2mxodhtGlxtVCliHYRZklf2RgBSw+uOsyzFLApKAJCAJSAKSgCQgCUgCRzgBg9lMKMKOohh0F0FNxBoS8a76s0BjNKEl/D975wFmV1H34fec28v2nk22pPeekARI6E1KpIh0EUU/KwgWivgpCqiggIoKYv1UVJo06YSSQDohpNfN1uxutt3ezvmcubvJElI2yfY74+OTkHvulHfmzD3zO/+SK4PXy4yL7UUEsbfa7CQwMWMxJWId69qXRn2dLftMtNZWTL9vX83tAhaBAFo0dqwtqu8rAooAYlu7+tYUsalV860IKAKKgCKgCCgCioAioAgoAgOegEVHczgxHHYwTOm6pYXDqS1cdZpUTVhaeTzgdKFZLHtlFl383W6DeEKKWKocOwGZFCAWRQsEIBL+SIXC+gqnE80fSFppqaIIKALHTEAJWMeMUFWgCCgCioAioAgoAoqAIqAIKAI9TkDGurIlYwvpOlo8kRQNYvEeb3pQNCD4eT0IaywZWDyuuPXovLpccq0qAatHKavKU4yAErBSbMLVcBUBRUARUAQUAUVAEVAEFIEBR8Cig90BdhvC6kW6ZInMbqnsLng0kyj4uVzJzIwhZbV2NAi7+h3N7cJwOLD4AslYWaooAorAMRNQAtYxI1QVKAKKgCKgCCgCioAioAgoAopAjxEQVlfCXVBkGIzF0YRwpayHjg63rkkBC6sNgsGkkKVKzxBwu+W61Xx+tV57hrCqNQUJKAErBSddDVkRUAQUAUVAEVAEFAFFQBHo7wQ0kVXPYcd0OJIBySMRtEh7hsH+3vn+3D8hCLpd6CIWVjCorNh6aK5MjxvsdvD50ZTg2kOUVbWpRqBXBSzxu+NyRklzRbDoIna8ih8/2BdcwtDxBx0EI8Lce18mlME+bjW+LhIQMRjsdjSrDfGQqkpqERAuIIZ48xuNpNbA1Wi7n4CmodvsybTxai/pfr771WiYJmY8jhmNqExmPU47hRvQdWQQbJFND9ADQbnulMtgN6wJsU+6XZg2Gxa/cG9TsbC6gerHqugQsLQ2n8ySqYoioAgcO4FeE7AyvCGmTNxMSel2LBZlqnrsUzdwajAMK7sqRrB67Sja/O6B03HV054jIB+c3FBShpmW3nPtqJoHBoG2VqisQFNvgQfGfPWnXgrrDJfYS0ohPaM/9Swl+qK1tWFW7UIL+JWokBIz3ouDtFra3dys8uAvg2AbRi92YPA3JcQrIWJpgqtwcVOl2wnITJB2G0rA6na0qsIUJtArAlaaJ8SJ81aSl1eTwqjV0JubC3jz7dm0+l0KRqoTyMjEHDVGZhBSRRGQBKIxtO1bQIhZqigCXSWQkYk2agyG2ku6Sqz7rwuF0HbtTN67Kph29/NNxRptVnC6MC06eiSKGVaBxntkGWigeTwYNhu6z5+0blOlWwl0CFh6mw9TWWB1K1tVWeoS6BUBa/bUTYwbvyZ1KauR7yWwfccY3nlvsnInTOU1YbNjjh4DHm8qU1Bj35+AyCjV2go7toIKKKvWR1cICOuBUWMwvWlduVpd04ME9D2N0orSjEZ7sBVV9aAnIKyzRYY8pzPpmipiXYk1pYTRnpt6EQtLxGmKx9ECKhZWt4P2eqSbphKwup2sqjCFCfSKgHXhea+SltaUwpjV0DsIRKJuXvjPabQFnApKihIwMzJg+EgQ8WpUUQQ6EwiH0Sp2QGuL4qIIHJ5AejrmiFFqLzk8qR6/QmSE03Zsw1QWlD3OerA2kAzW7sB0OpIubcLqKqbiXfX4fAvuXg9YLGiBQJK5Kt1HoF3AUi6E3YdU1aQI9IqAddWnn0DXVeA6tdxE+AILS5fOY/POQlBB3VNySWjZuRhlZcn0zaooAp0JiDfAtTVQX6eCnaqVcXgC2TmYZeVqLzk8qZ6/wjDQaqqgrlbFKep52oOvBeEC7HRgiqQuCQMtFFLubL04yzIWlteDJqzdhBWWKt1GwPR6wWZFa21Te2O3UVUVpTqBXhGwrrn8n6nOWY2/nYBp6Hy4dgabthcTCCkLnFRcGFpOLkapOHRaU3H4asyHICBTTDftgbqa5Nt3VRSBQxHIzm0XsNRe0ucLRVjM7GlEq6qEmHIj7PP5GEgdsFhEinLpZqUJ93HlxtY3s5eWhqlrSTdCFQur2+bATPPK510lYHUbUlWRIsCgF7A09GS8JU1ZgB3rehcsRTE5+iwwQsBav246OyoK2dOmMhIe65wMxO/3dwHLIlJ1AypX6pGtLl1ssyYcy04rBSzhPigELOHKoIoioASsHlsDGiCkP3HPHv2venv3hAVWcxN6VSVGRInPPTZpg61iXUdzuzGEhUokAiEVrL3PpljGwvKAcAcOhfqsG4OtYSVgDbYZVePpDwQGtYBlmBpjOJUsbwbvtT6BPkBf0lpxYdNthBJtIJ44+6DYcDPJfRZhs5X1/kVgObpjqhCwNggBa1chja1KwOqDqezzJvuzgGUxTa7MspKRmc6DW+uPyjVJ2BWm2yzsicQweyEzmtU0SLdbaYsliPfRBuEwE1wyJBO7keDv9UFC5tEtMyFgaa0tmMINKaBSeh8dxRT6VhctsMRPv9eiETZMwke5NrubarouvOg1fAkhHfXND/tIu8alQ7N4obaZ90Mmx4SmXcCiulJZT3b3Yhms9QnLK7dLxl6SwdpVpsG+nWkRQD/NK+Pla8GgcuPvptkw09LAalEWWN3EU1WjCAgCg1rAShgaZ2d/hcKcIv6w8TYstmN6POuTFSN+SMbaT6YsexwvVD+EpY9EOIeWzoLcK/En9vBew9MYlshR8VAC1lFhG1Rf6u8C1k/GF1JcmMenX151VMGhx9hM/mdiGd9a8iFRV89nRxtqRPifycP55bpKas2klWRvl3QMvjC6CIwED23fQ8A4ur1WCVi9PXMDvL0uClhFNo1PFaaztCXAe60R0IWdZd8V8TN+bb6bmMPBn3Y2YPbRD/sEt5UvjR/Kv7fW8mpL5NissJSA1XcLaiC23CFeiZc8QrwS1lcq02Dfz6QIou9yoglLODEnqhw7AeGaabWgt7RiqjV+7DxVDYpAbwpYNiMNh+6W7meZznwag9VE9Ba0hI08Zwl2i4vWSAN+owEDk3StgJgZIqS1SrcUj5aLjpU26uS7SrvpwY6XIM0Y2oHjLewvYOk2Ez1hJ9cxFKfVSyDWQlOsCvHeMd2ST8JMEGSPdJITe4wDL3bcsg1h22Az3OS7SjDMBE3RGiL4ES8sjLhGtr2YUMxPpjOPUDyAz9yN2cmZxjTAo+eQ6SiQG1hDqIK4HpQvXsVRz5Jwkecchs3iwBdtpCVeJ/1x0rR8Ti+6lolD5vLLFV+XPMK0IOrz6nlkOQuIJsLsiVQR18N73+MaCci2FeO2Zcj6wvEgTosXn1EPuiEbFfyyHcXoms6eUDVhvU1+32LacWvZRBIBMhx5OG1eKts24E7kS8urgKUOTZdnVXJsw/DYRRvNtMV3Y+r7spfYDS85zmGSZ2O4ipjmxzSVBdag3XnEzSDKYX6g9wpYFgtFFij1uogaBtv8EVrFzaBpDNFNLJpG1IQSr5NoPMF6X4hYx0HPNMmxQJnHiV3XqPKHqYqb0qIhXTPJt1moDEYY5naQ67LTEI6xMxQj0ckiqkhP1h0zDLYHI7QkQBxrhYA1tCCXr76+mrLMdPn5Ol+IqJY89IpROk2DMredTGH5FE2wzh9CqMvpmJyW4+ZnZ87iU/98jSaLk23BKKZ4WD9UEePRTEakJ60SKwMRauMJ5I0mSjzGpHQ3XmHZFY5REY4R0XSG6jAz3cb3T53Jt15bxfu+CA0JsaNpZGMwPN1F3DDZGYzSnBCvVZNzZDNNimw6hW47zZEYVaEoI70utvjDhNsP9xmYlHscuKwWakMRdoZj8uAvskMNd9nwh6NkuhzS2myHL0S2bmIkEuzARkLTsJomxTadIo/Y0+JsDUZlnzvWSLZFk/VbdY0dbUHqDQ0tkVAWWIN2gziCgXVxL2E/AcurmQx3O3BbdWoCYSpjplzrJ+V6+OrkMt6oauSZnfXsjEFc03CZBiPcdrnGKwIRLKaBx2ZlazgOXbGeNAxGOK3kuxwE4nF2BCL45A6RvM+8ZoKx6W4suka1uKdjBglMJrlsfHtyCabDyT1LN7ArBj5T/DQbDHNYKHI7aI3GqQjFCHayznJhUOK0SYvLmkCEcMIg12ljc6B9jzEMiu0Whrodsp3tbSGaZAgFTe5NxS4bW9oCTM5OJ2qYVLX6GemwsCWaoNWSjEnpFvuG247HKtoIUx03MdrnQzdNhtgtFLvtcl/Z0Bog2GHargSsI1jgKX6pzQpOZ9LySlhdCQFLHez7x6KwWKQbofgtRrgRith2qhwbASVgHRs/9W1F4AAEesUC6zOXPc5o5wJOHn4RsUQUryOTf69/mIrQas4d/iWGZ00inoihW3Re3fY31vne4OzCLxPWWnmj9q8yW92Fw79BtrOI3637JprFZELGAsrcU3ir4e/4hShzgLK/gOWxZLOg+FOMyZlBKBbCbfewvPZFFlf9mwXDLsGlZfLy7t9ganE0w8rMnHPJtg3hrfq/4SGXT479Mi5relLACtfyys4/0hDfSdxn4cZ5D9EUrCfPU8yyHa+xzPcUca09hothYaRnFieXfRorDuwWJ23RBl7Y9gh18S1k6sWcWnIVQ9NHEo1FsFqtvFP5FKvqX+WUoVcwv+Qicr1FrKh6jeV1L7O+9U0mZJ7ISaWfwjRMKXpVtG3gjcq/0WaKDEA6x+ddypxhZxOKBAgl/NS2VuC2pfPklvvBFSLfOoozy66Wgpp42E4Q4emNv6E6tpYc+zAWFF6Bx5FGlisfXbPw25XfYUHJp2iN17Gk7nEZV+zkIVcws/gMItEguq6zvOYVVjY9j3jkzjBLWTjmf/BYxDEYWiL1/Gf7ozQbVcqFcLBuRSL4p92BmYiDEF8O8kAqBCxKypiV5uDW4ydike/9Nba0+Pnpmh3UxeDLQ9OYWVpEJGFQnOYizW5nUdVuvr9yOwmrjXEeGzdMLmeY14WOhm61cM/S9bzRFOL4bDfXjSlmXWMrp5QPIZFIoFss/HXDLv5d1STd2+Z4bXx77nh5YBSHu62tfh5YW0FlOCEFrAVjylhR00BJugevw87b1Q3cvnIbpsVGvlXj2pFFnFqaTzgWJ9vt4rkdNTzyYQVlHgc3ThnOBROG8/rWSjY2+/j20k3gPIS7rGEwM93JzTNGkeuwETES+OIGv127k3f2+HEbCb4+uZSTSwoIRKLYrFYe37iLx3Y1cUm+h8umjGB6cT7v7drNnz/cwdO1rUz1OvjmnHGkW3WEMdT2tgAPfLCDzaE4IlX5eblePj91BFZMYobJi9uquHziSD777GI2YWOMx8ZXJpYxJtNLOB7HYbfxh3U7+dfORnTT4KH5E4lGo4zPz6a21c9v39/KtKH5uIwED25rIJQwWPx56W0AACAASURBVFiQxmcnD8eqgc1i4a3qBu56fwcx3coot5Wbpgyn2OOQYroQvO5cvI7V/qiMgaVcCAfrJtHFcWliL7FjivtTxEU72OG2k4CVZ4WbJ5UyKTeDWDyBpus8uGITq5v8PDh/IseXFlLnD/LGtmp+tLYSQ9f51qRSThyaSzgapz4cpbq5laL0ND735lopLh2qaIk4V40o4NoJ5QTCYexWK+/Xt/DQ+kp2RhKMsZrcfNxYyrxCRDbkPfHQ6m28Wd/C/XNGc/qIYnTdwqLt1TywrpK1bSEuH5rNZ6aMIBFPyN/U1yvr+e2mGlrECzDN5IujCjl7+BAisRiBhMnSXXXMKy3i4heWYne6OL0wg89OLMOGiVMKUBHuX71VCttzMxzcPmc8K+saOXFoAStqG3l64y4+O3UUD6zdwZpAnDQS3DypjHnFORgJA0PTeWjVFp6v90mh+eRcL9dNKke4LXvtNjY1+/npyi3sMsQbrWQMLOVC2MU1nqqX2W2YQrzSdXSRaTAaU+JVf1oLmpa0wLLZk3EoVTD3Y54dLS0NQ7gQtrSqtX7MNFUFikCSQK8IWNde/gQzvJ/k8mk38dyGP7Cq7nVaYjWcMORiFpQv5M+r7qYluptTyy9jXMFsfrDkEubnfZrJw+bwyAffwWa6uHnOIxSml3Pzi2cSsbZwWvG1OLV0Xq75LRGt7bAC1u/X3cqCoZcyp+hcHl/3IHvCdUzInsdJIz/J3zf8mExrPueO+jw/WnIVmjtEuqWAhaU3UtG6kcVVT/G12Q/QGmrmqQ0P4bK5OWvkNTQEanmx9iECzVEevnAZKyrf4MUtf6IhWEnc1ZK0dAIK7CO5eOQ3qWzZxuLKp4gn4lw68SbiWpg/rvlfTi+/kpGZ03h83S8IJ9qYmX8WYwtn8NjGH+MPt3Bm6eeYXDyXn7/zZcK6jzx3MZ8a+03W1y1nad1zZNmLOG/M9Wxseo9Xq/9EuXsGX53zM55c82s+aHyTId6RnDf2c7isHn749pXozgSfHnE7dquTl7b8iWDcxydGf57ReZO5Z8m1ZLgzuXzMd9E0C/9a+3NpGRex+Ll0zC00Rip4ZvsvmJ59DldNuYU/Lr+bXf4PGZ8zh5OGX8Q/N/6MbYFlXFp2B0UZpfz1/R9LC7cLx39Zjv+F2l+xcf00FQNrsO5AdnvyzaoQscRb1QM8/EgBq7CINy+ZT40/yB2LP6TIaefbcyfw8rYafrVjD3eNy+dT08dx37treaGinpMLs7jztFlc+/TbLA3EuX1SCQUuOw+u3kJTJMadcyeQk+HlwueWceKQHO6bP5HdbQFuXbSKloTJpcOLmP/fg98t725ieX0z/zlvDi3BEN9dsp58p5UbZ47lle01/K6qmR+PG8KlM8Zx75K1PLezjgWFWdxx8gyue/otFvkTXFGSzfWTh/Pgyk2sqG9herqb206ZwW/WbOWPGyo5LdfDA584nvP/9hItWKgSz+fiYfAgpcRi8ouTphCLRrhtyTrcVgufG19KptvJd1dt47TcNL63YCpfeuZt1vsjXDCiiE+OLuG6N9bQ2OZnVpaLe04/jhtfWioPqiIF+VOfPIHKphZ+tGwT+Q4bX585hm3NPr6/rhpPIsZzC4/nnV11/G7tdgrsNr41byKnjyph5q+fpEKzc+vkUkZne/nJso3UBCN8qryAiyaN5JZ31vF2bROvXTKfIS4bt760jPea/TSGIvxg/lTciTjfXLOLoUaM/zt/Hk9vquAfm6uYkunljpOmcf+Stfxzt59vjBnCzKJsfrpsg6z/B3PH4XW5OP+Zd5Pp01UMrMG6Q3R5XJrNhuFyoicMTOHKcqCDVCcB64pCL1+bNZYfLf6A9S1Brh9fwryyQk567HVOKMzmGzPH8HJFHU9vraEGO9eVZvH14yZw9+I1LGto45SibG5dMJVaX4h5/3gTw3Vw0VnYV52bn8bdCybx6Htreba6SVpP3jRrHK9U1vOr9VX8Yt5YyjM9fPP1VdIi8ivTRmHTNW54bzNZxPnezNEk7HbufOcDakwrU9w2nrzkJO5fvIanKuqZkZfB12aO5aHlm/jbbj/n5bj50UlT+NWKDbxa1cDMLC93njZbCvCjHnmOaUW5/GD2aNbXNfGnzVXSCOzOOROImHDzkg1MznDx+3PnsrqyjtsXr6UhajDE5eDB02dw81sf8E5LhK+VZXPF5BHcvfgD1rUEuGZcCZdOHMFZ/3iDhNPFT2aNoNYf4pG1O0R6HB45ew7/3FDBvZvqkg+USsDq8vpOyQtFkHBXUrwiGEKLqmyV/XEdmHYbuFwQjaGpuGTHPEUdAhYtLdKjSBVFQBE4dgK9KmDNLj2DP6/7Hj5qZc+DjYb0kHFkWKTIUWqfxleOu4/bX72YTEcul0/+Dn9Z/0OGuIdz4tCLyPEU8PyGP7El/C7nDfsy29s+YOmep9AsBzZx7WyB9fv1txEPG5gJE2d7e2kUcPmY21na8AwbG1Zx2wl/4qkPH2F14N8MdUzg7JLrebXqL7i0dL44+25uePYMEp5Wma5nUsapfGLU5/nVqq/S0tbCT89+nodX3M6O2HK0TjuUmYDx3pOYP/RTPLHtPhoT2+SDpSWQxcTMBaxteZ1ApFV69tgzxFtMk2LnOC4ZfRMv7HyYzb5lnJ53PTNLTuGupZeiWzVOG3otI9Nm8pdN/ytdLjVDZ2b2eZxQupC/rvshp5deSaatkF+s/R+sTjBiJqcUXcPMojP52dLr8diy+fYJv+OPH/yALcElsr+JNicPfuJ1/rr6J1RF13PZmNtYtPNfrG59QQpxHksWF5ffJgWsJzc8yJdn3k9l/Q6er3kA3aZhhC1cPu5WmgONvLr791w39ifoVp1H1nybhC1ItA0SMQNXti3FBCytfT0kXUqEi1vyT5HpTpO2R8K5rMNFo/M1HU5nH/0sedNb2t1KxG9hsk7pe7d3RxD1J8u+zzrqS35n/83j43V09FMsZ+mF0v7nIbcd0RerVR6qNGE1EYt/zAxdClj5BWz9wid4aVsNX3l7PQmLFT3okxaFelom94wvYOywIi55filhuxMt6Gf5Fafxz1UbuHdbIwR8MsC64fIgAq8f74SHLzyJ8594m1G5GTywYDLfeW0ZjzdGJIFRTgv3zhnNoppmfrtmK+9ecTqLd9Xy9Xc3EZVt+zGFpVZaBj+dWMy4YYVc9NxSgjYH1miEFZefwvNrt/DAtgbunlIiXYV+8mElUatNtn/riCwmlRZz5YsrmJ7t4S/nzmPK758n6Mk49C5tmiwsyuCWmaO49Pn32Gna5Bu6MqvJXLfOEn+cypa2pHVDepZcJ8dnuvjFKVP5+qI1vN0SZpIW5ZHzT+CK55eyNa5xZWEa954xi6kP/5sGm1t+91OlOXxl2kgufWkVp2c6+Or8aZz3rzeptjgQbkHnpOk8e80nmPHQkxheLz+cOZLfbqjk2ZpWedjI0gx+PqOcTaE4963YxBuXncryrZXctLZaWk8Ri/Lz48fvFbBuKM1mwZgSPvH4W8QcLvREnO9OKeXk4UM499/vceeMERRnpvGNdz6kIq6hi/mMRTFdHrRAIGUFLHmfyf8lS/I+/ejekdwvOt/fHdcm/1F8vm9f2FdP0rGt/Yvtruv79oh9y/Sje8O+voiv6mbntg+2tD+6D3XeP/aN6dC3RXLr6ryXgCkC/IvAwp1dWjoJWF8qTufq6WO47sVlrIuYaJEweihAwpvGqAwv/zu1lKd21vN4VTN6IsHTZ05lXZOfW1ZsB5sNPRrhDydNZExu5uEFrFiUH88ZQy4GX1y+jahulS43s706xRq84osRaGtDs1oxvRlyb7myPI8rxhRzzaJ1tMZN7ps0hJjLzTeWbJCWTvfNLGdmYTanPLkYxJ4Xj3H33LHSqvOKtzZw36RiHGlevrAoaR2mx2P8YGIxn542ltG/fYarJ4+QQv1N721ifTBp1TLVpfHzk6bwoxVbsRkJfn/uPE79039Yrzkk4uleO78+ZUpSwKr38fK5M3lhaxUPbqyVLtGWoI/l15zD7977gP+0RHho7hiW1DZx79pd+C0W9FYRckGHtMykHa0SsLqwsFPzElM8F3jcyWeDQBBiKs9vv10Juo7ZHlxf8/mVG+ExTpSZnibdZbXmlmOsSX1dEVAE9j79alff2uN6cIcF1rRh8/nzuu8S1ltl+y4zS7rpFbjKcNvSKMoooyxnNF997jTcHiuXDP82S2tfoDx7PK2tPkzNYFzhdJ7d9hvOKv0cb9f9gy2BpR1hXT42q50FrD9uuI10ey5Tsk+j0DUClyWNHG8BWZ48ntr8ACsaXuaTpTcwxDuCh9d/gzl5FzI+bzb/2HwPkzJO5uLJX2P5jlf3tpHmzGJ43gTufucamnz13HPWM/xqxU3UJdZ/pB9mQmNa2jlMHjKff235MSGtae/nwg1PPOpn6EOYmn2ajAXmsaWTn1aM0+7msY13s6lt6T4Ba9mlWC02FpbfwJT8k9lSv4Z4IvkGK9Odi83q4F8b7+PKKd9he/1Gnqq5R34mdITx7pM5ueQyfrP6RsrSp3LVtG/z86X/Q5teLa+Jh02+Ovm3bNyzjPWtb3PRyJt5vfJvbPC9KUXGzgLWvz54gO+d/BjRaIS61oq94xmWPYoNtav5T8OvKDLH8dlZdxBLxNi2Zy2bmpezOfAuwUQbG9uzEO4JZiDesh+oiIfhzguz40jUIbOIz0Q0neSBL1kOvZC1g4gwQmBKMuoIu7KvP8nvdC6d/7NDjJLHwgMIQh8XiQ6x8cjO9/it+NEOHLS5Y+iHALEfDGERZIbDe9+2yhhYQ4dxcaGXu8+cw25fkFXVjbxZ28QbjQF5uPvR2FxycrO5/vUPkq48oQD/WTiXxVsq+cm2JiZ67Zw7NIehXjsZTgel2elkut1c8OQ7jMxJ56554/jUC8vYFE6K2454jDumlUuXpB9/WMknct18/7RZNPoDrKxu5O3aFl5r9Mm2k0Hc8/n0yyuTQdyjUd6+6Hje3bKLX2xv4O5pZbzW4OOPW+sw2+NFXVLg4SszxnL1S8spctr4y7lzuyRgiXhSV5fncmphBjeu2MGezsk92xeliC31mbICRmQ4yXBY5VgnF+VzwZNv8WZzmEl6lEfOaxewYvCdcUO44bhxPPfhlr3zneV2MTI3i0ufWcIV5XnMHlnK+c8uJdJuGTacKBu/uJC5v32atOxMvjW1nLvXVPB2YzIToEfXuG10Pla3i9vf/oA3rjid5z/Ywl3b2/ezzgLW6p3cM2koJ40expLtVZ32hwzKszIY+4cXmVOYzT3zJ+O0aKyp3cPq+jaerG5idzi2NwaWECBMh7Bc+9jNdYgbad9HHaKrvLMOK8DuE3DF38TeIqaiY4/Zvw8Hurc/3st9YnXnPUUMJ/nJPnFonyDVpaG1b3jHcJ8eQTMfubRLTXbposP3QO4jnTZ48V+GsMYSAZ/DyTfZnQSskTaT++dPYth/LTE/qG1kze5WHqtsoCpqMspt+4iARTjEmqtO59fLN/LwLhFHU5NC7q2j8zl3XNlhBSzx/d+dMpVtdfX8dEcz8f2GLMT7MofG9aOKyXFZyXDYGJOXLeNSfeL5FbTE9hOwTJMXzptNmdfNkh2Ve9mUZGUSjMW59OWV/O30aby/x88P11buzW56da6DO04/jkmPPMsNs8cxKcvLN5dvpTqa3PfKHBbunFbCU7uaCIfCPHre8Qz51ZOYaZny848IWLvq2Hb9eWxubKaqeZ9V+3Glxfzz/c3cv6WeK8py+PJx46lr9bOxoU3GFHulKYBPNNfZhVBYzOmHuG+7ukQO5jqq4iUd/v7pT1eIWFcet3zZJoODK8ur/jQ7B+yLtJRzONCCITVfxzhbSsA6RoDq64rAAQj0qgVWZwErkdC4rOwOhudMYNGOx2kONcgg5hdOvp5vvbwQ3R3h9ILPYdPtZLryeHPXv9jdVsm3FjzMM2sfZeKQOTy1/f691lwHmt3OAtb/rf8h54z4PMMzprCi5hWagrux4+KUkZfwRtXfeL/5ZYr1ydx84m+4+41rOW34lVQGNrKo7q/Myb6QSyfdwB+X34VpSQYpF0HURRDzzYElREOxQwpYk71nMnPo6Ty+9ScyuLs8uhhWPNZMopEYF43+hgzGvrLmFVpCTWQ7CplXdg7PbP/lxwQsi27l/PKvMjJjBm/ufIJQPHnAFP0JhNuojmzg6il3yPp/t+nGZLIlQ2NOzsXMGXIuD678MkOco/n87B/wyxU30GBsld9PhDW+Pev/WFr1Ipv873HxiEMLWLct+As1e3awtvGdvWc7waPeX80e22YSsQSeRB6jcqYzPHsCM4pPZcnO//B8zUNs3jA96UIYzmo/oB77vXmwR+WuPifLOdnv4gMlFf+YWLb3O8JJZF/5iPjW6WG783O31kmw2vfv5gH6IWd4b+X7+tn+b8Iyaj+Esi8fG/xH+7g/dZE8YZ/F1r5PZXvt5/uOg3vn+j9ymBeuAe3xLeSBRgTlbncl7Mi+IgWsklL52WiHznHFedKd7OSyQh5dsZlfVTRx55hccnKyuf6NjwtYf6pu5a7pI3A4bLy0rZrmQJgyj53r503dK2Ddc/x4rn1pOSv8yftVZMm7c8ZwmoMR7l1fTSASYYzTwqwhOUwvyuaUsiIeXbGJhyua+NG4/bIQdhKwHthWzz3TyninKcjDm2v2CljXFqXJWFRXv7hCWkx0VcASjC4vzebisny+uGQT9YnkKnJpkP5fd6OWaIzvTS3jorEl/GLFJin2DfM6+eLs8Vz/ysqPCVjb4nDjqHxumjOBb7/4HtGOoOmGQTwe5/UGP1cOy+aK4yay8N/vslvY8pkmJ3qtvHHNWcz+9VO4MjO4ZVo59364izfqfXLyvf+Nb/b9CUVE/htE/38Xf3hIAetbq3bKa0UMsweXrtuX8S2RkH14ql7sWTrDbDCrIIuJBVlcPKaE9Y0tXPPyaqJ+v7TAMmMRNCFedkG/OpL7vKu7zcf3g853x+Hk8mQrnbaHffdv5/t+//tWCOnJNCLJq/YXRj62ZyQvOJhbQvLT/a/5+F7SYcO8T8bbv+32Og4AT3wi/i/EvmQ9B2ZzMAvOg+4lYu06HclAz3IvMTCjETRh1dmxYXYSsLRYjFzizCnIZEJ+FueOLCaRMDjz6SUMy0zj+1NLebLdAkscoF9bOIe3qhq5c22VjIdlFfHbZo9g+pC8wwtYkRAPLZhE03+Fnv/dVI/cZUxTxpxzYBIKR3hu4VwC4ShPbKqkJRhmXnEus4blcekraw4oYD1+5nTpSv3AsvX7AsgnEjQHQ7zeGuU3c0YTstj45tLNRMQPu2nw3dEFXDNzHOMfeZYvzxjN3PwsvrlsKxWR5L43wmnhnpnD+cvWOuKR6KEFrMrdrP3MWby+tYp3avYkX0SIqUzE2dLsY3XCijUWZbzbzrTCLGYU5bJwzDB+9t467t8inmu0vRZY8jdB/A4cpMi1cJDfNDm14oGm/QYQ+1Py38SX2lebIX4nO/6782f7/b2rN7u6rucItGcbNHUdTQibKmB7z7Huxpql9aiwwhJBNP3Jc4YqR0FAbKNpygLrKMiprygChyTQZwJWLGRyx9wneL/2LZ6p+AUOm5MFhZexcNwXuOnFTxB3NjE57UzOGfVZmgP1/GvbT6gPVHLzrD8QjYWoCmzimZ2/AOu+rHf7j7SzgCViM316/Lepat7Ga7V/JE6YKVmnsXD0V3h220O83/IyZsTKTTMeZXdbFbnphfxr473UJDYwhIncdMKv+d3K77Het0gGQR7mmkCWtYh1rW8S8Sc+ImCJ56ocawlWzUZdeDsjvbM5d/gXeKXiz2xoe4eEEWdS5imUpo9n6a5XuGzKTSzb9TLLmp+WQzi+4CIWlF7M45vvZZNvGafkfJYFIy/gjrcWgs3guNzzOb74kzy19QF2htagG1aGe6fh0Dxs9i1lfNp8rp5+C39Zexe1oa1k2vI5rewqKYzd9c7VkvUNsx/inaqnWbL7CeJmhBGu2Xx97i+4f/HXCVn2cNHwgwtYT258kCvH306uo4Q/brwVv7kHt5bB2My5Mlh8bWQT84o+SX2ogm2+lZgxC5eNvYUi73DuW3Udm7e0C1g+b9cyPXXhJj6UgLXvONXpEHaAM9b+dcgH7I8dIJOdke4SB3gLLA+ABzp5dmEMg+ISGQPLASKDjXAR6HzYbB+gELAyhhbzhemjeaViN6taQhSYcX5+ylT8gRBfWl3BnaMPLmA9WefjnuNG89jmah6raCBNt/C9aWWcM7Zsr4AlXAj/sW47P1yzU4o483O8fHf2aP6wfhdPb63mc5NH8GZVA6tbw+QR56fzJxMOBrlxTSV3jj24gHX3pjq+M76YvAwv3122SVo65Olw/9wxtBrwtbfXMT3TzV/Pn8e5f3tFBkTX/tu/Q8kdJ6Q7uHfBZO5fuYl/7NqDXbdwSn4a0zNc/HVTJb886zhqm5q5/t0tuOx2rijP547jJ3LVC+9JAWucFuUvF5zItf9ZxtpQggVpVv7vk/P50ovLeG53G1ZNY1a2h6FuG89Wt1BmMfj7whN5bP0uXqzeg8ei8/nxQ7lq6hhm/fpJfA4XP5w5gpV7/PxyfSUBU1hqOLhn7lie2rGb36/byeuXnXJwC6z3K/hktoOvnTiVz760nDVtEdI0jdOLs6TV5qKGgAw27UvA4oY2QtEId0wq5fNzJjLz0Rdo8LW7EIaCMhD34UqHgHJgGXefeHMg8fVQdX98P9gnYMk8j4eY1M6WoqJf+1+7Twg/gPp8uAGnyufCOldYASSM5F4SjyUPU53LXgHLwqleKxnpXl6pbsIXjfGZslx+dd7xlD74BJnZmdw1rYz/7GrkLzsaSKBxy+g8zps4ih8t3SCzfo5Kd/LduRMIxeKHF7BErLeJwzh7WB5fWrSWjaE4GVaNK8oLiITCvFJRy7LrL+Abz77D3+t85Io4c9OHc+KQbBa+uEoKWD+ZWIQzPY2vv7mWkG7hGyPz+OLsCVzw9GI2BmOk6RqnDskiGA7zSlOEawvcfHHuJH62fDPrW4MM8Tq4Y/YY8rxuRj38DOeNGsbXJpfz89XbeXl3G8Z/M7teNTyPK8eVcMvi9eTZLTx67ryDWmAtrm/jrydNpC1hcvuyLTTGEwy1WzivrIDXt1fRpNs5oyiTNc0B2b4eDfPcBfNkjMFPv7wKU7hRtrsQykQewmXsgKXD/jD5YqTjV3nvPSGteDt+LPazwuuw8G13Ud+bkl64lXYIWqaJJtaJfMvYLnJ1/jxV7p/+MM528aoj26B4mbV3zvpD/1QfDk5A3GtCwLLZ0PwB6cKtypETEOdFIy0NTVikiiDuqigCikC3EOgzAUs835xbdAOzSk9mdd3rOKweaYE1vnAWN75wFnFXI6WuaXxm4g/4sPY9nq/+JSGzlVNzvsAZYy/l8fX3s7zpmb1Z5g9Eo7OA9ed1P+D00quZVngSG/YslZeXpU/EZfXyUsUfpIAlnqSmexZyzazvsLL6Nf6y4ftgj0LMzhlDPs+csjNZ37iYhGFQljGB9TXLeXX3Hwi3fdQCKxoyuXzs7RQLwWblZ8lw5nJG8XWU50xka/NqLLqF8TlzeXfXC7xV9Tjnj/wi5dkTWL/nPZwWt+yX3eLgya33s9m/jNHWBXx9/n28tvUxmZmwMVjD+cO/REF6CZubV+C2pjMsbSwrql9hScPj0vrq9OLrGFcwE4M4LYFGorEo+WlDeWD5l8EZ4YTcy5hTchY7Wz8kZkSYmH88G2pX8dTOn5HvKebCQwhYIoh7oXU0n5t+Fy2ROna1bSTXNZR0Wy7/3vRrdgbfZ2HpTUwYMpMP6t/ColmZmHc872x/ntcb/szmje0CVushMrN1y/JWlfQqASE2iEOnOCyIG3z/w2bHmSQnF09xMX87awYZXg8vVewmx25jzpAcHlm5kb9U+/ihcCE8iAXW7yub+f6UcoblZrKkupHSNDdZNp3xhbn7XAjnjqWuzc/2QJSGcJQ5BVnU+4J8f+VWdrUFpDtOXpqHl3btJlu0XZTNwys38VhNG3eNL6K4ME8eyvZ3IbxtfS3HZ7u4ZdZo9sQMNjT5mJztZYjHxXffWcvrzWHKLPDPC+ayuy3Is7vqeGRd5SEzmqWbCW4cP5QLxpTwSmWD3F+OK8hiaeVufr52p8yoeP2MMfx9c5WMfTY1O42pxbl8+pklUsAaRpT/XHwSaxpaZHDlVfUtfHfacE4dNYxXKxvkwW5GfiaLd1Tz4021hOMmnyvLkVZdIguasPDY1tDEDQtmShfCDaaVK4Zlc/WkctY2+akLRphflE1TKMJt725kVzDMG5fMP7iAtWYXnliEe48fR35mBkvrmshz2Jial8GDS9bwTEOIr40u5KwxJbxZ1UjEMLlwxBDerazjpsUbibRbYBFQb3179f7tR42Jh34ZSFiIEiKj6cFSuXcSsK7IdfG1eZNYXLOHxkiM04bl0+z3c9kra8j2uPjR9HJG5GXx+IYKfrd1N0UWk29PG8G4gmyZ7bS+zY/TamFodsbhBSwRV8+ucd+JE3BZrbxV10Sxx8mYdDe/fH8rL1bU87ezZ5LjdvHSrnrynXam52XK2NWffHEVjTFTZlq9ft5knthYwR821xIPh3n0tOnoVivv7m6mwGlnbJaXB5dv4MmGEIW6wU0TSpgxNI9YwqDBH6QtFOa0seUyiPvQzHS+NaWM8XmZvFvXIsciBLMnN+7iV5trOTHbI4O4H8yFcHFzmAXpNn40fwrbfCF2+IJMykojw6rzPy+vICQCzk8fTnaal8U1jeS4HJw3vIh7l3zI73YJV+J9FliIwM9dKZ3czT8iYHV8t+Nz+WEn93QhYImDofhcHAzln7r8N2HpszcuQIeoJX+LhLAlRK12az5hMi6Fra50VF1zxAQsFkwRCNxmhVA4aX2lXD+P9HimIAAAIABJREFUGGNffkEm0vC40WMxTBG3TJUjJqAErCNGpr6gCHSJQK8IWNdc9i9yY6Mp8JSxIbQIwxqRnbPHs5iccQo59iE0h3dT49tOScZ4Ftf/E80TxmlmMdpxIo3RXdQaazH1BGmRoYzLOoEPW94igg8bBzdTD8ZbGGqZisftZVPkDTx6NuPS55NrH0Yo5mdr8yrSbQXSjW4P2+UzjztcxE/Ofo5Hl3+PlW3PyQdO8YBjM9Iod86mzDMOQzOpCW5hR3AlIb2JaJvGiUWfYk3Lq4TtjSRiIubUqbgtXlb4/o3Fqsl4X6PccylwlmHRdXYG1rE9tFyOwWvmMynzZDJs+fiizexsXU+2o4iK6PsyRpUl7mJS2qlkWPPZ0raCGmMtaeQxJu0Ech1DpQBVFdrIzvAqopoPLeohQyuUfiUOq5NwIsDIjOnMHHI6v1v3LRJ2Pw4jjVLHdIZ5xkuBSYxnc/BdInorbjObcvscqiMf0qLtkiKhFSfDLccToZUd0RUyekuWVsLEjJOkgBaIt7IjsJq6+CYMLYrTyGa0Zx4FrlLpKlAd2Mi28ArC+PfGwGpUAlaXbtIBc1HHIeMwD6kdLoRDHRYWFmVS7HEQNUzea/KzuDmEz9Q52xHH4XbxVH1AikhaNMJnhqSxqy3Im1ELYx06ZxZlkG23Uu0L8VZNA2eUFPB/FU3MGpLL92aP4juvr2RKhocCr4uaQJgXdvvYGTNlvJqhVoOFhaJtOzED3msO8HZTkKChcY7TwJPm5h+7A5gWqwymfH1xOlWtAf4T0rBpMNlt4ZS8NLKcNoKxBE9UN7M1YiJCxlsNg7npdk4rzKSmzcc/dtSTnuY56DS2xAysus6puV6m53jleWqLL8xL9T7q4pCpJbioKItRGU4aAmG2tQQoSXPxVF0rFYYVh2lweraLGdke3qxtloHf0ywaZ2S7mZzjIWHC+81+3m4KUW/oMvjzeLuWvK9tNnl4TzcSvH39BUz45RNs0h2kaSbHZziZk+PFadWpDkT5d10rVTETPR6XGdw2N7bxRjSZGkAwOifXjeO/gaxf8BtSlCq3wRn5aZR6nbKNRbtbWemLEtAs5OsGJ+d4GJ/hkvvhlrYQz9f7aYjG0VpbUzaI+4C513ujox3BCQ/VVicXwiwMjs9yMjvHK++nqkCUZ3e3UhkTv18w2WXhtMJ0WgMh/ljnJ8dMUOi0EROx4i0W2mIG148tZtawAs548m1ynXbs1o7UFx/thBCQWhNQ4LByYXEmeS47oYTJkkYfS1rDBAwos8GnS3KlW2FFW5CGQIgch5XHGsL4NQtDdYNPFGWQpps8XtvGjiiU2jXOL0iXe2IwbvBOo49328KEsJCdiFJq14nqYLda8cVNzsnz8oUTpjLhDy+ie7wUWeDMfC8j05wy8+HyRh+LmkO0GBrjrAafHJrFXeurwZMmBzRUM7igwMvzu9vYaVqlG+WsdDun5KWTZrOwOxTjxd0tbI6Y6JrGaLsm970itx0DjSUNbTKRhE84kHaOgdVVAetY19H+ApfcjISIJQQuHc2iYwh3S/EgZ/m4sCXdEw0DSzyOIayGhbWfElmOdVak26+MoSSsd8RaCCvx6tih9kEN4l5KS3pK6G0iyc6BE2b1Qc8GTJNKwBowU6U6OsAI9I6Adfk/28PViqg/H90ANZEzyUxGzxCf6ZqOIVL3tR+GtfbIGnvjJZiavMYaT+OKcbdzXMkZB0X+28Xf5f3Qs+1m6sl2RX2mqbdngIsn39iJlg2TWMDkvOFfYV7ZWXz/zUsx3fu9cZA+KFZk7CIt2V9ZTPES0IIh/7vDID7p+tJ5vMm2hfQjHqTiH4kBoWPB2BtMKLG3X53rk99v59QxFs1MPmCbneort8zjhhN+zqNLv8/yuhcoShvBVVNuo8m/m8d23ElMS45LhhA2RZ3tIYu1fZFQxGdJ5p3ipcjrOo1JBj63YBrtgdA1Efa40+tMOa/iraj4VpKXaehsaA/irgSsAbZbdFN3pYBVWi5dTMTqtWjJGCfCradjBXYcGzvHNO/IribdN9uzrSV3FA3DNLHomhRrzinMkALWlS+tYLuIJZx0+CS6XzClvW2LMC/modsWB2AZDqadQbL95J0jrADi8tCzz+lM7hQaydhR44u4bu7kg9L78eK1/PTDSiKa2AWSQZDEXrD/2AUnGStZ7DckP++420Q/LPJ7+/oo/639is5sC+Jh6QL41PqdPLBqCxk2Kz9cMJnjhhUy+vcvEHMmxbbk95OusiLTYOf+iLGJtjrv5gebM7HDiEEld7x9jDr6J74Xax+PJjLNtbYoAaub7rVBX00nAWvfmk2uMrHmO69Zec+2Lz8hYn+tOGkBdePLy1hUvYdTi3L49blz+fOKdfxpZyN/PWsmk4vyDoiwui3Al15bxau7fVIsE2tctCra63xPiPtEBIeX923y1zAZL6t9txD3gPh9FPtWx73ceU+MJ582ZLkw28ldp83k9kWreHZHHbNyM/jtJ+awrKqez761AVO4b7ffsx33XOf+dIy/817VsY923kuS17XvbaK/nX7S9+17Jqamy37vHW9fCFhdXeAdQpfIriaygYn4PkKc7LDWkg82yUkQe5B0VxV/CkFLlSMjIJi6nMn1KJK3KPHqyPj1s6tNEcvO5UQLhZJCpCpHRkCcMdPT5JlOuRAeGTp1tSJwKAK9JmB19zQYMQ1nLAu7dnA3tLZ4A3pa1zZcVyyX66bcRUnWaB5+7w62xN46pHtid4+nO+szwhbOGHIdZ46/cm+2q031q/jnhntp1Su7FBS5O/vTuS4lYPUU2YFTb2cBqyd6fVqel5umlPOVt9ayLZmks8+KbhrkR4PSRfJgZXfcoNFi3xfsvId7azENrsj3cPP8aWS5HFL429rcxi0vvMu7cWvSLaePihKw+gj8QG12PwHrSIbhjke4d/ZozhtfLg8XYtU/s347N7+7kYTFRrEZxSli+BygxAyDasNCwGo7UPraI+lGl6/1mnFunziMS6eOxirEbl1j0Y4qvvXGB1RZD26J3uUGjvXC/ixgHWxsIvukxUJCiFlWK5qwHNpr1aXJRCPChVUkCDDF3zsHjj9WXoPx++I+cjgwRRzMaAyE6KEs2gb0TEuX3Ix0Keya/sABY78O6AH2dOfbBSzRjNa6L7trTzer6lcEBjuBAStgdfvExKxk6MX4I81E7W38N9nWgC6JqCldNLNdBYQTQVoTdWj2WLs1VN8NTQlYfce+v7Tc0wKWOxEj3YjTqFmJiwOmKh8jINwAs8wY5R4nUdNkkz9CxC4y/vWdeCUf8JQFllqtR0LgGAQs0Yw9FmGYVSPHZachFGVXzCRhdxxJD3rxWhNbLEaRFRkfqyUSY0c0QVzct/2hDEQBa39uYv8ToqUIQC/ELHF4b4+xJRIxyEO8tMzqiJ/VKRNif5iDvuyD+OmwO6TroLRiE+KVsmDryxnpvra9XkyLjhYMJhPzqNJ1AkrA6jordaUicAQElIB1BLDUpcdOQAlYx85woNfQ0wLWQOeTyv1XAlYqz/5RjP0YBayjaFF95WAEBoOAtf/YZOwsi3Q7lMKWiKMlgsWL2FmJBHo8kbTM6hC0Unl1OOwyaLu0WhPilUi+oMrgIGCzYXo8yUD8Ym5V6ToBJWB1nZW6UhE4AgK9ImBd9ekn0HX1Y3YE8zJoL1UC1qCd2i4PTMvOxSgrExHEu/wddWFqEBAClt7SgrG7FpWFMDXm/JhGmZ2DKeLpieynqvQtASFgNTVBTaWMfTToirTGSgaDl3G02kUtUwZwTLoairhZeiKB/LcUKprdjiEyDpoGWigMsVgKjT4Fhtohwoh7PCgs69R5rsuzrgSsLqNSFyoCR0KgVwSsiy94BY+n+Uj6pa4dpATiCRub1k1hZ2UhKoj7IJ3kww0rIxNz+Eh16Dwcp1T8PB5Da26B+jolYKXi/B/hmM30DBgh9pJkAHNV+pCAcP9tbobaqsEpYHVGK1wNhWuhbsG0WZO/Ze1ZMzWRqU0IOCIGVApkbTNFpkGRcVAEyA8E0JSLWR/ehD3XtMwqabcnBcpoHwcX7blhdnvN0g1ZZHJUMbC6na2qMLUJ9IqAdeLsDxk+cn1qk1ajlwR8bXns2Dacypo8JWCl6JoQ2Yn0seMxnK4UJaCGfVAC0UjSimNPoxKw1DI5PAHh2jJuAqi95PCsevqKUEhmEJXi82C0wDoYPxG4XFhZiLhZdhtC0OkI9i7FHOF2NVgtVoR7pdsNVh3NL+IjKcurnr7N+qx+MddpXjQhXgkRK8WsDI+Wu6brGIKb4NXmO9pq1PcUAUVgPwK9ImClucOcfspi0tKbOiV+V3ORWgQ0YjEHO7aNIRR0UlGdT7NPCRiptQb2jdbMzYXykX0eNDxV+ffLcScSWFpbMESg2JZmCAb6ZTdVp/oXATM7B0aMUntJX06LCNrd1oouRKzGegwh2qRokWKW0ymtssz2APDCtVALR6SL4aA5+AuLK+E2KDLshsJoqSRapuLaFvPtdiEEGQLBwSvKdvPcKgGrm4Gq6hSBdgK9ImDpusnosmrGjd+I0xlC0ww1ASlEwDQ1ohEXDfVDpHgVCjnYWlFIODbAUz2m0Bx2+1BF+vKychKZ2cmDZx9nv+v28akKu05ApqY3wOdDEwFiY1FoaYFo6h6Cuw5PXSn2DhkHKysLNF3tJb25JNrjP2kBv7S60mMxjD0NSaEm1YsQr4SIJdxbRfB3TU8GOBcWLIKPcC8cqFYs4vfa6cB0OOR4pFvZQB1Lqq/TIxi/nG+RZVL8TkeUG2GX0ImYeV5lgdUlVuoiReAICPSKgCX643ZFGFW6m8wMHxarMjM+gjka0JeKUKZGwko07CCe0DEMndr6LGoaMgf0uFTnj52AcD0QAd1FXAVxCBVZuFVJLQJifxABj2XadXG4E0KW3w9+X0rEj0mt2e650WouN0ZODprdofaSnsP8sZplsPJO967u82GIe1eJGftYCbFHuF+J37mOTIYiGHY0Jvc9mcVwoPFyOBAxkeS+LYJ6p0Csr168rfpvU1Zr0gorYYCwlB5o67YPyCoLrD6ArppMCQK9JmAJK6xMb4iC3BY87jCallpZWlJiNR1mkNGojcbmdOr3pBNL6ApJqhMQD/YeL7g9KqB7qq8FMX4jkXQbDASUBYdaD0dGQO0lR8arm68WIowWDCAssaQgo8rHCcjA7zrYrMk4WSKToRB+hAgkYkeJLIYDQRAQVmVukXHQTGakU9Z2qbPaxRp2ueT61cSLJnWvH37u2y2wMEw0n4qBdXhg6gpFoGsEek3AEt3RNROHPS6tsezWhPIa6tocDfirhFYprK+CERvBsIOEoWxtBvykdtcAxAOReJiXWZx0TLU0uovsgKpHN8CIR9HEQU69zR9Qc9dvOqv2kj6ZCs0QP/CxpAij7t3Dz4H4jdN1NIsVQ1hliSyGwiJLBHwX7oX92SJLWOB43MkxinhnItOiKqlFwGGXsc9kTDcV9+zwcy+sL70elIB1eFTqCkXgSAj0qoDV0TEZ8gZlgXUkEzXQr026Cil1YqDPY4/2X8XB6lG8/b7ygWB90O8hqg5KAmov6d2FoO7do+Pdkb3Q6QCRxdBsF7KEONDPrFtMIbp5PJhWS9LyKoUD9R/dZA+Ob5nCDVZY4In10No2OAbVk6PYK2AZaD5/T7ak6lYEUopAnwhYKUVYDVYRUAQUAUVAEVAEFAFFQBE4CAHpViiyFwqByDQxo1H0UFjGCOzrIjMrul0yjpe0vBFBvFVJWQLShdThSAoyyoX0kOtACn7SAksJWCl7w6iB9wgBJWD1CFZVqSKgCCgCioAioAgoAoqAItBFAsJy0G7HdNiT8bJEnClh6SRc9frKPVP0SbiNOZNB281AUApsqqQuASm2ClfSeBzNH0hdEF0YuRKwugBJXaIIHAUBJWAdBTT1FUVAEVAEFAFFQBFQBBQBRaDbCeh60tpJBHwXwd6FO2EkmrR26W0hy27DdIqg7QZaINj77Xc7XFXhMRMQFnleD5pYm20+zN5ek8c8gN6rQAlYvcdatZRaBJSAlVrzrUarCCgCioAioAgoAoqAItDPCQiBQFi7mHZbMuaQCPQeiyYtsnqjiPaFu5imowm3QRGoXxVFQBBwOpLB3ENhFcz9UCuiPQaWFKGVtZq6dxSBbiOgBKxuQ6kqUgQUAUVAEVAEFAFFQBFQBLqJgHDhE3F0hCWUyFoo3AqFK18kKv/sqWJqGprHnbQAE3GvRIZE5TrYU7gHXL2asBJMT5PWV7rP3y9itfVHiEKENoS1mhKw+uP0qD4NYAJKwBrAk6e6rggoAoqAIqAIKAKKgCIwyAkIty0hZLlEoHcrJAw0ISqJGFk9ISy5nJgiULew9hLWVz3RxiCfskE/PCFw2mxowWDvWQUOMKhKwBpgE6a6O2AIKAFrwEyV6qgioAgoAoqAIqAIKAKKQCoT0O0OEi5HMtB7ItHu3td91li63U7C494XtF3FOErl5XbQsUtBNT1NCqlaMKSssA5AqkPAIp5AC6iA9+pGUgS6i4ASsLqLpKpHEVAEFAFFQBFQBBQBRUAR6GECphCvnE7pWqiJtoQ1lnD1M0SGwKPPEmharUnXQUgGbe9BN8UeRqSq7wUCZpoXhLtpMKTWyoF4W62YMmOjErB6YTmqJlKIgBKwUmiy1VAVAUVAEVAEFAFFQBFQBAYBAREfSxyQHXb5pybc/ISIJYKtH43VlEXHdLtlzC0ZtF1kPlRFETgUAbtdBvqXcdLCYcVqfwJKwFJrQhHoEQJKwOoRrKpSRUARUAQUAUVAEVAEFAFFoIcJiIDaIlOhzZYUn4SAJWJXCeuprsauEmKYiHtlt6OJuFoiu5wqisDhCFh08HiSgqmwwjoa4fRwbQzkz/cKWPGkRaMqioAi0C0ElIDVLRhVJYqAIqAIKAKKgCKgCCgCikAfEbBYkkKWyFYoXACFiCXEqMOJCkK8EpY0LidaLA4iKHdXha8+Gqpqtp8QEMkFpCurPRnMXYinquwjoAQstRoUgR4hoASsHsGqKlUEFAFFQBFQBBQBRUARUAR6kUCHW6HTIa2xdMPAFO5dIkbWwUrHIds0kyJEPNGLHVZNDXgCNpt0IxTilSYs95T4uXdKTZsVhFtuXFlgDfh1rgbQrwgoAatfTYfqjCKgCCgCioAioAgoAoqAInAMBIRljIiNJaxjRJBtYRkj4loljI9WKq4TLmBWi3QBExnlVFEEjoiAcGF1udDEGvIHZGZMVZIElIClVoIi0DMElIDVM1xVrYqAIqAIKAKKgCKgCCgCikCfETCFqOBySWssYRmjiUDbwrWww0rG7WqPeyWyGCrrmT6bqAHesCks/pzOpAWWcFtV5SMC1l7XXMVFEVAEuoWAErC6BaOqRBFQBBQBRUARUAQUAUVAEehfBEzhViissURsLF2HWFwGatd0HcPjTlpnqQDc/WvSBlpvhEAq3AjFWvP5lRthx/xJ90pxj0WT95gqioAi0C0ElIDVLRhVJYqAIqAIKAKKgCKgCCgCikD/JGAKkcHhAJsVTbg3CbFBWGWJ7GgiY6EqisDREhALyunEFOsrGEwmEFAFzWbDUAKWWgmKQLcTUAJWtyNVFSoCioAioAgoAoqAIqAIKAL9jIC0xnIgXb7E3w3hVihiX8UwVfDtfjZZA6w77ckANCGK+vxqPYlMoErAGmCLWHV3oBBQAtZAmSnVT0VAEVAEFAFFQBFQBBQBReBoCQjRqj3ulcxMaLPJmqQbochWqAJwHy1Z9T1BwONOxlQTVn0qIYC8v0zhpitYKBdCdY8oAt1GQAlY3YZSVaQIKAKKgCKgCCgCioAioAj0UwLC+srlTMbBEq5eIg6W+G8hZBkGejiCqYJw99PJGwDdElZYaV60REJZYYnpUgLWAFi0qosDkYASsAbirKk+KwKKgCKgCCgCioAioAgoAl0l0O7iJeNe+QNSsBJFE1ZZdjuGcCvUdTQRD0tYiyhrrK6SVdd1ImB6PWC1ook1lOpWWO0CliUSwRAZGlVRBBSBbiGgBKxuwagqUQQUAUVAEVAEFAFFQBFQBPohAZF9ULgOWixo4iB9AGFBs1hkbCxTiA9C1IpEk9cJoUvFx+qHk9o/u2RaLeD1QjyBFhRCqdk/O9obvWoXsMS9pIVUFsLeQK7aSA0CSsBKjXlWo1QEFAFFQBFQBBQBRUARSEUCHXGvIhE0EevqYIKUpmEKd0K7HawWtISRFLFEjKx2i61UxKfGfGQETLcb7LakaCOE0FQtdhuShRKwUnUFqHH3EAElYPUQWFWtIqAIKAKKgCKgCCgCioAi0KcEOsW9IhRC64oQJSy2hPWIELIsOgi3wmgMPaayFfbpXA6Uxi3CCsuTdEMVroRdWXMDZWxH0s+9AlYkafmoiiKgCHQLASVgdQtGVYkioAgoAoqAIqAIKAKKgCLQjwjYrJgej3Tjku5c8cSRdU64g9nsmA67tNqS8bFUtsIjY5iKV2samtOB4XCkdiysjiDu4p4JKwErFW8FNeaeIdDtApammXhcUbzOKOLvqigCByNgmBqBsJ1AyI5pagrUICVgigcZhxNdxN4YpGNUw+p+AiK8sJGIo0cimCr+SvcDHog1CqsQhwg0bcEyEPufQn2OC4uLaERmI1OljwjoOjKgtsWC7g9gCjfAoyniN9xiwXCKbIXWpDVNNIomshWmcnyjo2GZQt/RrFYZd80QwmcgmJJWWNKC0e1Kuu0qASuFVr8aak8T6FYBKzs9wLSpGyku3ommqYeWnp68wVC/aerU1pSxetV49vjcKMlzMMxq+xhELI30DCgrB4dzEA1MDaU3CeihIFTsxPS1qUDCvQm+P7UlDuJ5+TCsRIpXqgwMAiLzlllbjbmnUWW06+0pE7+/blcyllVYuC91UwBpux3T5ZTZCoV7mHSLElZZ6iVDb89w/29PJAIQLxyE8CljYUX6f5+7uYdKwOpmoKo6RWDvEfPqW7tFM8jJ8HPS/PfwpjUpuIrAEROIRL0sWjSPusbMI/6u+kI/JCAeXHLzMUtK5dtfVRSBYyIg3vZXVkDTHnVQOiaQA/DLVitm8TAQApY4NKsysAgYBlptDdTVKBGrt2ZOCgd2TCEcxONo/kD3tiwEZadDxsjSNF1adklLWWFtp4Ss7mU90GsTmS2FBZLYu33+1LPCao+BpSywBvpCVv3vbwS6xQLLopucumAZRUUV/W18qj8DiEBt7TAWvTObaEwJHgNo2g7cVbcHrXwEhoi9oYoi0A0E9LZW2LkDM9xNlgTd0CdVRc8T0HJyMYeVJoNJqzIwCQjXta2b0Hy+gdn/gdZrEXfH5QLaXbd6yo1TuIgJiyzhVijcDKOxZLbCRFy5Fg60NdOT/W1PIiATAIiA7ikkcmp2O4Z0IQwnY8epoggoAt1CoFsErOy0IGef8yJWS7xbOqUqSU0CoZCbJe/Oo7ouW7kSDvQlkF+AObQExAOuKopAdxCIxZJWWMIdKYUegLsD3YCtQ7y1H1aCmV8oD8iqDFwCenUVZk2Vund7egotOqbLncwcGAqjRaM92qImXBWFlaTdBlabFM2k1ZcQsmLKtbBH4Q+QysUaESKOtNgTLqcp5EqoBKwBskhVNwccgW4RsMqKmjhxwevougi7q4oicHQE4nE7GzdM5MMN5UTiygrr6Cj2j29J8apoiDp09o/pGBy9EKJV/W606spkzBVVBj8B4X5SWibdkVUZ2AS0tja07Vsxo8oKoSdn0vQIoaA97pUQCnpL7Nc1sOwvZCXQYlG0WFwl4ujJSR8IdYu9XCQUAPRAEDNVfsOFK6/LhR4KY6aQcDcQlqTq48Am0C0C1vDiRo4/cZESsAb2Wujz3ifiNip2jmLdxuE0tbn7vD+qA0dPQLj8UFj0/+ydB3wcxfn+v7vXdTr1XixLsiz3XsAdCBhMCRASQvlRQgokQCihJAECpNHDP4SQ0NIg1CR0DLbBuOLeuyWr9y5dv9v9M3N3slxkyyAbG27yCSffzc7OvLMzO/PM8z5vFMD6/CaMXnkQCyitrahV5Wj9JUgctfLxbQHB7BggAKzU47ue0dod1gKK04lSU4XeGtVJPayxPm+GsKuWZEAJVy0RLfBYJ8HIErqXQrxbuBaKJMTehfvU542CeKzbEL3fUbGAZCPZYyQ7T7gSKl/G83lUWnaIQsMAlsHtQYsCWMfa+tH7fYUtcMIDWJquoCr9okN/XHTzsW6Priug6BwL54zDtU0AWFWVhWzdMZCGlrjjoj+ilfh8FjieASxV19FOUHckg65L99pjVX9hKzE3BI+BvfrSNqWtDb26EsXlPHbMgs83BKJX9YcFvgIAlhg/yjGec8RYOhZjVnRxX+dT1eVEa2hAaajrjycjWsb+FhBjxREbAq26nChHS/fqCCwvXAsREQuNRvkeUQJBNK8n5F741Vm2H4FFvmBW8R622iQ4qB+Dd/IXrO3BLxeBBYwGEK6tQjPtYEnTUN1udOn+eoI/KFEA66g8RtFCoxY4oQEsza8wM/VyqlvLKVUWnfC9qXdZOL/wJuaX/wunteaotyfog3Hxc/AF/Oz0LyRILy+TcE1UDBgVCwHdh8ZhXHh0iNOzGR43i+1dS2h2VzMn5zpW13xEk2XLQdsWAbC27RxIfXMUwDrqD8BRvMHxCmApAT83FKRQ29TKf53K59rkmRSwqQpuTcd/DNdWyQa4NM3G+g4vSzoD6Ec7Ipuuc64dhqXG8XBpG9phokkKp1+HUcUVCOLrAyQ+2KxyUXYCb1S1sM0PP0yz4lRUXqju6FU7TQBYwoVQjwJYR3H0HkdF9xXA0nUSTQbcQQ3PMRyTh7WUrlNs0jkvM4HXqtso045+FEXF6+HnQzPZ2djK633QTLeI+cyg0u4PHnZTLIC4GXEWJibZeKaiFbc/wF3FGbxd2cQq36HbJgDhF96VAAAgAElEQVQsGhvQ66MA1mGfmyPNINyz7DGhKJ0uV0hM/XhKAsgSoIsALlQFJaihe4VroQCy9OhhxOH6SoBVjjjIzkGJdRyzA6zDVeuo/i6ei7ZWlOoq+UyfsEBWFMA6qo9JtPCvrwVObADLq/LT8U+xuWo1H7c9c8L3otLl4OEz3+fhRddSr24+6u0J+hQuKf4FLo+bD+qewq8fOrpXoiGHobEz2dX1KQ2BkkNr6uqQqhRx2oDLWFr3X8pbt3PfrNd5dd2f2RaYGwWwjnrvfrk3OF4BLIPfxyuzx7FlTxX3l7YeOYCl6wyzGTkrw8Hb9V3sdB87LaYsi5FHJwzkvcpm/rWnCQ4DKH3RJ0DVgvxsUCqnFGZx1vvrDyvIn6lo/HhoDm+X1LCyDzI3Yx1mrh8+gH9sKWdZh5+nJw2kQ1G5eel2dKHhcpAUBbC+aK+eYNf3EcASoM1jk4p4p6yBBe19ePiOkRkE4DM9wcwd44q4a8VO1rsCR59P4Hax4FvTWLR9D/eVth62pTPizMzOTua+jWX4TJZD5le0IN/KSeLsAancuXInLp+fBRdM4/fLNvNGs/uQbYsCWIftis+XQWhP2WzoJhMIUOh4da8WIIx4Z5lNUvRdgG1ifOg+P2oggC4YY18Hl7LP08vx8VBYhC5F8r9myeNB3b0zdGh1IqYwgCUDKkRdCE/EHozW+Ti1QL8AWPnZTXxj6gZMIvoJGnGWFNp8dbj1dgyalVRrLgbVSIevmS6tCU3TSDZn0+FvJqh60DWIURPlQYyHdlA01KAZuzGRrmAzunrwTaJ2EADLoFmIN2VgM9px+ttp8VdjUFWsJKATxE17N/Bi1mKxGGLpDDSgKxo2JYFEawaaFqTFW41fcSGIBEY9hlhDEu3eRtLteXg0J23+Gul61510RV6fYE4jqAdp8lahqR75s1G3YMaBpgeJt6TgD/poDpSjKAbsShJx5iS6/O10trt4ZM57ewEsHVTNSrI1G5Nqps3bgFNrRhEHnZqBBFMmre56UmKyURWVFl8NQSV0z4MlUVs1YCEtJg9d12jqrONbxT/F7esBYOkqsUoycZZk3AEnraKdahAlaGRY/Ey+MeAyltW8zZaWJbiUJnkqIuwj6igYWq2eOtyKsLGOIWAjJpCG09BAwB/kvpk9ACwdrEo8CeZ0FBQa3VV4dB/VlYVEGVjH6WwhXACEvkUfRGElgJWeQY7VSJbVjCcYpMzlo0O4rOoaA8xGAsGgPEnMsVvp9AWo8Phxh5k7wt0gUdXJs1sRj3ul00ujJtznFKzopBkVyRhIsZpIspipd3up8AZDJ9CinppGtsVIdowZT0Bjj9Mj760G/Lx65ji2lFbyVHkbObE2nIEAFW4/TlG3cLKgMdBqJs5spNnjk2UHFIUYXeNbuUlcOWwAf9tayZK6Vsr7gmHpOqlGhZwYiziApqzTQ7OQJxFloiPAqWqXh6J4uxwP2zvdeHXINBvIEm3wB+kMBHlwUuG+AFYgwDCHjRiTgXq3jxpfsBuUyzNCQNOxGA2yHbtdProOI4li1jUG2S1YVIWyThffL0jl1EHZ3QCWomtkmAxk2SwENC1UT9Ug2zAh1sQTsyfyzMqtLGhysc3pQUxWcSrk2czYjAYaPT7KPCH2WKwWoNgIO30aLoOZZ/YBsEwkKJBvt2JUFWrcPqq9AaQQdJSBdfxOEEdSMzFWD7dh3Q/AsulBih02jKpKpctLg1/Dhk6BUee9757K02t38u+Semr8QTy6glkLMtRhQ1UUKpweDAqYFYUasVfuQ12Nukau1USKxYQ3qLG1001ADQUYSVbBoYp5KEBBnJ2OQJBdLi9C9SffZibebKTe6WFgjIE7JxR3A1jiWoceZFBcDJquU+Hy0RLU5VwgQONCm5l2n5/0GCv+YJBSbxDfIVhlYtaKV3Q5VnxakD3Nbbz9rRndAJb43SLaYTORYDbR6vWz2+2TYzPRoHBNYRpXjyrkineWUR9UqPbrco7PMBvIsZklKFXa6aYVVc7OWXqAVIJs1Y1YtMC+AJauk2VS5Tzn0zTKnV7aNCSzKwpg9eGBO9IsAhQSzCarRepLSd2rPryfj/Q2/Zpf1FmMfZNRAlmKIaKTFQgF5wgEpWbWcd+OfjXKIQoTQF/xMDSH41jd8bi7j9LUCHtKTsxnIqJL53ajeI9uRNDjruOiFYpa4ChaoH8ArKxGbj07g8FpwzGZxObHxoel/6LRXcnswivJtBfgD3ql29mSqv+ysW4ZV4y8ixUV8ykNLMVMLDMzLyXgD7Ck+RX8dJGljGZSzmze3fMUfuPBefD7A1hW4pma/m0GJ49H1zQsJivLKt9mTdNcxieeg90ay9KG1/ArToT20/jYc0mLy+Xdkr9SmDSKU/MuwazYMKgm6l1lfFTxAs3BSvItkzij4HIauirISxjKxoYlfFz9ApjCNG1dZVDMZGYOuAizuvf6d3Y9jdvQSKZlMJNSvonDmkicNZmy5u28W/knihNOYtaAi1AxoRFkTflCLhl/swSw6pTNJKrZzMq9hJzYIvxayG1vYcUr7OxagSUYz+Uj7qa8eRsjMk+mur2UjypfoEUv7xW8itUzOKfgB2TGFuD0tlPXWUFOfBGV7btCDKygl6Gx05mRJ+pkkKDjtqYVzK/+O9ZgAleM+hXFKWOo6Szj07IPWdb6MgmGLGbnX0myLVsubr1BF2/u/CuN2g6SjQM5Oe0CVjS8TX1nxV4Ay/8BaeZBnJp7KQ5TsgRFfJqL/21/no3lShTAOooD/osWragqmtkcov4fSmMjO5ezxg7hByMLCPh8GA0qW1u7eHpbldxIPjCpCENQIyvRgd2gYDYYeaekmn+WNdGpwVirgR+NKSA31ioBnRafn0dX7WSdK8Bgi8KPhubgDuoUJjqINRsxGk38ZWMJb1W3SVD1jPR4fjgyn4Dfh9loZEdrF3/ZVkm5081rs8fT1tqO3eEgxqBgNRmZu6eOv5U00BbUcRDk+mEDmJ6dTCCoYTAYeGNXNX/bXcuwGBOPzBrNsLREdjS18+HOch4uaT4kpd+o60xOiuH7w/NIMhsxqQodAZ3H1+5iRZubEXYzt48rpLLTyaTMFPa0dXHv8m0UpMRz3ch86ZYnNpQ72zoZFGfjP6X1koGVpOj8eHQ+s7JTcXl9iKXRy9sreLeuHXdA47FxA3FYzaTYbTg9Pn63vpStTn+vwvoxwQC3jspjek6qZFZUOkMnhoPSEjjz/fWYjQZmJMdy1bABOEwGbEYjG1s6eXJ9CQZV4foh2Vw+fghb61qoaHfyg4/WkRoXy3VDcxmRHCcPN2IsFp5ct4s3atoYHWeTDKwH15VQ6tW7Aaxblm6nMNbK9aPyyY+z4fL60VUDf9myh8Ul1VBdHXUh/KID+Ti4XrIwpBaKv3cx3x4AVrai8fPJxRQK0NnvpzOg8/yWcpo7Orl36gjmDMljS30Lc3dV8VxJPcFgkJ+OKWB8agLtHi/lHS6CmkZDexd/LG/Fox3a1zBBhQsHpHBuQSZoQeKsFpbWNfPXTeXUBBW+me7g7Lw0OT9kxdpYVtvMExtKubgoh3MLM/EIoWIUtjY0Mz49KQRgOQOMtKrcNqmYVKuJgK5T2eXh8Y172On0kxzw8vezJlHW1klRUhyrK+p5vKSBRn/vcFuxSeHmCUXkO2zSpW9VdSPnDc3jvU27JQNLAG2X5KdxxsB0eXgYa7Xy8vZyXtxZw5Q0Bz+fNITx2al8VFLNx+V1PL2rjinpCVwzfCBxRpUYk1ECyL9fsZ2dXo056XFMTXXw4LZqgj5fN4D1VqOT6amxcs4y6Jp8r1d0evjzlnJ2eYJRAOtojDmzKcS+0rQQeHUc6F4dUTMFkCXcH8VcIBhk4nRHgNpBTYJZigC0TrQ2HZEB+pDZbochw9AjQF8fLvnKZRG6aTu2g+fQXiLHZbujANZx2S3RSp34FugXAKsgq5EHLprIGcO+xZubn2F9/ce0eOs4q/B7FCeP56XNj0jw5aTsc4izJPFGyR+5sOhGvF4vL5XfR27sMC4Z/AssBit/2nA9bcF6zkm/kdSETP6+5S4U0+EZWAtbn6PYNpOzBl3Fh7tfpKarhLGpp3LmsMu5e/63GZ4xkSnZ3+Q/JY9S691BwKtzw6i/srttLatq53Lx8Nuob69iceV/iTHFcnbR96lzl/Nu2Z8Z4pjGtZN+x4qyeXyw++90ai10KQ2oxtAC2OBxcMvkv1LatJHFlW9gNTj49sgbaeqq5fntd1CUMJ6rht/P7ubNfFT6Ei2eenRDkOvGPUxZyzaWVL5FjCGOC4ZfS0HKcH7z0VU0sZszB/yIvNhhvLPjGVyBdiZnnUN+8hBe3fkQXe5O7pr5Im6vkxfWPSgZX116A7r54O4TesDARYV3MCRpAv9c93u8WiejUmcye8hlfLLnDT6ofQqbP5XrJ/6BNVULWFM3j2z7YC4YeR2vbniczR2fMDJhFqcXXsbS8rfY2LAYt7mJi/PvJjkmnbe2PU1AD3Dh8B/j8nbxt513MMA+jHPzb+DdPX+hvHVbtwvhbv8STs24kqzYfOaV/htPoJOLht5Ms7uVhz76FztKoxpYx/PUogsRTrMptLgUJ0oHWWDmDBzA05fPYXNNA8/vqCYrxsJPRhfyVnkD/9xWyZsXTGFSRjL3LljFkoYOzhqYxgWDB/C9eWvY5vTz5MRCUhwx/HHVdmmKn08ZQWlzGzeuLmNsnImXz53CroY2nli7k+rP2FffG5zDtMIcrp23hgZvgD/PGkVJQwtPb68kzWbm9gnFzK9u4U8bS3lpjpgLUrl//iqWNHVw5sAMLh6Sxw2fbGJVm5trcuL40cShPL5iC+ubOzk9J4VrJw7jxneXs6zNzfkDkrhqZCHPbSplcXUzlUqIpdBbKrAYuG98IT5/gOe2lkkm1c8nDCbJbufHH60nI8bCM2eMp7HLxS8XbaDBF8CiGrhvynDanU7+uqUcVyDALycOYWJuOvcu28K/Shu4bXiOZE78av5qdru8nFeQyYy8DG5dupUNrU7mzRlPTryDh5ZtZFldK1V+nS61FxeEzzbS12Q5uHXqKB5euoHVzZ3MzknhhxOGUt7eyenvrmFInI3fThhEWVsXL++qIt6gct+sMSyuaub+lduYGB/DE3NO5vmVW/mgrpVKt58fDs3ltNxUnli3SwJiPxySy5TCXC58axn5cbE8On04P1ywjo1dfp6ZlB9yIfxkEz8bN4hvZCVx76fb6PIH+b9BWaTEx3LXvFXUlUc1sI7n+aHPdRNsTpttL4glBHv3Z2RFAKykZG4vSuV744fw43eX0f4Zq/LK4QOJ/WzTe++qHTg+W1/MveQMnlmznX/urKLOp3PnmHwuHjqQu+evkuPjtOwUrps4hMUlVfxkXQUuwXrqLWkap6bGcs/kYt7ZUcG8qiYyLEZ+c8o43ttTx+/Wl3HVoHTumTqS97bt4YmNpbT7AoxKS+TOSUP4z+ZS5tW2UPwZE+kXM8fQ6fFx06LNlHa4efGs8TKE/P3Lt2I3GrhuzCDJ8rxrfTl2t5Mt153PxyVVPLlmBzs7XFTrRvySdn2QFPDz/JRiBiQ4eGT5ZloDQa4clsclowfz+MLV/K6khQuz4rludAH/2FTKqsZ2ZqbGcc2kYfxy4Xo+be7kB4OzuGrMYC5/cxH1Pg1rTAy/nziImnYnL+yoxK9rPH3GJJbVtXDrsh1cOTiT8wak8MMl2/B49wJYixo7+NMpo+jocvP4xlKSLCZuGF3IyqYOnhBgl8cT1cDq8+A4fEYR6U+xC+6rEnIbPJEj/Im5QFVRBZglXAwFmCUCiAiQWUQwFG0TgPDxzi47fLcdcQ49KRkKCiHM/DziAr4KF4i1ZkUZSnPTCcfC0kU0Tps1BDBLUfpoilogaoH+sEC/AlhDskfy4PIrMdo0goIJ3GlAES7vDo1gUGdY/DQmp57H3Oq/kmsZzRUTbueG96czIm0K45LPIi+pmBc2/5ZS1ypuHPm0BFGWtbwe8Qo6oL09GVgftT6Dr0NF1Q2o9iCKqmH2JfKncz7hkUXX0Ras4bz8n7K4+nV2upaQqBfwixnP88iSn5CZkMuk1Dm8tvMRWrQKyVweHDOFM4uu5o3SP5BkGMCPJv2WG985DS1GMDyE68/e6kx2XMzZw67ggaVX4zI0yB+LzDO485Snufn900lxpHH2gB/xXvmz7HaulO51wyync+6wa/jzmp/RqVahozJIncots/4f982/AsXq58KCm/mo9N9scy2W7opCg+rbRXewsWU+G2uXc88pL/Lv1Y+z2fteSODwEKEEUw2D+Mn4P/DCmofZHViMcMZKMgzk8qF3sadFbDif4pTk7zEiayKPLPsBWP3oQYUL839GXsIQHlv3PQbGj2RO7rV8XPUiO53LpVuAr1nBYFYx2INycTEj9TLOGXwVt358GvkJIw4KYJX4lzMn6zpsFhv/3f04HkMrgXYDAZ+JuvaBX20ASxF8IuFSsfchEnYUTiliOxX5PhJhZm+gGSUEkoSv25s/1Onit73l7i27x20OMl8c+MDsvcehphcFxWQK1VWc/Pr86B6P1LOIpKL8Afzrmgv419rt/Km0EdVoxOx2IhRggqqRt86fgqvLyaWLthNUDQyPMfKXU8fw+yUbeb/Fg7mrDcwW/JYYeY8bB6fzzeIcTvnPUsamOHjqtHH8Ye1uXq1okQtfR8DHf+ZM4N3yeuburuX5OZN5Y2sZD++oQTEYMLu7JEtKM5h45ayJuJ1Orlq2S967yKLwx+kjJCD1v6pWll00lY/K67lr7R75uyHo5/Uzxkn2wrfmbWBGehy3jhrIgxsrWNbc1SujSfaCrvONFDv3TBIuRDtY1OyUfZWOjzfPm8Zja3dS1eHmmdkT+NmHq5jb4ZOn6WdlxPPj4QO4f/VuVnd45Cal2Kzx77NP4vG1u3lpazkLvnsqr63azF+rOuVYzDLoPH7KKN4vreXvexp5+8yxlH7mqnjDkm0ExentIaIWqT4vmy89hXml1dy8uhRNUbEGRB1Pkm5NZ727hu8OTJMsspsWbWJTp1cyLC5MsfHzU8Zz0ZtLURSVf589mYcWref1Fo90FTW5OjGoBnyiH4E4Tyebr72AS95YgmI0HRzA+mg9v5k6guHxNr7/8SZaFSOqzyP/7/f6oaHha8PAkq5XEflasckTMjI9JvrQnBH6PvIC2H9ukPODCDYrXMjD10aui4zXHt6z4a9Cc1L3791zU895Yd+55+Dz0KGXKYLRKdkXYbdfhEaIp8chTBjAUhISeXjsAGYX5zH75U+oUY2YxDPhdeNzxEum4K6rz+SBT7fyTFkT2YrO+xdN598rt/BQeZt01UtXNJ6cNQqn08V1a8sOCWAlGBTuGZFLks3Cnat2URcMReO8Os3O1ZOG8f0P1zIrJ4mbxg/m5Jc/pk01Y0fj56PySDEZuXdDGXUBHbMC1w1I4KLh+Vz/ySYyTCp/mXMyU//2LvUmG2g6Z2XEcev4wfzok424u1wsv/osbp23hlfrO0Mb9kOM2wL8rP/+2fz4nWW8VNuJpsAQQ5CPLjuDvyxZx1NVHTwwZiD1Hi+/W1uKSwBhWpDnpgyhUzVy45It/F9BGj8dN5jpr32Cy2yVekRi3GrWGPxCc0fTeWhEFuMGDWDO/5Zy2eDsgwJYyxs7+MdZE1lWVst9myrk+DZ5umQb/FY7qujbqIh7f6zbQ89ETAy6yYji9iDHzVcoyXnBbAazGd0QBm8FoBUIysh03eLvX6E299YUPTkF8gWAdfQDQBy35gwGUGproLER/CcWCBQFsI7bpypasRPcAv0KYKXEp/Dc1tsxWkIgeRzpTEg7m1RLDnZzHJnxA/H43byw/X5qmsp58rzFPPjJtRQmjcRujMdhTaCmvYyl1f/hV6e8zJ9W3kKzurtXE+/rQvgsNhIZHjeTgY7h2E3xJNpTGZY5kUcX/4TdrhVcUHAT/kCA96qeYmbS5RSmD+fxlT9hTtHVnJL3XUoaNuEJhCiqsZZ4rCY7b+95kjhDBleMuZMb35+JNf7ATf/5GXcwIHUQj636PkZr6HdXi8aLF2/n/vmXY7KpTEv9DvNq/katb5vcSZyefD2DM4fz5NobwRxyRVS74nlkzlwe+PgHOOJi+E7RbbQ4G2hzC60pMBnM0oZLqv7HuuqF3HPaizy44Me023Yd9jHMN0/i0hF38rtFV6HHdoTy+01cUvxLOt0dzK1+im/n3cWQjDFsrV3dXZ64X5ojm1s+Oo1BySOZk3MtH1e/yM6u5XINFadkMzntXJItmdjN8eQmFhFnS+D6D07uFcDa5vuQIutJfGfErQSDAUqaN7GjbS1b2pZTWpkuXQgbOpIl8LB/Eo4UPc/Nuzdr4YwyVPNBrCEW9mGI54Ackc2bgJaEipvYquzd0IU3aT02iJE/e9ZDbOZDqcdmMrxpFOWG7n+E6Xg+bdx/UyVOScVCOnwKbM7K4oZTJnL9pKHsaW5ndVUjC2tb+bjFidvr5a1zJ7OnpokbN1VLowi9pmdPG8uza7bzWqOLwVYDlxWkkWG3kGizMDIzhTaPn8kvf8TYlDh+NbGYhzbsYVmb0HxTMKsKz00qoFVX+OnH67lxVD43TRpKWUs7a6qbWVTXxkdNXbh9Xl6ZPZ6tZdXcU9IiNwIpBHhy5kj+t62C9ysb2XD1mdw1fzX/rneGXAN1nTvyE7l4bDETXl7ItMykPgNYRnQuzU3kcsHwWrKFHWHR91h0npiYz4oWJxvrW3nmzEnM+c8nlOsmeeL8ndxEvlOYyR2rSijxhBiouRYDf5hUyJvljSzaU8v7l5zGrsYWmjrD4qaKwujMNP6zaTeP7W7gv2eMYXltC7/ZXH3YxW98wEvVtefx03eW8vdaAfYh63H38Eym5qZx/gfruXFINteMGcSK8hqpzSOS3WyiOC2Fn360nhqXj3+fPSkEYLV6JfCSb1Y5PyeJwYkxJFgtJNmtDEtP4dI3l6AbegGwFm9lakosD8wcTbLNwuLSajY0d/JWVQs1Ta3o1VXoPq/cvB0uCZnCA8GZ3q4KDdIQ0MN+Y/YgYG/4q+784soe2fbl9yjSOyb0Xc/5JfTvnkC1KOOIA+l1X3DEVx7OhEf/9/3nkkAAg9MlAWPCAJaanMJo1c/fL5yBRVVZWl7Lqro2Pqhrp9yngdvZA8BqZqxV5dXzp3HBy/PYTFiY/DN34t9NGkwyGjdvrMIl3JR6SZkWI09MGsTa1i5+v76sG2QrUv08c/oE7ly8mdEZiXynKItz312Fy2ghy6Tw+/EFbGl18sftNXiUkEj1qQlmfjZ+MHcu38bJqfHcM3M0728r7b6zcE0cnJbEZe8sp93p5ZMrZnPlW0tY7Dy8Stdsh5GXvn0Ko559hyo13E63i6UXz+TDzbt5rraTJyYUkuqwsaOhpfueQzOS2dPp46r567ikIJ2fjitixuuLcJqsmNCZFG9lTnYy6XbhgmxlVGYq5V0ezv7vEi7uBcB6u76DqwelcftJI2jscrKiooEldW3Ma+wM6Q9GohA21KNYrWjCfbQPSR7M9Pr23rcAMd5DVguPg+5zvb3jIvRaDY/EHsNFFYLiYtyHDx5EHlXMHzK3LiVP5ZmN+CZ8nRQh7/HvA5uzN++hm9rXfOFSYmwS4FEEo0O8d4/ntUIf+rjXLGHhdwlmifm+x1whGeD+sG5WhLn5FbRDbwCWVVWIURXEGkNoAR46qtIX6YQjvFbXSTAZ5Bqhp67oEZayb3YBYNXVgtDCOsHA2iiA9YV6Pnpx1AKHeD1c8YsvvOKNuBD2BLAUv5Xvj3iAGFMcyyveo9PdSlbcIAoTR/BG2R+p7tzFzWOfYXfDZuJiEtnevgxFMzEh8wyWlr7HeaOu5OEVV6Nbej9Z6glgLWz9B9OSLmFa/jksL3+Xhq5qySC6adajPLb4Bra7FzLCcRpTs8/nta2Pcdv0Z3lt0x9Z3foms7IuZXLGOSwpe5Muf4hhJd6DTk8XtcGtDI6bzP8dAsCak3ozQ7LH8OjKa1DMoc2m0hnHM99awV1zLyYm1nwAgDUz4RpG554kAaygKQSaxbgz+d2Z/+N3H30fe6yFCwfdzKba5dIdUq6YdCELEKDWswtv0MM9pwoA6zrabb2DfJGeH2AcyxWj7uGx5dfhsoTCWJuCdi4ZchctXY0SwLow53Zykwcxd8eLKGLlJu6qiTWCny3uBeQn7AtgBbxw64TnCQR9rKqZR4e7lRGpJ3NS/hn8dN70XgGsrf65BL068UoWhYljKEgawaTsM1hZuZjHF77G9j151LvTQzTyfko9t58HPPD7fBHZYva+iYwsqHuuk0XuyD32Abb2WZfuXRCHltCRRfT+i+tQoyXnqvv60AI6lPatY881277b7AMX6Xuv3nv/SKnd1/bY9Hffs+emWpwECtcfsZiUehVByYDQA8G9LKzsHEhMZEKinTFpCYzPTmFyZgpPrNvNP7dV8L/zp/QKYL1T08q8C6bS6Pby9s5K2lxuThuYwaisVKa+ulACWL89eSgPrStjYbNT1kOEgv/HlCLK3QHu+HS7dG8cm2BjbHoiE7JSOCkrhWc37eG5reW8cObEfaIQSgBrxkj+t72CdyoaWH/lbB5cuolnK9tCYeV1jd8MzeTUolymv76YqREAa1MFy5oOzcAyoPPt7Hi+PyKfm5ZsZbPQoBJMJDSemVrM/JoWtjS2HwBgfSsnnkuLcvjF6hJ2uELXCADrz1MH8+ruOuaXVPPBJd9g7pYS6eYYot+J3VWQbc0dbPQrvDV7bJ8BrFifh/IfncO9C1bzp3LRblCCQR4aN5BR6Qmc9/5aflyUycXD8vjn+l20iY2DSJqO0+tjdYcXm9EUArAWCwaWl2RjiMUyJCOJd3dUUN/pkovPR8+fxWWHArCWbAu116BzckYSQ9PiOSM/i53NHdz14UpqK1H5xb8AACAASURBVKrQAv6QcPGh0j4Dcb9dcB8vPOS8sV8ZB82732QT5lEeAFBFxlmPmaB78xwZ85HfejId5Xjeh3y7d+MemV/kXNJj077PLNKjfgeB6ELzUC8rhL3wyr4ZZP5wYfvPheGJbW/7BTPQZg11TlCTDAu5QYm4JUcYWMkpckynBDzMGpDGyIxETs/PZlNtEz9fV0ZLZ9c+ANYgo86bF07nNx+t5qVGEUwA7FqAP0wbjtHn5XrpQtg7QJRuNvDo+AL2uH38em0pvrD7zgSLxqOnjOOWTzYyPjOJi3sAWOkG+O3YfCku/8jWapzhA5E5yTZuHDuI25duY1ySnV/NHMOv5q3EF2FUaLo8WFvQ0Ikd/YgArBk2hTcvPZ2p/5jL1kCIoWHzeVhy8Sm8tWE7z1Z38IcJBXg1nQ9KavaCssEgVS4fSzp8XJ4vGFhhAMtoYZTDwmMnD5FBHJZWNtDh8nB+UTY56Sm9Ali/W7aZNxud6D4PI2MtTEpPZHRmMtNyUvnX1nKe3F5DIOJC2FCPLvq8L5o+PdGrQ4y3nu+1/Yf2/gBY98PZ44Hf553e/ULsw6lTT0Al/CIODbXIOIwAX0IBMMTI7XaDE4wiMXZ18VvkRR/6LgKY7QNMRcoUYyLGFnrvCrck8Q7uuQj4CoI4oXkjFMVQHlyIZ0ecCAiBc/keimhmBSWDWS5chfvhV8AWBwOwbLrGFQNTmJwWT5fPx02rStDMYh49eDKIoAxWEx0+P519P9E59Pu1t189bp6dPoy5u6t4vTWsE/z5Stp7lQSw6hBi7rq390BVX/Q2R+P6KIB1NKwaLTNqAfFKOEoAlkPL5ubJf+btzc+xquMtKY4+I+s7jEiaxqu7H6Lev4vp8VfwjcHfYU/zVt4uewq3x8ktU56S+k47mlbzXu2fDun23RPAWtT6Ahfm3IFm8PLazofBoDMq4TRuPPkxHl18PTu8C4nVMrhyxH3sadzOrKLzuXPBOQQtHQyxT+f0vCuZW/48O7s+RdFVsqzFJJjSKXWtYXDsFP5vdA8GlqaSaMoiqAXp1OvJV6Zw9eRf8ty6u9jjWouqm5iZcRnnDf0Bd84/h5zEggMArDwmcvn4O3lp84OUuFah6mZOy7yKC0b8SLoQeo3tXDToVkra1rOo7mX8eIlX08mPHUWVazser4e7Z/UdwIoNZvDj8Y+xtvoT5tc8h65qFNjHcenwn7OhZilza59ilG0Oc4ZdylNrb6chUIoRC0PjTsbldlPq+5Tc2OGcP/CnLKx6iU1tH+Np1/njOR/z4rqHWNcxF7spgQsLb2ZC1qnc8OHUXgGsXf7FDIqZQFewhUrXNvzeAOfn3cSIrJlc99Iv2FGVR317Ui+ske5tXHj89g1/7bkJ67ltiYBEvS16u/diPRZCoVPY8DJ4v+9Da9e9depeGH8FFlLdG1/h0y/AAyGyKrUpAgcsFHMH5jJtzDBWNnRQ8pkmVZqq8fDJw6j+LBLYr1du55Xzp/YKYC2qbWbLD8/jJ+99ystVLaQJ7ZlJgxmemsCUVz6WANbfz5zES9ureHJrJZ1BjXEOC38+bQxPrt0lNbWmZSSyvL6N3W4/KUqQR6YMw/XZGveupZt5enbvANbr1S28fOpI3KjcunSbPNnMtxr415kTWFFey21ry5mS6uDOsfk8vKGMTxo6Q6HBe0u6zkkJFn530hCe31rJ6xXNMprZGemx/GbaSH65eBNOv8bTsyfsZWBpGrOSY7hz/CB5zRvVrfiDGhflJnHv1OE8sHI7L26r4D/nnkxdawe/XLuHFg2yLAampSewrqGV3e4A78zuOwNL8ft4+/QxeBWFnyzaQp0vSLHdxD/PnEiH283sd9dwdmYCP5tQxEOrd/NhfQd+LciMVAepVjPvVjaRaTHz0jmTeH7VNp6uaiPXZuaxiYWyH57YWomqGvjewGTumjXukAysOxdt5hQhJP+ZnYSLphLwc1lOEpeNLOCO95ezftceNI8HXWxgeknyl88NYO0t9GCgVPfmcr9db8+8kTlmf7ApcomcVw42d/Tc/H4NVii6PSY0fvzhuURoD/TstwgDKyGRb+elSC24d2raMAcD/HBINt8clM01n2yhsq2DbVeewRNrd/HkzjpsWoA/zxhOfnwsv/h0h4y8Nz7FwS3jB7O+so6frCs/pAthjKJz/aB0puSmcfen29nS5UNE6LxvTB7D0pO5dsF6zslP24eBZf0sevGNQzIlUH/Pyh0yYIKIpPrrCYMYlZrADQs3YtSCvHT+dG5fsJo36zsxKAoj4qzkx1qYX9dBvP/IGFhpAQ9LL/sG/9hYyuNbq3BrOnMy4vjbOVN44pPV/L/yNn45LEsGU7h75Q4qvUEcIshFThKVHS5WtXu5LC+ZX5w0jFmvfEyDLgI12Lh74hDuX7GdJa0usi0mnpk1AmuMrVcA67fLNrOy1cnMzETWN3Wyy+XHofu5f0IRZpOJO1fuokMwhSIuhAKMOIRrZPejHx4w+zOixe/7O1QdsBIIH7qEnPb3Yvw9y44cO0k33W7QNZx/n+kl/A/5EYKhQ3+Gvo+46EbKC2eTByCRu+/NIzmXsgBZ5552CP8to/32nAvEXBEBoQXwGT48koCvBL/2Al8hypj8z95rwt9Jc4bnnRB7LJz3BFufSLuKeUMAWsLFUADM4lN8L9oSFoKX4vbi7xMY1DoYgDU+xsjTZ4zn1S2lfFrfxqIWF7pw9+0lxWt+bhs1kLl7alnqlHDp0UsuJ1uuPENGI368vLV/7iPA2sYGaG5EEUB4GJzseUjTPzfq/1L2AlguGbAkmqIWiFqgfyxw1AAs1Wfj8qG/ItWezYaGhdJFULBt/AEfr+x6kAb/LmJcWTw4501W1cznhW334wu6uXbkH5iY+w3um3851cqGQ8k6sY8LYevfOSn+25w66AIpMC70WNKt+UzMO43HwgCWEDI/O/c6ZuVfJAXZX6v4DapRwRpMZE7ejxiQWMzO1lUYFCMD40ayu2kDH9X+k8GOfQGsGJI4PecaXJ4uPm76BwGvxiVFvyA9PpedrWuwGWMZmnISC3a+yuLmlxgcP/4AAMscjOeigttIj89mR8ta7MY44gzJjMiewgMLv0+DvoMJSecwM+9blHdto93TwADHUIIBjbf3PIXT28ndM/sOYOkBlclJF3DOkGvY1LBEMs2STFkMTh3LquoFUsRd9cVw+ZC7iLHZKWnbQKwpkYL4kbyx+Rm2eeeTZM7l24W3YzKbWFT6P1bXf8gN4/6IzWpnW9OnJFkzGBA3lHRHLjd8OOUQGljLOC3jaorTxrCtaTmKqjAh/UxWVyzlL0vfYXtZVMS9f4b3UShFLJ5F5CPBXhCbzV4ieRXm5/LgRafLcfhRTTO5jhh5WvjsxlJe2V3Dfw/BwHqrpoW3z55MQFVZWN1Ent3KmNR4qbl0UhjAevr08bS5faxv7qLN5+cbOSk0Ot3cvGQrsSYDD0wZJhez86oayY6NYXpGAv/cKiJvVfOvQzCwXqvvZIbDxK9njGZ3h4td7U7Gp8aTaDZw3bw17AgYGBZj5KGTiulE5X87Knituv2QUQhTDbp0vxObYbHYDGg6Z+alsaSint+u38OQuBgp4t7tQig0sgxw26gBTMxM5pOaVrkhmZgaR3KMhSfWl/BCST3nZcTx65ljWNfQxvZ2J8MSHcR/hqXdu2IH6zo8RwZg6TpT7SqPnz6BbS1d7Gh3UhRnY2CsFY+mMfu9tWRbTVLjZ1BKIp/Wt2JUVU7NSeb9XZU8vLkSk6Lw7GljpGD/O5WN/HP9bm4dnc+43Aw+rmogzmwi12pkekHOIQGsOz7ZzM1jCji7MIsPqxpx+zVmZSVR3tbJbxeupb6iGk24I51gm66jMBpP7CJlFEKjBMIl4+pg/dkDwBJAzGVjivj3jko8/iCzclLY/Zlb3L2bqiRL840zxuJw2PnHpj28X9VMsgnumzCY5NgYnP4g1W3tFCUnUNLYyk3ShbD3bZzYBI+xm7h7YpEUUF/X1E6u3cqkjEQeW7Gd12va+N6g9H0ALFH/SXFmfjWpWAJJQjB9YKyN4ngbQU2XDKztHW7uHj2As4vzeK+8XgLTE9MS2FbXxG+2VGH3eI6IgaUEA9xSmMqlYwezpKqJjkCAghgL0/IyeP7TTfympIVp8RZun1BEc0Bna0snhXExFMXH8OCnW5nb7GJ6vJVnzprMJxX1vF1aI6OgPjhtBK1BnY2NbYxJjic/3oZHMRySgbWm1cnvTh5CotXCB1WNpNosTM9I5PWdVTyzu34vA6s+xAD/Sqb9QbkIkhXCvSRwFQKtuv9z+L8l2EcoCp3UixNaUEJNMgx+9QS9egKDPVhgMmsEAOvxGXF/7D7ICwNfAuSS+buBsB5gWOSdL0G1owqF9O0RibRZAlkhMEuCWgLgEv+OAFqRTwFqifWLFInXwoytY98Ood0ppScOE2VxXwBLJ8WgcFleCrecNIy7F6xhp8vHivaQlMIAi4GhCXYMCmxoaKdKV3EYFCbEGLh/5hje21EuWeNLmrtCupiHSGIOzDEqjEiKle96MXeUeIPdrLc4LSDXdFajgapON1u6vHiFxt5+AJZ41GP1IKMT7CTZzFR2ulnf4d4bVVHTKLYaKU6KxRMIsrGlizqBy/YcS1oQpaUF2lvB5w31aZjNKDRY5TvkeE1WCyLwkeKKAljHaxdF63ViWqBfAKz8rEYumxLAbrOxxfMhBhFARBNuMlmMTz4TmxJHu7eRBncVJt1GWWAVbkMzmtfAyYkXU+8TYdRXIOa+AsPJDPoM8Jlf8zyqEGqN6DrsZ19d1/AEuhiTdAYNnTXUGtdi0xMZ5phBqjUPp7+DHU0rGZk2i9UN79JuLpOnUUOsp3DVuLv5zYIr6IqpCpWqg50UBtunkm4diKYHqfOUssv5KW6lhaTgIIYnzGBB/bOY7Spq0EKxbbrUyyoPrkTDTxyZFNkny3trikZJxzr2eNYQVN3SDlnKcCqC63AbQnpW6CrxZFEcO4UkSybtvma2NS5nVNosVjS8hdfWiEm3M8A8ivzYcRgVE+3+BrZ3LKVNr0LxWzg55SI+rX6LoKMNJWDBgqMXBSjwaW5Ug06+bTxFcePxBFyUtW/FZrTTFWinUl9FkCCJDKDYcTJJ5gz8+ChpX0WZbyO6wYuqmcg2D2dQ7ARq2irYFphPimEAI5NOxUosje5KOr3tpMcO4OPGvxNvSqPAMok93tW0+xuZlnwxW5tW0GHdg500iu0nkWLJQVVU6rx72NK2gt2VSWzbFQWwjtvpJLKoOMzC1ZCTS1F+DudnJxFvVBHnTmtaXNLlr83n43s5CTJa1eth+aZEPcC3M+NY0dDOxoCBkTYD5w9IJkaF0nY3HR4vKVYTfypvYWxiDPdNEtHBKnEYDWTGWmlw+3m1uoUyny7Fp4ssKudlJ0otBsGGWdvi4qMWJ53eAJdnO2hs7eR9v1CPULAHfVyQ7mBTq5NNAYPUlJgUZ+GUtDgcJgPNHj/v1bWx2RWUgvFWNGYk2GQo+d2NLbzf5MJmPvhiUJip0x/EZjFzeqqDYXFWDGIx2Obk/cYu6gOQb9D5VnYCz5XW0yqEncPsnAyjzrkZ8Qxy2PD4AixqbCPXrMqIfWvcOkJuT2yyz8lJlBpgjW4fCxu72OgKyI3xNek2ytwB5ncGpMB03GdsEEMvrCVfQKNZU5iSYGV2ZqJcO65u6kDzekiNsfJMvVsuYrONcHp6HIMcVrnBWd/iZF5TF02agtCQGWc3ck5OMsGgn0e3VpMdZ5fMrUybiWa3jzdKqvlOUQ6vlDejqSrnpMXyn+o2qjHx3QRViky/2egm3WLkzDQHQ+JDbhFVglFW20ZVY1gDKwpgHbdTRJ8r1pe5pNuFMFUyKWenxjIyKVaKspe7fMxr6JRjPqjrjI5R+WZOMnVtXbzV2IVJgWyxf7VZJGzQ4vJy68ShkjV605oSkg9BnBT7W2dQZ2CshdPT4mQkU3HPD2tbWdHhw4nKFJvCKIeZ52s68RnNstkWdEbYDJyVlSDnjuouN2ubBcvbKueJGt1AiqpzWnKMZIQJDG1bu0vq81UHwOF18+PBmbxS1sge3UiiEsQuxmwvZEMBzAktudNTYpiQ4sDpD/BxTTOjEmLZ3dLJXK9Bzldinjg1LY4EixGfpvNuVSsbnH453mK1IGemxzEhKYa1dc283exhcpKdUzMSMKKxs81Fh8tNWlwsz5S3MD7OwvAYA681efAFglw3IJGPGjrZGlAYaFb5ZlYC6VYjYku5sc3NvMYuWsS+1+2Kirj3eXD0yChd51R0qw3FaEB3u1EiLtwRECuSfR9gTGjrCb290KemRgLIhJlKPX4LscPC2nz7v9t7c08MA2F7XR6Fe6QAyrSQG2RYH0zV9rpPRlhfEiDb36Xy89jmYNdEAC3xKd0MDTLSqXh3d7Olu+secumMsLZ0MfDDLpkC3BJREI8ay0fUR0R0FhuQXqI5y61CTxF3TeOkBCv3Tipman4WqyvrKW3t5LpFW+Qhz60Ti7GoSJ1A/bN237tkIyVdXm4ZlsO3RhdR1dZJZXsX//fBaros9t4trmtMSYyR0ZLF2sIbCBBjMfP7VTvlWB9iUWW01REp8TS5XMRZrfx7awX/KK2jw+nah4E1wKRw08g8puSk0ub2kO6I5YWtZfxlWxWuz9YQ52cncvvEITQ7XZhUlRZvgN+v3c3GTu9eEEsLora2Qmc7Wk8Rd/HAiQBCPQN/9Ndz1F/lhAEsqet4IkcK7S97RMuJWqCfLNAvAFZBdhPTpi3BoGpoSg8kXAeDYkLXQ9LYEJCqEJoSpj1LGrjYLor/hUSBFRFFUDFgVeO5vOheRmRNPmhTvQEX/974EOtbPkRXg+iyTFGeAUUXm0mNoB7AoJrQ9IB098Nj5dtDbyXFms2Tm39CeM0ZBpTEXGmQ7n8h8rW/u0zhUijqFNT93QtJcR95CBC+b6juRoSkoogyGMobciQRCwPRrp7t7l5vyGvESjoogTODapT17hYeEfdGUIPFykCTbYmEmxNMMZFX2HBS0gVcNub2Xh+LVRXzeaPsMToCTaiIxbagEYu+ilDgQ/aTtxFtEHbsbkdPlzhRHyMCQJR9He5jRPtkeboEpELtF5vacLt1XT4LQT241y7htkuRc/z4gyrVlYVSxL2+Oa6fHvFoMV+GBfTcPMjIxKKKJ0ksYBX8QuYmXBkRnUtGp+rh3iE2nGIjGpTjRZcLJ1XRCYjDUjG2RdRLTWOs3cA9EwbzyPo9UntJrFHFNWJj1n1qF77eoGvyefTsd2+xGRWzUWh8glHIeYXvHfpORBAL3V9sMoVGaiQypPhdjFhRX83r5Z3zJjEhO/2gZnb7AzyxahsPbK7EaDBiCgsE+XvcX7iviLJE/XveQ0wwgtVkVESMUnBrYj4VI1fptqOwk7CxqK+sZ+h8XtYlNMoFWU7jyoI0fnnSUJLtIYBs/1TS0s7ElxaiWqwhu+s6vrCfjFAZ2Rv3R8ckZohwO3w9bBaaf0N1FnsHj4jcpiiybcJeoi7CfdJiUOWzIJKwe0BqwChSPFpYPkKyF7O4/E4VeRT8mo7S3o5SXfm1iUL4ZYzd4+qeYQCLlFRZLTGXiHEpknjbBHpoDIoxYAkHXRCaUveNzeOMwhyuf28FG1u7OGdgOvfOGM1TK7fyQWUDK685t9em1rR3cdP8NSxo80gJeDHHCADAF9C72ZbimRbjUY6THknUQ4DLYogEFEUyLo3iMzwGIu0QecSY8Ouh3+S8E563xPxg04L8aeZIzivKCTE1DpL+tnILt26qDtlFkk1C86BRVeR8FpnjxLgUMJ4i1hCoUhPrgPksfI0Y02LMizlarAHE3CfHtph/xfs+3A9i7hYrN9EfkXlbzFli/jAK8EIJzfmRtnWLuH+VGVhHYfDIvrdZ0SyW0EZduFB9HuZTT3DrYPUMAz8RwKv7Ux56hMGg8GcEGOs1Ml6E5dUXe8g1ZwRIEhfs+3dooR1aL0TcrrvdH8NjJqIvJr4XtZWPbA9XyVCpYVaPAHcMBgkGivqLv3uuGw6oslhXiP2D/BTgXFhzTLyPIiygntpmfWlzJI9gs8fEhNrn9+11j+tRxv4uhKaAnwsy4/jNKeO58D8LqXD7SYyN4a8zRrC7uZ3H1u6mLRDggZOGMjo3g/Ne/wSbovPn2ZN4cf1O3qtto00xHtLl0IHGg5MHk2o2cNvSLXT5g9wyPJfM5ER+smAtvzhpKCelxfN/764gqKhcUpjBnMG5/HzlbtbWNnUDWH8pa+YnxZnMGZjOr5ZuZnObkzPT4vjZjLHcs3QLK+tbZeTi9ZW1/H5DGWlWk4zYvKvLx4Mby6SUg0zChbC+FqW56QARd+kS+3nGw5H00xfJGwWwvoj1otdGLdCrBfoNwJo6fSGqevioOX3tCz1owOJOwmI4uDChAFCcaiua2SWZW4dLgln0zfyfMjClmL+svIs6Zf3hLjlxfhfsB48du5LYa529mguftQ0MEQjh+GteMGCiKgpgHX8d8zlqFAGw+qRzciTl6zqjYlRuG13AE1sqWNXpP7p6DoerWzDIwKAHRy8R8cQmsimo02iwSMbRl5J0ncSgjww1tJE+WPIEg+wSkJd0UTl+k9LWFgWwjt/u6f+a7QdgHckNCjUvD586lpkF2fgDQQmUvrhuB49srqTZ42W4pXcKlgBxKoPgMvUujHwkdfk8eYV7YDYBEsLMmYOV0erzU2WJ/TzFH/NrogDW5zS5xSyDpuhCczIi2v45izoalx0AeIUPMOSxiiqgqZ5MMAEihRhgoev2PRg6svr1zkw8VDn7B7SQAEhYq2yfA6Qjq4zMHWGj9QRUekbC7Q7M0/M9vN+6QATEEUClFKPfn4EVrtO5aQ4enjmKM/63mIqAwiS7gYenj+K2xZtZ2RU6PLa5uzg/M575TU4pev/cN8by/IadvNnkPeyaKVYP8ODkYgbYrdy8ZDNNugGvyyW1dwUTUPV6sRpUjPFxGAMaoxKs/LA4mz/vqGVJVQNbrpzNsyu38kZDF49MHMTyumb+trOWgGogRtV5bFIRZR6Nh5du4OVvTmN3Uzt3rS3BbzDg6+oKHUbaYiSLTKYTWMRd6MUKF8IoA+tzDKjoJVELHMICxy2A1d+9JlzsbMFkvMEu/JZO6U4XTceXBaIA1vHVH1+kNkcNwBLMooCPBC1Ah8GER/grR9PXxgJRAOtr09Whhn4BAEuwCHW3k2K7hUSLiVq3n8qATlCIHfdFQPxrZuqj3dwogHXkFlZMJjR7jIwIK8Ar/TB6SUd+h+Pkim4x/BCoFRIMi7g87v0MCe3vzSM5uxFh/YjOfqSsCMO6R3mR60P+i90X9K8R9mefHY4d1FO3TNRE01H9fnQpVq7t60J4EACrMqBwmsPIbSeP5AcL1lPR84w6DM6l6oEjArDEfackWLhjQjGpNjOlLR2UdLj5V0kdpS4/IxwWri7OJlFoCJsMpDvsmA0GGQF6SeVeAGtuk5M/nFSExWSkvKVD1l4Q+vIS41ha18Y9n27jm3mp3DxxKIGAn7K2LtY2dfJ6ZTO13uBeoO0rAGCpThd61IWwf8datLSvtQW+NgDW17qXT5DGRwGsE6Sj+lDNowlg9eH20SxfUQtEAayvaMf21qwvAGB9zSx13Dc3CmAdYRcJF7eYmBCDye2G6Oa37wZUVBkcSDKqImyvcPRGwQpTIn9HdLKkSn4PV7QI6NRTT2v/u0tR+PA1YffGbjfHiMi4gGD2C3QjI0FGyhJi8yKqs6iPcE8UUSX9fqnTF4kWebAohD0ZWALAmmJXuW/6aG78ZBNb3SEEy6gFGBJnp6TTTSyaBLD+tn4nbzQfnoEldcB8XjKMCkMTYylOjuOi4lyqnV5+vWwz904fhXgy/755D21uL/lxNs4vHsCjmyu6ASwRhfDdxi4enljIruZOPiirlVIBEqPz+2Sk451eHT0YIM9qYkhSLKPTkzinIIt5FQ08tqWSrkhoUAFgCdfjluaQiHvPFAk2EGas9f0hOUY5wwwsnK5Q1O5oilogaoF+sUC/AFh5mc3MmPlxv7oQ9kvrooWcUBaIAlgnVHcdurI5A9Azs6JMh69Ql37pTRGbhKgG1pfeDce0AkKfJm8gekraMb1t9Gb9bwHF6URpakCPamAd3rhCdDwmJgS0uD0H6P4cvoCvUQ4RzU+KlkeiEArgKhzhrweIJSwSEmuPgE5CsD2ktyUjEkYiLoajGCriUwZQCLPBBEAi/i+F3sOaWBHQSwjXR8rqq+lFuRYLusUso0riD+wDXEWKORyAVRFQGWJTeWrGSP63q4a/ldTRFQhySV6KBINu+mQDAUXl+dPH8eGOcv5a3kJQuOYdgoWahMY3c5No8vj5oL5DRvm7fnAG5w/L5/efrOfOWeP4YHsZv99eQ4xB4dqhuVwwKIs7ezCwBID1r6pW7ho1gKQYK/es2EmVN0CmUeGCwgwZPbnB5eXComw+rmiQwTFEoI77JxRhMpn5+apdNEVUaQSA1dgAzk50315Fzm5Ti34QLrYiIuHxBmRZrehWC1EAq68DI5ovaoG+WaBfAKyUBCdnzp6L4TjWV+qbOaK5vkwLBPxmKsoGs7M0Jyri/mV2RH/cOz0DPTv3uNdU6o+mRss4NhYQUaEQGli11VER92Nj8i//LmJzmpuHnpa+b4CDL79m0RocoQWUjg6U1uYogHU4uxkM6DYbmIwoEfDqcG5ohyvzK/K7ZFQZBGBlkBEFdcFgkmBVWEurR2RTJShAJQ0tDDzJ94dUS98r8N6tVSXAL6H/aDLuBcIE4CVcNgUrSnzK6IQh0KtfRMMFOG82h7TNIuUfpJ/6AmA5FJ0fFKTy3RH57Gp3ycARM7JTeGrVVh7fUSeF5x+ZMpTpOal8WtfCzxZuoMt88IAuogp2PcgNQ7K4sHgAa5raZXMnpsXz73fk9AAAIABJREFUzq4q/rSxjFvGFnLe4FwW1TRhNxrIs1vx+P38dv2efRhYT5S1cLLDxC8mDwGTiYoOFwVxMfj9fu5ZtoVyl58HTx7CyLQkltQ2k2KzMCjOylPrSnilqhVfROBYAFgNDdDVfiCAJZ+JMCAXEK62ruMLxAoDWEqXU4Js0RS1QNQC/WOBfgGwVFVnzjeWkpxS0z+1ipbytbSAyxXHnt2DqaxNiQJYJ/oTYI9FLyiUQpzRFLVAv1jA50W6EDY2RAGsfjHoiVGImpqGJhidpqje3YnRYwfWUhXuUc3N6IJB0VB/ojbj6NdbuLfZbGhm8xeLOHj0a3ps7hABJwS4JFhpPSMGSp0sEV5YlwCQ0AeTQJDUCesRnlTUtDcA0GRCN4vgJWEAROhuBQLoPn+IFRVh8xwtADEcNfVQxjwYgDVQCTA51sj7rV46jCK+aAh0GhdjYHS8FZOqsqHNw3JnAJeiyqjCmarO9EQrdoK8Vd5IcrzjoLcVkUXb/RpOHU5OiGGYwyIjkG7p9LGs00unruIgyBnJdgpsRmpdXra2OUkywJaAgVpvgItSrOzu9LIeC0Zdo8AoyrKQajXT4PGxoMVNvWaQEUoTCHBago18u1lGLl4trnMF8EQiEIpahjWwkFEIPQfWW9hRuOqJvhRzTVfXAa6bx+aBPfAuus0achMVDFR/FMD6svohet+vngX6BcASZslK7uDUbyzAYIj6+H71HpOj3yJdV6ksL6K9LZ6qumQaWg7+cj36NYneoV8sIHQnBAMrIzOk7xBNUQt8AQuI03OlsxO6OtHaWlFczv45Bf8CdYpeemwsoBuNqAWD0OIToi7Jx8bk/X4XxdkFHR3oHnfIFSiaDroJF9HKxGZX8fuky9HXLol1g3DbM5lRBBuqJ2AVFkcXOlESXBJAU8SV7wgMpQiQymxGs5hD5UuAJKQ9pXp93dH/jqDIo5r1YADWoW8ope17z6Lr3J4Xz71nTuk1zz827uaGRZsJmEUUVsE8C7tSHnCFYLX1bX0nQDRNhoDsJb+mSaBMO5hrYx9E3EW/CuaicMnE50M5TsZPBMCKMrCO6jCJFv41tEC/AVjCduNG7GHQoB0YTV4RQPeQc+jX0NbRJu9vAXlIphAMGmmsz6GzMxaP20xFTQrtzt7pzVFDniAWMJnRBw4ER3x043mCdNlxWU2xsHU6JetKnrALNyQRoSmavj4WcDjQcweC2OBHIwieMP0udIUUjxtdMCIEQ6azA72j/YSp/zGrqNRDMiMALAnOuNzHlxvU0TBET4F04Q4YduETB17iuekWRO/hxidZVp+HDSXF2lUwm0JuewLEEppVomwBdgibf55yj4Zd9ivzyAGsw1fK7nWRbOwdeHJq0KIKANF4+MKORY4+AFiiGlILzW6XrqUiaqfo2y87RQGsL7sHovf/qlqgXwGsRIebwoG1xMY6UdVAFMD6qj41/dUuAWBpBrxeC36/EU1TaGyJp7o+kaDWt1Od/qpKtJyjYwE9PgE1IVEuTsUJWTRFLXAkFpACu+HTdrnBEMyrzo6wm8iRlBTNeyJbQG5MEpPB4ZB6J9G55PjvTTFclWCYKSOALBFZrbkxOnYP0nWSNSLAWcE0FbpXX1WtnAiQJMAkCVoZUMSn+F7TpWaVtIFwCRRMKy3YHY3v/7N3JmByVOX6f09V792zb5lMlpnsCUkICVlZwo4BxAVX7nVB3L1cF/x7Fb2IXmVTUS8qLrig4lUUcEEghiVAAgQwISGB7NvsmZnM0tN7V52/36nuyUwySSaZ7p5evvM4TzDpOnXO75yqqXr7+97vtHZ8MgWRornsDoCiu5QgFocWjVkCVpa3dAhYWT7lY4c3QgGLDlRCqM9rCeYUhTXGpu4sYOXcbuMB5wiBlApY5IVVWdqP6vJeuFxRCBUuyo0JnJyAEdfR1VOE9q4ShKNZ8q3PyYfNnzgZAfo2tajYMqXNlm/zTjZm/vfsIyBNyFDI8rag9BpuhUeAPLB8xQDdS1gMz531JyWLIiH6+wCOnDx23ciHyeO2IoDoHpdnPjkq2omeA5IeViRYqSp4idQ9qupHYoNJHlZmalL4qG963iC2dpsVfaUq/SW8reicOdJYwDrigSU6OyCH88A6ai3V9UQ+cllQwVM9+1JaMD275KswnSPXEg8zvwikVMAiNCRiuV1ReFxROKgqIQdd5NeOSfFsSOOMS4FwxIFA0IGYkfAkSPF5uLsxJEAvm/QwYXMofwuWtcdwLXLw1Op7ECNmvQTnwDfmOYg4d4ZMnjV2p4rcYBEr+5eNHv9UNI26drM3TWvMSDrs6ssdxSkYgozlkYesrkHa7APClYqiJNCGAS0Wt6KfEhFXKU3fS1b3I+GKojWJaTRmiQdjHI1zOvtMlpUDU6cBJPoVaqMIrNZWiK7OEQlYKrovGYU11um4ypeLBaxC3bo87/QRSLmAlRwqRV/xl6TpW7h86Zke3OiLR5NMIrnlNwG+IeT3+qZzdlnqT5LOKXPfJyDA95Lc2R587Q67VqqqpsdtpcNSqlM+iFdkpE3zop9Blf2UeJSs7Ef7IfmT6l1MVeioGh1FfFEqYjhiiYI5vAelxwPMnqvEuEJtOqUft7UCh7tGJmDRNeV2qb2ovLDG8NpKRmDpfj9M/gKuULcwzzsNBNImYKVhrNwlE2ACTIAJMAEmwASYABPIXQI2m5U2SKJEf8CKEsrhpqr5JQzSB6oOG6Y1r0gk7ZFPqgKdxw1JAhaJVZGIEq9yWbgavB3krDlAcUkO75BRDj0QAKUPip7ukQlY9MW43QZBhu6RKASlLo+ViEn70umE3scC1ih3AR/OBIYQYAGLNwQTYAJMgAkwASbABJgAE0g3ARKv3C4rvS0LPHpOa7rJCoI0FxKNKNqKGhmxq2irRLp3ukUD8tey22ESTxoTRbiEw/nnI+bxQp85GwZFthVSo/1D6YOdnZZ/Xs/hkVcWJN8zEo8EVSQMjp39AAtYhbRjea4ZJMACVgZh86mYABNgAkyACTABJsAECpAAGZmTqbOmQ4tEICk6Kd0iTyoxq+qBGmAbZI5OqXrkLUXm8xRxlQmfqUR1QeF0qDQxaZpWVcFc43kqa1NTC1FdDZPM6TWR1/bC5JUmTDLIjUH29SkfPSVM9hweeeVI2iNOJ6TLaVUjHKsoRxawTmWX82eZwIgJsIA1YlT8QSbABJgAE2ACTIAJMAEmcGoEhM0G05WIvCKhJVfEFhICSLiy2VSklaQ/6e8o0ipuWBFXJDBkSohTRWHsKi0LFF2jTNqj+V/hzeGEKK+ApD1EHl+ntv1y6tOWgGWqNZUqCssA+nqBYODU5pGs8BmlNMIxEotZwDq1NeNPM4EREmABa4Sg+GNMgAkwASbABJgAE2ACTOCUCFBFPKpGRsIDvUjninhFYhWJAPQnRV5JqQQjGY9DxEm0MpHRssLkdUXpgpRKR2MhjlRhMFPi2Skteho+7HJD+HyQDhLv8lnCstgp8Soeg+jvB0LBU19nqnxJXnN03fn7T/34VCyhxwPpdED0+ccujTEV8+A+mECWEWABK8sWhIfDBJgAE2ACTIAJMAEmkAcE7OR5ZRm2a8EQJEULZbvgQt5WFOFk060qiYapxq2irSgyZizGTz5bJAKSYTyNg1LKSEQrqCYs439aFxWFlb8ilknrSnvNGF2En1UF0AGtP6CE10w3VUXS6QD6/FYqJDcmwARSQoAFrJRg5E6YABNgAkyACTABJsAEmECCwOBqg8GQFTGUzY2irVxOSyRJmqJTRb8xjnKSVOFQeYdp0CNRyFDIis7hxgROQkAVGXC71L4xyQg+0y0ZgdXrB0wWsDKNn8+XvwRYwMrfteWZMQEmwASYABNgAkyACWSaAIlBlO5G/lEhEq+imR7ByM6n/K10y/CahCvyH1Km2RErVXAshSKN/K6cCb8rQIRCQLZyHBlt/lSmCeg6pNdj7WNKI8xwOxKBRWb0Kq6MGxNgAikgwAJWCiByF0yACTABJsAEmAATYAIFToAil8gzSpltCyUEKZPxsRSCjl6SpDE7pTdShIqmq+gQSsmTsSgEVRQc60b+RRQNRuMzDIhQOP+N2seaeT6en3zTSMCia7K3L+PXYVLAEnTuTFTozMc15DkxgWEIsIDF24IJMAEmwASYABNgAkyACYyGAL0sk+DidEJAKsN2SVXyskW8IuGKIlLIVJ6M0Cn6isQhJVzFrMirbBgrRYK5XGqcqsogiYDsHzSanVnYx7pdKopPBEOWmJzBxgJWBmHzqQqKAAtYBbXcPFkmwASYABNgAkyACTCBlBIg8Yqirsiw2TQhyG+HIpmyQBCSQkCz6TBJtKJIFBKuyACdRKuxNGYfbgHIN4xSL3XdSrsk3zCOXEnpVi24ziid1+ux9nsgmNHps4CVUdx8sgIiwAJWAS02T5UJMAEmwASYABNgAkwghQRIEKIoDxKISLyiSI8xqHh29IyogqBMVBQUugYSspRwNbiiYAoxjLYrFRmWqNioBECKvMoCAXC08+Ljx5YAVWw0i3zQAEhK5ctgYwErg7D5VAVFgAWsglpuniwTYAJMgAkwASbABJhASghQSh6JLiS+ULobVRvMhoihhA+XJIN2IaxIKxKE6M9sFIWU6b0b0DUgGMxe0/uUbBruJOMEinyqSIHw+4EMmqmzgJXxleYTFggBFrAKZKF5mkyACTABJsAEmAATYAIpIkDilYdEF5sV1URV8sZSHFIG8jqE0wWThCtqiYqCyksqG5sApN2hItgEBLRQCGaGfYqyEQuPKbUEVFqqywUtEITM4P5KClhaTy/kWN4bUouTe2MCY06ABawxXwIeABNgAkyACTABJsAEmEBOECChiCKuyGic0gcjEWXYPmbiFY2BjM+dTkg7VRSUyphdGVZnq3CVWGjpsFtpg5DQgmHL9J4bE0g1AYrw83mta5VSfDPVvB5V2EH09qrrkhsTYAKpIcACVmo4ci9MgAkwASbABJgAE2AC+UyAUtwcTsiEWbt6IY6OUaVBEq0oVZBezklQo2iruKEq91HKYNZHfKi0QZe1W8Jhq+Igv+Pn89UzZnNTPlglxSqFVvQHMic2JwQsjsAas6XnE+cpARaw8nRheVpMgAkwASbABJgAE2ACKSJAIpGKcrJbFc2SnlIp6n6k3ZCXD4lWFAUmKI2RPLdicUsAIhErF1KVSLzyuCFo0pR6mSUVG0e6Bvy5HCRQXARJiar9/ZmrbMkCVg5uFB5yLhBgASsXVonHyASYABNgAkyACTABJpB5ApQy6HBYUVeaBi0SgYxEM/cSnJyxShN0qMqCNA5V8ZDGQcbsJGLlgnBFc3HYIV1uCE1AkCcRpw1mfk8X4BmVHxWJ0FRoIVN7jgWsAtxpPOVMEGABKxOU+RxMgAkwASbABJgAE2ACuUWAxCu3G8qrSUrLqD3T0UI2G6TTaaULasLyuIqEAUpdzIaKh6eyoom0QUrpQiBgseTGBDJBgKInqVhAKKy8sDLRhNcL02EHpxBmgjafo5AIsIBVSKvNc2UCTIAJMAEmwASYABM4KQHNZoNBURu6pjylyPxZUopeJpoQoFRB4bKEKykERKKiIEUsiVyJthrMiuZBaYNKvApmvcF8JpaZz5FBApoGST5YGTRyTwpY6OnNzWs2g8vDp2ICp0KABaxTocWfZQJMgAkwASbABJgAE8hbAspjitIFnU4I04SMxiAoYiPd0U4U7UU/FGmVTBWkcxoGhKooGM+dNMGjdwd5dXncVrXEUMhKfeTGBDJJgK6tkmJIEqNJQM2ECOz1quhNjsDK5ELzuQqBAAtYhbDKPEcmwASYABNgAkyACTCB4xOg9Dyb3RKPSGiJG5bfVbr9cujFOlFRUBnEU6VD04QWN6xzk8dVJl6207U3NA3C7YZJ/kNUbZDEq1yeT7o4cb9pJyCLfOocFE2pCh6kuyUELI7ASjdo7r/QCLCAVWgrzvNlAkyACTABJsAEmAATGCAgKL2NjNpJZCFxhaKuKOopnVFXlNJE0VbqR1fG7CpNkCKtSLSin1xvlArpdivjdiVcZSKSLdeZ8fjTR8DjVtfcgJdd+s6kepY+r6oYKrp70nwm7p4JFBYBFrAKa715tkyACTABJsAEmAATYAJEgEQkpwOCzMXJm4kiniJRS0hKV5QQiVU2uyVeUbQVRWDF4lZlNDpvJiJDMrD6IiFeKQN88u0i8+x0CoIZmBOfIscJUHSl221FYJFAnebGAlaaAXP3BUsgqwUsXZPwuaNwOaPQhCzYRcqmiZumhkjUBn/ICcMU2TQ0HkuhEHA4odltEOD9l21LbkoJM56IXMi2wfF4mMAgAvRybTqd0HQdGt9LFBnDiENGo8r3Ke8biUb0MutwWpX9qMJgOFHZL03CFaUHimR6Ip0fVE0wZolm6RTMxmoxXS5IMqE3TYj+AItXY7UOfN4BAirC0uezxFS63tPcWMBKM2DuvmAJZK2AVVnWj0VnbUVNTROEKICHqZzaggIdhybg5ZfnoaPXyifnxgTSTsDtgZjcALO4OO2n4hOMjoDW1wvzwD4rTJ8bE8gyAqKsDGb9FMDuyLKRZcFwQiFoTQeBnm7INAk5YzpLEo7sNkiXS/lOUTU/GYlAC0fSMl8V1eVwACTkKNEKKrpLUpQXRYDkI2OaJKVjkmm7BITfz+LVmG56PvkAAfKaIwErFgVC4bRc80doC0ifh1MIefsxgTQQyEoBq6aiFxdcsB4uZ38apsxdpoqAYdrx7DPno7G1gp5RuDGB9BEoLoGcNt0y2OWWGwQiYYi9ewB/X26Ml0eZ/wSEBjluHFA3UaWOcRueAKWyieZGyM6O/BEeVHU/HdLpUgKWigqiyKdwiqsL0nlob9G5yJCd0gSpUYQXeVpF88CU/WQXDvmJedygKEetPwAzT1IiTzZt/vccIEApw16PdT1SGmFao01ZwMqBHcFDzFECWSdg2W0mVl32HMpK23MUaWENu7unEk8+fS4CIf4mu7BWPnOzFfTt9ZRpMItLMndSPtPoCVBkQfdhiAP7rBQZbkxgrAkUFUE2TAMo+obbCQlogQCwbzdkMJi7pJJiEkVakccVRV7RiyuZpFP0U6pM0kmwoh99kCm7EFYqJv0oU3ZKEyyAbAKKcHFTdJsNoAjcDPgM5e4G5ZFnnICWKCqg6RB0b0uruGoJWHTvAZu4Z3yp+YT5TSDrBKzayl5ceukaThvMkX0XjTqx4aVl2NtYo0LFuTGBlBMoLYWcPAVwOlPeNXeYZgLhEMSB/UAvV+BJM2nufiQEasdDjp+gUse4nZgAJbuJfXusKKxcS3Mj8UinCChbwihdtyKu4lThL6YioUabHikokoP2EYlW6s/Ej2FYBvB0rqQhe67xO92LQ5m2u1T6oKDINqo4WChzP11mfFxmCdAedTmhvhgNBFMnYg87i4SARZkDPfwMlNmF5rPlO4GsE7BmT2vGkiXr85173szPMGzYseMMbHljKiKRRKh83syOJ5INBERlFeTEyVY6BrfcIkARDq3NEIfa0/xNZ25h4dGOEYHJDZA1NSTNjNEAcuu0orMD8uB+K/UtFxoJV4lIK4oAkmTOToISRYAmBaVRCCpKtKL0OJsOoelW1cKEATxFcymBjESrZORVLjBL4RglfclEAhZXHEwhVe4q1QSo6ijcHiAYgKCU3nQ1Esu8HghKI+7pTddZuF8mUJAEsk7AmjezEQsXvVCQi5GLkyYBq+ngNGzbPgUd3WzonotrmO1j1iqrYU6cxAJWti/UcOOjl7rDXUBLMxCN5OIMeMx5RECScXs1CVjcRkJAUNRAcyMQyGI/UtIiVbQV+U3ZoUQm+ju696g0QcOKAjpd4YpePsnPiv7UdMuInUQrk1IRY5B0nqRodbrnGMliZPtnSDgkbyGKdKPIlrSmZmU7DB5fVhNI7FWNTNwpSjBdje4VdE2wgJUuwtxvARNgAes4iy+lgBD5kROXnEU6vnMmAau1eQp27J6EprbyAr6UeOrpIpArApYmJcxElal0sUhHv2kdN0Vu9PZAtDRZfijcmMAYEsgnASut121ijUjAkm2tEH3Zl/5CBuGS0oCo2p3NSgmlioLkuaRFoqdvHE5RVWTyroQruxXFlWwkzigT9pjla8VNEaBINFFcZGmEwaAV8caNCWQrAYqipMgoErgp1TVNwrO6R7GAla27gMeV4wRYwBpmASdiMSaXzMLTbb+G3Z0O2Sdzu8ZllmOG4zy0x3egzdwOkeLCSyRgtbU0YMfuyWhsZQErcytbOGfKBQHrAjcwt6oEP9jZCrg8p744UqLYriNsmIhmUDf3GTF8eEo1Xm3pwNpYGlKAKTqhtxdoaWQB69R3BR+RYgKnImDRr0q3JhCXEpEMXpMjmfI0zcD7p9bgW6/th9+VvshnErBEextkb/dIhpW+z9AXA/Q/qiKZTBEkgUlFVgHCNFR1P0mpayOpKpb8oiFh8q7pOgwSwVSUlXbkhZYM31UKIpmwxyE5quiYNRaagOn1Knaqqls6I1rSt8O450IiQBGbVCXTlEpwZQGrkBaf55ovBFjAGmYll5dciyWTL8a3XvwQHJ7cFrBK9YlYNf7jeK1rLbb0rYGW4ndUFrDy5VaQvfPIBQHrw+OLsWr2ZFzzyIuA23vKMLVICN9aOhN/2dmIZ4OZe1sukzH86rJF+OvmXfj5oTRESLGAdcp7gQ9IH4FTEbAqNIlrJ1ZgZ18AT3WHEcsi36ylXht+ctnZuOSBJ9FpP/X7zUgJj4mApcSqIz9S1yxD9qS4RJFWSY8pSg+kKM/jeXQNFqqSfVJfiYqBAz5WpILRy6w0j+07TdEZI12DrP6cMsR2AU6HlU4ZDFlRcNyYQDYToOvf7Ya6t/QHLM+6dDROIUwHVe6TCSgC2StgScAuPbALl3qYKXKUozfcibDWDU3aUWyrhtvmQzDmR2+8DdAknGaJsigImT3q2zq74YXHXoyeeKuKPNJMBzxaCfrNbkA7fvj30QKWNATKHXVw2XwIxwPojbUjjii8Whk97yCkdQ882trhhUO6EZTdkJoBzXCiwlUHAYGeaDui6Le+SZQ6PKIccTMGn6MEhhlHj9kK4MiNlJ4DXKIEpY4qtVjdkXZE4FfPdjB1lNhr0BM6hArPeGjQ0B1rRRwReEQZShxViBghSEPHqokfGSJgSUNDuWM8nLob/mg3AvIwPREqY1u3WQYJCYfNCZfuQ2fkIAwtCpcsQZmzGnEZR0+0DXGE1DxYwOI7yWkTSL5cnOSBd7CARVu/REhM8jrVNXUwEEaPMjwBKoSEU9cQNk3UeVwwpIld/hCig1TbYiEx0e2Ay6ajMxzFwXBcvcy4pIlapw1NoShqnHZUuh3oicTQHI0jhiNhi+V0vNepCm7u64/AT/8hBJSANWsSrn9sAyaUl6kj9gXC8A861iZNTHLZUea0oz9mYG8wgpjQ4INErYhj7fsux13PbMKf2/xoCscQGUE6YpE00OBzQ9MEWkNRHIqZkOo4iYk2gbgp4bTpKLLbsDcURdCQKIHEpCIXooaJ/mAQP1QC1u4BAcsuJcY7dZQ77eiNxrEvFFOMNEhU6RoM04DHbkOVy4H9/iAOmwKlusAEj0PNltakWyaYsYB12pcHHzhyAipVYwQvzsMJWF5ITHDb4bXZcCgcQVPEgF3TsNBrwy3L5+CV1k48sO8QtvZHIDUdbkjUuWzw2nS00DVsmKhwObEvHIU5khBnKVFtg7pHRU0TTaEYeg0KIxLQTAMNbgd6ozFUu12IGwb2Rw3ETBO1Ng3VHgd6I3FMsAP/e9liXPrAUwkBS4JkLJqH26ajLRBBW6JPqt1abRPojxuocTvgs9uwqScAXdMwzqGj0mlHyDCxqz+MOD1ADWppF7CSohK9UCa9pZQxuqZYU4U/9aCaFKzoT4qIIuHKNI+seaIftQ8S/UihgaKD6OFPpbhpwhKuqNFeUX1KFb0lSbwyqXog/V2aXmZHvp1z55OUvkmm7cQsELAiWrgxgSwnoO4TbpdKQRZ9/vRd8yqF0Ks8+lQkOjcmwARSRiB7BSxToN65CEvHXwGHzQWfoxRP7XwQu2PPY1nVW3BG1Qr1DGLTbfhnyxq81PUIzvBcjIriKjzTcj+gm1hc8jYsmnARfrzx8xCuCGrtc3Bm+cV4pvV+hPTDx4U4WMDyuHw4u2oVFtRchGgsDIfNgW2dL+D51r/izLILUeebhocO3AW7Qz3/YH7pJai0TcLzXX+EA16smvohVLrqlCh0ONyGJw/cjy5zP5xmKd7ScIP6+wrPOOzu2IqnO34JQ4QTD1gCE93zcP6Ed8Cjl6jQ+UC8B2sb/4Cm0DYl1r139pewv+t1zKtdgZa+/Xj64O9Q6qnEyonvglPzImKE0R1sR7mzFi+3PaYisGxw4oK6azGrYgniRgxxGcW6pr9gV+BFCEicV/4+jCueCK+zRD3U/f6N21HsqMIV06+DDqoCJ9AS2INnWv4PAdnJAlbKLsUC7IgqRtEDMF04SaPdYTAMFrBmOQRuOGsaat12df03BsP4yZYD2Bkx8O81Plw4rQ5doQgmF3tQ5LDj5UPd+PbGvegVOiY7dVw/awLmlhfBlCY03Yb73jiIR1q60WADblw4DeuaDuEtMyara4HMgB/a3Yy/NHej3wRm24EbF89AucOmzr23P4QfbtmP/TGpBKyPnD0Tj+88iDNqKlDktGNnTwDffHkn2qSGMg14R30VVk2ugWEYcDvseKa5E7/Z2YJKu4brZ9ThI0vnYGPTIfyzrRt3vboXjUkRaBgmJFHNdmm4YcFUTPRaYlRv3MD9bxzEc10BRP4lMt15Zj2KnA5Uet0IRiK4Y8s+IGbgxsUzMd7jRG8khl1dPbh4ah1+vmGbErC8QuKaCRW4elotKFjTput4eE8LfrGrDV67jg/UV2NGuRdVXjeK7TZ8/8VtaDY1fHweofRuAAAgAElEQVTuZIx3O5W3cVs4iv/dtBvbowkjZU4hLMCLO7NTpmvVtNutanknSPM6WsCq0AU+NH0clo0rV2KRw27DTzfvwcvdQXxu1nhcu2A6DvWHsPewH9c9uRG624sPNFTh8voaxOIGemNxvHigDRdMnYCPPLUJARvJRSdopomLq3z4xJlTYEsIbnv8Ifxo2wHsCcZRGY/gZ5edjf09fkwvL8GmpkP4391tOKvEhU8smA4dEn0krPf4cfWcepz3uzVKwKqyCXx8Vh0WVZcqETlsSvxg02481xNCvduOj02rhcdlx6QiL+yawHWrX8Z5dVV4x8yJ0CTdjxxY29SBn21vgX+QCDcaAUu9JCp9PykqJczVqf+EyETPNfTfymcqKWYlBCtpmErQoz+VgCXpaQmWQJVI/TvSj3WOgXOpfhPrkDh2wGg9EWllRVwlhKzMbtf8OJtuAzwuizulDuZKpcr8oM+zGC0Bl0uJWMLfn769ywLWaFeJj2cCxyWQ1QLWPN/leP9ZN+GZPX/Gpvan0d5/EFXeOrz/zJvwxO7fo7F/B+ZWnINLZrwbX336vZhZvgjnTr4av9v+DfTGOvGFxfdhQsk0/PCFG7E99CxW1l6L6UVL8Id9tyJgdpxUwLrzhQ9hfuX5uGLqh/Hk7j+iNbQLDcXzsGziKvx970+hmy58ePHXcMvaaxG0t8ApS/D2KTeiq78Na5p+ievmfhMu3Yu/7/y5En4umfZeBCN+/N/er8OrlePLy+/Hwe6deHLv79Havw9+ewuEZqhxlWoT8NYpn0YkFsK6gw/BkAYuqr8WDocDf9r1bcSjBr6y8n4Ew/14YMv3cCjcqCJS3jn30/AHevF04x9gF05cWP9uzKo5C7/bcic296zB0oq346pZH8LDW+9Be2g/Fo27BDOqFuLezTchIDrw/im3YnLFTDy641fY37MVLf49+OzyHyEQ6cNje34Bn70Sl037d7zQ9Ahe7X8EcUNjDyy+wZw+ATLhdTktAUtVjDo2MnJAwLLZcPvc8Th74jjcvn4LolLihkUzsaXpEG7b3YmbZlTjE8vn4icvv4HHDx7CHJ8Lt69ajk/95Tk82BHAR2fU4opJ1bhnyx60BaN4z9RxWFBXjU8+tRnFusSvr1qBYCyGu9a9hgPhKFbV1+CC+lrc9PwbeLHTjx8tm476ihJ8bd0WeDQNn148C5taD+PmN1qVgHXbZYtx7yvb8bd9raj3OPHdK1bg9nWbcfeudrx1YgX+88wpeOD1fXihvQezitz45JLZuH97E377xkFMcgr8431vwj3PbcaDTZ3YF4ojpJNgPHxzx6L48YXzVCTaLeu3qbjNd8+YiPoyHz77wnbs6gthzRWLMKHEp0SmF9q70RKI4O6LF6noq689uxmkL71j+gS8+8zp+OKjz+Pe9iAuKnbgmyvn44HX9+PZlk6cU12C/3feWfj4oy9ifXcIt5w1BW+ZNRHff34r1h/qRkt/CB+dPRkLx1fi7n/uQE/cwJeXzsaew324ceN+9X7IHlinf3nwkSMnINxumDYbNDKQjkYhh4mkGSxgUUThpWVufPWcM3Dv5t3Y2NGLaxpq8LYzpuLKB9Ziss+Bm8+dr67xP+1pxsaeMK6qLcWXz52H+7fuxbMtXVhc7sUNy+fB7XRi4a8eR4/ddcIBz7ZL3HfFUrzS2IZfbm9EtcuBj545Fft6A/ja5kb4wgFs+8RbsXZvE362aRe29wbhEBoevOZ8vHiwFT/YvAd1bgc+umA6VtSPx/Sf/Bl9Di8+1VCJK6fV4Sev7sI+fwgfmTsZSyfW4u1/Xge3x43vr5gNn8OGb764Da2BCA4Fw/j+BQuw/bAfD+5uxnSPAzdftAif/8fL+HvvEQPuAQGLTNw95O03XISNpRQlAmHVc4j135ZvldUG/ffgtD66P1DantKSJCSFtEupRDiZONgSrKxIV6urYf5MCFEkdFEUlUl/KuGKfhIRV6OpRDjybVgYnyTRiq43hx0iFLYqzHLwVWGsfZ7MUjqdAEUPUtorPXumow0IWBpEb186zsB9MoGCJZD1AtaKuqvxpz3fQaexVz3SxPo02OGC9FA4vwF3tBK3X/ZXfGftDTBdASX6PNH8a3T0teGzy+7Gy/ueAX0p+siBH+Ed0z+P9t5mPNv5Gxji+KVTkxFYd75wHXSTvtV1QBRHIWGi3FaHtzd8Dtu6n8O6/X/BVy/6A57e/iCe7/8D6j3zcNXkT2HNgV+htbsZ333zavz3Y+9Gs3xNPXNNcy/HdQu/itvXfRCwmfjUgu9j9d778Grv4/QUN/BcRs9cZ5ZdigvrrsVDu+/CwfBraoPW2mfi2tlfwVNNv8WOQ5vw3xfcjz9s/AE2h/4K05Q4s/RSXDDhPfj9jttxKL5LHVPvWoj3zP4v/H3XvfjnoTW49cK/4vm9j2N1208AYcBllOGGxf+L9QcewUs9D+Pa+q8hjD48sPNOCIeBcJ+Jb1+6Gv9sehoP7fsOpC4hgk6V+ugoicMw2cQ9+YA+OONr4AE+cWuh/69DwAQ9nFsP4CpRYdBB9Jnkg3syac0cYsFmfaOdfBdI9pN8bjze82PyxWLQ24Q6fzJZhM5hJZ2dqB0ZCPWX/Lx68VApsUdeYE7pbkrzp/Ln9ECsKkjFgHB4SEj3gIAlBH65YjpKfB58fM1GdAkb3NEQzGgU0aJS3DSjBiunTsBHn9yEvVEJ3YjjH1edjfUH2vHVVw/AYURg13UEbC51rhkO4GdvWowvr9sKfziK3159Du5e/yrubelHHAITbMB3zpmDl5o68IOdzXj48oXoi5v48BOvIqjZ4ImFYcZjCPhKlYB1/aKZuH71K3gjYsJmxPHTFdMRFzq+/NIufGPJDAQjUfzPlgPoMsgcGvjs1Cqc21CHT619DQf7+rD3o2/GzY+/iPsOBYfsi+F4rqrw4MeXL8Z7/7QWLyRuZWf57LjrvLn42ea9+H1jF/6+6izs7w/jP9dtR1TTscQl8OA7L8B7//AEno9SLAewxGvDPZcuwo9e3Ip72wK4c3YNystK8J9rNyOiO6CZcfxq5RzEhA2fWf86blk0DaV2HV/auBetUVPN41tzx6O8uAg3rtuGVqnDGwlCGDH0u4vVyygLWEeuLutyH3otHX1dJu8dg5O5rMiTocfS/6OXe7pXDASbHHW/UJ8Zcpj1Aes+Y/15woQpcURIGG4fJs899D413CeHekkm7xkDn0z+81H3kZPfl46cS9d0GFQ9jngYJmQ0CkH3kkFtsIClS4lrqrz4r3Pn4YanNuH5niBc8Tjc8TB6NScmFHnw3RWz8VxTB+7ZTbYBAr9aMR3SZsfH1m5BSLPBKU3cs3QqLphRjwX3rUbfCSKwNNPEZ2fV4t/OqMfKB9bCb3OBKgleM6FURVJe99SriPqDeOG6K/CFJ/+J37f2qt/rH51QjC+cdxbm/+pRBF0+6NLE+yaV46vnzcfiXz+OqN2FX688A2saO/CT7S0q9c4RC+KN66/Ebc+9hnXdQXxvxWw8sOMgfrWvU6Ut1+sGfnHpQvxhRxN+ubsdBgSKIwEEybDeV3pkWZIm7n09kKUlp3RrP+0Pq7CtY48+kkZopfupCCqVBmgo8WugaPQIUklPe2x8oCKgXv49biUUC6ouy6mDvDNyjQAVg6A9HDn290TKpsICVspQckdM4GgCWS9gnVm9Eg/vu0tFB1GzSx9m+s7F9JKzUOKoQLmvGrNrz8bX/3EdurW9uLz242gMbUM0HMdZ4y7AP3b8Du9a/Cn8fMMtuHrWx/BiyyPYGXpeeWUdrw1OIXS73JhbeiGmFi2A116KSm8txpVMxMPbf4B1bQ/iTeM/iqWTLsfX1r0bi2ouxdzy8/G3A3djincRPn3uXXhy+59Uqh41h+7CvLql+NZzH0dAO4wPz70Df919D/ZGNgx9XjM0rKh6B2aULsFD++9Cn9mijvdqlbi67jM4GN6Cfzatxc0X3o87nvwket27YBoSF9d9ADOLl+D3+76BnlibOqZcn4Qr6j6BVzufwvbOV/DdK9dgV9tmHPI3D0x/du0irN/7GJ7o/CneOfHL6IgewJqWX4AixOk5cYHrSnxg2ZdwqLcZr3e8hK2Hn0NjeAviIjw0hbCjWpl5DhZlTu2SG8nrynBPtscTX4Z+9lhLoSPfHKuHX/WyNrRRSsLgRt8un/xl7dRmPaJP5/ND+dGMydskHIFIVDManEK4yiNw11UrEI7F8OKBdjx9sAOruwIIQOCmaVVYMKkWH1yzEX3ke2Wa+NPK2WjsD+FzL+/GZI8Tb5lQgTllHpS6nZhQUoQSpwOffnIjukMR/OyKZbjukeexJW7dHOxGHLcunQFfPIabNjfiHJeJH7ztQnQHg0oUe6qxE2sPkwcUlIB1xezJePsjGwC3B/SyeuusGtRUlOJrL+3ArUtm4DFKGdzXCXVhSYlzSh24/Zx5+Oy6bdjU3pUQsDbgvo7gSbfE9Q2VuGHBNKx44BkE7Vbakj0awT0XzMPrLZ34wZ52PHzZArzQehjf2NoMTQi8d5wPX125AAt+vQbBRKXEChnHfZcvwsObd+LnzX78+eK5mFRWhFeb2wfGMK2yHH0xA//+6AbcsmwOesIR3Pl6M4LQVErTqlInbr14EaLxOF5qOoS1BzvwWEeA3PpURF1SwJJGHKAXn7S0Ye4LifPQ9jrOO/HRV/vA/z8i+h5vsJSuNPy/WR5kY9SG3MAKMCTi6HtJ3IAMhazUQnrxrp8CVNdYiyMlGhwC3zt3Ds6orsCGxjZsauvGb/d34JApMMGu4bsrZlkC1p5DiMQNPHzRXDzT0oXv72iD1K37xEdqPPjSJUtw1n2r0XuiFEIjjrvPmY0SGLhu/S4YieMXujR894L5+M+nN+JwfwTPvP9yfOCv6/BcgKKJ4rhtYT3OKC/Gm594TXmpUDunyIYfXXo2Lv7Dk6DKLBvffxm2HzqMpp4jPivLJtfhvs278GhzD25dNhM/3rYff2/1K3+pIiHx+Rk1+ODZs/F6Wxc2tR3Gw3vb8GrYRGzQthkcgSVLilOzqRNiEyUE0hcJSfGJoq/UlxiDUvysf+M0v9SAT1EvZILv86nfr4IquHFlxhSB5W4ySsBmswQs8tQLnPyZ67TGxgLWaWHjg5jASAjklIBFz1VLi96Fq2Z/AM/t+yva/Ach48DHzvk67lz7H2iRr2JlzfvghAe1JQ3Y2voCNnY9hs8s+QlePvAkJpZOx9Nt96E58sYJ2SQFrDvWfwiXTvl3nD/xGmxoXI12fyOcmhvnNrwZL7b+Dc8fehBeYzxuu+wh/OD5L2BB7fnoi3VgTdMvMNu7Ev9v5T348bqvIGT6redlimY3JF7vewFut/O4AhaZxi+rfBvmVZyPh/Z/B4fjjer4Ym0c3jr5RuzsexGvNj+Hmy8iAesT6HXvVgLWynHXYm75efj93m+gO2aJXhW2Blw98Qa83P4Yth3agO9e+Q+s3/0odhx+JfEQb32J2dy3G72O/XjnpKEClgqKCUlU2howu+JsTK9agJlVC/Hgaz/E5uBjMAalEB7srIZwuqCMcFLUki+eqXoVGxw5pNbkmHGe+plI/DoSQHDkeEtzGtrfwLfEQ/7F+syRfxtmVEf1NbgfdeygeVgRFUf6OPqzRz6a/IxK+jhuCNbQCI3h+QwKoBjE4siZhsx78GDJVJf2DJn1JtI+lHAViw8Y9CYFLFWmOx5T0QPn1lVhUV0l3jR1Av5v0w7cur0NX5w5DmcmBCz/UQLWbRv34ObFMzCzohiP7WpCmz+AIl3g+sVn4EvPblEC1s+vXIZPPvYiXghbA/T8yxvmjqUzYYZCuHlrMwKRCBpsEudNrMbZ4ytxYUMtfrdpJ76x8xCurysZUoVwsID11Q07cNuS6XiuvQf37jmkjJLppezySg++uHgWPrNuG17rOHxKAtb7J5XjC4tn4rw/PoNuzaHGW2LG8MOV87DhQBt+vK8Dfx4kYJFH0NsrXLjzksU4+7dr0J1IdaoVJu67bBEeeHU7ftHch/9bORtelwsPbN17RIg2DLQHw9jQG8EtS2YOEbBIBLDFophkB86rq8CiuipcOW0CHty6F1/ctB8mJRQlPLCUgEUVq8aoqVUdJFQffS0OL5+f+v3geNPTEl1ZTj4Dt99hS3gPjPWozgYfO/S6HnoPOfoeMPT+Mui6TCCxjj7OtT3sXw+WBAdFvwwab/ITx0Z4HS0nJsZ+1AiGW4+j72VDhEYyynW5rUg1upfE45CRiGX4neQ9WMCiv4vHUC3jWFZdggW1FXjTlDo47Rre9ucXQfebIQKWaeIP583CgVAMX3llj4pqpP3/zdm1eO+iWSMSsL6zdIbypLpm7esDYtQynw13nDsX//H0JvT0h4cIWDDi+Pr8iVg+vhKXP7YRps1KK76w1Im7L16IC37/BEzNhufefQGe2tOEl1uoIIsF0jTi2HrYj5jbi9uXzhgiYNE3U554FAuL3VhYW46Vk8dh6cQaXP/nZ7HaT2KfdQ8c4oFFVQCP05JrldxHg9cpWZVOpQiq33Opu6bG6FZSuKclc32fVxnji3BIRa9wYwK5SICeiaSX0qIBkA9WOhoLWOmgyn0yAev5RLz/pqx6mpg3sxELF70ACnMhD6zBEVgUTv++hlvhdDpx7+YvUjgWZnpX4DMrvo/bn/oEDsoNmF9yCc4f/y5U+mrxvRf+A716M64e/zmcOWEFdnRsxN8O3o0Quk+4/EkB67ZnrsOHFt0C3XTidzu/AUOPYFrR2XjH9M/h2cY/KgHLMCQ+Nud76mVb0zQ83Xg/9oRehitShW+vehS/fOV/sLH3UeVhNc45DeM90/Fq5xPwOcqGCFg0II8sR6mzEi3B3ZhZvAyr6j+MJxp/i209z8CEiTnF5+OKhuvxyN4fo7Fnt0ohTApYJI7N8K7AlQ0fwaP7f4Ed/nUQ0HFW+WV487SP46E37sbGQ0/g80t/hq5gO/6453aEZD98WgWmF5+Nvd1bENQ7j4nAkiEHzp3wNrzRvQEdkf1wxIvwvnn/jdauZqw+/ENQ0Z62lgbs2D0ZjW0Vyvg6lY1efpLpLtTv8Js14ZYxgp08IGAlX2gG9WlFYR1fyBmsu4yk4lUqOeRtX5Ty4/ZYoX7KuyZ2zAt9UsAir5S3T6pEcyiKDYf7ocdiuG35bMwu9+Itj27ETXMnHlfA+vnrjfj++fPwyJ4W/GhXq/qS/92TK/D5xbNw49OvKgHrN1efg9W7GnHLpv1UKxRnFrvwzeVz8NAb+/C7fR1417TxeL3bj5cPB+AzY7jzvHmo89jx1ie24UMTy44rYFGE1U0Lp2K8z4ObX96JfWED5f969/3qwiko97hw4/o30BEIYPeHr8K31/4TP2rsHWJoPNzaL/Zo+NWVy/Ct57fhNwe7VJEHMof+8tKZ+NaG7fh7ex/+dvmRCCyKupilxfG3d16IO9Zvxq8OHFb3q1U1JfjWhWfizrUbcW9bP748pQKLp07Ep9duwcGIoSI1Lq0rR1t/ENv6o8oDa3AElsM0cFGlV6VFbjrcr1JKvr18Bi6cOhELfrMG0uE6kkJI6VynGJ10TKrZKC6EE8nqg8UW6wWbfHyOFpaPPfmQe8IRfWxYUWoUQ+dDR0KAyqI77Oo+IuheQlFXR/1OGJJCCGCxT0eFx4N1h3rRF4niklIX/vb+Vbjyd09gRyiOu5bPwpaObty1vQVBCNxYX453zJ+G2zZsx86+MGo8dty+Yg5qin0461er0ZuIhhx2uNLEByeW4gvL5+I9j7yILf1R5aX3kRm1uKq+Gh9b+xpiwdDQCCwp8c4KF+66cjne8uCz2OiPwqdruGF2Hf7j7JmY/4u/I6I78dNzZ2FvIIo7t+xXac7j7ToumVCBdc0dcLnduH3J9CECVrkZxaUTq/FiRx8aA2HUyjj+ce2luO+VbbhzH4lgiep/yRTC3hM/M41kefgzOU6A0vxdLpguJ0Q4YqX6sxiZ44tauMNXkdIkYNEXo4MiV1NKhAWslOLkzpjAYAI5JWDR78olvndi1ex/xyst/1CiznjPNCyZdCm++eRH0IgNqLZNw3tm3QRd6Lhn62cRQQ/me67A9YtvxgNbv4dn2/4Pmv3ESkdSwLr9uetwccN7sXLyO/DqoacRiQcxrWwRxhdNweN7fqEELGEDpmrn4j/P/Q62tK3D/W/8DyJ6D+IRiVV1n8TZEy/C613rEYmHML18Edp7W5R45LGXDBGwpAGsrPwAFow/Bz/6541wOGy4dMKHUF82Gzu6X1H+W3PKV2Bf91Y83vgz6IZTmbgnBSxaVJdZhqvqP4kJxdPw+uHnoQkbGornK1Hsbzt/qkzcp7mX4d/O/C/s7X0Nh4IHMN43DcW2Svzu9dvRg8ZjUwhDDnxu0U8QFzFs7XwOPluZqmC4euf9eC20Gsa/KpANCFit5Xx1MYGRE6AHCEo5JTWJXjaPU758IIVQmvjuogYsmlyLv+1tg64JXFFfgzU7DuD27W340qzaE0Rg7cZXFk3H7KoyrG48BJ/NhiVVxRjnc+P/rd2sBKxfXLkMLX0B7O0L4UAwjKXVZdBNA19+aSd29QXx8/PmoL6yFA/vbVUvnpfXj8Pjb+zDrbs78eETRGBd/8xWnFdVjC8uno72cAybuvyYUezBvIoifO+VXfgzed3EInj8Lcvh1XX8hvy29rSi4wRVCB3xKP5r7kRcM7sef9nXikjcxDm15ao62f+8uh+NoSj+fpSAZf9X1dGvnDEB75o3FQ/uakHEMDCz2I3z62vx9Sdewr3tIZzlFLj13DPQHZfY1NmLyV4XVtRV4JvPbsaTXUHcsnCogOWGgf+ePR5L6uuw+kC7KlX/9im1eHZPE77w6gHrm3quQjjya4I/eVoEBKU1kXhF95ETVDQdLGBRPNHba7z4zOJZeLa5S1U0XTmuHBN8Lrzr0ZfR+y97pZvPmoKl4yvwRHMn7nh5F2pcdnxxQT1mVJUhEDPQFwohGovjwpkNIzJxHy/iuOucM1Bd5MHjjR0os9uwfFwZHt5xEPfu60R59KgILAA1Mo6fXjgf5T43Hj3QjhK7DfPKfFhYV4V5P38EPXYPrqnx4ZMLZ+DVLj+aAmGcXVmMarcDn3hiI3SX6xgBa7Jm4scXzkdnzMBLbd2YWuTBpQ3j8LnHX8RqvzEgNI+mCuFpLSQflL0EqGKwxw1VzZFSro7z+zp7J8AjYwJDCagILIfDErDSIcaygMVbjgmkjUDWCljSFKg0p6Pa1YBd4XWI2wIKgt0owfySizDOPQXBmB97uzdjWvkivND8VwQ9TbAZHszxXoSoEcau2LMwEEWRWYeFZavweu9zOBxthk2QD8vw38dHjADG2aejrmgaXux6EEXOMpxRfAHGuaYiHA+gLbgfdrjRFtuJlvg25aUl+7z4+sV/xD92/wbrOn8PoVsCmcMoxnTPMkz2zVEPhB2hRuzwP48+0Qpb3Iv5vsuxO/AS+myN6lmgwbYMDSVnYG3bbwFHFD5UYVbROahy1qvRtkf2Ybt/PfrRAVvUi3Or3411TQ/DKLK+HaX7bzHG4YySC1DpnIBAtA+N/h1wCS9aYzvRKXdDgw0THfMxs2Q57MKB/ngP9vS/gpbY6yr1Yoa4ECHRgwPxV6y5mUC5mIx5pRfCayuFCQNNwTewO7ABEc0/1AOLBay0Xah52XGyHPpJHoSPVCG0Y7Ju4s11pZjsc6kqVTv7Qni0tRftpsBlHmBciRf3N/UimvCZur7Sge64ib90hTHV48BbJpSj2qmjPxrHM61dmF/qw+NtffDaNfzsTUtw8xMvY25VqXr5644a+EdrD7YE44hIYLIdeOv4UkzwOpXmtrU3iCfb/WgxBZbbTcyq8OGXB7oAp1tVwLraI+HzuHB/RwguXccCnx2XjitBicOGmGFidVsPXumNop+ubtPEmT4b3jO5Gof7A3hoXzsidis1cLjmj5tw2HRcVlWMhRU+UHLOvkAE/2jrw76oCdMw8dFaD/YFY1jdF1e+N9SqhYErq4sxv7IIfZEY/tnRi8lFLrzS0o0XTDsckFjotePimmKU/+tlPRw3sbq1G6/0URELYFW5C/3xOJ7ujSGm6aBKbg024PLaEtR7XaqMPVVA/EtrD9pNbYgHFsjslxsTSAMB2ndWlvWJv5wa4oFFafkwcWmlF4sqfLAJgC6Vh5u7sC0QV5nwcz12XFVXhiJN4uYtjSh32DHJpcPpsMNm09EdiePKcSW4bvl8LPrl43DYbXDpwz9b0NAOx03Uuu14S205JngdiEmJzd0BrD7kx2EpUBoJ4YbZ4/G7vR3Yg0QV0oRX1zvqSlHrcaI9GMGuw37MLPPif7e3IOD2oQgmVlZ4sazCB7eu4XA0jr80H8brQQPj7AJXVbixvjuIbVTwQdPgkBJnF9lxUU0JSuw6KGnwqfZe9ZngQHmPo1II07Bu3GWOECCBmKpQ6ho0fz8k+17lyMLxME9EQLrd1peo/YEBn8RUEpP03EUimcZVCFPJlftiAkQgawUsNThJdds0mPR4NchUQZM26IJetUzEzShsmh1xGQMEJZxR4pxNpfSZwjJuhdRgE3bEInF8cN43sGDcyuOu/po3HsCj7T+ArmkwpJXfT5FMunSqlBJDRtSY6NymjCMaAJZUX41r5n8S333hE+jW9g/pW6hzOyGlpsQ0CRqnVVJKh13NTapxW/PVhQ1xGRnwsSDBSYdlfGwgkmBhHW8TDjV/JM1V1FypupwdghjQMTICTZDVsgkpEl4g6lin4iL/FUFB40ry1SQ9NA9il3gnsMEBQf0KE3EZHejLMLgKId9K0ktgsIk7pXc5BODQrBfWqCkRTYjRdEcgs/LwoHdYkrno/9JVS8c6NQG7oGsJCBsmnJqGqJSY76SKhEvwvr89j33Srl4d6e4RoftIUuym49W5rcpsEVOqymTUvx0SOkbMqUQAACAASURBVJ2blK1EmhyNhy51Ore6j9DxOl2ZVuW3kEHX2ZGXXRofvXwWaxKfmD4OH116xnHB/mTD67hrRyuChlQvzNRLlPzqTKkq01FzCamEtiSfZGf2xDjoHhkxAZsmYJgSscRxdFdwCrpH0P0DCJGpPkVSqXnS3OkuNmjc9HkS7NWaEBfzyDkHmbizgJXe64R7PzmBowUsOoJ+U9J+J8Eqrvb7kWs4eS3Qtd1vmLi6xI4vXnAWblu/BasPdmBJZSnuWbUE/2zrwm2v7MIdK+ZgaX3tsAOJxg186vGX8FhHP2xCwKG+IBLqHpO8ntQ9QLP+jioDDjR177LuPXHT+qHrlu43yeudfsu7NOvpJCaP3ItIuqZ7Jollg/u05gY1luHuR+qZhFMIT76p8v0TJA4nX/SDQQj2vcr3FS+c+TmdkG4XEAoPFA1K5eSTApayVuntS2XX3BcTKHgCWS1gpXp1yGbHHa2EAwnjvmFOEIj5YRaPzO8h7Jf4/LKfYWb1QvzmlTvwQvcfVYGxQmosYBXSao/NXAcLWOkawXyHxA8vXYQPP7YBO8xE5EO6TnaSfil6qzIexnj78f3k2uISHboTZoo951I+ZRawUo6UOzx9AsMJWKfSW9m/qsbccmY9/m3hLGgkhusa1uw8iM88sREdmgO1ZgRFtuGvWxLND8Ql/DbXKXvBncoYU/lZFrBSSTNH+0qmDlJ6LqUOpiPVKkfR8LBznIDdrozcRTQKBFMfIT5gFE9fDvZZxby4MQEmkBoCBSVgpQbZkV6MqESlZqUykgG6fvyMn1SfOmv6YwEra5YibweSCQFLj0VQLUx0mRqiDivikVsKCLCAlQKI3EWqCIxWwLKqbkYwyS5Q63aiMxLDznAc0ulO1RCzqh8WsLJqOTI/mGTqoCYgSLwiEYsbE8gTAuSdaPq8EFSNqj/1lQhZwMqTjcLTyEoCLGBl5bLkzqBYwMqdtcrVkWZCwMpVNlk/bhawsn6JCmmAoxawCgkWpxAW2GofNd1k1UGnA4IqDlLqIEdfFfaeyLPZk8BkFvnIYAKgYjMpbixgpRgod8cEBhHIOgFrzrRmLF6ynhcpRwiwgJUjC5XDwxSVVTAnTgbsY5val8MIx27oSsDqAVqawB5YY7cMfOYEgfoGyOpxjGOEBDgCa4Sg8vBjqqqnxwMRi1v3bq46mIerzFOSRUWATU9LJUIWsHh/MYH0Ecg6AWvCuG5cfNGa9M2Ye04pARKwmhunYfe+CWjkKoQpZcudWQRkWTkwuUGVO+aWWwREPAb09ACtzSxg5dbS5edo6yZA1tYNVOXMz0mmblai+zDEoXZIEqG5FQwBZT5d5FPzFcEgQCIWNyaQhwSk1ws47BDkUZXi6ppJAYsKbaj+uTEBJpAyAlknYDlsBt765jVwu7liQ8pWOY0dxWN27N1zBppaK1nASiPnQu5aOp3Qps2ESQ8a3HKKgIiEIbq7ITvaWcDKqZXLz8HK0jJLDHeyz93JVliQ3xEJWIe7WMA6Gaw8+/eBl3pKHQyF82x2PB0mcISAqrDpckL0B4BYLLVoNM0yiWcT99Ry5d6YAH25It5/06Ci89nBZNrEDiw/7xloqrgzt2wm0NI8Fd1dZWjrKEVTe3k2D5XHlsMEZE0NMLGeIydyaQ3p28y+XiAQUC/BCKe+yk8u4eCxjj0BiiwRkxsgK6typhLgWFAT5HXk9wP9fsi+Xgi6jrkVBgGHHdLjUSmDmr8fkn2vCmPdC3SW0uUESMQKhSDCkdRSSAhY4Ais1HLl3phAtgpYJFavOHsbJkzaC5tOxaezTmMr8M0jYJoaujrq0NNdikjUjsaWShzu8xQ4F55+ugiolIbJU4CyMuvFk364ZScBeuGRUr30ynAYWjQK2XMYoFLV3JjAGBOQLje0hgaYHoro5HvJ0OWQEKZUaWMy0A+YBuThLgjyQOKW/wTo96zXA6nrqiqbiNPzNzcmkMcE7HZInxeIRCCCKb7PsYCVxxuHpzbWBLIyAougjCv3Y/KkNng8QWgaRWKxiDXWm8U6P4lXOiIRJ2JRG6QU6On14WBrBaJxPTuGyKPISwLS64Mor4B0OFRINktY2bfMdJemb+wFheJTBBb9N0Vx9PvZBDj7lqswRyQEJAnhxaXQdJvSsLhZBEy6Xg1DGXdLSFAKMCiFkA2883+L0JdCbpf1+5UiUSh9kBsTyHcCug5ZXAREYxCBQGpnywJWanlyb0xgEIGsFbBsuonqij5UlPnhdET5GTMLt61J4lVPEdo6SxAIs8F2Fi5Rfg2JRCtfkZXeYOOKhFm/uKYBkAEwRXKQnw43JpAtBCjCpLgEcLkAjb94OWZZSLCKRiD8fZAcOZktuza946Cqg243JAmYdN82+Uvj9ALn3rOCAAm3pSXWvk+10ToLWFmxxDyI/CSQtQIW4dZ1E153BB5XFCRoccseAtIUCEVt6A+6EY3xC0D2rEyej4QeNqgaod2h/LD4ETs711uTEpKisOjll4QsbkwgywgITVfRJrBTFBbfS5LLo/yvjLh17bLwnGW7Nk3DodRBj5seuq0vHbjqYJpAc7dZSaCk2HqW9PdDpDLalAWsrFxuHlR+EMhqASuJWBOSLW+ycL8ZJudeZOGyFMaQ2AMr+9eZzX+zf414hOynN9we4Gu3oK4M4XTCdLsgIpQ6GFGp39yYQMEQ8HkTvm8BlUKdssYCVspQckdM4GgCOSFg8bIxASbABJgAE2ACTIAJMAEmkDoCQtdh+rwq8oRMrCmVihsTKCgCHg+k3a6iD5V/Z4qaKobgcUM5tlJVV25MgAmkjAALWClDyR0xASbABJgAE2ACTIAJMIHcICC9XpVGK0JhVYmNGxMoOAIuJyT5IQZDEKn0/CODeErNJf/WVPtrFdwi8YSZwFACLGDxjmACTIAJMAEmwASYABNgAgVEQDgcML0eCKrAFgyqCrLcmEDBEbDbQEKuSqElITdFjaIblYDFEVgpIsrdMIEjBFjA4t3ABJgAE2ACTIAJMAEmwAQKhQClN5H3D803EIRgw/5CWXme59EEyKuqpNgSsIKhlPE5ImBZBvHcmAATSB0BFrBSx5J7YgJMgAkwASbABJgAE2AC2UuAiqB43KoKpxYKQZJxOzcmUMgESkus6puBQMoosICVMpTcERM4hgALWLwpmAATYAJMgAkwASbABJhAIRBwOCDdLoCM2/sDXHWwENac53hCAhSBpa4HErDMFKXSJlIIVb12jsDiHcgEUkqABayU4uTOmAATYAJMgAkwASbABJhAFhLQNUiPBxQdol6quepgFi4SDynTBGSRT52SKnGm7JpICFiaBGQ/pxBmek35fPlNgAWs/F5fnh0TYAJMgAkwASbABJhAoROg1EEnVVxzAuEIRDh1htWFjpbnn9sEpNcD6LolYKXKD04JWB4V4ShYwMrtDcKjzzoCLGBl3ZLwgJgAE2ACTIAJMAEmwASYQAoJ2GxWVTR6oQ4EVcoUNybABADpcgFOhyVgxWKpQcICVmo4ci9MYBgCLGDxtmACTIAJMAEmwASYABNgAvlKIGncbrNDhEJANJqvM+V5MYFTJkAFDaiwgbo2Iim6NgYErITX3CmPig9gAkzgeARYwOK9wQSYABNgAkyACTABJsAE8pUAGbdT9FU0ZqUOcvRVvq40z+s0CEibDfB5rWsjVVU5ScCi1MRksYTTGBcfwgSYwPAEWMDincEEmAATYAJMgAkwASbABPKRAEVfFfmgaqsFQxCp8vjJR1Y8p8IkQGJTkQ+Coq9IxJIpqETIAlZh7iWedUYIsICVEcx8EibABJgAE2ACTIAJMAEmkGECXg+k3c7G7RnGzqfLIQKapgQsMnBXPlipErCUiTunEObQTuCh5ggBFrByZKF4mEyACTABJsAEmAATYAJMYMQE7HZISo2KGwBVQkvFi/mIT84fZAI5QoAELK/XEptIwEpBiq206QAJWJxCmCObgIeZSwRYwMql1eKxMgEmwASYABNgAkyACTCBkxAQmgaTXsp1DQgEIVJVXY3JM4F8IyAEJIlNmrAELMMY/QwTVT+FYQKBwOj74x6YABMYIMACFm8GJsAEmAATYAJMgAkwASaQLwTI98rlhHQ6VVU1VV2NGxNgAsMTIAHL7QJsNkvASoFPnEgIWEoMCwSZPBNgAikkwAJWCmFyV0yACTABJsAEmAATYAJMYEwJ2G2A2wOZ9N/h1MExXQ4+eZYTIAGLxF6XE4LEplREK1JlQ6r8yQJWli8+Dy8XCbCAlYurxmNmAkyACTABJsAEmAATYAJHE9A0wO2GJBGLUwd5fzCBERGQTofyrFICVjQ6omNO9KFkBJYwDEiOwBo1T+6ACQwmwAIW7wcmwASYABNgAkyACTABJpAPBBwOSIr8iFLqYJiN2/NhTXkO6SdABQ+8HuuaiURGfT5OIRw1Qu6ACRyXAAtYvDmYABNgAkyACTABJsAEmECuE6DoK58XErAiSVJhRp3rTHj8TGAkBMizigQsir4KR0Yv/A6YuLMH1kjw82eYwKkQYAHrVGjxZ5kAE2ACTIAJMAEmwASYQDYSoNRBpwMiTFEk0dG/hGfjHHlMTCAdBHTdErDiBkBFD0brG5cQsLS4ARlkE/d0LBn3WbgEWMAq3LXnmTMBJsAEmAATYAJMgAnkAQFKWTJ9XiAWt6oOmmYezIqnwAQyREDXIN1udTJViXC010+yCmHcgGABK0OLyKcpFAIsYBXKSvM8mQATYAJMgAkwASbABPKPgKZBknglBBAMQaSiilr+UeIZMYHjE6BryO0CdB2iP8ACFu8VJpDFBFjAyuLF4aExASbABJgAE2ACTIAJMIETEqDUQZdTmU+zcTvvFSZwGgSEsAQsu90SsEbpH6eqgFJEVzxuRXRxYwJMIGUEskLAcjni8Hki0DUTImVT444yTcAwNfiDToSjtkyfms+XZwSErgMOJ4TGd4R8WVrTNKFFojBNI1+mxPPIBQJ2OzSbHeB7yWmvlpQSMhYHYqMvLX/ag+ADj0+Aqqd53BASkP39EKNNfWLWTKBACSgBy+WC6POnTMAS8biKiuTGBJhA6giMqYClaxLz5+zDrFnbYLONvmRp6rBwT6dLQJo2bN8+F5tfb0Asrp9uN3xcoRLQdWg1tTBqxwNUTYlbfhGQEqKpEehoH/XDYX6B4dmknIDDAUycDFlekfKuC7JD04Q43AW0NKWkxHxBMkzHpIWA8Hph2m0Q/n4V7cGNCTCB0yTgdFpRWMEgRDR2mp1YhyUjsASJ/+RJx40JMIGUERgzActuM7DynE2oq9ubsslwR9lDoK21Hs8+vwChiCN7BsUjyWoCZECL+ikw+YUzq9dp1IOjF+GuTqDxAL9sjRomdzAsAY8Hcup0wO1hQCkmIHp7gIP7+YUsxVxPu7vkC3csBhHgSmenzZEPZAJEwOGwBCxKxQ2PMrCCIiPdbsuPjgUs3l9MIKUExkzAmjfzABYu2pDSyXBn2UPAMHRs3XYmNm+bCik5DSx7ViZLR0LfIteMg6ybAKlzCmqWrlLqhkUvW40Hga6O0ZeqTt2ouKd8IECl0CfVA5VVlqE1t5QSUEQpCqulefQmxykdWQF2RlXOyGNHACJAnj1cdbAAdwFPOZUEEum4iEYtL7lRNJEQsMAC1igo8qFMYHgCYyZgvemS9aipbuZ1yWMCHZ01WPvscgTDHIWVx8ucmqlR9FXDVMiy8tT0x71kP4HODoiDFIU1ujD97J8ojzCjBDxeyPoGwFeU0dMW1MkovWbXdk4lHMtFTxpOU6psKAQRYX+ysVwOPneeEKAvQDweJc4rUXgUTQlYHjdAqYgcgTUKknwoEziWwJgJWG978+MoLurjNcljAoH+Yrz0ymI0tZbD5CisPF7pFEzN6YJsmAIUl6SgM+4iJwiQ2TClIvX7c2K4PMgcIVBUDDm5AaCXEG7pIUAm4Xt3W55Y3MaEgCThyu2CMoimSBE2bh+TdeCT5hkBTYP00u8OAeEf5bNJQsDSojFIFrDybKPwdMaawJgJWNe85RH4vJyvP9YbIJ3nD4e82Lr1TOw5MI4rE6YTdD707XJbAlZRcT7MhucwEgIUNUBpSN1d/PI1El78mZERKE4IWOx/NTJep/MpKYHWFojmJkBy2trpIBzNMULTYPq8qgtBL8ZkEs2NCTCB0ROgyEYSsGw2iN6+0VkcJAQsPRqFOcp0xNFPjHtgAvlFoKAFLIoK0qjucJY25R0lJNkb5GQjAWvHG3Ox5+A4+IPOnJwDDzpDBHJEwNKkhJklvjo0Fro3GCcYTzaN95idRC9e7W0Q5INlGBnaaHyavCeQ5QJWVl+TI90cdO9pb7N8sDgFeKTUUvc5KlLgsANhMpoenU9P6gbFPTGB/CCgBCyHA1pvH+RoIhtZwMqPDcGzyEoCBStg1UYWoqFyDp459BvY3dknEcm4hrm+ixEKR7FfPg9TDPWJMQ1gjusSeGzFeKX/IWh69u0vErB2bp+rIrD6WMDKvgXKphHlgIB1oRbBwkk1+N6ONhhO1ynT0wC4dIGoIZGK78vfVmrHjGIX7tjTBdiP9ZlbajewYnw5frGvE72a/ZTHm/YDSMA61AbRyQJW2lkX0glOQcCi3/xOTcCQErEMfJclYlF8eXYtNjV14O9huiMc1UwDH6jyoAcCfzkUAPQs/MVOQ04IWFprM0wyKOaWOQL0UkzRV5Q6GAhAmBnYuJmbHZ+JCYw9Abcb0umE3t8Pk66z020sYJ0uOT6OCZyUQMEKWAvt78T5s67AnS98EA5f9glYiNlxzbTPwx/w4+nOexHD0G/ZjJjEO6d8ET57OX6+7b9gd590rTP+ARawMo48d0+YAwLW9RU2XLt0PlY9tA5R16n769TCxMdnT8CDOxuxxRjdi6kmga+eMR4X1lfjgj+/CNMxVFCjf3/fOA8unzEJN63fhv3m6M6Xlo3FAlZasBZ8p6cgYJXpAu+pLcbOQARPdqZfMBKxCDa863z86ZU38O2DvcdEc2qxKO5ePh3NgShu37wfpiNLI5dZwBqTy0xqGuDzWVUHg5Q6yOLhmCwEnzS/CTidkG4X9GAIZnQUxREGPLCikJxCmN97hmeXcQJjLmBphh1uvQSGjKPIUQZ/tAdh0Q2YOkrsNXDpHoTi/fAbHTCFAY8sAzSJkNkDyrBzSh+cmgd95iFVMVuTDjhRhCj8MMTxbzzHCFjqfNVw23wIx0PojbXBFHG4RQkgNUREDySsb7ps0gk7vAijD1LEIQw7yl110CDQF+tERPrVAwZFSRXbqhA1wvDaS2CaBvrMDnVMslGaoEeUoshBRucmukLNkLYoBgtY6zsfgM9RhLgZQ0/sEAwRpi9A4QpVwy7c8DsPwi5ccAovwkZA9eXQ3eiNHFJjVFxMO3y2cvSED8FrL0WRsxyhuB/+eBegHUnfEaYNxfYqOHUP+qPdCMoeQJgQ0OBCKaQ04dCd8NiL0R7aCylMxbvEWQXDjKMn2gZDi6jpsYCV8es5K08oyFOANuyJ2lECVqmQqPNYL2/NoSh6DAnayFWahF3TEDBMTPA4YZgSe4MRREUymkGC9Og6lwMuXcPhSAxNkTjowd8JiWq7js5oDKU2HVVuJ/yxOJrCMcT+P3vnAWZHVffhd+b2e7f3lmzqpveEQEKAQBABASlKUYogin4oVlQEBREUpKkoCgooIEUTmqET0hsJ6ckmW5It2d737t46M59n7i7ZhE12N23bOd/zPWp25pT3zDl3zm/+5dP7IQadoR6nudo7tm0KWKdM4srXV5MSHwk2v68lQGsHJ1+rYZDusJDgsOEL6xS0+NFUCy4MZkXZ+OsFp/K7ZZtY1higoDVAV6aTimEQb4EstxPdMMz+1GuGude0C1jnvbqaEQlibRrs94do0jH7Hh1oJcfjZLM/jNtmI86iUhkImVyjbVaq/EEqQhqIsRsGwx1WmkMhxG6Q4XbiD2uU+EMd2ILd0ElzWImz20x2e33ByBgMg2SbiqLpOKwWEpx29rf4qdFE/xUyXHZUBUq9fupNXkokK4+0wOqTa7ZPdqrdVbarvaQTAUus/Uyn1Xzua/1ByoKaCNHL1Cg7vzwlhy21jTyzs5SSkG7uBTbDINNhIcpmpdofJKzp5jOd3xo095Iui6EzxGFt2wc0Sn1BWsWqbROwFn68i3+WN5l7kDcUZn8gTAAFi2EwQvOB1UaBbiHBpiJsK2tDGsOjnFgUhbK2PUDshy5DN9dWWYufJKeNOIeNal+QKs1A/GqbxWjbE1127BaF8pYANSJslbgfg2S7xdwnszxOrKrKnmafeW9a2z7m77CPdXhxMV0IpQVWl0/C8bugPeugw4Hq98sD8fEjK2uSBA4ioNht6C4Xxxx8vT0LYSAoXX3lMyYJHGcCvStguVuJDQ/lC2O+YYo8Ca5UluW9wU7/h8xNvZyJKXPRdcM8X20se49PGt5jqvsCkuNSeb/0aVM8OT3lSkbHT+eZ7T9HcYTJcIxnUuyZbKhbTJ1WfFhcHQWsKE80U+LPYVLKGei6jt3qYGftGlaXvcHY2FPJ9OSwpOIZNIvfjFc60j2LYe6prKt7DcVQWZB9LSnubHQ9TGOwhhX7F1IZ3IO/WeO6yXfTGmwmLSab/KrtrK59hYDS2PZiqZLtmsycjEsjApTFSVlLPh+VvkhruNG0wHIRg2HVsSo2XDY3e+o/YU3lq7SE6zkl/lISHOm8U/EEIz0zmJa8AF+omUR3Jm57NK3hBpYUvUhpYCfxahYXjLiZtXvfZd7Ii7EoNhTFYEPF++xoXI6m+CBsZV76lYxJnIViKISNACtKXiWvZQ0uazRzEr9MSlSmKY4JAetvm39KsmcI87OvNMUzVVUpad7N8v0v4VcbpYB1nBdrf61OpBLWVQVFfC0+nLtDBwFrtA2+N30UKQ4bmqFT3BLg6V2l7PaFuTE9mlOzU6ls8TM6PhqXzcrq8loe2VZEULWSaVe5ISeDqYmRYPA2m42ntu9lcXkjo5wWvj1uCLkNzZyelYpdNbBarLxZWM5rpbU06grtbac6bIR0ndLWAE/uKiHfp3FToo3vnjWD13YVMTYpzhSFttY18esN+bRarMQoBhdkxHPJyHQsGDitNlZW1PP87lKirAq3jMnk+hlj2VhSSX5DC99ftYOA4/Cmk0K8mhLt4JaJ2cTZLGi6TqU/zFO5Jez2BvnlhEw+NzKd9/dVMjYu2hSOttU28afc/ZQHNWbZdb4yaRS//Hg3UxKjuWRoMoVNLZwxJBVxBPfqBs/vKmFFjZdgOMTzZ01iR2UtKXHRZLoc2KxW3i+u5K955WiqlWjF4OLMeL4wIh2rcL2yWXltbznP5VUgzsNifDkxLtKiPeb4n96cT0HI4BvjhpDhsmFRVeoDYR7ZlM/uoCEFrP66oHur34qCYrdjiC9DYe3wwXUPEbBcisH1w1OYPyQZLayhWFSe21nEsopGfjppCFdPGUVda4C1pVXcvSGPRsXKtdlJXDQi3fzoVBsIU1Bdz4JRQ/j8G2swnEc2d1Z1jfMz4rh+bDbBYACLxcKGygZeKKykyudn7ZfPYGNhKS5PFFFW1fzdXJS/n0X7GwhoOrcOjaPJYuPZ/HJuGJXOSI+dkMXKuDgPdqvK3iYff91Zwp7WEOOtBr85cwoLd+3lnBEZpkDXEtb529a9LGuMWG0PcVq4KSeLCQlRWIVurMMfNhewtsHHeI+dWycMpT4YYmJSLPX+IHev2sH09ES+ODId1dDxOBws2V/NP/PKaTTaxDtpgXXSV0Ek66DL/DKqelu6/ih00nsoG5QEBggBqzUSyF3TULwtRz0oM06dy4USCIKMVXfUHOWNkkBnBHpdwErTx/PT+c+wau9iNpS/T1lTgSnAfH3m3by1659UtOYzOeVMpmTM4+F132SYawoXjL+WP3/yA8L4+fa03zMx9TTuePdy6tQCZidfyvi4uby27xHqtdIuBawHVl3PxLS5fG7o11hf+i6l3j1k/U+wOmPkpbye9yfQFa6a+GMeX/99Giz7cBDFeVm3YFMcvJ7/Ry4bcxtZ0WN4I/cv6IbGnCEXE9KCvFH8KLW1dfz+wo+o9JbwQcGLlDTuodFSCpaI2Xe0msrF2d8lrIVYU/omKipfmvA91le8x9LSf3FFzo+Ymb6At3OfI79xI0NjxnPm8Mt5e+/f+KT6PS4d9gMyPCN5YtetzEw8n69N+xVr9r7Luv3/JagF+Pyor2GoGv/a9WuibUn838xHqPNW82H+y9SHypmYfDrjUmbx792/o9S/ncme87lo3Nd5d8/zVLTsZUbGuYxPmcWjH/8fVmeYq0f8ksyYEby95znKmvPZ693KjZPuw2ax8V7BC7gs0Vww5no+zP8P23xv4fe7ZQwsue+AsFjwuM0XbiUYirg9HGpF0S5guVw8NH0YM7NSuHfVNmwo3Dh5BDuqGnggr4pf5qTwtVPG8+TGXN4prmJ6fBQ/PH0K335zFUuaQlyfncglozJ4dsc+Slr8fHVUBtOGpPHlxetIcdn58/wpqIrCX9bvZE9rgPnpiZw3Oov7N+Tx3v46fn9qDrMyk/jZR5tMa4SvTRzOnppGHsyr5Oo4Kw9cfCZPf7Kb1wrLGRfj5o4zpvLA8i08VdrAOcke7jxlDB8UlvHR/hqGOR1897TxLMwr44mtBcxLiuaxz5/GE2u3sry6mU0NPrQjuAhZQgEenTOebI+D+zfkEmW1cuP4bAq9AR7aWsQPxmfy3VMn8M9Pcnk5v4zxCdHcPGUUj3+Sx4v7GzkvSuGOc2Zx6WsrOSMrmV/Pncjemnoe3biHEApXjsokIzaKn63fw47aRopv/DzeQJC/bdzN2upG5qbGc/3U0fz8o038t87HuclR/GxmDm/k7zdFw1MSovnWqRP52bItvFVWx8OnTzAP/X9es53lVQ2mKHDd+GGMT4rhqa2F5iH5l7PHPcoQVAAAIABJREFUsqfRx21rczGE9Ze0wJI7RE8I2MSBwBkJ+i8OBZ3FJzlEwDrNY+VP507nuW2FrKqo58KhyVw0Jpv5L33I1KQY7jxtgin8vrBzH9u8IebGe/jDuTNZuGsf75dWMSHWwy0zxzItMwXldy+BO+qIPR5phSfPncb6ojIWFdUwMsbFdeOzeWZ3GYsKy1hz5VnE2208umor2xpb+eKoDGamJXLTki3sbQ3x+LQh1Fns/HxdLvedOo7rx2fz2vZ8XswvJ9lt5+aJI9jd4OX+bSXkqDpLv3YBi3ft46Wde6kOhrhhwnCGx0Vz2RtrCDic3JaTxuz0BJ7dvpfy1gC3TBxGRkIsN767kYwoF3+aP4WWQJDfrttJVSBESDO457Tx7KptNMX9TIeV20+fzK9WbOWNuoh1tYyB1ZOH9jhca7FguF2I7IOGiHslBFxZJAFJ4IQQOMhVV2QiPMoiBayjBCdvkwS6QaBPCFjXTr+L57bfS3lol3gzItRkw2X1EHZ6EeGOo8Jp3H7G33hs5XfR1QBfn/oAC/c8ZlobXTX+dgzNIL9+Cx+UP825mV8npPn5oOxpDOvh4wO0W2AJActqcWDTXGgunxks3U08V4z4MfnejawtfYvvz/4Tm0pXsqz+aRJtQ7l4yG1sqvmQ0oZ8fnrm33lk6W2UGptM3DlRp3HV+B/zt80/p7B6O7859w3eynuGDY1vgjDM7+B9kGDN5sqRPyWvfjMflv4D3epH9caiC9dHe9gUsGIsibxceD8teh0eNZmLs26jIpDH+8X/5LKR3z9IwLps7G38Y9s97GleY2YvTGIU35z5AG/kP0FVSym3znyEJbsX8lHdP4Aw0UoqV4+9g6KGXN4rfprvTH2CvNpNvFXyBIYaRgk4+fm8f/B+7n/IDX1oClgNgQoWFjxiugmGAwY/mfUcBfXbeLXwMRSLhsXvIRgKYo0PSAss00sj4sYh3FX0DqHWDEU4ZZqOVG1xUITTV+SCdmc7EbVIuMl2zEMp/nekiBox64hcc+Df2/58UF0H9oKO7R5phzh8XLi25Jhmu90uVmskILEQrszDZyAiZrWXNgFLmG6/tGAKdpuNG97diFe1EqMHMYIhGt0x3D8+jQVjh/PFV1ey31CxBwO89cU5LN1VyH35tXhCPuw2qxm0XFhLun1NbL75Eq5+fSVh1cIT86fyxs59PFZQhQ9I/58FxK+mj6DcF+TBLQW8+PmZWBWFK/67jlaLnWhduPMGaXJFc1OSg1vPmsnFC5dTbFiwhUMsumAWDU1evr2+kJ+OTycz2sNP1+2hUgcLimlNcfmU0Vz71nocqsorl8zhjvfWs7gpaLrwtM95ZxztAT8vfH4mdd4Wvrl8B1a7A48eMN30vFYnd00eyjdnjWXs02/ToNpwaSEePX0CtXWN3JtfwzluDghYmcncf/pEbn1rLe83h8T2wIwYB786JYe/7yrh1b0V7L3pfNaWVXPd+5vxq1Zcepi/nDWJGKvKV5fu4M5x6UR7XPx8TS5exYpN13l4xjDs0VH834ebeHT+VBJU+N76fCpDGkk2Cw9MH46qWvjp2l1U6goJ4YBpQVBndUZSv0sBq20dRdaluY4PySoZWWeHrtuDF5+4r2OUs8PtG2LX6OgAF9mTOl/IHfeajs+naEfcJ56hw+8Bh/Sv7Xpzfzvkv3d7D2m/UCQsEBadIjuUELD8gYOzWB4iYF0QY+Ox82fz7fc+5oPqFtxoxGhBqg0LaTFRPDRrFGuqG/nDjhKwWPnzzGFkJsTxlXc24LVYsRsGD84Yzm1zJndLwJrugH984VQeWrGV5/bXm89/bNiPHxUfCmuvOovtpVXcsi6fkKIwy2PjkbOmcNuST9jcoh0iYI3lgmGpnPufZdRgNy0brxiSwHVjM/nJ+nxigkE+uP7z/PDddTy1txZNgbEWg/euWcA9H27go/pWfjNrBG/ureLlvdVmxlJP0Mf7V53NQ+t2m+7TQsB6eO1OXipvRHhqT4tz8fCcsby4s5h/FlaZ+2ZisIUWYTTpjIr8XkkLrB4/tkd9g+DtdGI4HaitPoxAm4h41BXKGyUBSeDIBBSMmCjznVWpbzhqWBGrSae0wDpqgvJGSeDwBPqEgPWlyd/n2R2/oJnyyNlbtzIhegFj42aY8ZziPSmMSpnEz9++HJ+jhsuzf0Jxy3ZC4SBZ7vHsrNjAJVOv54/rf8gFw24m37uejbWLUY4Qt7ijC6HL7WJM9BxGx84i1p5IkieVxKg0Fuf9nRUVL3Nm6nXMzFjAQxtuICfmFM4feSOv7PkdaZ6RfGPmfazOf+fAOdzqZlz6dJ7a+Au2lC3l3nMW8tK2RykMrzFd9joWVXNwauLlXDrhFioai9lTs4nNNUsoDW7D0BTThbCltYUPq58ihA8nMSxI+Satei3vFj/DZaMOFrDOHHol/9p9L5XBfLMZhxHDpUN+TJFvM/l12/nOKY/ywNKbaXHtN/8eDsKlI76HS4nhlZ0P8/sLl7CvNpeKppJPuzkubQYr8hazqukFvjz8Dsp8e3i7+EksVgXdUJjuuphrZ95OVfN+dlSuZVP1h5SHd5ki3EExsLSYo86o1PHA05HfkQWUgw9QkfhokYPXgQObgRCSDi7KoefHtj+3iUuHXN5RoBIXdhSpen3jadfEPhN+qheyFn2GM6YllhmIVhxE2y2wPFGc74G/f+kcalt8LCvcz4fFNSyta6XBULhvbCqThqZz0ZtrweFEZPV6/uxJ7K2o4Ze7q8lwWPlCeiyTk6JIiXKTHOVmeEIsVy5ahk+x8IczJ/PrNTt5r95vigU2Lcx3xmUwNsrJ3ZuLmeqEv10xnwafnyX5pSwpqWVJXYvpXnjjIUHchUvk43NySLJbuXX1Hu6emMHeoMFD24s/zQo42QGvXDyXW97faMaeeeXi0yICVnM3MtuEw3xlSDz3nz2DJl+AJQWlLCur471qL61GJAbW2cNTOfPVNWYQd0swwG9m55hf6O/Nq+VMz8EC1vemjuSq9zZSGo48xImKzoOzx7BufzXP5JVRcNP5/O3jXH69W8T/E9cY3JIRzTdnj2f+K0t5bPZYJmSlsL2i+tNHe0RiPI1hnS+9upxHFswi5PNz5/ZSvJqB1dD5QkoUv50/DV8ozOqiCpYVVfN6TTMBsTl3iIFlOA+f1bHtvPyZ5SS290/tEMT6bhOADqzz7qzAQxd0RzG44/1tQvRhRdvO9ofP3iMEJPHc9Uj87c4wTsQ1fWn/OGgqDtnbDQNDxBgRz5MohwhYSUaQp8+ewrTMVNYWlbOmtJZ/7Kui1lBN66KHZo5kTU2bgAW8tmAS6/bX8pvcik9/s741JJY/XzyvWwKWNejnN6fk8PXpY9i4v4rVRZW8vb+Oj5sDaKGgGcR94cZd/K4oEsR9pNXgyQXTTKvPja36ZwSsUW4bN6zKwyfCAAKzPFZ+MWs0d6/fjT2ssfja85j7j7fZGW574fH7ePeLp7Fxbxkv7KvipYtOo6S+kcrmA64wUzJSeXJzPltqvfzpnGnc/MFGNnrFBwWFpP/FGP3J+EyumTaGrWVVfFJex3/yytgRgmCHuFoyBtaJWHSd1Cni6HjcKELwF8+4+L2URRKQBE4oATPTp82GIiywjnLNmS7vwmJYuhCe0LmSlQ9OAn1OwBIGGnNjv8LFE25kSf5/qGouQdcUrpn5fVN8abKXcGrsl8mMHY5FtZFbtZHttSu4++yX+NeGR5kz4gLeLnqS0sC2I87opwLWyhs5a8SXOGvol9lUtpyypr2mRdec7AvYWruUldWvkMAw7jzreR5d8R2mpZ9tWocsKniY8XHz+NasB3l27QOIEKxmES/TOuR511HrrTiigCXGGvYppNlHMiphOuNSZjI+9RRe2/lXVpUv5IoxPzwoC2FXAtbZw77CC7m/ojyw2+yK04jnyuF3kNu4hr0NO7n1lEf4w+rbqLHkRboasnD5yB+ihG38Z/fDPPz59/m4aAm5NRvaRB4DQ8N0fQxGVfGlQwQs0X89oBCvDmNc4kzGpc4yXRKf/+RBtvreJuD3HHAhVOJBWOF0UU6EtNJuKdCuH362jcO32n5UOuwVhxGHTNsaYaHQYbztSQAO6JiRvx7wpov8b7PNQ+ptuzLy90//dogg2tZe5PU2YrdlnkE77XzkH9sP++Z/trUt7juSg8Kn9baNrWP1HY+Wn/67sLiw2jAc9shgRRysUAhLIGDGnIs8rC6M4SMgKho1GGSERWd+dgozMpM5Y1g6/9qUx0P5Vdw1JpWJQ9K45L/rTAFLqLDPzZ9EUUUNj+XXcteUoUzNTGbxniIqGltMQeXXF57OtW+sNAWsP545mQfW5/LfmlaTjfN/iRV+MD6LLJeVe7aUUOkPMFzROLut7TOHZ/DqtkJ+u7ucK+MPzkLYUcD69urd3D0hkwpdMbOHacJKBJjtsfD382fzjfc2UOsL9UzAEqyCAcY5VOZlJTE1I4l5WSksyivl0W0lfH985kFZCLsSsH44YxTXvLORvW2Gb+kWeGB2DstLKvlHXrkpYP1zcz6/2F7aZmWh84PhCVw9ZTTn/nspvztlDAkxHhbvKY4EfhfPl65R1hLgo6omHj17+kEClvkMBoOMsivMy0hkemYyl43N5pUde/nR+jzCHSywzHgTnYmcXW0Yh/n7oWv+0MsOv+K73oEO1bC6vuOz6/nQBS7WX3s9Hdd621I+xDazfc84/H4hZkesrPY9p33fiGhSB/dYsDr4SNxWb5uF1Wf3jwPtHvo3U5zrZF/obJra95H2Pe9w+8hB26G4SYidbdacwhpRPGMEgwdiAh0axF3TiNMCzEuOZUZmEueNzMJlU5n/7xW43W4enjmS1R0ErBfmjTWDpv9ofQHBtgQFwvrw3nNmdkvAEi8Aiq+VMxOjmJaeyJzsNEbGevj1+t28vq/CdCHsmIVwRJuAdcdhBKwJ0U6uXJ5LQAhYhsGcWAc/mz6Ku9fnmgLWW9eex4IX3meDP0LQEfTz/mVz+Si3iJdLqvn7uTNZWVTOrmqRkCVCPRgMsbm+leioKP509tSDBCxh2eYJBZge52J6WgLzR2QyLS2BW99ax5t1vshHH2mBdZQ7Uw9vM93vPSZzpbW1c5fZHlYpL5cEJIGuCQiXXRwO8LZE4rceTWkTsBRhNSkshWWRBCSB40agzwlYWhhum/gUPq2Jv275MRa7yrjo07lp+j3cv+RG6u2F5LjmcMHIm82YU6/u+QP7WrbwjfGP4bHHUBco56XdvyFs8x4RUruA9eiqb/OlSd/HoUaxsOAh01VviHMCV435CWvL/2sKWHrI4KYJDxEKBYlxxbO05BV2eZcSawzhJ6c/zcJtj7OxcTEGGom2IaQ5R5LXtJ6mxubPCFgeJQmPNZaKQAFuNZ6hzglUBfdRG9iP5lf41rRHsNgU/vrx7Vwx4Qc9ErCumvgTXtzxAJvr3idshBjrOZ0rxt3Gv3c9QlOwnltnPcKWspW8tu9RwoqfFNtIrhx7O5vLlrO8/CW+MfFhvKF6Fu59BL/RZGZHHB09i8L67ajuAFdk/+wgC6xgi8HMtM9T2rKbqsA+rEEX35jxIHVNVbxSci/B4AEBqznQ/QNqV98XDxVQDj/R7QcxBUMxDhJyOrYREYw6P4Z+RsA65LqD/t5Vdqzjtmz7WUXiwON2Y1hEFq6weeA0hBthx9LuQuhwcOWIVPIbW/mkvgWPHubOWTlkuex8e10+t49JO6yA9VRJI3+eM5YVZTU8sr3YzKR1eVo0D543m6tfXW4KWMKFcH1ZNb/4pNC0qspxW7n3lBw+qaznie1FnDM0hZJmH580+HDqIe6amcP4+ChuWpXLxbEWrpk9mfMXrSToFF/ED1hgfW3lbm4bnWLG7vrpml1m0Hf3/3YE4eY3KSOJG9/bSLTVyn8uOY2Hlm/m+cqWyGHyCKJNgqIzJzmGwqZWdraE8Oghbp8wlPFpCdy+Zjc3jE7vkYD123mT+M3q7Tyzr8YMHL0gKYofTR/F7zcXsLikmn03nc+uuiZufH8TZQGNNLvKX+dPprrJy61r8/hhTirjMpL5yepdlAZ13MC8lGhqfQG21rfw6BmTDhKwohSDWTEOM2vijiYfYX+Ah2fn8LlxwznthQ9oDhsHXAh7LF5FpJhIOVT6iKz1w1lutt8h7mq32mqvwRR3ulCkOhOwDgjFR95HTJFY7hNHv4EJ4Up8GdeE+6AwCRKJIQ75xThEwJpsM8iKj2Z1VSONwTALElwsvGoBl/7rfXI11bTA2t7Qwu+27iOkWBDWVrecOpFfrNjGzuYAiQ4L98wey7mjsrolYI2wK0xOiGJtVZOZ5XOYFR6eN5FPqht5ZHMBy66a3yMB64pRWVz53zVsaQ7gUlVuHJ3GeUOSuH3tbuJ1jSU3nM/9K7byyM4SfJrBvAQ3z110Gre9uZKNvjAPzBrN+ppmntxdZlpGikQXs5Ki2VjVSFaMx3Qh/NQCy4BUi86MxGg2N/ioaA0QHQrw/lXzeaewjF9sKTbdLKWAdfSPcLfvFDqhCAAt3JDE4Tfg73Jv6nbd8kJJQBI4MgGHw4w7R6sPU4A6miIFrKOhJu+RBLpFoM8JWMJ66cz4r3HOmMtZWfyaOYh092hmDjmbX753FfX2AlJto/jquF/SGvTyYv591IdLmeq8iBtm38Hbec/wTslTqNYjn0IOWGDdxFnDv8zcIRezrWYFrcEmRsfNIDUqm6VFL5sClvgINsI6h+/MfYh99bn8ZdOPCFjr0IJwbsbNzM2+kE8qP8AX9jIqbipeXwuL9j5MXX3NQQKWoRuck3oDE1JO5/FPbiXOncjF2d/BZreRW7sOly2G2RkXsmLfIpaVvsQVY3/UIwHr6ok/I79mCwVNWzCMMNNSF7Cvbgev73ucBHuGGcS9qGY39aEKU+gbETcZG04W5T1GVTifYZZTuHrKj9jbuI3K1n1keEaR6h7O05t+geZq6lTA+vaUP2CzW9levQKPLY5pqWfz1q7n2ex742ALrFZHtx5IedEAJCACL4uDp4hXI4Srzg7wHQSsf5wxnhFJ8byUtx+XqnDu0BRWFOw3LbDuHHt4Aev3BbXcNXkIY1ITeaeoErfVyvR4F9Oy0vjq6ytMAevxs6YQ0MJsqW6kwBtgVnIsKU4bv16/h421TTw+dyzjUhLNtm2qwnlDU/m4uJzf7q44ogXW1StymRnj5K5Zo6kL63xc1WgGXz8zK4nHN+bxz+Ja4hSD58+biQ2DRUVVPLOjmGCbpVZns56s6Pz21DGkup28XlSFx2bhvIxE1lfW8dj2Ur7XEwusrGTumj2OssZmVlY1mdnO5mckUOX18atNhextajGDuFc0t7Cxop7dTa1MToxhYkI03/1gI+t9OrOj7fxiVg4VId08jA91OTg9M4Hff5zLopLazwhYiRa4fWwGE9OTeK+kyrQiuHbMENaUVvGjdXsIyiDuA3Cxn8AhCZHTtOIU/u+hiIjVWTlEwPpCrI27zpzC0pJqCpr9nJ4WR05cNF96cw1ei407Jw0xhedFeft5JrcU1/8UyrtnjmR0UhxNgTCtwSBOVeHyKTndErBmeqz87oxJFNR7WVnVwKhYN6emxPGXrYW8vq+SVT0UsC4dkcGOqjpWVzUR57BxVmYCb+WX8Zf8SibY4KMbzufVHQXs9QaoD4b5XHYqVY1N/N/ynQRtNr46NIErx2WztqrRFKSEKC72kh+v2E68OxLEvaOANcFt4f7ZY6gMamb2xKFRLi4amc49y7fwanULhrC+lBZYJ/BBb5PlxbMuBKxw2HS1N47SjemEd1Q2IAkMQAJm9uwoD4oQj9vd03s6zjYBS/UHZOy6nrKT10sCXRDodQHL6UthYtIZbGl8l5Ct2eyuLRxrZtVLdgylJdTI3vodZMeOZ2XZQkKeWux6FGOdZxHQW8kPrkZT/biCKcxNvYJtDcupDuzFphw+pkpQbyXJGM3wxLGsqn6ZGFcik2LPJsUxjJAWoNS7G1V3UKsVs1/bYnrL6E0OM6Pg4txnea/8SdQ2bzi7Hs0Yz1yyoyaY3/Prg+XsalxFnVFEwBvmrLTr2VG/gib7PvNDseh3dvQ43i17Cqsdki0jGRczF5clBotqpaR1J7nNq/BrzYzznIU/EKCY9WZweYvuIFs9lbDSSqF/A2Nc84i2JrCp9XVmJJ7PWUOvZuXeN4myJhBtj6PaX8y2xiU0UUGadawpYP1x6Y8YkzKTOEcyPr3F7GtFONesn7CFEe5ZptWVyLLo05vZ07SWosBWHBYXY23z8RrVFATW0+ZZQbIykglxZxBljTetnEpbctnZvJKwpVkGcZfbT4SAUICFaHUky5MOLoTZVhGoOJFMj90MKpzfHODd8gaKwnBJlEJqrIcn99ZiiAx+Wpgb0qOo97ay2AtjXFYuyUogyWmhKRjm9cIyLspO44XCKmI8Ln5/xiSe3ryHNIedFI8dX9jgvbJ6Pm4K0IpCtg2+lJVAhrut7ZYA71Q0UBKEOUqAaVlJ/LmgGs0uMqGFuTLZRbRF5ekqPzYFpkbZOC89jgS71XTDXFLewIp6H02GgqprzItzcdGQRJr9AR7fvg+nW9gxdV6awjrpLhuXZiWaIptuGBS2hvhvWYNpASUO5qOiHfx+Xz26zY4SDnFxigfxsrS4FXKMAOcNS+XJgirOy07h1snDeXDtDk5NjCHWaaOsNcibZfXk+XRCwQDFN57HfzbvZndDC2NiXYQNhXfK61lW50NTLTjQmRnl4Nz0WOLsVsKGwQflDayu9+HVNC5Pi8EIhXmzMWS6O4mA0yPtKuenx5LltmNRVfa1BFhUWsd+kYhSpJWWQdzlLtFdAu0Wi10d5A8RsKLQWZDs4bSkGCwKtGgG/90v1rwfi6Iy0WPloswEFC3EH/ZUYrGo5Dis2J023DYrdYEwC1JjuWvBLKIe/Q/xTgcOUVEnRXhH+zSd8XFus04zTpsCG2pb+bCmmYZAkB+PTmVrWS3vBcUKgSQjxNVDEnituJpS7FwTa6HZZueNiibuO3UMOW47/95dwowEj5mgYntDK2+WNVKlwRynwltf/RzXvfwek1LiSXE5KPeFWFhcQ75YY0C8xeBzydHMSIjCqkJjUGdRaS27WsMMtSl8OTOefxXXUGxEXmqcGJwa42B+Wiwei2paay6rbGRJjZfm9hQAUsDq7lN7VNcZItyCiHsl7m6RroNHBVHeJAkcCwGR+TM62vzwqniP7NFz2GbaBCyLP4B+tFZcxzIGea8kMIAJ9K6A5WkFXcWq2CMxpDoEKVKxY1Wc6EaYsBHAptgJGQFQddM3xGLaMRgR4UWU/wV4FqKVEbZy4fBvMif7wrY8bZ+dvY/yX+Wdsj9hUayE8JsvCRZFZPixm5GDQnorFnH8UnQ0I0zIZzA98Xxunn03dy+5hnpL4cGV6io2VbxsqGhGAA2RYcwwz+vCwkkjhKFEXKZUw4ZFsRAy/BEPGEPBisMcjwhIFNRFjAlhpSIOgKI/HcYoWjBspsuMTgjBSEUhbASZHn8+c7Mu58Xc+2gMV6IqkX8Pi7CrinALiAhYd79/DUq0D1WxYRhaG/cOX7IFR5yIXumECSP6GXHXsRiiP/oB5m3cRf9FfSKSihhX+1gPCuIuLbAG8DZyHIbWLmBFx5hCl1MkXjIPiYp5IAy2RfUShyvxbLeKk2JbPBdhMSHWmljJKoZpLWFXQHioeUMaUTYLfs1gUpTNFLB+uXo765uC2BWFkDhw6oaZnSuyj0TadlkikYLE34KmV5mC3dCxqSotn7YNLvEXBTOoemR9G7gsmHVrKLSENbQOqUct/8to5raqZhv/NyKZG04Rwnfn5fmtBaZbU1BRcCrCDVbBrxvm/4tGBQvzQG76pUUgONt84gLmetXNzIetus7lmfF8e9IwvvLBJrzm6lYI6JHxmTFtAn5TwPrruh08kleFw6KaApw47EcCukeKGJ9bBZsYn6KYfPU2gVJwF30QbX/qktfWJ4f4m6LgC+umuGX2t0MQd9MyTxZJ4HgQODQGFmAVz61FMdeLWPPiuW5P4CH2DGHpKZaO+PcFHpXfnHcqv1m5hTf3VTAxPprHzp1JpbBqWpXL4/MmMGtoeqc9DWkaP1uxjYVF1UTZrFjN9wDF3DNC4gffMPCoCmHdINC2rsw9Q42sbbGmxJ4ithN/KMx9p4xmmN3C19flR/aAtj2pfQ3NccB/v3IuM/72JlUim7KqENQNfOZr0gEXW/HrLPY0sQyDGp/un0JCc4l12XEPFO9D5j4m3qnM3Ml4D9nHpAXW8XhQO6/DUFUU4XJvs0biXokA0LJIApLASSVg7p+xkfdRM5D70RRTwHKB33/0bohH0668RxIYBAR6X8A6zpD1MDhC8TiNmMMkBxcHvia0qPputRxoMfjuzMeZmXU2z677Lctqn8Mq3gb7UtEVpsWfx5zMy3hpz/3Uhvd9pncpljF8a8ZD3PvhtejRR58WtifDlgJWT2gN8ms7ClgnCMU0t5VHzpjIPWt2sqwx2FWooxPUi0i14tCaFvKRbI8EQ++sVIUNKhU7unC/PKZicFlGLN+aOIzrlmylvLMEiAE/hTd8jifX7+TB/OqDRKtjavpIN0sB64ShHdQVdyJg9YSHPRTg/mnD+Mapk0wLLYuqsLywlJsWr6PK6mCI5jdd8DorQlsu1RTqLfZjT0oQDnHvrFGmgHXTx3tNYerQcpoDXr9mAbP+vpgi9SS66UsLrJ48Ut2/VhyanU4z4Yki4rsJAUsWSUAS6BUCRkx0ZB9vbkbpZP/tqlNm4iIhYPlEHC0pRHfFS/5dEugJgQEnYPVk8N25VgsZJCrD8QVbabFUYnUcNo96d6o7IdcI6xMl6MQadhJyNKFYPxsbxAhacIRjaVXqsLpOSDc+U6kUsE4O5wHRykkQsOzhIEmGRq2iErCexMNeL0+Q2LGiwgHNF/9OAAAgAElEQVSi9TCVFgeaCMJ8aNE0hhoBmnWFevtJ2iCkgNXLT8YAbf4YBSxBxRoMMMRikOlxUhcIUeAPE3CcpHXRPi26ToIWxGZoVNk9nQru1qCfITYoFiHBhFvzySpSwDoxpO22iMWGYaA2ew9k1jwxrclaJQFJ4EgERAZQmxXV24IhYrj2sEgBq4fA5OWSQA8ISAGrB7DkpT0jIAWsnvEa1FefBAFrUPPti4OXAlZfnJX+36fjIGD1fwgneARSwDr+gIWlrduFcCEUca9E8HZZJAFJoBcJuIQ1pANVJFEI9tyCql3AEkkYOIr7e3HksmlJoM8T6DUB67KL3yY6KhK0XZaBSUAIWLtzJ1JYlEaTjIE1MCf5eI3K6YRhIzFiYo5XjbKevk5ACFiVFSi11ZHslLJIAseDQHQMxrDh4Dp8goTj0cxgrkMRgfSrKlHL96OH2uKQDmYgxzp2Ed9MWF7ZbSgiuYVwNzpS0pNjbU/eLwlIAl0SMOx2U1Q2MxGKddnDIgWsHgKTl0sCPSDQawLWF85bRmJiZQ+6Ki/tbwRaW6PZkzuBvcWpUsDqb5N3svtrs8HwkRhx8Se7ZdlebxFobYHKSpS6Gilg9dYcDMR2PVERAcsTNRBH1yfGpIbDGDXVUsA6XrPhcGC4nBAKofj8mCmrZZEEJIHeJSAyEcZER+JXHU08urZ1bSZjEDHtZJEEJIHjRqDXBKzTpu8iZ+y24zYQWVHfIiAyL9XXpbKvcARF+5OlgNW3pqfv9UZRUDOHoKelR1woZBnYBMQBrbkJamtQ6uukgDWwZ/vkjs5mQxk2Aj0+4eS2O5ha83pRmhpRK8ulBdYxzrthtUKUBzQ9knVQWqMeI1F5uyRw/AgY8XEowsrU29LzStsELLWlFUNaqvacn7xDEjgCgV4TsOz2MBdf8BEed/eyAcpZ7F8EQiE7RYXjaGiMoqgsCa90IexfE9gLvTVjDeSMRZeuP71A/+Q2qQT9qHX1GC1ejIZ6eWg7ufgHfGumJeewESBcQGQ5rgTM2Ez19RAMQGU5yFhNR89XVU0LD1FknJyjxyjvlAROGIGYaDOZgtLS2nPLSGmBdcKmRVYsCfSagCXQjxxSzdRpW3A6m1GUz6aIltPT/wgIy6tg0E3Z/qEE/XYamjwUlyUTCHWedrz/jVD2+EQSUOITUYZmo9lEpry+l/HzRI59UNQt4roIN5nGhsjB1+uF5saevxgOClhykEdNoN2iMyVVWnQeNcTP3qiEQ2ZKeREPxtA0lKoKuXaPkq+wNFbcbjPLmRn3SrgOyiIJSAJ9ioDhcYPFEhGYeyrWSwusPjWXsjMDi0CvClh2q8aYkWUkxDdis4ZBilj9/ukKh634W11oukIobKW8Mp6q+hgZj7Tfz+xJGoBwp0hKwXC7UcQLviJFrJNE/oQ3I7Qr89AbagtQLF4GG+uPKjjqCe+sbKDfExBBsdWEJHA4TRFLbiXHOKWajiEELOHipusozU0YXpmI56ioiofRKTKc2SEURm1tNa08ZJEEJIE+RkBkIrTbUUTSmZ7GsWqPbSeyikoXwj42sbI7/Z1ArwpYAl5ctI+05AY8Lj+qKgNX9vcHqr3/gYCdmoZoqmpjCGsyptFAmdeTMQ7D6USJiga7A3nqPBnET3YbbVZYLS0YIuaLIff9kz0Dg6I9kdnN40FxR4FIEiHL8SGghSPWCN4mDBlsvOdMxXMpXFudDhQhCra2YmZ1lEUSkAT6HIFPMxEKC8lAoGf9czoQ77NIAatn3OTVkkA3CPS6gCVcB12OEFFuPw6bJq2wujFpffkS8RFR01RafA5afE7TEksWSaDHBGw2DCFgWSzSk7DH8PruDaaRrTisifg54ouktDrou5M1EHomLF1s9kgsLBFvSP4cHfWsmmvXdAEOQjAoXQePlqTNirAOFOWo3JKOtl15nyQgCfSYgGG1QHQ0+AMRK6weFMPpMC0tzfhZ0gKrB+TkpZJA1wR6XcBq76IQslTz5VKaUXc9bX37ChEHS5cnhb49Sf2ld+IAKn1/+stsdd1Pc3sXvoRyn+8alrziuBFo30PkXnL0SNvXrFy7R83QEB9k3C5TTD0ql6SjblneKAlIAkdFQGTFFgJWOGQKzj1x9f1UwBIZDHsaP+uoOitvkgQGD4E+I2ANHuRypJKAJCAJSAKSgCQgCUgCg4mAEeUBEecxEEDxB6SQP5gmX461fxIQLr9RUeZaVUTIgx64+0oBq39Ouex1/yAgBaz+MU+yl5KAJCAJSAKSgCQgCUgC/Y2AOAS7nOBwoAj3SxFDTFqy9bdZlP0djASE1a7LhXAl7LHLr0jUIFwIRbZlaYE1GJ8eOeYTSEAKWCcQrqxaEpAEJAFJQBKQBCQBSWCQEhDiVVssHJFxsKdWHIOUmhy2JNA3CCgKisOB7rBHBKyexLISApbLidrcjBHW+sZ4ZC8kgQFCQApYA2Qi5TAkAUlAEpAEJAFJQBKQBPoIAWG9YbdHrK80LXIA1uRBto/MjuyGJNA9AiKpkMcdiVsXCHbvHnGVFLC6z0peKQn0kIAUsHoITF4uCUgCkoAkIAlIApKAJCAJHImAIbJfCvGqPX6OtMKQD4wk0P8IWK0YHg9KIGDGr+uu+6/SJmDR3Axy7fe/eZc97tMEpIDVp6dHdk4SkAQkAUlAEpAEJAFJoF8RsFkxXK5IFt1WH0pPXI/61UBlZyWBAU7AYolYYAnrSWGFpXczi7KrLQZWU7O0vBzgj4gc3sknIAWsk89ctigJSAKSgCQgCUgCkoAkMBAJCIsNtwtUNeI2KAK3yyIJSAL9k4CqRtazItZza7fFKNN1WARxlwJW/5x32es+TUAKWH16emTnJAFJQBKQBCQBSUASkAT6AwHFYgGPG12IVz5/RLySGQf7w9TJPkoCnRJQhBWl0xkJ5G5mFOxeHDvDIVyIXSjN3m6LXnIKJAFJoHsEpIDVPU7yKklAEpAEJAFJQBKQBCQBSaBTAobFguJ2YwjxKuCPBHyW4pV8WiSB/k/A4TCtsBRvS7czEZouxE6HtMDq/7MvR9AHCUgBqw9OiuySJCAJSAKSgCQgCUgCkkD/IGBYrSgi5o2wwPIHIgGfpXjVPyZP9lIS6IqA3RaJaRcIovj9XV0d+bu43uHADOIus492j5m8ShLoJgEpYHUTlLxMEpAEJAFJQBKQBCQBSUASOIiA1YLhdIFVilfyyZAEBiQBEcjd7UbRdRBxsLojTpsClr1NwNIHJBY5KEmgtwhIAau3yMt2JQFJQBKQBCQBSUASkAT6LQFheWUGahYilt+PIt0G++1cyo5LAocjoLQHchcWliIoe1cCltJmgWWXApZ8qiSBE0FAClgngqqsUxKQBCQBSUASkAQkAUlg4BIQ2QZFkGaLaroVGVK8GrhzLUcmCbhdGI5uxrRSFMwshHZ7JAaWsNySRRKQBI4bASlgHTeUsiJJQBKQBCQBSUASkAQkgQFPQFheeTwYwtLCtLwSMa8G/KjlACWBwUtABHJ3OSPZRcV6P1KRAtbgfU7kyE8KASlgnRTMshFJQBKQBCQBSUASkAQkgX5PQFheedzmMBR/AIIy22C/n1M5AEmgKwJt614NhTFEHCwpYHVFTP5dEjhhBKSAdcLQyoolAUlAEpAEJAFJQBKQBAYEAUVBsdnQRXBmjIh41ZUlxoAYuByEJCAJIOJgRXlQFAUam7ohYLnAZkVp9koXQvn4SALHmYAUsI4zUFmdJCAJSAKSgCQgCUgCksAAIiAOryKjmN2BYugg3IhCoQE0QDkUSUAS6IqAELCw2SJxrTTt8JcLF0K3C0W4GksBqyus8u+SQI8JSAGrx8jkDZKAJCAJSAKSgCQgCUgCg4KAyDwm4t/Ybeah1YyBEw4PiqHLQUoCkkAHAm1xsCw+P/qRrC+lgCUfG0nghBKQAtYJxSsrlwQkAUlAEpAEJAFJQBLolwSEeOV2Y4hMg8LiSrgNHsnyol8OUnZaEpAEukVAxMESboRhDbzew9/SJmBhsaB4W6QLYbfgyoskge4TkAJW91nJKyUBSUASkAQkAUlAEpAEBgMBYXElxCsx1kAgEvPKkKkGB8PUyzFKAoclEBuDIeLhiThYh9sPpIAlHyBJ4IQSkALWCcUrK5cEJAFJQBKQBCQBSUAS6DcExOHT6QSnw7ScUPx+CAT7TfdlRyUBSeAEEhCitt2G0tJ6+Dh4Imaey4ViUaGnFlgiSLyqgvhPxP/LIgmIvCFGxJJPxGCUBSlgyYdAEpAEJAFJQBKQBCQBSWBwExAHRosFQwhXIviypqH6/Bgy3tXgfi7k6CWBDgQMmxWiolBEDKxWX+dsjlbAslpRoqIhNhZsdgwhZMky6AkI7UoNh6DFi9HYCEFpDSwFrEG/LCQASUASkAQkAUlAEpAEBjEBceAULoN2e8TyIRSKuAyKL96ySAKSgCTQTkBYaMZEo4i9QVhhdbZHCOHJ5TIFKKWlmzGwhGienIqSmoYu9iFZJIFDCYgkIg0NUFYKvtZBzUcKWIN6+uXgJQFJQBKQBCQBSUASGMQEbDZw2DHarK4U4S4oArbLeFeD+KGQQ5cEjkDA7cKw2VCEBZbYKw4tQhB3u0wx3HQ17EoIF6J5fAIMycZwOCR6SeDwBHQdtbICQ4hYgzihSK8LWDarTrTbj9Wqycd1ABDQwhaaWx0Ew5YBMBo5hN4goKoqusOBqkjT6d7gfyLb1EU8mWAAo6uXuRPZCVn34CEghAmbDVXGETnmOTcMHSMUBuHGMECKIqwjHA40YXklDpDBIKZ4NYgPBQNkauUwJIETS0BkI4z2oPiD4OvEjbBNwFLEb09rNwQsixUjMwvS0k9sv2XtA4OAiMu4e2fEjXWQll4TsMS7wtjh5Uycshm77TA+xIN0Uvr7sDXdxratU9ldkElYkyJEf5/Pk9Z/VUVNSobMIWgidbksA5CAgSUUQttfglJX1/VXyQFIQA7pJBAQwlV6BkZyalsg3JPQ5mBoIhxGqamCiop+L2QJ6wlcTjPmlWkd0epD6cySYjDMqxyjJCAJ9IyAcCOMjgLdQBEC1iGitwjebrjcIvJ2m4B15OylQkhn6DB0YYUliyTQHQIFeSi1Nd25ckBe0ysClsWiM3v6LkaP3jEgocpBifdBlYLCHNZvGk84ZJVIJIEjElDEISJjCHpqaiT7iiwDm4B42SvfjyIOwrq0vh3Yk32SR+dwYGSPgLi4k9zw4GlOra3GKNoH/S24eVt2LzNIuxCwRAkEUf1+DOkuOHgeYDlSSeA4EDCEAO5wRNwIg4dkKRXJIIQLoWFEXAi72l9E1tPs4Rix8nfrOEzN4Kiiohy1tHjQejT0ioA1KruCU2atxWaXaYkH8irz+91s2jyNvMJM8Q1CFkngsASUhESModkYdun7P2geE78fZV8hNDUOmiHLgZ5gAsJtQ7hgZGRJIfwEolYNA0Os3eqqE9jKcay6TbhS7DbzN8YQmemFNVl7rKvj2JSsShKQBAYHAUW4EXrcIFyrhRVWR5GqXcASFlrChfBYBCxxr7ASFR93xV7WHoJhAH7sFVuzoYUj41Q798RQ2j56Gof5+wl/+sR8GCK5h+hj731wVyoroKpy0AZz7xUBa+7sLYwYno+qyi/vJ3yh9WIDhqGyb99w1m2cQiAorbB6cSr6dtOqBSUzC0O4/PTtnsreHW8CwpWwvEy6Eh5vroO1PmF9NTQb4hMHK4GTNm7V24yRu7Nvr11xCBIHSTMWmjVy2BBWYyLDoDh0ylh8J+15kQ1JAgOOgNhfRKZBsbe0tkb2lPbSJmCZmQqFhdYxCFjJFpgZ52RzU4Byf5jzUqNp1nRW17b2qoByfOZTiHNGRLASAe81jc+neGgKG6xq8H8mBICwm53hsZr7+rr6FgzLyT9bWrUwc5KiaPAH2eHT0I5njE0hzpksuhbGTAFLfERqbTk+U9HPaukVAevsM1cxJLMs4hssy4AmUFuTyrqN06iui5HTPaBn+hgGJw4XIvOKiH8ly+Ai0FCPUrwPREBKWSSBYyXgckXcMGJij7UmeX8XBMRBw9i9C8Xb3OdYKSI+jThUWm1gtURS2YfDGEK4EgKWJr6eyyIJSAKSwDESEFad4ndHWHR2FKpMActtxsYyY2Qdg4A1I8rOHVOH8fudJawor+epuWMobQ1wz5ZiDJv9GAfQu7enWOG89HhWVDZSFBSJQoK8tmAyBU0+frRxH4YqbLIOFI+q8LOcFNN1886P86AXvDac4SC/O20seVX1/LWojsDxErDCIa4bkUJeQwtrm4JdKiRSwLrujpOuIi2Yv5zM9IreXTWy9ZNCoKkxgW3bJlFUlkRIZiY8Kcz7WyOK+AEemo2emNTfui77e6wEvF4oLUFpajjWmuT9kgCKCJqbPRw9JkbSONEEhGVBSTGKcGEw3Sn6QBEWVm2ZJw1Lm7uNEKxEdsGwJi2u+sAUyS5IAgOKgNhzXE7TylNtaTVFcrMI90K3KyKY+/w9FrCEm7aua2Y27mmxTu6aOoJHdxSxvNrLaIeCyD1XJJoyLXWEBZNwi9ba3AwjeXfFRwZzZ+5JUiQhtCkKkfZ1RKZWw7QIMlDD+uHrO9TNsX2S24U7UYVp8aqYHxTayySPhcfmjOfe9Xksb/Chh0O8+bkp5Df6+NHHhRji/xRodxcUAtadY1IxHA7uWL8HxPlB9O+QYva/k3/v7DqRFVt89NAPcQc0a9W1iPbYgaEQsB6eM84UsJ4oqiUguIt56MydUNcjLNvdP9s6YP5bxAnR/F0SnHW/j6WXzeWNvBIezas2x/WpQKNpmDMthNG2OqSANQgFLN0MgACqctK1u17Ztz992HuhdSFg7ckdR0FJKn7pRtgLM9D3m+wPAlZ3fwz7Pu3Oe9hb41O8XpSKMoz6uq5f8PorXNnvk0ZgMAlYYs2KNxmtGy/pJ2QCxEt32X6oLP9MBq4T0t7hKm1zExRf5A2r5dPDjHDnMQIB8xDXpfXDSe2wbEwSkAQGFAGbEKvckYDt3paIUN4WH8sUsMT/FvH2juSy3CGIe6YR5sZxWYxLjmNfXSOFNY18IWcIj+4oYWV1E9emuvEqKovKm7kwI45kRSctJoopGYnsqW7kld2lZMR4uHRUOg6rhbfySllY1foZgebQOVCCAa4dlkRjUzNTstLISYpla3kt/y4oZ2ZqPBeMSDeFrFd2FvN2nS8So0rXOT/Rw4UjU0lyu9hd08DCwmq2+UIYhs6NWbHooRAet5tTspJo8od4YWcxH/s0xhhB7po3iTOGZ7KmuJxXd+zj1YpGXj53KlUtfrZWNTIrK4lGf4hndxSzwafh7iBgPblhF9dOyObl3WXsIZKUI1k1uCIrnj11TSzzaoSPYB011aFw7bghpEe7qPL6eG5nCZ8EhGQGMSpckBzF2cNScVhV8mub+fOOEmotNtoFrMKqWuw2G5PTE6lt8fNqYSVL6lowhJil61wQ5+SinAxinA521zbyYmEV+X7NFAQvcuuMSE7AoipMTk/i7+t38IVx2Vw/fRz5tQ28tbuYfxfXUdwa5GsjUpiblWSqXUv3VrKwtI4GxYIUsAaZgCViw011XWi63O4ILx5Qe2hng9E1g2H2GSRah7IrsAQ/Tcc0ZgUFVbGiG2FTGe+qCAErb/c4CopT8AXbsv50dZP8+6Ai0OcFrHCQn4xOZW9NI/9p0rr1VefQCRRfTiwKhEXsxz42u6OMIF8dncZvthURcEUfc+9sbR/DQt0YqBCwjMpylLpaecg8ZvKygp4IWOIxtSkKmmHQ36JxqrrO56IUhnmc/KVSHCS6jpdxxKfDMHBYVMJ6D1h8KmBVgHixOlnF3F8UhIWVYrNF4luJr+OmBYBhxrdCCFcyvtXJmhHZjiQgCTidmNlNhYjV7I3E3hMWWCLLqa6jedwoItupsAbtzIW5TcBKio7iyXOnMS4xhuc/3klytJuzRg1BNwy+u2wbK6oaef70MdSEDX64djf3zh7L1ycOY01xBav3lnHZpNFEO20U1DSws7KO4YkxXDh+BBf8412W+Y/8UqYE/Dx77lQWDE1jdXE5BVUNXDhhBMKLb29dEx8XlzNneBZjUxK4fOFyNraGuWZoAvedMZl3du+jqLaRM0YNxa6q/HDVTjY3+njlnEnMzEimsLaRj/KLmTcik4zYKC55fbUZ3P57M3O4aMJI3s3dx5u5xSxpCvDK56YxNTOV7eXVrNpbxoKcbJI8Lk57aSm6w/mpBdaDa7az6Iqz2LivnB/vKDPZnxrn4hczR/HbDXtYbsbQ6vy3MccI8MaXz6agrpFVhfs5bXgGoxLjuPzVlRRoCt8YGs+3TxnHkrwSKppb+Mr0cZQ0t3DlWxto1XXTAuvi0UNMThuKyjl9ZBZp0W6+t3QbHzf6+XKqhycvmcfLW/aYZ4ezc4YS0nRuWb6dYr/GPaMSuPWsmWwoqWRpfglv5O7jnOGZ/GD+DLaU1fDatnzer27mugnDuHHKKJ5asxWrqnL++OG8lrefP+wqw19VJWNgneydpzddCENBgxvG3Ge+b/2r+K4Bb4Wlh+GM9KvJiZnJoqLf0RA+NtfNGCWdGYkX8EnNuzRS2uWjIwWsLhEN+gv6vIAVDLDmS/NYuaeYn+ws77GApRgGE5xWTot38t+aVsqFitWHyhynwVMXzmH2P9/B6zm22EFKOMTXsxNp8Qd5qcbXJSspYPWhB2EAdKUnAlZUOMCtORm8V97AJ75+JmHpGj/OSTW/il+5bJf5tf+Yiq+Fh2aP4aVdxWwIdVMMO1kCVltwXzMWivjib7WgWG2mgGW6XgjhSsTjag/M3lWsmWMCJW+WBCQBSaATAsLdy+2KuDCLfUnsSeK/C8EqGIpkKxQfGoTIHgygCKFdCFnt+5UQsIYO4yuTRvKD6aP4xuI1bAiAC51bRqfxrZnj+PoHn7C8qoHnTx97kIC1IDOByxevpyQEn4tz8Owlp/PzFVt5Nr+CWC3Ejpu/wBNrtvFr4ZZ2hKIEfDx77jRSbBYuf2sDmsXKdcOT+M6ssfxg6VaW1HixtXpZ85UFPLRmBx9VNfGXs6extbyKX20rIaRaGe1SeWTuBFbsr+UPO0v459mTGZ8cx4X/XkaRbmG8A5654FR+vmQDS5p1JnusPDF/Cj9fvZMlIii9FjZdCGPcbq55cw37DQsz3BZeunQeN726jI0hywEXwjW7+M74LK6eMJwFi1YTtNm4YUQK52Yk8PONBaa1U2dF1cI8depohiTEcN3i9VQqVpKNEL+dN4lleSW8U+/jXwum8lZhOY/v2k9AUZmgarx5zTncs2wzrxTV8NDc8WS57Xx96XaqdYXRLgtPnDWJFwsqWZRbxDtXnMnKgmJ++Mk+UK2Md1t4/OxpvLQ1n2dKm/jlqETOGDucG99aR75wBRVxGv0+1l8zn4W79vHbneXYtTCLLjqV+sZmvr8+j+ZgmBnRNpIcNpY2BGiulALWST9NtQtYNiMah+okqPmJcSTSHKolgBdhNZRgz8BmceILNeHV6xHfBaPVJAK6n5DiNde8U41BNSz4aTCtgVTDhlOJIWB40RThIfzZ0pmApepWoqyJOK0eApqPhmAFiqrgVKLNegNGs2k2KYqqO3BZovHpDQjjRLvhIc6Rgo5GU7CGIK0Rd1zNSpw9hcZALfGuFEJaAK9Wi6FEFpRiWHAqsQQ1HzaLnShbvMmhIVQRyRwqxqfEoOk6NouDKFssjcEaAjSZ44y2JmE3+TTTpNUc/AFWU4l3ZGBRrDS21jI77UJy4maZAlZjoIYYexKNoSoxGLMvVsONXXHRYtRG+m4oOJRoom0JpgloXaAc3RLCip1RrtlcNfF2Fu38I8W+bTSEy8177EoUMbZE07qkXlyvBs26pYA1uH/qzWC6XRwoOgpY4qt5mt1CotOOL6xR7g+JFWW+EGQ5rLSEwqZJdILDZm7mlUGNYJsLjfAWj1UV0l2RoJZlrQGajIgPuVuJmAQ3hTSSnTai7FZq/CEqQ/oB/3nDIM1mIclpw69plIm2hbtxm4C1ak8RD+ZWkOR20Cr6FgwTaHNHFu05MUh3WHFZLdQHQlSEdNNU2I3OFVkJfHFEKn/ZWcKWuhYq9c/67B/0pBgGCVbF3HbEHpDudqAZUOYL4m0ziY5VxD5po9IXYGi0i+aQRnkgYhmZbreajPzhtnF0MKMWrkepNpU4h43GQIhRVo2/XDiXU/75DgFPDImqQqtYu21hbcScZLts1AbDNLeN12PoZHoc2FSVWn+QiqCI1aCQpoT5yznTqGlu4VebiqgN63gN8RJmkOGy4bRYqAuEKAuEIz/Y0gJrcG8Q3R19u5tcV3tJJzGwPOhkuR3m81npC1KvGzgNg7EOhb+dfwpPbsrnzbIGqsMG4j3SIZ53j8M016/wBbGLtg2Dmg5r/XDddmCQaFWpD2lEW1WSnXa8YY39/hBhRTXFllSrau6JolqxBisDYeo1A5uumRZVdotq7h+VwTBah6/HNkNnqMuOVVUoa/Fxy6hUZqYlmAKW02oh0WYx11v7R/YYDGLsVkr9ocjByTBItqqkuOyEdZ1yX5BmPbI3Jml+Prn5Yu54dw2Lq31UBcMEDUi0KqQ67eb7VpkvYO4JZjwUUY63gGUGbWmLW9UmWiGsrERsEGFh9WkK+UhKeTOVeliLBGeX1lbdXUnyOklAEjhRBMT7rsMBdtuB/epwbYng7sGItWjkQOuErKHcffYMxrqt3Lwmnybx8moYnJHg5s7pI7lvUwHLqxp57hABa5hd5bsb9lIT0shxKLx8/incuWYXiyubUAM+ll1+OkvySrknt+KIHxXbBayS8mruzPv/9u4DPI7q3gL42a6VVr13yb3JvRdsjA2mdxwInQQSSgjwCAQCBGyq6SSUBAjVmBY6NmAbbHDvcpFsyeq9a6XtuzOPe1eSLeMGMbbWe/b78uChLXd+d2d25twT3v4AACAASURBVMy9/9sobwycnhSOS/skY25uKbbbRD1BF76cNQLv5ZWj1OnFE1OH4tZvN2NZq0uea5sUL24dlIbUECP+vrkIz0/Ngc3lxlU/7JQ3WqJ8brx7+ji8tW4b3mz0YLhFjxemDsXfVuVjaZOoIeaWAVZZuws3rimQta+S4MXii6bh4SVr8XGzp1sNrMGhBiz8zXT8/uMfsMWl4N5hGShvd+KZvCrYD7SSn92G3MtOwmsb8vFUUZN/kQ9VRZjXLc+34wwavHfmRPzfslysaO8YXez14uMZOSi1ufDX77dh3gk5KGtowTPFjfI3N82kw+Mjs/FDkw3fFZbh4wun44y3v0K+LlR+AwxeD/45dQj0LheuW1+Cv/WKQkZKIn63ZDN8JrP/W+JyYN3sqfgwz3+toXi9+POgVFzYLw3b6lqxrLYZpVYb8pptaILOX3+SqxD+Wnvz/t+3M8AabD4VY9Ono8lei/iwNCwtWYDS9m2YlHI2+sWMhtfnhQIv1tV8hbyWlZiRfBXs3lasaFwAjarHxMTzEWdKw8KKf8IDJxL0fTE6/lSsqvsYzUrZfj983wArRBOGoVHTMTh+oqgSB5MhBJtrlmBd3VcYGjMdkaY4rG38GE7VCg106G+egoyIAfiu8h1EmmIxNX02Io0Jckpdg7MCK6s/RoOnFBZPMq4Yfi8Km3KRGTUAO2rXYG3jp/Bo22W7TGoEpiRcAo/iQHRoIqJMcTDoTdhQ8w02NiyUzxkbfzZiTMlIsKTJ8GhZ2Ueo9uRhTPyp6BU5VB7z9HoD1lYtxJbmxdDoFBgUC8YlnIHB8ZNgd7WjxVkHs94CiyFKBliKy4gLBv0Jb+TOgdfUKoOy3iET0DdyFD4rew6mEAPSQnIwPvl0hOoiodcZUG8vx+Kyt2TQdnLq1ZiYfRp21m9Cva0c7+x6EClhvTEl7XxY9GI+rx519lIsLX8HDm0DA6yju2v1uE/T6PVQxEXIQZYs7wqwomNwcmIErhiQLgs5innk6+ta8E5JPeptdjw7cRAqWtvQNz4a4XqdnPbzXn45Ftbb5IXn8DADfts/DelhJjnUttLuwtMbClDs02BEuAlnpETDrqroHxOBSKMeNh/wan4ZfmholxeTJyaE44r+GfIOkAjeNjVaMb+oDjU2hxyBVVTTgDZViyijHlqdFp8V1eC/lc2wKSqidMBVfZIxNiFK/hB6NRp8UFiJT8obMSwiBA9PHITesRHYWtuMRfml+Hd1+34LT3Z2oFim94peCYg16pFgMSMhxIAwkxGb6qx4vaASFW4Fp8WY8bvhfbCprhnD4qOwuLQWbxRUYXp6HC7umyYv8MR2bG5sw9uFNSgXoZGqYmZcGC4fnAmTDJs9KGtsxhWjBmLkf75ESHgkrsyIRq7Ng6/rrPKCUutyYv6MkXhxS6E8Sckw6XBlv1QMjQ2XxSsdKvBuQRU21TThmoFp+P2ofrC5PVi6uwrzd1WizOXDb/skY3R8JBweD7Q6Pd4sqMCyunb4bDZOIexxe20PbJBYXttgkNMoZE2RAwRZ+47AStUquH5YL/S2hMDrU1DtdGP+zkp4HE7cOX4AZvZJx5aaRny+qxzzy5thVFX8bnA6RsZGoM3jQX5TG0xaLYrrmvC6qCFyiHpTvQwa/K5fCkra7RiVFIswvQY6nQELS2rwSUUjrB4FfxmUKu+gxlnMMoh5Y1elPCG9pH8qTkiOhd3tgbj980VJLb6qbpGhkUXx4Zr+KTghNQ5OjxdFVhsidUBimBmzl+3AAIsJV/dLxasF1ch3+E+4TwnX4/T+mbht5XZ49EZMjrfgyv7psMiMSIvdVjteK6hEqM+Hy/qn4voJOVheVIGVFY14Oa9cTl25ekAaog06GX+X2114Nb8ChQ6vP8TaO8AShW73YyMzqc71pjsK0sqn+f9P19LpYo6Kv1CwKIS71z/FhnSMsJL1Y3wiuBL/ZEH2HriXskkUoIAQECNi5SIS4n9+Evn71VkIXBzTxO+YGDUqQqyuACsdc2eMRYYeuH5DMdrEXUsA40UR9xG98Vhu0X4DrFS9BrduLEGjxycLvL8zawzuWZWHhXVtMsBact4kLC+sPOwAq6SqHvcV+gOs0xItuKR3Mh7KLcMO8dviduOzU4bjw/xyVLp9eHxKDv6wdBNWWf2DFnQ+L24amIp+YUbct6kY/5yag/p2O25YWySnVUb63Fhw2lgsWLcNrzd5DxhgiSLut60vhqLVIE7x4NvZ0/DY0nX47z4BlkGjxasnDITTp+AfucW4b2w/vLijAl/Xi4EnBxhNbGvDzqtm4dmVuXi+vE0WiZcPVZWF0tNUJ947ewpuXroZa0Ro1/G396b0Q5MPuHXpZsybOtRfxL1ErEIIpBl1eHREJla1OLCysAzvXTgd095chApDmL//fV48N3kQIhUvrlmzG3dnRyM1JQG//zYXqjHE/xn7BlgAYjUKpiRGYkJiNNLCjIgym/FlSR3eKK5De00NA6yjfcTpDLBmxN6Ac3Kuxje7FmBr/Q+othdicMwknD/4RizY8jRa3XUYnjQNKRG98Xb+AxgRMQtjsqfjsbVXyEDmtwPuQf/4Ubjn2/PgMDRiuOU0jEyejrfz58Cpa9rvZnULsErvRb+wcTij9x+wrvIrlFt3ISt8CE7uPxvPr78D8WEpGJd4Oj4sfhKN3mLoYcb56XfAqbbh66K3MXvwLXI01Hcl78GoD8XEtDNR7yjHN5WvIMyThMfP+BxrSxbj25L3UesoQYtaDlXnX6EiFHG4YeizoqIUvi/5CNW2IvSJGolpfc7FG5vnYFfbOpzf51aMST1Z+hS2bEKjoxZDEiZgfOosrCz/HLW2EvSKGokp2afj3R3zsKNtBcbHnYuTsy/F4l3vosZRhIzwQTipz4WoshbjvaKHYPLE42/T/4PbF54OZ0gtVFWD8VHnY1zKaZi37irEW1JwUd870OZqwYbqJdBr9ThnwB9R1LoNH+58CkOjp+G8nBuxKP9NlLVtR5V7J87OuhlxYalYWvQuVNWHcwdej43V32Fx7Stob49mDayjvYP1pM8Td81DzfLiRON2A50/1nu1sTPAykiMw2unjMK2qnos2F2N7AgzftMvHS9uL8Pnuyuw8fJT5MXkP9duR77VgfP7paF/dDgu/mYTmhXguVHZiDCH4O0dJRB1mG6f6B8OfM+2SpyUHIWnpw1FXm0T3sorQ7Pbiyv7pyE2PAy3fb8N7R4vXp45AoV1TXivqAbpFjMu7peONwur8eHuKqy4aCoSQ014Yc12bGhqx6nZSRifHIvLv9mEUreKq9MicOXwvnhzaxF2ttpxSno8LhiSjas/W4W8dieu6JuMWdnJeDOvFGurGpHv0x80wDJ5PXh4XD+c2z8d8zfuxKKqJqRZTLhxRF98UVyLZ3dU4tKMGDx72gS8n1uAN/LLUNruRFpoCO4Xw6ALK7GoqgGZFjMuHZiFpeV1eH5XNZLgw/vnTsa6ilos2FWJjFATLhmSjWHJcej1/EeIiIrGwyMysbzRhlcLauSdKa3Dhobrz8ENC1fjy5pW3Dk8G+OTovHcxp1ocftwRnoC+sRH4aE1+XCK1VlOHIlmmwNPbiqQK8mcmJGIa4dk4LWtJSi02nFmehz6JcbgrtU7UdDQygCrJ+2vPbgtIgyXUzREeCGOI/sJsvYOsETdkZuzY/Db4f3xyIpctPt8uGRgFmra7Hg6twgjY8LwyPTReGfrbnxSUotChwd3DsvG+QMy8PTKbSh1uDA1NQ6X5PTGR5vycUde3UELpotz4GGhejxzwhCEGPV4beMu5LU5MCUxGif3ScO8jYX4vLwB82cOw9SMZLy4dhuWVjaipM2BSwZk4rx+aXhu7Q458nNqciwmZSRgzvoCLKtvw2XJEbhzylC8vD4fm1tsmJIUjQsHZctir+cu3ooJsWF4dNJg3L4yD2tanbIXf5cYhhsmD8PE+UvQJyYCD08ciApRSHZ3FaKNBlw1OAu7rHb8a8tuxOqBRZeeiieWbcAXVc2otNpx17iBSAox4F/bS+XotT/mZCG32YZHtpTA2VG8VxZxr6/1F08/wDTGrgCr60pOns53XdjJMEv8PoiLOFWVo6lk4XUxvUaEVWKFQzHtpuPvPfgryqZRgAIU6C7QeXwLt/iLqIvfLZdYFbWjuHvns8UIrPRM3DB2IGb3TcGFizagRtFCp6q4MD0Gd47uh5uX5/aoAGt1gxUvnDQS72wrwisVrfKmcpJRgwdH9kal1YbHtpbh1elDDxlgvThtGO5ZlY/FjbauEViHG2CJ64dTI/R4/qzJeG7lFoxKS5L1t6qVg0yF97jx8cxhaPX4cNXyHVB0esDrwW+zE1BR34QCh0eOEnshtxjzy5rkaDqD2ylHR72ZuxvP7yjH41OGHDDA+nDbbnxzyQw89f0WvNJxszpFq+KF6cOwrrgSjxQ24J5eBwiwLjoBH+0sxyN51YjSAONiw7CxrgU2MRLNqMPF/VIwKj4K/7emALtLyhlgHe3jTWeANTP2BkzpcxoeWXEVbNo6OfxQawtHiC4MDmMdfKoPvcPG4IL+t2B+/lxYW9vxtxn/wdxllyExIhWTE2ejf9IwvLVxHna5v8cp8X+E1qTg0+JnoTXsf2bk3gHW26X3QOs0IQThcBnEzueG6jDggekf4POdL6PcvgMXD7gLS4rfwQ7bUhjckbhl7Iv4aOc/oNNpcVqv3+HVjX9HA3bL0VtDIqdiYspZ+KLsJXhsKh4/83Pc980lKPOul9N69g6D/QHWcyhu3YKPCp+GV+eETjHh6gHz4NbY8Hrufbig/60I08bg/dJHYfM1IkKbgPN73Y6K9h1YWvUWFK1HTmmcnXUPvDo7Ptr5T/xu5FxUNpVgUfU/4FFdCNPE4pzsPyPcFI13d889aID1+LqrMTT2RJw54Pd4a/uDqHLvkKecyRiOPlHD8X3dAqSF98EVOffjza1zUercCLMhEpf2egDt3ma8u2sefDobQpxx8Po88Fpa0d4WvEXcZWjTuUyqnJm5Z9qY+HdxeBX/Zd8FyPf+m1w+dp9VNMR/k8X0O+5s++8edF4m+D9DPkec8+81U028putGQ+dL9rvzH3h62/7e95DHD3HXSVzcdN5J76gJ0DmKojPAGpqagPfPmYTHl2/GSyUNMIhpMYpHjnBqd3ux8fKT8W1BGe7eUg4nNJgRF4ZnThqB33y6EtvtXsR7HXKkQTPEZyl4dFQvnJiVjDHvLsPM9Dg8OnkIHlybj4/Km+CDBn1DtHh5xgi8kV+BH4oqseDcE/DS2m14sbgRBp34bDfsqn8q3arZ01DZ3IrLlu2AQ9VgRJgBz88YgWsXrcZ2mw9LzhqL5VWNeGhzKVzQwKJ68dGpo7Gj0YqbV+/CzKRIGWI9mFuGvHb3IYsudwZYfS0huHFlHkpdCgxQZGh1Vu8U3PHjksPT4yPw9KnjMfLlz5Hn0UDM679vdB/0CTXg5rWFqPeoMELFVX2ScFpGPO5YuwvnpETh2jGDMOntxaiGHiYouHlAqqxxMPBfnx40wLpx4Wrktznx8IQBeHZTARbV26BAg0wDMCPahLVWN3Jb7FgwaxRqW9txs5j7ryi4cWAqzu6VhBuWbsFul4ow1St9GqGH2+VhgNVxbOg83ZK/XN2OFf6d9cDHiz07s5x9Lo8Z3XfwzuNA13FjP8/Zez/ufkzp/Iv/uCCapu1YjODQs+oOfizxH6w6jl6HmFUrnyuWzBYjdJSOkVhi+oW4EOh4dAuwvF48MSIdI9OT8ZtPV8k6F1GqFzqvC82GMIQrbnxx7iTMW7MTH9e2ybu8Ky6dgZdW5eKfJc1wqUC6TsXLJ4/G1tJK/CWv9rACrGen5uDboio8sbNaTtFLMmhx3/AsWL0KHtxYiJdOGian9567cCNs0CJLD7x88ih8sLUQL4uLADEdwajF3DF9UdrSjie3lmDZ7KlYXVaHm9cUyGNfLLxYcPo4tNsdhw6w3vwaFw/OxNmZ8fjLyp3Y6fRBLMQ9MkyP4WFGfNpgQ621HXV/Oh9//GQ5Pmx0IUb14oVpw1BtbcedG3bDpdUhXvFAURU0ao1QxQl/5wis+lr/6ALDT+twiVCqaxVk+S+qf0p5RyAlQkYxokqEVl1TzTtH17GW1SF/WvkEClAgAARCTP56WCK4ErWv9nds6yjiPjguEq+dOg67mlvx3PoCpISH4I8j+yEzMhzXfLNhvzWwjtUIrPllDXJq45l9UvHM6h3Y2NiK3w7IxLTMBPx9dT4WVTfj3ZOGHTTAGhKmx/xZY/DpznL8Z3spSlxefHzKcHnz83BGYMFogsnlwKrZUxGi18uZAv/Ir/KHUgd5nB4G/Ov86XhpfR4W7a7GCRkJuGHMAFz14bfY4NHigcFpGJeVgqdW70BNuwO/H9kH07KSMWv+YhS5VTwxaeABA6wXthbjoVG9ccnQvrjnu03yOuDigZmYkpmAa79Zjy3tPty7vwDL7cIXs0ZA0ejw4IrtaLQ78eTM0XD8OCPlvu+3IlSnw18nDYbb7cXt6wpQVVHNAOto7/57AqzrMa73DPx9+bnQh3RceHt0GBV7OnqFD0VkSBySIjIQZ0nC46uuRYl1B+6ZuABf7nwdFosFUUiVJ0RxYYl4p2Aurst5Wk7h29jy+Z67e/ts3L5TCI0wo7d5LAbGjEdMSAKizfHIih+E1zfMxaqGj3FB39ugV4z4tOIpjAw/A1N7nyvbMjb1ZEzPuASVLcXw+PxDJyPN0YgLT8X8HQ+iuaUFT5z1BW78/ATYDNU/IRYB1hX952Bj3ddY1fhRVw2r0eYLMaXvaXhq5Z9w/qAb0O6wYWn9y/DAgVhdFi7uezeWV72HLa3fdF3jjLXMxrDU8Zi/+QlcO+5BzN88D7WabdLA51UxPfkyWQPr/eKHDxpgPbH+dzg161r0jh+Mf2/5CxSDo6vdiipWH1SRZsrBFUPux1siwHJvlFM5B5tn4srRd6PZVottNWuwvu5rVHi2QKNVu08h1EUcdNTJwb6HncHJTy+yDvSqPVdDXRd++71AElMX9n6PPRdp+77zT6dI+O8id75cXBweqrTR0d7Xeuzneb3Q2Oz+iyBxUZqRCV14OB4Z2wfXjxuCtWXV+K64Gp+VNWJjuxuq046Nl87Aq2u34bkK/zTcYWYtXps1Fjd+tRYr7ArStCqu6ZuM7MhQxIebkZMUh3aXF4Pf+gYz0+Nxbb9UzN1cjM02/yjImB/rwTw/phd2OTx4ZHUe7h3TDzeMH4yNlbVYXlSDLysasdbqgs/r+UkR92yditdmjcbNX63G9nY3Kq47E7cv2Yg3Klo6yBX8LTsak/pl4bSPV2JGejyu6JOEB7eWI6/j8w/WN50Bls/twQM7Kv1DyUUthNgw/LF/Mp7cWo7R0aF48tTxMD/zIWAOg97jwnMnDEFZTROeLGmUF+DiNTMSwnHr0Ez8fe0u3JCTiTC9Hhct3QalY8TEiWEaPH/qeIx5fdEhRmCtQo3biz8MTMec3BJsaxPHvY6QVlX906tcDiyYOcIfYG0qk/v7CLMWz04fgT5xUViUX4R11a34sLwRdSKS2asGllyG+gCPjjJEP/mr2LdFACxvcorr4r0Dlo4d8/CKPHY/OOw/mDnQsWHfY8ieZoopnN2PLnsC5sNrV4/dg3tEw2RA4vbI1YzEo9sUQo2KyVov3rl4JtxeLxYXlGNxSR2+brKjVdUg2uvEF+dM9AdY9TaMMWvx2ewTceqbX2OjT0SBYki/E09PHgRnSyvu3tVwWAHWE1MGy6nLXzT4A15R2+o6Ua8qNhx/W1+Ax6fmwNruwB/WFsk78uPC9Hh08mDctHQTtnYUUNcrPtw9PBs5EWY8sCYPq64+HTd9+j1eFXdzO6Yj/G1IGobERmD2t9sPPgLr9YW4bfxgZJn0uCO3DI2i7l/nQ1xIie9oWyvqbjoPf/x0OT5sEqPbPLimVzwemDpcLi/+bWEFFlc24euGdnhlkc5foQZWj/hGsREUoAAFjqCAmDqt0/lHXB3s0RFgqeERmBqmwROnjEdOUgzKW9rwwaZ89IqLxjN5FVhRZ8UrE/qi0afirh9rRIkpc4la4M4tZWjyKuhjBF6fOQr3r92Jr+vb5RTCL88cjx9KqvHorrr9TvXu+jlw2vHS9OEora7DnKJmOdp5VkIYLspOxLztlcjrmEL435k5+Ci/Am9XtyFS8eBPg1Jx6wkjYdLp5OqH9y7bhE9r22VpjzenDkJjuwN/3lAipxBafG68NWs03l2/He80+xCj+nBL/yT8cdIwvL95lyy+/uLUwSi1OnHHplI5hTDW58FXF56Aed+uw+etPvylbzxgMuG+9YUQAZYYpXZ371hcMnogrvpiDVbbvNAdYrq/6vXg8qRw3DVjNDIiw+XI7IeXrMG/q9rg0+iQqvX/Bs8eMQAWowHrymtw+8LVWOPVw6h48ei4/thV34x/lzXDDQ1SjTrMGZqOtVYHXsyrgtnrwV1DUnHjCSNh1uuxrboBc5ZvxqJmF7zQ4K9ZUXIK4fXLtu6ZQqiqODNUxXPnTUdDux23Ls+Fq92GR2eMxoTMZHh8PiwtLMc9K7Zji1OFRtS/Yg2sI7izHsZbHSjAUrwanJN5KyZnnomvds1HQ3s1okMSMLnXGfhP7j0od23DWcm3Iio0Do22WjS6K1BUn4+bJj+G55b/H64efx9e2HAb2nSVB2zF3gHWu2UPYHzMuTip12+wuXI5KluL0G5vw2Xjbsenef/C2taPMTB0Mk7pdSVe2ngHLs+5FwXNm7C46j+YlHguJqacg9UlX8Gp+E+exa1Gl9uJItd6hKqxeOLMzw8aYF014CFsaliMFXXv+UdnqcCkiMsxOmsqnl55My4YfGP3AEubid/0vRsraj/EpuavugKsSZGXYUDicLyz6UlcO34uPtr+PEp962Syovq0OCn1CvQOH94RYMXhnumv446vzoTNWCVvBEyMno2xybPw+PprMCP9SgxOHo2Xc++AW9cmN0tMkxQF452+dqSFDOkWYMlBNW4NotV0DIwfh0GJYzE8ZQo+2voSvmt4FW3tsXumEJpi/HfPD/H4NS/suo1AOlRDZLH9ztEMHR18GK+RFxhdr/Vvjf/m817jIvbZyD33qTvXC9jzhD03a/b8N/+aAnver2ONgb2Wg+8Yt3UQzL1Hh8nrkb3Gce3V6m5b3Pk54u9yzNfeI7z23aaOv2m0OqjmjjneYkqI1wut0wVVTBORtQH8AZYSEwv8GNieEGPB2NRYTMxMRt9oC+5buQOfFFZg/WUn49W12/Fchf97uXeAtcHqwNdnjZeF3b8uKJdT2M7on4EhyQldAdYNg9IxZ1MR1lvFjHWNLGj8wvg+2Gx1Yu7G3dC63ZgUE4axKTHys/tEW/Dwmny8X1SDHy6a2m0Vwr0DrNw2F0p/fwb+/v1WvFLa6PdSFMztH49hWSk465PVmJHxywIsUY/r/q0VaO0IsKbFW/DHfsl4NLcUY6PD8NQ+AdbTkwejvrkVjxTUywBLXODPSorETUPScd+anbhuSCYSQkNwztdbugKsUyINePbkMRj12kIZYD0iphA22fDKLv8UwjC3A+XXnYUbvlwli6//KScDczaXYLNw1IjKgECYFvLzXM59Aiw5ZN6DJNWLE5OjkZMci1m901DRZsNt329HYVNb1wgsNSL8MPeuQz9tf/v5vkee/+U407kfdJ347dnLD924fZ4hRjOJ4FtOoeo6THRv3d6ft799s/O1Xe3pOj50jszsWoek67jR/bndGyWtDjECpnMEaOfxTvxT7NHd7fevvPfo0J+MFD3AcUS20BQiV6GTS5WL8FtMJXS7u4p4/2QVQq8HaaobJ2ckYnRaAk7MTsEXO4pxz/ZKhHi6B1j9dD4suWQGbvhsBT5p8d+UCvG68NKJw1Bb24i/7jy8KYRPThmMf2zejU9q2+RIT5Oq4Pq+SRgSFYZ71hfgyWl7Aiyxf40O1WLelBzctmwzNjj9ekZVwT0jstHHbMScNXlYfc3puGPharxQ0Sr/rvX5MGdEJvpGhOKivQKsv6zKx+oW/42n61PD8fsJOZjw+iL8ecwA9LeYcPumUjR0BFhGjVgoRgO7osLbEWBd/+lyfCACLOHrciIn1IDJKTEYnZ6IiWkJmJ9Xgse2lsMpTliOdBH3n73n8AUUoAAFjhOBzgArMkrOINA5HYjXadDsVeAS51E+L2AMgVZvgGJvl6P4tSYzFLfTP9VaLGAiapaK+rEuhz8UMRghRrmqdhvMei1mZ8RhYlbyAcG+KKzEl+X1cIubFGZ/7Sat2yWn9akhZkCMahK/DbY2/4iyjuLjYlSZ+K2MkguJqHAbTDKsEgsGybaKEeShYf6bnOK832mHRqf3v6d4eD3yBqy44aOIdjttgEYHhHbWj/LJm9jy800h0Djt/pkpphCYtBpEGvSYm5MKo9mMq5dsxqjoMFzYOwnRoR3XHftssSgqf+uqnVDE6z1OROu0aFUAh94o2y3PacR2etwIV7wwaDVyoRU1JFRug1xAxOmEXBlXGHTUhBTXL2KFXBGqyQEPP5YCMXlciNJp0aIALqPJv5KueNhF7V3xIxzaPVSU5zVOaH88B/BJRz3gdCBJzHKEBo3iosvgf39NLWtg/S/n8b/oyHGgAMtr1+LOiW9ge8V6fFr5NIwGI0bGnIIz+1yHf2++E5XebcjSjMc1Y+5DQV0uVtR9iMLGLbh38gLkVW9ApCUa/869HdqQfSdl7Wnm3gHWf8sfxempN8mCzx8WPgm3zo5kfX/8ZeK/8O7Wp7HO+jFCfFG4fuST2FC8HKflXIbHV1yHehSgX+gEnN33RnyQ/zR2O9ZBCx1iDGkIQzRqPIWIVFJlDazOEVjiWiBcFydXTbQqdQjVxOLGYf9Ala0QHxY8AbvaDDNi8Pshj6HWXooF2x/FhQNv7RZgFCXGLAAAH6hJREFUhSEOZ2fcAqtSi6/KXoELNpgRiUv73o96Zyk+K/g3rhx+H+wuG/5bPA9u2BClS8GF/W6HDgY5hVCxm/DwKR/h6VU3Y6ftexgRinN73YKM8IF4ePWlGBA9ARcM/hM+3Pk0dtvWyaK5Q8JPQlpEHywqewXpln4ywPpgx9PYaV8BnWpEpnkY2nz1qHeWwOMErh3+GFIis/DAygthd+2ZQuhUOnb0Q3xr5MAR+ZyumOQnr+i86Nn3QvLAb90R9nR82/d+585/7/7a7s/v/Ebte6EoD3RdAVVnm3/RbnF8vkgcZM2hUMTS5+IOlKiDJX7A9ro47gywkuNjMCzWgvUNNtR7vMg0aPDU1Bxsrm3F4xvy8cOlBw6wtjS0IPea03HDwjVY1GBDnNGAZyYPwPCE2K4A64kThuLZTYV4c3ctXKqKsdGheGLyYLywpQjLKhuRExeOjY021Ll9SNEpeGzSYOQ1t2PepkJ8N/vEAwdYNh8+mTUCu9tduH99ofyhSzVo8cFpo/FtcTXu2lyKGUmRuG5AKu7fXIxtotilOCE5yKNzBNbI+EjctHwbtrW7EaJRccOAVIyJi8Bf1xXg5KQoPDVrXNcILI3XgzuHZmJifCT+vGonipxehGqBGwemydEfd63dhZkJ4bhj2kic9sFybLd5EK7TyNdcObQ3+r/0CcIio/DY8EwUunx4fEuJLE55VrwF/zl7Mq7/cjW2tNjx+KSB+Hh3Nf5TVCeL1Q82G3BKchQW17Yit7kNb0wfBpfbg9+tKoBOAwyNCEGoQYeNzQ643G7MjDHj3qnDce/qPCwtq4daWwNNU2PXicPh7wj723O777fyxEKM0ukYobX3e+97DOj826Ej9v2EzP7JUR0nPt23YO/38x/b1M5FbQ9/U/lM/z4TbvGfrMtjiViGvPsy2d2mEHo8OCU5Ek1uH9Y2tcPg8+LWoVmYkhqLi5fkymKzn58zEc9uKMB7la3QeVz4+PSxcP+4st39G3ajzevDuBgL7ho/EF9v3/2zphDm1jbLArZNiopskw73j+6LolYb5m0pwsszhncbgZWi8eFfJw3H6vJaPJZXBY9Gi35mA+aM64f1VY34544yfH7meNTaXLhxxQ650mBWiB6vnzIaTdY2nLN4K8aI0Zg/1t56ZEMhFlW3ykD5yTG9MTIzGRPe/FrWC7yifxruXVuANS0OGDUqpseFo2+oCe9WNqGu1YrqG8/FHQtX4Y0aG+L0GoyICkWJzYViuwdGrxt3D8/CgKR43PBdLmpUBljcJSlAAQocMYG9A6wj9qZ73kiskDsj0oDhaQkHfPcfKhqwotmxZ5Ttr9COI/mW4txqjFHBZYMyZR3XOat3YHGjAwNCtJiRFosIs1iq6KcPscjQM7mlUEXoF8APBliX39VjAiyfC7ig1x0YnDgey8rfg15rklPfsmMG4rl1f5IBVoQvBXdMfA2FjVvxQeE8tPhqcFbyLTh54G/w323P49v61w96bbh3gPVe2RyMjz4fEzJOxea6b+H2OdEnchT6x4/AB9uekwGW4lNxSsrvcUrfS7GrbjNe3HYLdCYFJl8kzsi6HulR/bC5bonIqdE7cjjqrJVYUv0azN64bgGWGKV0UsoViDen4/2ihxFqiMIfhjwpV+3b2bQeTa4qZIXnIDNqIF7bfB8qnPm4oM9t3QIsMRIqxzID07IuQrE1F43OSmSG5yA1vBfmb3tYjlAbEnESzur/B+Q3rkW9oxTxpkwMihuPeluFHIHV1N6EW0a+BOgUbKxdgghDHHLiJ8HnUzB31W8QHRaPszL/hMjQaOQ3rYFea8CUtPOwsuxLfFX5EsJ18bh88P1yNFZe02qsrVqEC3r/H6Issdhav1z22Qnp52FD+bf4ovI5tNuDtwZWAB8Xj1zTxTQ1cadGTBkUy53vZ1SHP8DKwLDUBDwxbZgclfN9XSuyI0IxNTkGr2wtwgcFFVhzsBFYTW34+txJKGlz4vuaJgyMCMOJmQkw6fQdAVYCHpk0CFVWG5bXtKDN48MZGXFodrpx9+p8udKWWFWkpMWGZbUtyAw3Y2pyNF7bXop3d1fjh9nTDhhgbfHocUF8KP40diBWVTehqN2JSYlR6B9jwTWL1mGrCxgXYcKDEwbIGlFixbOlLaLQ8oGjks4A6+TsRKytaMCqhjakhplkcfg3tpfgP0X1uDIztluAJYKakRYDHpo0CA02F5bXtiA5zCSLSL+/sxxvlTbI4dqiUH67T8VX5fWySPOo+AiMTElA3xc/hmqJxE294nF6/wx8WVoDlwJMjAvHSX3TZYD1SU0r/tA3CRf0T8dnJbVoEAWnk6KhhYq5GwqR1+bCfUNS8JuhffH4+l34oawWJ6YnYPaAdHxRVo8amxPTkqIRZdLjntX5yGu07gmwWPPmyO13x9s7iSBSLE0uRv6IGiL7BFdd4aM4Ic3MhhIRIe+ePjWqFyZkJ+P1HWUyXjw1MwGFtU24e2u5nNr3zoxhsKkavL69FMvrrRhuMeLe8QPhVoBWlwc2hwODk2LxfUEZ7tpZf1hTCJ86YQh0Wg1WVTWhsN0pA+deEaF4aN0ufFfXgvkzuwdYOsWHKzPjcN2IPlhYXINKpxtj4iLlvjln3S6sbXXg9JgQPDR9FJaX1yPPasfgqDCMSohCpbUd5y/djuxQAx4d2xdagxHLKhuQFip+h+NgMpkw4e0lSAkPxQNj+yLcYMCXFQ2IMOgxMzUWyyvq8Vx+Faw2G1bMnooWuwuv7apEQW0zbhnTT043FnfkzXodzsiIx7qaZjy6tRQ2cXecI7COt72M20MBChwrgV85wBKb5T8HP/AAD3nxLEYIHWL63bEi2vdzxRn0QIOKcalx2N1kxYpmO3w6gxwh1TnD40BtFSOl9rdybk/ZtsNpBwOsYxhgZWEyMqP7YUntK9CL8ewqEKEmY2zi2bBoo2F1NaHRUYVIYzw2tixEu64aeiUUo8LPRruvCdvbl0DVexHj7o3JaedjeeV7sKq1MGo6hiXuN3m1YnjUyXIAyDbPQliQgOHRJyHWlC4DrF2N65Bi6Yfd1o2o1uTKd+htnIjbJv8Tz35/G/LcSztv6iMCyciJnoYEUxZ8qgdN7mpsb1mOFrUSRkcszuh1HT4peQa+kDb4PBrkhM9AuD4Gq1veR5g+Bpf3ewBFTdvQ5mxFfGiqrIy7uX4JSl2b5cXtoNAT4XK7UKKuhqIRw/oBIyzoEzoOWZYcWYLZq3VjS+NiVLi2Q6NToPOZ0Tt0DAZFTZKF1OscZbC722SwlOdaCqdiRaJ+AMbEnwq9akKzqxbtrmYYNKH4oXk+jCYdorUZGBw5BVHGJOi1OlTaC7CleTFcuhbAp0Wv0DEYEDkBbpcLX9W+iCRzHwyKmoJwXQy0Wg1qXCXIbVoMp7YZVisDrMM5EB23z9Fq5VDc/QVXXRedHVMIDTHRGBNlxrnpsf6ivtBgY7MdX9W2otnuwN2DUrG6shGLXf7RS+kaH67sFY+3d9eiRNFhWowZp6fFyqG3Ze1itI9HTpe7f0cVZqbF4Q8DUvFtcRXizCbEmo2od3rwXnkj8u1eGEX4ExWCc8XrxWRKjRabW+xYVGNFg9ONO/oloKjRig+sol1AnOrFFVlxWLC7CpX6UIRDwcyECEyIs8Ck06DNo+CTiiasFSuCiaWDNQpOS4rE6BgLNpZVY1GLC8YDrNolRj263W7cM36QLLJe2GhFephJFrVfW2/Fl7VtaFSAE81anNcnGTet2w10DMUWF8PDI0w4Lz0W4Xot3IqKDU02fF1rRaMYrKKqGBqmw4WZCYgyaFFrdyGvoRUjEqIwZ0sJPKEWZBm0OC8jFllhJji8XiwsrcWZmYlYUFSLNQ4VcTrgtKQIjIkNlyM0W7xiWxuxtc0Dj0aDXnoF1w5Ig9flwofF9ahSNTgjOQqDI83yeyACg88qmrDF6oTHZmcR9+N25z/CGyZOrsXoq4M8uk0hVFWkaxVclB0vV9sUe2653YMvK5uxy6XI48T0GDNOTYvF9tpm/Le2DSGqD33MBkRGWOSnlDa1yvpRFbUN+NuOaiT+OJpqz1IY3RviU1RkhOjxyNSh+G9+KaJ+nKIsVi71qBp8VdmElS0O2HwKrk2LgMvlxRuNTqgdK7tEQsH0hHCclBgJn6rK1ZG+qW7BBqsLdmgQovgwM8GCmcnR8CoKtjW3w+V0wqLX4qUap5xGIUJycfwz64B6hxu7G63Ijo3AwzsqoeiN6B+qx/npsUgMEcVtNcizOvBpZTOqPGIOq4JJ0SG4KCsRpS1WLChuQJQlRB6LRa1ArUaLIrsbn1Y0oVSkex1TJuQqhGIag5jewgcFKEABCvwygaMQYP2yhvXsV8mwStZyFOHbwWc29Owt+fmtY4B1DAMsrWKEXquHS7V3Bb7ie2hACAwaswyFxEp6eo0BXrigavwVNkTwIqZh+MQEFxHBKlqYtKGAuIhNvBQn9D37gN+E97c8h+3Wb6FovPBpnbKIjx5G6DVmqFDg9Fph1IXCBw+8igc+lwZnZP0Bo1NnYO6KS6AJFZNqOh6qGHdlhFETKl/rVUVxNpd/W2SbwuBSxFxlfyElHYzy83xaF0QR98v63o91tQuxqWkxjHox1NEHp9LeVQ9LB5O84PRp/fU4Oh8aVScDJ6281PbCpdi6rXAoPtuotUCrauBRnbJtWo0OPo1LuqmqBib5eoNss6L65N9FoXjZ9i6TEPn/O302qBpv14AR8fkiJBQn8g61Tf5TJ/vMBI1G9T9f6z+htbYywPr5h6XgekVXDazYOGhUBZF6LQxyoTEN2nyKLJAo9oMInQZuRYFTrscm9icVYVoN7D5VTmUThRzFlDi9BrCLJdjFomVaLaxeH2YmRuCavil4ZHORnFpn1GjhUBS0d1b9FkcWRUGEXuw74uM0sMrP9s8PFZ/tVVR5MSkeYm5/mE58tgJfx0WoXlVh0WugF/WgfKq/8HrX0qOq2Jth1mnhbW/Dh+dMRnZMxH47utnuxLMrcjEyPVGGcE/mVcoLRlEnqd2jwC13Ug1CoMIsayR0FGLuOi4pCNdpIdbFEHuh7cdin/4jSGdVc/F3jQzaXKJegaIiRCecFFnzSgSOZq0GoTqNvJhucXsRadRLZ9kXUGXgZ9HrZE+I6ZhiRFfX3ayufvD7iNpYJg2kjVaj6bKRc/j3KuJ+qJpLwbVXcGt/icBPamCJ77IGCNNp5ddffB8dyp4VYcU+K4JeET7Zf1wd9f6R2RiWGIO/Lt2EwjYHTstKxJxpI/DY8k14u6AS2647+4DjJgvrW2Sx3d+OGoB563diRZMDJrG/q5DHAp+czgpYtOI3GLDt8046cewziGIEGrjEyqu+joUROiDE38XxSVTQaPeKaiGQU3Tb9zoeWrQaeex0Kio8iiKL6lrlcch/DBVTC8W+LfY9EaY59zn+RRp0cv+3Kqrc9y1aLUJEnQ+NOI747bpO1jgC65d8RfkaClCAAj8VYIDFb8XPFGCAdQwDrJ/ZV4d8uurVwuCIhkUfecDntnproYTtE/gc4Nli1b+L+t2BgYmj8cyy27Bb+X7vSriHbM/BniADrH73Y13dQqxv+vy4DY4ZYP1PX5OgePHeAdavscEiFBO1n0SA9eCWYuTajvFoAbcLg7RehOxn2Xmx/eJiWoz6unXSUBlgPbSjCu1i2fnj8MEA6zjs1GO4ST8JsH5mW4aoLvzrzAkYnZYEl88nRxj+e9VWzN1eAavNgWFhhgPOrnD6FEQb9Xhg+ijM21CArxrsAT9F4aB8DLB+5reLT6cABShwAAGjKKWRBVUsZsQHBQ4hIG6iq3W1XIXwaH9TOou4H+3P/bmfp/WGIExNhMPdCrexBVrDz32Hgzzfp4PWboFicAEm58HK4RzBDz36b8UA6+ibB9on/toBlhh5YPZ5EOF1o0VvgkusEtLTHz4fYhU3xOCJVrniyPE5NJoBVk//IgZW+/7XAEucFIrVgXLCQxBlNKDM7kKZTwOfOGYcRl0Qo9eDWHjQDB2cclT1cfxggHUcdy43jQIUOKoCYvpbSirU5NTD+q05qm3jh/U4AY1YEEssftRQD9htPa59R6NBGs1xNALraIDxM36eAAOsn+cVjM/+1QOsYEQNkG1mgBUgHRUgzfxfA6wA2cye0UwGWD2jH9gKClDg+BCIiPSPwgoN7NXxjo/O6MFbIX5726yAzQY0NgAOew9u7K/XtGMSYJ007QekpVT9elvFd+4xAgywekxX9NyGiFUK0zOhxsX33DayZb+KAAOsX4U1aN9UYzZ3rEJ44DICQYtzhDdc1AwEi7gfYVW+HQUoELQCYhRWQhKQmAgYxcj7A69UHbRGQb3hqlyBWWO3+8Mrrxeor/WvzByEj2MSYE2ZuAHZmcXQaA6+olAQ9sdxt8ktzXEo3DUAReXxcLgDYOrWcdcDAbBBOj3UtHQgMSkAGssmHlEBcReprhYaMRRaTN/igwL/i4ApBMjMghoV/b+8C197GAJajweqWIGQqxAehhafQgEKUOAwBEJCoIlLAEJDoWj9C+XwQQGxAoxYbVH1eiGnD4qV2p0OaMQIrCB9HJMAa+igYuQM2Qy9PjhTw2D5rvkUPRrqUlBanImSyjgGWMHS8T93O8VdpvgEqGkZgF4s8c5HUAiIYdAtzVCbGqFpbmKAFRSd/itvpE4HTWo61KRkseAfH7+mgNUKjbWVAdavacz3pgAFgktAnA+bQ6GJiparQvNBgW4CHTd6VbdLnj8H6+grYXJMAiyj0YuZU1cjLp7TCI/nXdNuj0BlWTYamyJRWhUHp5vhxPHc3//TthmN0GT1kiMneOH5P0kGzovtdmhaW6Bpb4Mqfog5Aitw+q4Ht1RjCYealQ01NKwHtzLAmyamLIhRkx435FLePl+AbxCbTwEKUKDnCKhiVcIwCyBGFXMqYc/pmGPYEjGhVCtWRxY1r0Th9iD/3T0mAZbo/7TkJowdswGh5jb5ddBoeNl6DPeLI/fRqhjoqIHDGY7qynR4XAbUN0Sioi4GXh/vJhw56OPvnTQRkdCkZ8In6tjIg8Lxt41Bv0Wdh3mn0z96Q/wAi3+KqYR8UOBICIiT/cQkqEkpe0Z08lhyJGTFj7s/tLJaAbdbTmfQ1tXIqQ18UIACFKAABShAgaMhcMwCLI1OwcDsasTFtsBgdDPAOhq9fTQ+QxUjGg1w2s1QVA1cbgPKquPQYuWqGkeDP6A/Q0wfjI6FarHIC0/GnQHdm/ttvCIudEURSjGCQ87n9/jrXwVpEcrjr4d7yBaZTNBExwKhYVB0Wh5LjlC3qCJwFvuqKOAupgC3tkAN0iW8jxAp34YCFKAABShAgZ8pcMwCLNFOi9mF1KRmWEId0GpZ0P1n9l2Pf7rDaUJDUwTqmy3wKYwjenyH9YQGmkyAJZzDpntCX/yabRBBlrgQbrcCTienD/6a1sH43mIUlliKPNQCiKkYfBxZAVFIVqyE1G7l6KsjK8t3owAFKEABClDgEALHNMASbTObPLCEORBi9ELLYf7HxRdWXJuK6YLt9hDYHCb4FHbscdGxR2sj9HqoYt6/Tse5/0fL/Ch+jpwtrvgAlwvw+kdi8UGBIy4gQiyDARChuFbH2npHAFj+kovRV2IaocvF8OoImPItKEABClCAAhT4eQLHPMASzRXnmVqNwjp1P6/veuyzxeWoqmjkFEI+KPCLBcSBgcUrfzFfj32hzKtEsTwGVz22j46nhvE4cmR7U+y33HePrCnfjQIUoAAFKECBwxboEQHWYbeWT6QABShAAQpQgAIUoAAFKEABClCAAhQIOgEGWEHX5dxgClCAAhSgAAUoQAEKUIACFKAABSgQWAIMsAKrv9haClCAAhSgAAUoQAEKUIACFKAABSgQdAIMsIKuy7nBFKAABShAAQpQgAIUoAAFKEABClAgsAQYYAVWf7G1FKAABShAAQpQgAIUoAAFKEABClAg6AQYYAVdl3ODKUABClCAAhSgAAUoQAEKUIACFKBAYAkwwAqs/mJrKUABClCAAhSgAAUoQAEKUIACFKBA0AkwwAq6LucGU4ACFKAABShAAQpQgAIUoAAFKECBwBJggBVY/cXWUoACFKAABShAAQpQgAIUoAAFKECBoBNggBV0Xc4NpgAFKEABClCAAhSgAAUoQAEKUIACgSXAACuw+outpQAFKEABClCAAhSgAAUoQAEKUIACQSfAACvoupwbTAEKUIACFKAABShAAQpQgAIUoAAFAkuAAVZg9RdbSwEKUIACFKAABShAAQpQgAIUoAAFgk6AAVbQdTk3mAIUoAAFKEABClCAAhSgAAUoQAEKBJYAA6zA6i+2lgIUoAAFKEABClCAAhSgAAUoQAEKBJ0AA6yg63JuMAUoQAEKUIACFKAABShAAQpQgAIUCCwBBliB1V9sLQUoQAEKUIACFKAABShAAQpQgAIUCDoBBlhB1+XcYApQgAIUoAAFKEABClCAAhSgAAUoEFgCDLACq7/YWgpQgAIUoAAFKEABClCAAhSgAAUoEHQCDLCCrsu5wRSgAAUoQAEKUIACFKAABShAAQpQILAEGGAFVn+xtRSgAAUoQAEKUIACFKAABShAAQpQIOgEGGAFXZdzgylAAQpQgAIUoAAFKEABClCAAhSgQGAJMMAKrP5iaylAAQpQgAIUoAAFKEABClCAAhSgQNAJMMAKui7nBlOAAhSgAAUoQAEKUIACFKAABShAgcASYIAVWP3F1lKAAhSgAAUoQAEKUIACFKAABShAgaATYIAVdF3ODaYABShAAQpQgAIUoAAFKEABClCAAoElwAArsPqLraUABShAAQpQgAIUoAAFKEABClCAAkEnwAAr6LqcG0wBClCAAhSgAAUoQAEKUIACFKAABQJLgAFWYPUXW0sBClCAAhSgAAUoQAEKUIACFKAABYJOgAFW0HU5N5gCFKAABShAAQpQgAIUoAAFKEABCgSWAAOswOovtpYCFKAABShAAQpQgAIUoAAFKEABCgSdAAOsoOtybjAFKEABClCAAhSgAAUoQAEKUIACFAgsAQZYgdVfbC0FKEABClCAAhSgAAUoQAEKUIACFAg6AQZYQdfl3GAKUIACFKAABShAAQpQgAIUoAAFKBBYAgywAqu/2FoKUIACFKAABShAAQpQgAIUoAAFKBB0Agywgq7LucEUoAAFKEABClCAAhSgAAUoQAEKUCCwBBhgBVZ/sbUUoAAFKEABClCAAhSgAAUoQAEKUCDoBBhgBV2Xc4MpQAEKUIACFKAABShAAQpQgAIUoEBgCTDACqz+YmspQAEKUIACFKAABShAAQpQgAIUoEDQCTDACrou5wZTgAIUoAAFKEABClCAAhSgAAUoQIHAEmCAFVj9xdZSgAIUoAAFKEABClCAAhSgAAUoQIGgE2CAFXRdzg2mAAUoQAEKUIACFKAABShAAQpQgAKBJcAAK7D6i62lAAUoQAEKUIACFKAABShAAQpQgAJBJ8AAK+i6nBtMAQpQgAIUoAAFKEABClCAAhSgAAUCS4ABVmD1F1tLAQpQgAIUoAAFKEABClCAAhSgAAWCToABVtB1OTeYAhSgAAUoQAEKUIACFKAABShAAQoElgADrMDqL7aWAhSgAAUoQAEKUIACFKAABShAAQoEnQADrKDrcm4wBShAAQpQgAIUoAAFKEABClCAAhQILAEGWIHVX2wtBShAAQpQgAIUoAAFKEABClCAAhQIOgEGWEHX5dxgClCAAhSgAAUoQAEKUIACFKAABSgQWAIMsAKrv9haClCAAhSgAAUoQAEKUIACFKAABSgQdAIMsIKuy7nBFKAABShAAQpQgAIUoAAFKEABClAgsAQYYAVWf7G1FKAABShAAQpQgAIUoAAFKEABClAg6AQYYAVdl3ODKUABClCAAhSgAAUoQAEKUIACFKBAYAkwwAqs/mJrKUABClCAAhSgAAUoQAEKUIACFKBA0AkwwAq6LucGU4ACFKAABShAAQpQgAIUoAAFKECBwBJggBVY/cXWUoACFKAABShAAQpQgAIUoAAFKECBoBNggBV0Xc4NpgAFKEABClCAAhSgAAUoQAEKUIACgSXAACuw+outpQAFKEABClCAAhSgAAUoQAEKUIACQSfAACvoupwbTAEKUIACFKAABShAAQpQgAIUoAAFAkuAAVZg9RdbSwEKUIACFKAABShAAQpQgAIUoAAFgk6AAVbQdTk3mAIUoAAFKEABClCAAhSgAAUoQAEKBJYAA6zA6i+2lgIUoAAFKEABClCAAhSgAAUoQAEKBJ0AA6yg63JuMAUoQAEKUIACFKAABShAAQpQgAIUCCwBBliB1V9sLQUoQAEKUIACFKAABShAAQpQgAIUCDoBBlhB1+XcYApQgAIUoAAFKEABClCAAhSgAAUoEFgCDLACq7/YWgpQgAIUoAAFKEABClCAAhSgAAUoEHQCDLCCrsu5wRSgAAUoQAEKUIACFKAABShAAQpQILAEGGAFVn+xtRSgAAUoQAEKUIACFKAABShAAQpQIOgEGGAFXZdzgylAAQpQgAIUoAAFKEABClCAAhSgQGAJMMAKrP5iaylAAQpQgAIUoAAFKEABClCAAhSgQNAJMMAKui7nBlOAAhSgAAUoQAEKUIACFKAABShAgcASYIAVWP3F1lKAAhSgAAUoQAEKUIACFKAABShAgaATYIAVdF3ODaYABShAAQpQgAIUoAAFKEABClCAAoElwAArsPqLraUABShAAQpQgAIUoAAFKEABClCAAkEnwAAr6LqcG0wBClCAAhSgAAUoQAEKUIACFKAABQJL4P8B3uSGmhOubgkAAAAASUVORK5CYII=;imageBorder=default;dashed=1;strokeWidth=3;" vertex="1" parent="1">
          <mxGeometry x="945" y="194" width="1200" height="512" as="geometry" />
        </mxCell>
        <mxCell id="FGGIich8s1z18o31se-w-15" value="" style="endArrow=none;dashed=1;html=1;dashPattern=1 3;strokeWidth=3;rounded=0;entryX=-0.002;entryY=0.983;entryDx=0;entryDy=0;entryPerimeter=0;" edge="1" parent="1" target="FGGIich8s1z18o31se-w-13">
          <mxGeometry width="50" height="50" relative="1" as="geometry">
            <mxPoint x="775" y="324" as="sourcePoint" />
            <mxPoint x="955" y="204.11" as="targetPoint" />
          </mxGeometry>
        </mxCell>
        <mxCell id="FGGIich8s1z18o31se-w-16" value="" style="endArrow=none;dashed=1;html=1;dashPattern=1 3;strokeWidth=2;rounded=0;" edge="1" parent="1">
          <mxGeometry width="50" height="50" relative="1" as="geometry">
            <mxPoint x="1180" y="769" as="sourcePoint" />
            <mxPoint x="1180.2" y="150" as="targetPoint" />
          </mxGeometry>
        </mxCell>
        <mxCell id="FGGIich8s1z18o31se-w-17" value="" style="endArrow=none;dashed=1;html=1;dashPattern=1 3;strokeWidth=2;rounded=0;" edge="1" parent="1">
          <mxGeometry width="50" height="50" relative="1" as="geometry">
            <mxPoint x="1440" y="769" as="sourcePoint" />
            <mxPoint x="1440.2" y="150" as="targetPoint" />
          </mxGeometry>
        </mxCell>
        <mxCell id="FGGIich8s1z18o31se-w-18" value="" style="endArrow=none;dashed=1;html=1;dashPattern=1 3;strokeWidth=2;rounded=0;" edge="1" parent="1">
          <mxGeometry width="50" height="50" relative="1" as="geometry">
            <mxPoint x="1630" y="769" as="sourcePoint" />
            <mxPoint x="1630.2" y="150" as="targetPoint" />
          </mxGeometry>
        </mxCell>
        <mxCell id="FGGIich8s1z18o31se-w-19" value="" style="shape=image;verticalLabelPosition=bottom;labelBackgroundColor=default;verticalAlign=top;aspect=fixed;imageAspect=0;image=https://www.inovex.de/wp-content/uploads/Bildschirm%C2%ADfoto-2023-05-11-um-12.55.59.png;clipPath=inset(39.16% 18.33% 29.92% 21.67%);opacity=20;" vertex="1" parent="1">
          <mxGeometry x="480" y="370" width="112.47" height="48.11" as="geometry" />
        </mxCell>
        <mxCell id="FGGIich8s1z18o31se-w-20" value="" style="shape=image;verticalLabelPosition=bottom;labelBackgroundColor=default;verticalAlign=top;aspect=fixed;imageAspect=0;image=https://www.inovex.de/wp-content/uploads/Bildschirm%C2%ADfoto-2023-05-11-um-12.55.59.png;clipPath=inset(39.16% 18.33% 29.92% 21.67%);opacity=20;" vertex="1" parent="1">
          <mxGeometry x="480" y="440" width="112.47" height="48.11" as="geometry" />
        </mxCell>
        <mxCell id="FGGIich8s1z18o31se-w-21" value="" style="shape=image;verticalLabelPosition=bottom;labelBackgroundColor=default;verticalAlign=top;aspect=fixed;imageAspect=0;image=https://www.inovex.de/wp-content/uploads/Bildschirm%C2%ADfoto-2023-05-11-um-12.55.59.png;clipPath=inset(39.16% 18.33% 29.92% 21.67%);opacity=20;" vertex="1" parent="1">
          <mxGeometry x="480" y="510" width="112.47" height="48.11" as="geometry" />
        </mxCell>
      </root>
    </mxGraphModel>
  </diagram>
</mxfile>
